<?xml version="1.0" encoding="UTF-8" standalone="no"?>
<svg
   width="3225.4761"
   height="2615.2383"
   viewBox="0 0 3225.4761 2615.2383"
   version="1.1"
   xml:space="preserve"
   style="clip-rule:evenodd;fill-rule:evenodd;stroke-linejoin:round;stroke-miterlimit:2"
   id="svg5353"
   xmlns="http://www.w3.org/2000/svg"
   xmlns:svg="http://www.w3.org/2000/svg"><defs
   id="defs5353" />&#10;    <g
   id="vectorly-UNI-gear-setting"
   transform="matrix(4.9999999,0,0,4.9999999,-12324.34,-92932.913)"
   style="stroke-width:0.2"><path
     d="m 2485.995,18679.808 c -0.97,1.6 -3.12,2.2 -4.79,1.2 -1.67,-1 -2.23,-3.1 -1.26,-4.8 6.09,-12.2 19.33,-28 38.3899,-40.7 6.1,-4 12.84,-7.6 20.07,-10.6 4.6,-2 9.41,-3.7 14.4299,-4.9 11.77,-3 24.54,-4.2 37.8599,-3 16.96,1.5 34.74,6.9 52.9099,17.4 1.73,0.8 2.44,2.9 1.58,4.7 -0.86,1.7 -2.97,2.4 -4.7,1.6 -17.8099,-7.6 -34.6699,-10.2 -50.3599,-10.1 -11.8199,0.1 -22.8399,2.1 -33.2099,4.8 -11.4499,3.1 -22.0299,7.2 -31.4499,12.2 -18.3799,9.7 -32.5399,21.9 -39.4699,32.2 z"
     id="path5318"
     style="stroke:none;stroke-width:0.2" /><path
     d="m 2563.4948,18598.808 c -1.85,0.5 -3.81,-0.5 -4.35,-2.4 -0.54,-1.8 0.52,-3.8 2.38,-4.3 6.21,-2.8 16.1,-5.2 28.4899,-5.5 3.67,-0.1 7.52,0.1 11.52,0.6 2.49,0.3 5.03,0.7 7.58,1.3 5.94,1.4 11.99,3.6 18,6.5 8.1799,4 16.0399,9.2 23.7199,15.7 1.62,1.1 2.09,3.2 1.03,4.8 -1.06,1.7 -3.23,2.1 -4.85,1.1 -4.94,-2.4 -9.83,-4.2 -14.73,-5.8 -5.0999,-1.8 -10.0799,-3 -14.9799,-4.2 -3.41,-0.8 -6.76,-1.5 -10.01,-2.2 -3.44,-0.7 -6.75,-1.5 -9.97,-2.2 -4.78,-1 -9.2499,-1.9 -13.4499,-2.5 -8.49,-1.1 -15.45,-1.7 -20.38,-0.9 z"
     id="path5320"
     style="stroke:none;stroke-width:0.2" /><path
     d="m 2730.7044,18652.908 c -1.13,1.6 -3.33,1.9 -4.9,0.8 -1.57,-1.1 -1.92,-3.3 -0.79,-4.9 0,0 5.87,-11.4 18.63,-24.1 2.74,-2.7 5.86,-5.3 9.2899,-8 2.13,-1.6 4.37,-3.2 6.8,-4.6 5.65,-3.2 12,-6 18.89,-8.1 9.28,-2.7 19.3399,-4.2 30.2299,-4 1.93,-0.2 3.65,1.2 3.85,3.1 0.19,1.9 -1.21,3.6 -3.14,3.8 -6.34,1.5 -12.06,3.6 -17.61,5.9 -5.8799,2.5 -11.1699,5.4 -16.2399,8.3 -3.24,1.9 -6.3,3.8 -9.28,5.7 -3.24,2 -6.37,3.8 -9.28,5.7 -4.05,2.7 -7.7399,5.1 -10.9799,7.5 -9.8,7.3 -15.47,12.9 -15.47,12.9 z"
     id="path5322"
     style="stroke:none;stroke-width:0.2" /><path
     d="m 2752.0343,18680.608 c -1.45,1.3 -3.6699,1.2 -4.9499,-0.3 -1.28,-1.4 -1.14,-3.7 0.31,-4.9 0,0 25.6799,-25.3 70.5498,-42.5 9.74,-3.7 20.3999,-7 31.8799,-9.5 7.02,-1.5 14.34,-2.8 21.9499,-3.5 17.18,-1.8 35.76,-1.4 55.3899,1.6 24.4899,3.9 50.5399,12.2 77.8098,26.2 1.75,0.8 2.52,2.8 1.71,4.6 -0.81,1.8 -2.9,2.5 -4.65,1.7 -27.2199,-11.2 -52.8398,-16.7 -76.5598,-18.9 -18.5599,-1.7 -35.8999,-1.2 -51.9999,0.7 -7.0999,0.8 -13.9699,1.7 -20.5799,2.9 -10.86,2 -21.01,4.6 -30.3899,7.5 -43.7499,13.4 -70.4699,34.4 -70.4699,34.4 z"
     id="path5324"
     style="stroke:none;stroke-width:0.2" /><path
     d="m 2795.7652,18815.13 c -1.1254,1.56 -3.3328,1.918 -4.936,0.761 -1.4962,-1.079 -1.8538,-3.286 -0.7284,-4.847 20.8396,-30.021 51.99,-48.659 85.3726,-54.623 33.7736,-6.056 69.7928,0.994 100.1484,22.204 30.4615,21.514 49.4785,53.491 55.1053,87.589 5.7867,34.327 -1.8476,70.818 -23.7766,101.224 -22.1726,30.068 -54.3332,48.53 -88.692,53.595 -33.9226,5.136 -69.8461,-2.722 -99.5774,-24.798 -17.3271,-12.919 -30.618,-29.182 -39.6264,-47.328 -9.1903,-18.569 -13.9066,-39.062 -13.8124,-59.692 -0.052,-1.955 1.5555,-3.509 3.5086,-3.514 1.9531,0 3.4704,1.496 3.5227,3.451 0.5168,19.332 5.5918,38.427 14.8192,55.593 8.8934,16.503 21.5712,31.138 38.0013,42.598 27.5229,19.281 60.2525,25.485 91.0432,20.187 30.3469,-5.36 58.8386,-22.113 78.095,-49.264 19.4008,-26.901 25.9205,-59.143 21.1804,-89.515 -4.7853,-30.534 -20.8987,-59.328 -47.7532,-79.085 -27.0594,-20.15 -59.6009,-27.291 -90.5792,-22.858 -31.2547,4.59 -60.825,21.037 -81.3151,48.322 z"
     id="path5326"
     style="stroke:none;stroke-width:0.263542" /><path
     d="m 2841.4741,18792.008 c -1.67,1 -3.82,0.4 -4.79,-1.3 -0.98,-1.6 -0.41,-3.8 1.26,-4.8 29.59,-18.6 67.3399,-17.8 100.0498,-2 12.4,5.9 24.0199,14.1 34.1699,24.1 6.59,6.6 12.59,13.8 17.64,21.9 11.8299,18.8 19.0399,41.5 19.1499,66.6 0.13,29.1 -9.37,61.5 -32.2699,95.6 -1.03,1.6 -3.19,2.1 -4.84,1.1 -1.64,-1 -2.13,-3.2 -1.11,-4.8 19.32,-33.4 26.0799,-64.3 24.5699,-91.5 -1.24,-22.2 -8.3299,-41.9 -18.9899,-58.4 -4.53,-7.1 -9.61,-13.6 -15.26,-19.5 -8.78,-9.1 -18.7699,-16.8 -29.4799,-22.7 -28.6599,-15.8 -62.3098,-19.2 -90.0998,-4.3 z"
     id="path5328"
     style="stroke:none;stroke-width:0.2" /><path
     d="m 2749.4544,19010.908 c -1,1.7 -3.15,2.2 -4.81,1.2 -1.66,-1 -2.2,-3.1 -1.2,-4.8 10.3899,-18.6 6.2999,-38.4 -6.62,-50.4 -11.42,-10.5 -29.7399,-14.5 -50.7099,-5.8 -3.44,1.4 -7.32,-0.2 -8.82,-3.6 -5.93,-12.7 -10.3899,-25.7 -12.6999,-39 -2.36,-13.6 -2.44,-27.5 0.19,-41.8 0.72,-3.7 3.97,-6.4 7.7699,-6.4 13.79,-0.1 25.62,-2 35.37,-5.1 12.7999,-4.2 21.9199,-10.5 26.4899,-18.4 5.04,-8.7 4.15,-18.9 -2.89,-28.6 -5.64,-7.7 -14.82,-15.2 -27.7899,-21.5 -2.44,-1.1 -3.67,-3.9 -2.88,-6.5 3.64,-10.7 8.18,-21 14.5399,-30.2 6.14,-9 13.89,-17 24.06,-23.6 1.59,-1.2 3.77,-0.8 4.88,0.8 1.11,1.6 0.72,3.8 -0.87,4.9 -8.87,6.6 -15.47,14.3 -20.57,22.7 -4.55,7.5 -7.87,15.6 -10.48,24.1 36.42,17.3 45.4499,44.2 34.51,64.9 -5.67,10.6 -17.09,20.2 -34.01,26.1 -9.4299,3.3 -20.6499,5.4 -33.5299,6.1 -1.41,10.2 -1.2,20.2 0.24,30.1 1.49,10.2 4.25,20.2 8.04,30.1 24.0199,-6.4 44.1899,0.1 56.6599,13 14.8899,15.5 19.1299,39.9 5.13,61.7 z"
     id="path5330"
     style="stroke:none;stroke-width:0.2" /><path
     d="m 2746.7144,18724.308 c -1,-1.6 -0.47,-3.8 1.18,-4.8 1.66,-1 3.8099,-0.5 4.8199,1.2 9.39,13.7 21.72,21 33.85,23.1 8.9799,1.5 17.7599,-0.2 25.0399,-4.4 8.5,-4.9 14.47,-13.5 16.1,-25.2 1.3,-9.4 0.13,-20.5 -5.12,-33.4 -1.53,-3.5 0.01,-7.6 3.46,-9.2 11.8299,-4.9 24.0599,-8.4 37.0499,-9.4 11.9299,-1 24.3999,0.1 37.6699,3.8 1.88,0.4 3.08,2.3 2.65,4.2 -0.42,1.8 -2.29,3 -4.18,2.6 -12.47,-2.1 -23.94,-1.8 -34.7699,0.1 -9.26,1.7 -17.98,4.6 -26.35,8.4 5.19,13.2 6.73,25 5.41,35 -2.25,17.2 -12.18,29.6 -25.0299,36 -7.83,3.9 -16.82,5.7 -25.98,4.8 -16.9099,-1.7 -34.6299,-11.9 -45.7998,-32.8 z"
     id="path5332"
     style="stroke:none;stroke-width:0.2" /><path
     d="m 2902.484,18673.508 c 0.28,-1.9 2.07,-3.2 3.98,-2.9 1.92,0.3 3.24,2 2.96,4 -3.2,28.8 9.1199,48.7 26.6499,54 16.3399,4.9 36.2899,-3.7 50.7999,-29 1.73,-2.9 5.1099,-4.3 8.3799,-3.6 14.52,3.3 27.59,8.7 38.4699,17.4 10.47,8.4 18.91,19.7 24.86,34.5 1.22,2.9 0.46,6.2 -1.89,8.3 -14.81,12.5 -24.18,33.6 -19.91,50.2 3.75,14.6 18.02,24.7 47.1299,23.5 1.93,-0.2 3.61,1.3 3.76,3.2 0.15,1.9 -1.3,3.6 -3.22,3.8 -35.5499,3.9 -52.8898,-9.8 -58.5598,-27.3 -6.1,-18.9 1.87,-43.6 17.0699,-60.3 -5.03,-9.9 -11.5299,-17.5 -19.1099,-23.4 -7.86,-6.1 -16.93,-10.5 -26.99,-13.4 -19.7699,27.6 -45.1199,34.8 -64.6498,27.6 -20.8,-7.7 -36.0599,-32 -29.7299,-66.6 z"
     id="path5334"
     style="stroke:none;stroke-width:0.2" /><path
     d="m 3093.1635,18830.608 c -0.62,-1.8 0.36,-3.8 2.2,-4.4 1.83,-0.7 3.82,0.3 4.44,2.2 5.03,12.3 8.14,24.9 9.46,37.9 1.32,12.9 0.7,26 -1.25,39.4 -0.73,3.8 -4.3,6.4 -8.17,6 -11.67,-1.2 -21.37,0.6 -29.1799,4.1 -9.28,4.2 -15.79,10.9 -18.92,19.3 -6.19,16.6 -0.45,38 19.48,53.8 1.5699,1.1 1.9399,3.3 0.81,4.9 -1.12,1.6 -3.31,1.9 -4.89,0.8 -14.31,-9 -23.3,-21 -27.65,-33.2 -3.7,-10.3 -3.85,-21 -1.08,-30.6 3.59,-12.5 12.32,-23.3 25.64,-29.5 8.4099,-3.9 18.7599,-5.8 30.7699,-5.1 1.93,-9.8 2.93,-19.6 2.96,-29.3 0.03,-12.2 -1.31,-24.3 -4.62,-36.3 z"
     id="path5336"
     style="stroke:none;stroke-width:0.2" /><path
     d="m 3071.3736,18995.508 c 0.51,-1.9 2.4499,-3 4.3099,-2.5 1.86,0.6 2.96,2.5 2.44,4.3 -3.14,13.5 -8.7199,25.2 -16.1899,35.5 -7.58,10.4 -17.19,19.3 -28.2,27.2 -1.57,1 -3.5199,1.3 -5.3299,0.8 -1.81,-0.5 -3.3,-1.8 -4.07,-3.5 -5.84,-12.1 -14.83,-20.8 -24.59,-26 -10.7899,-5.7 -22.6199,-6.8 -32.3199,-2.5 -8.87,4 -15.65,12.5 -18.2699,26.1 -1.93,10.1 -1.83,22.6 1.31,37.8 0.7,3 -0.85,6.1 -3.67,7.2 -12.51,4.8 -25.17,7.9 -38.0499,9.1 -12.74,1.2 -25.64,0.7 -38.7599,-1.8 -1.91,-0.3 -3.23,-2.1 -2.95,-4 0.28,-1.9 2.07,-3.2 3.9799,-2.9 12.47,1.3 24.58,0.9 36.44,-1.1 10.0699,-1.7 19.9099,-4.6 29.5599,-8.7 -5.6,-24.6 -3.36,-43.1 3,-55.9 4.9,-9.8 12.3199,-16.5 20.8599,-20.4 8.72,-3.9 18.76,-4.9 28.75,-2.8 16.4899,3.5 33.0799,15.1 43.2098,33.9 7.96,-5.5 15.09,-11.7 21.15,-18.8 7.53,-8.8 13.51,-19 17.39,-31 z"
     id="path5338"
     style="stroke:none;stroke-width:0.2" /><path
     d="m 2872.344,19096.008 c -0.18,2 -1.8799,3.4 -3.8099,3.2 -1.93,-0.2 -3.35,-1.9 -3.17,-3.8 1.03,-27.9 -11.87,-42.4 -28.43,-44.7 -8.6699,-1.2 -18.0399,1.2 -26.7099,6.4 -7.68,4.6 -14.91,11.4 -20.17,20.7 -1.7499,3.3 -5.6399,4.7 -9.0999,3.4 -12.96,-5.6 -24.68,-12 -34.6099,-20.1 -10.62,-8.6 -19.25,-18.7 -25.49,-30.9 -0.98,-1.6 -0.42,-3.8 1.25,-4.8 1.66,-0.9 3.81,-0.4 4.8,1.3 6.86,10.3 15.76,18.4 26.1299,25.2 8.16,5.4 17.25,9.8 27.15,13.5 5.95,-9.6 13.5099,-17.1 21.8799,-22 12.05,-7.1 25.57,-9.3 37.4199,-6.7 7.82,1.7 15.03,5.3 20.73,11.1 9.67,9.9 15.5199,25.8 12.1299,48.2 z"
     id="path5340"
     style="stroke:none;stroke-width:0.2" /><path
     d="m 2619.9879,18733.064 c -1.7178,-0.911 -2.3816,-3.123 -1.4966,-4.815 0.898,-1.692 3.0063,-2.342 4.7242,-1.431 9.8517,4.555 18.1678,11.843 24.1673,20.822 5.9345,8.98 9.3963,19.652 9.8128,31.104 0.5335,16.919 -6.0126,32.536 -16.8795,43.988 -11.062,11.583 -26.7051,18.611 -43.962,19.001 -17.3219,-0.13 -33.0951,-7.158 -44.2743,-18.74 -11.0621,-11.453 -17.7123,-27.07 -17.2959,-44.249 0.5596,-16.788 7.6524,-31.884 19.0658,-42.556 11.1142,-10.281 26.1196,-16.528 42.5044,-16.008 1.9261,0 3.5009,1.692 3.5009,3.514 0,1.952 -1.5748,3.514 -3.5009,3.514 -14.0032,0.521 -26.3928,6.767 -35.2554,16.268 -8.5764,9.24 -13.6129,21.734 -13.1574,35.268 0.3123,13.275 6.1167,24.988 14.9273,33.447 8.6805,8.459 20.4583,13.665 33.4855,13.535 13.0793,0.26 25.0003,-4.816 33.7849,-13.145 8.9928,-8.589 14.9273,-20.432 15.3438,-33.837 0.3383,-9.5 -1.9131,-18.35 -6.2208,-26.158 -4.542,-8.069 -11.1532,-14.967 -19.2741,-19.522 z"
     id="path5342"
     style="stroke:none;stroke-width:0.260284" /><path
     d="m 2626.1647,18751.208 c 1.46,1.3 1.62,3.5 0.35,5 -1.27,1.4 -3.48,1.6 -4.94,0.3 -5.65,-3.7 -12.41,-5.2 -19.66,-5.6 -3.33,-0.2 -6.69,0.1 -10.16,0.4 -3.3,0.4 -6.6099,1.1 -9.9799,1.8 -3.94,0.9 -7.92,1.9 -11.83,3.4 -2.59,0.9 -5.17,1.9 -7.69,3.2 -6.27,3.2 -12.24,7.1 -17.4199,12.6 -1.15,1.5 -3.34,1.9 -4.9,0.7 -1.56,-1.1 -1.89,-3.3 -0.75,-4.9 3.56,-6.3 7.96,-11.7 12.9999,-16.4 3.58,-3.3 7.48,-6.1 11.6,-8.4 4.59,-2.6 9.46,-4.5 14.4,-5.8 2.73,-0.6 5.51,-1 8.25,-1.2 4.2699,-0.2 8.4799,-0.1 12.5199,0.6 10.9,2 20.45,6.8 27.21,14.3 z"
     id="path5344"
     style="stroke:none;stroke-width:0.2" /><path
     d="m 2701.7345,18716.608 c 1.61,-1.1 3.79,-0.6 4.86,1 1.07,1.6 0.64,3.8 -0.97,4.8 -16.83,12.2 -24.64,30.4 -21.85,46.6 2.54,14.8 14.5,27.3 36.5799,31.3 3.23,0.7 5.64,3.4 5.91,6.7 0.82,8.3 0.21,16.2 -1.89,23.6 -2.11,7.5 -5.8,14.6 -11.05,21.2 -2.58,3.2 -7.1799,3.9 -10.6199,1.7 -6.44,-4.4 -13.28,-7.2 -20.03,-8.6 -11.07,-2.3 -21.9099,-0.8 -30.1899,4.9 -12.22,8.5 -18.52,25.4 -13.25,50.4 0.43,1.7 -0.12,3.6 -1.43,4.8 -6.04,5.3 -12.4999,9.3 -19.5399,11.4 -6.94,2.1 -14.38,2.6 -22.43,1.1 -1.91,-0.3 -3.24,-2.1 -2.95,-4 0.28,-1.9 2.06,-3.2 3.98,-3 6.79,0.8 12.96,-0.1 18.61,-2.3 4.8,-1.8 9.18,-4.7 13.2499,-8.4 -7.3499,-29.5 1.1,-50.1 15.5,-61.3 11.02,-8.5 25.9799,-11.6 41.3999,-8.9 6.41,1.1 12.89,3.4 19.19,6.6 1.95,-3.2 3.45,-6.5 4.5199,-10 1.26,-4.1 1.95,-8.4 2.08,-12.8 -24.7299,-7.9 -37.2199,-24.6 -39.0999,-42.8 -2.02,-19.6 8.26,-41.1 29.42,-54 z"
     id="path5346"
     style="stroke:none;stroke-width:0.2" /><path
     d="m 2596.3847,18906.408 c 0.16,1.9 -1.28,3.6 -3.21,3.7 -1.92,0.2 -3.62,-1.2 -3.78,-3.2 -1.9599,-12 -6.6299,-21.5 -12.7199,-28.5 -4.43,-5.1 -9.81,-8.5 -15.66,-10.4 -5.66,-1.8 -11.78,-1.9 -18.1499,-0.5 -8.54,1.9 -17.57,6.3 -26.12,14.4 -1.51,1.6 -3.71,2.3 -5.86,1.9 -8.4799,-2.2 -15.1899,-5.9 -20.4799,-11.1 -5.12,-5.1 -9.02,-11.4 -12.07,-18.6 -0.89,-1.7 -0.22,-3.8 1.49,-4.7 1.72,-0.9 3.84,-0.2 4.73,1.5 3.5,5.7 7.54,10.4 12.47,14 3.6,2.7 7.75,4.5 12.6099,5.5 9.38,-9.8 19.57,-15.9 29.6,-18.4 9.4499,-2.3 18.7899,-1.5 26.9899,1.9 8.03,3.3 15.17,9 20.4,17 5.9999,9.1 9.7199,21.1 9.7599,35.5 z"
     id="path5348"
     style="stroke:none;stroke-width:0.2" /><path
     d="m 2482.685,18848.208 c -1.81,0.7 -3.84,-0.2 -4.52,-2 -0.69,-1.8 0.23,-3.9 2.04,-4.5 23.33,-9.5 31.3099,-26 28.3299,-41.7 -3.0699,-16.1 -17.5999,-30.8 -37.4899,-34.9 -2.49,-0.6 -4.3999,-2.6 -4.8799,-5.1 -2.24,-10.6 -1.51,-20.3 1.6599,-29 3.17,-8.8 8.92,-16.6 16.95,-23.6 2.66,-2.3 6.54,-2.3 9.28,-0.1 18.0699,14 35.9299,15.3 46.2899,5.7 4.27,-4 7.02,-9.7 7.9399,-16.9 1.15,-8.8 -0.4399,-19.6 -5.5399,-31.9 -1.41,-3.3 -0.32,-7.2 2.6,-9.3 8.5299,-5.9 17.5999,-9.7 27.2999,-10.9 9.06,-1.1 18.6799,-0.1 28.8899,3.4 2.82,1 4.73,3.6 4.76,6.6 -0.22,21.7 8.3,38.3 20.87,44.8 12.9799,6.7 29.3999,2 43.5198,-17.4 1.15,-1.7 3.26,-2.4 5.17,-1.7 7.26,2.6 13.77,6.5 19.15,12.3 4.66,4.9 8.52,11.2 11.25,19.3 0.66,1.8 -0.28,3.9 -2.09,4.5 -1.82,0.7 -3.84,-0.2 -4.5,-2.1 -2.68,-6.8 -6.21,-12 -10.4,-16.1 -3.84,-3.7 -8.25,-6.3 -13.09,-8.2 -16.7799,23.4 -37.6999,27.6 -54.1598,19.9 -15.2,-7.1 -27.2,-25.1 -29.33,-49.9 -6.3299,-1.4 -12.3199,-1.7 -17.9999,-0.8 -5.42,0.8 -10.53,2.7 -15.4,5.6 9.99,27.6 4.33,49.1 -8.18,60.5 -13.8999,12.7 -37.4799,14.4 -61.1898,-2.2 -4.07,4.1 -7.18,8.5 -9.16,13.4 -2.18,5.4 -3.04,11.4 -2.44,17.9 22.21,7.3 37.5199,25.5 40.2099,44.6 2.72,19.2 -6.84,39.7 -35.8399,49.8 z"
     id="path5350"
     style="stroke:none;stroke-width:0.2" /></g>&#10;</svg>
