<?xml version="1.0" encoding="UTF-8" standalone="no"?>
<svg
   width="3417.9702"
   height="2895.4717"
   viewBox="0 0 3417.9702 2895.4717"
   version="1.1"
   xml:space="preserve"
   style="clip-rule:evenodd;fill-rule:evenodd;stroke-linejoin:round;stroke-miterlimit:2"
   id="svg5353"
   xmlns="http://www.w3.org/2000/svg"
   xmlns:svg="http://www.w3.org/2000/svg"><defs
   id="defs5353" />&#10;    <g
   id="vectorly-UNI-shield-protect"
   transform="matrix(4.9999999,0,0,4.9999999,-12118.953,-88779.175)"
   style="stroke-width:0.2"><path
     d="m 2442.5551,17818.109 c 0.86,-1.7 2.97,-2.4 4.7,-1.5 1.73,0.8 2.43,2.9 1.57,4.7 0,0 -4.71,13.9 -7.27,36.8 -0.82,7.5 -1.29,15.8 -1.72,25 -0.38,7.7 -0.85,16.1 -0.71,25 0.17,11.8 0.79,24.4 3.15,38 0.49,1.8 -0.63,3.8 -2.5,4.3 -1.87,0.4 -3.79,-0.7 -4.28,-2.5 -4.86,-13.6 -8.21,-26.5 -9.9899,-38.7 -1.39,-9.5 -1.91,-18.5 -1.65,-26.8 0.12,-3.8 0.5,-7.3 0.95,-10.8 0.75,-5.7 1.74,-11 2.9599,-15.9 6.02,-24.1 14.79,-37.6 14.79,-37.6 z"
     id="path5084"
     style="stroke:none;stroke-width:0.2" /><path
     d="m 2572.7548,17756.009 c 1.83,-0.6 3.82,0.4 4.43,2.3 0.61,1.8 -0.38,3.8 -2.22,4.4 -20.43,7.6 -36.6099,30.2 -48.0299,60 -4.56,11.9 -8.29,24.9 -11.24,38.6 -2.74,12.8 -4.66,26.3 -5.98,40 -2.0399,21.2 -2.4099,43.1 -0.31,64.6 3.26,33.4 11.9,65.6 28.35,92.2 1.07,1.6 0.64,3.8 -0.97,4.8 -1.61,1.1 -3.79,0.7 -4.86,-0.9 -19.05,-26.6 -30.8899,-59.7 -36.0799,-94.4 -3.35,-22.4 -4,-45.5 -2.05,-67.8 0.8,-9.2 2.15,-18.2 3.85,-26.9 2.68,-13.9 6.29,-27.2 10.7899,-39.4 14.62,-40 37.68,-69.6 64.3199,-77.5 z"
     id="path5086"
     style="stroke:none;stroke-width:0.2" /><path
     d="m 3038.7136,18143.909 c -0.05,-1.9 1.48,-3.6 3.42,-3.6 1.93,-0.1 3.54,1.5 3.59,3.4 0.83,10.7 -2.68,36.5 -14.1299,67.6 -3.02,8.2 -6.66,16.7 -10.92,25.3 -2.65,5.4 -5.52,10.8 -8.76,16.2 -7.6,12.6 -16.73,25.2 -27.2899,37.1 -14.64,16.5 -32.12,31.6 -52.3299,44.4 -1.58,1.1 -3.77,0.7 -4.88,-0.9 -1.11,-1.6 -0.73,-3.8 0.86,-4.9 18.09,-14 32.9699,-30.4 45.7899,-47.3 9.16,-12.1 17.05,-24.4 24.0899,-36.5 3.01,-5.2 5.94,-10.2 8.66,-15.3 4.4,-8 8.33,-15.9 11.84,-23.5 13.16,-28.3 19.7999,-51.9 20.0599,-62 z"
     id="path5088"
     style="stroke:none;stroke-width:0.2" /><path
     d="m 3099.3735,18199.609 c -0.07,-2 1.45,-3.6 3.38,-3.7 1.93,0 3.56,1.5 3.63,3.4 0.88,6.8 1.65,21.2 0.16,38.4 -0.42,4.9 -1.12,10 -2.04,15.2 -0.59,3.3 -1.26,6.7 -2.16,10 -2.26,8.3 -5.31,16.6 -8.98,24.3 -6.09,12.7 -13.83,23.8 -22.9999,31.6 -1.35,1.4 -3.58,1.4 -4.96,0.1 -1.38,-1.4 -1.4,-3.6 -0.05,-5 6.8899,-8.4 11.4699,-19.6 15.3099,-31.8 2,-6.3 3.61,-12.9 5.25,-19.4 1.11,-4.4 2.25,-8.8 3.33,-13.1 1.75,-6.9 3.4,-13.6 4.78,-19.8 2.99,-13.5 5,-24.5 5.35,-30.2 z"
     id="path5090"
     style="stroke:none;stroke-width:0.2" /><path
     d="m 3034.4329,18009.217 c -0.8307,-1.749 -0.029,-3.908 1.7061,-4.703 1.726,-0.802 3.8264,-0.06 4.6476,1.678 5.7074,11.067 8.1616,23.431 7.1406,35.827 -0.9362,12.152 -5.3765,24.158 -13.2294,34.692 -11.4108,15.162 -27.9842,24.196 -45.392,26.506 -17.702,2.386 -36.2678,-2.285 -51.5671,-13.992 -15.0344,-12.117 -23.8534,-29.234 -25.6762,-47.001 -1.7276,-17.69 3.3414,-36.033 15.5511,-50.714 12.1629,-14.408 28.8049,-22.611 46.1677,-24.024 16.983,-1.405 34.5335,3.546 48.523,15.454 1.5129,1.204 1.7562,3.417 0.6205,4.845 -1.2113,1.522 -3.4229,1.782 -4.9359,0.579 -12.8815,-9.473 -28.3201,-12.899 -43.0033,-10.752 -14.3224,2.123 -27.7666,9.607 -37.0956,22.074 -9.2065,12.098 -12.4433,26.771 -10.659,40.777 1.7554,13.828 8.5985,27.042 20.4255,36.297 11.6379,9.571 26.0807,13.448 39.9593,12.215 14.2579,-1.398 27.999,-7.868 37.8617,-19.6 7.1654,-8.439 11.4406,-18.246 13.0085,-28.497 1.5857,-10.704 0.2652,-21.699 -4.0531,-31.661 z"
     id="path5092"
     style="stroke:none;stroke-width:0.243192" /><path
     d="m 3043.3036,18024.609 c -1.85,0.6 -3.82,-0.4 -4.41,-2.3 -0.59,-1.8 0.42,-3.8 2.26,-4.4 0,0 2.21,-2.7 6.62,-5.8 1.45,-1 3.01,-2 4.83,-2.6 1.84,-0.5 3.7,-0.5 5.48,-0.5 5.29,-0.1 8.7,0.7 8.7,0.7 1.85,-0.6 3.82,0.4 4.41,2.2 0.59,1.9 -0.42,3.9 -2.26,4.5 0,0 -2.35,2.5 -6.68,5.6 -1.45,1 -2.94,2.1 -4.77,2.7 -1.8,0.7 -3.66,0.7 -5.43,0.7 -5.37,0.1 -8.75,-0.8 -8.75,-0.8 z"
     id="path5094"
     style="stroke:none;stroke-width:0.2" /><ellipse
     cx="17992.777"
     cy="3186.4683"
     rx="14.343975"
     ry="9.0539818"
     id="ellipse5096"
     transform="matrix(0.33734056,0.94138268,-0.94138229,0.33734163,0,0)"
     style="stroke:none;stroke-width:0.2" /><ellipse
     cx="14984.601"
     cy="-10587.378"
     rx="18.609468"
     ry="11.746373"
     id="ellipse5098"
     transform="matrix(-0.43259128,0.90159014,-0.90158926,-0.43259311,0,0)"
     style="stroke:none;stroke-width:0.259474" /><ellipse
     cx="-10730.4"
     cy="-14881.295"
     rx="18.609449"
     ry="11.746373"
     id="ellipse5100"
     transform="matrix(-0.89408338,-0.44790055,0.44789877,-0.89408428,0,0)"
     style="stroke:none;stroke-width:0.259474" /><ellipse
     cx="-2657.0955"
     cy="-18199.521"
     rx="13.335198"
     ry="8.4172726"
     id="ellipse5102"
     transform="rotate(178.94185)"
     style="stroke:none;stroke-width:0.185935" /><ellipse
     cx="-18235.955"
     cy="-1320.4805"
     rx="13.33524"
     ry="8.4172363"
     id="ellipse5104"
     transform="matrix(-0.22885668,-0.97346013,0.97345966,-0.22885869,0,0)"
     style="stroke:none;stroke-width:0.185934" /><ellipse
     cx="-11441.55"
     cy="14145.246"
     rx="16.830462"
     ry="10.623487"
     id="ellipse5106"
     transform="rotate(-48.129791)"
     style="stroke:none;stroke-width:0.23467" /><ellipse
     cx="8995.042"
     cy="15804.822"
     rx="13.986643"
     ry="8.8284245"
     id="ellipse5108"
     transform="rotate(20.069086)"
     style="stroke:none;stroke-width:0.195017" /><ellipse
     cx="8963.2646"
     cy="15893.189"
     rx="6.6404624"
     ry="6.6401219"
     id="ellipse5110"
     transform="rotate(20.06907)"
     style="stroke:none;stroke-width:0.116536" /><ellipse
     cx="8959.4199"
     cy="15920.147"
     rx="8.9758186"
     ry="8.9754028"
     id="ellipse5112"
     transform="rotate(20.06909)"
     style="stroke:none;stroke-width:0.157521" /><ellipse
     cx="8984.4746"
     cy="15952.176"
     rx="8.9758186"
     ry="8.9754028"
     id="ellipse5114"
     transform="rotate(20.06909)"
     style="stroke:none;stroke-width:0.157521" /><ellipse
     cx="9006.291"
     cy="15929.946"
     rx="14.305152"
     ry="14.304502"
     id="ellipse5116"
     transform="rotate(20.06907)"
     style="stroke:none;stroke-width:0.251048" /><ellipse
     cx="9012.0322"
     cy="15888.955"
     rx="16.056303"
     ry="16.055592"
     id="ellipse5118"
     transform="matrix(0.93927944,0.34315323,-0.34315104,0.93928024,0,0)"
     style="stroke:none;stroke-width:0.28178" /><path
     d="m 3029.5137,18074.909 c -1.73,-0.9 -2.42,-3 -1.54,-4.8 0.87,-1.7 2.98,-2.4 4.7099,-1.5 0,0 4.25,0.1 10.33,1.3 1.28,0.3 2.53,0.6 3.85,1.1 0.82,0.3 1.66,0.6 2.42,1 2,1.2 3.7,2.6 5.3,4 4.6,4 7.24,7.4 7.24,7.4 1.72,0.9 2.41,3 1.53,4.7 -0.87,1.7 -2.98,2.4 -4.71,1.6 0,0 -4.27,-0.2 -10.24,-1.5 -2.09,-0.5 -4.25,-1 -6.36,-1.9 -0.8,-0.4 -1.53,-0.9 -2.24,-1.4 -1.15,-0.8 -2.17,-1.6 -3.14,-2.5 -4.57,-4.2 -7.1499,-7.5 -7.1499,-7.5 z"
     id="path5120"
     style="stroke:none;stroke-width:0.2" /><path
     d="m 2988.7138,18095.509 c 0,-1.9 1.57,-3.5 3.5099,-3.5 1.93,0 3.5,1.6 3.5,3.5 0,0 1.91,6.7 3.49,15.9 0.35,2.1 0.6,4.2 0.79,6.4 0.11,1.4 0.23,2.8 0.18,4.2 -0.12,3.7 -0.63,7.3 -1.17,10.6 -1.47,9.2 -3.34,15.9 -3.34,15.9 0,2 -1.58,3.5 -3.51,3.5 -1.9399,0 -3.4999,-1.6 -3.4999,-3.5 0,0 -1.86,-6.7 -3.31,-15.9 -0.53,-3.3 -1.04,-6.9 -1.16,-10.6 -0.04,-1.4 0.08,-2.8 0.2,-4.2 0.19,-2.2 0.45,-4.3 0.8,-6.4 1.6,-9.2 3.52,-15.9 3.52,-15.9 z"
     id="path5122"
     style="stroke:none;stroke-width:0.2" /><path
     d="m 2938.5439,18080.609 c 0.85,-1.7 2.95,-2.5 4.69,-1.6 1.74,0.8 2.46,2.9 1.61,4.7 0,0 0.2,3.7 -0.62,9.2 -0.17,1.2 -0.42,2.3 -0.79,3.4 -0.22,0.8 -0.45,1.5 -0.83,2.2 -0.99,1.7 -2.28,3.2 -3.55,4.6 -3.73,4.1 -6.75,6.2 -6.75,6.2 -0.85,1.8 -2.95,2.5 -4.69,1.6 -1.73,-0.8 -2.46,-2.9 -1.61,-4.6 0,0 -0.15,-3.8 0.78,-9.2 0.31,-1.9 0.67,-3.8 1.46,-5.6 0.29,-0.8 0.74,-1.4 1.17,-2 0.71,-1 1.42,-1.9 2.22,-2.7 3.87,-4.1 6.91,-6.2 6.91,-6.2 z"
     id="path5124"
     style="stroke:none;stroke-width:0.2" /><path
     d="m 2919.3078,18041.584 c 1.8831,-0.528 3.793,0.669 4.2578,2.571 0.4869,1.798 -0.647,3.701 -2.5168,4.229 0,0 -2.6641,2.51 -7.3902,5.459 -0.9896,0.674 -1.9753,1.145 -3.1084,1.625 -0.6957,0.35 -1.4096,0.599 -2.155,0.749 -1.995,0.434 -3.9199,0.355 -5.7912,0.273 -5.5021,-0.152 -9.0902,-1.038 -9.0902,-1.038 -1.8745,0.427 -3.7797,-0.67 -4.2579,-2.57 -0.4781,-1.901 0.6558,-3.804 2.5168,-4.229 0,0 2.7177,-2.514 7.4485,-5.362 1.5964,-0.917 3.2818,-1.94 5.2138,-2.574 0.7406,-0.251 1.5041,-0.301 2.2542,-0.349 1.219,-0.08 2.3441,-0.152 3.4921,-0.02 5.5738,0.249 9.1265,1.239 9.1265,1.239 z"
     id="path5126"
     style="stroke:none;stroke-width:0.233376" /><path
     d="m 2935.6239,17992.109 c 1.48,1.3 1.67,3.5 0.42,5 -1.24,1.5 -3.46,1.7 -4.94,0.4 0,0 -5.75,-2.3 -13.12,-6.5 -1.62,-0.9 -3.22,-1.9 -4.86,-3 -1.03,-0.7 -2.08,-1.4 -3.0199,-2.3 -2.44,-2.2 -4.55,-4.6 -6.5,-7 -5.37,-6.4 -8.72,-11.7 -8.72,-11.7 -1.48,-1.2 -1.67,-3.4 -0.43,-4.9 1.25,-1.5 3.46,-1.7 4.94,-0.4 0,0 5.74,2.4 13.0099,6.6 2.63,1.5 5.41,3.1 7.99,5.2 1.01,0.8 1.9,1.7 2.78,2.6 1.39,1.4 2.66,2.8 3.83,4.2 5.32,6.6 8.62,11.8 8.62,11.8 z"
     id="path5128"
     style="stroke:none;stroke-width:0.2" /><path
     d="m 3009.3237,17978.509 c -0.74,1.8 -2.8,2.7 -4.58,1.9 -1.79,-0.7 -2.63,-2.8 -1.88,-4.6 0,0 0.54,-6.2 2.27,-14.5 0.38,-1.8 0.88,-3.6 1.47,-5.5 0.37,-1.2 0.76,-2.5 1.29,-3.6 1.38,-3 3.09,-5.8 4.74,-8.3 4.56,-7.1 8.57,-11.9 8.57,-11.9 0.75,-1.8 2.81,-2.6 4.59,-1.9 1.78,0.8 2.63,2.8 1.88,4.6 0,0 -0.59,6.2 -2.44,14.4 -0.66,3 -1.43,6.2 -2.59,9.3 -0.45,1.2 -1.05,2.3 -1.65,3.4 -0.94,1.7 -1.9,3.4 -2.93,4.9 -4.69,7.1 -8.74,11.8 -8.74,11.8 z"
     id="path5130"
     style="stroke:none;stroke-width:0.2" /><path
     d="m 2662.0251,18169.152 c -0.851,-1.727 -0.1021,-3.826 1.652,-4.685 1.7541,-0.859 3.816,-0.06 4.667,1.664 3.0651,5.35 4.6391,11.475 4.8856,17.667 0.2376,6.186 -1.1941,12.479 -4.0271,18.454 -4.9485,10.176 -13.7728,17.296 -23.7945,20.67 -10.2364,3.37 -21.8182,2.455 -32.2173,-2.834 -10.2361,-5.77 -17.3723,-15.083 -20.1338,-25.635 -2.731,-10.42 -1.4646,-21.831 4.5393,-31.766 5.9505,-9.509 15.0101,-16.042 25.2139,-18.402 9.7565,-2.149 20.3824,-0.848 29.554,4.905 1.6893,0.934 2.2897,3.093 1.3708,4.756 -0.9189,1.663 -3.0669,2.305 -4.7562,1.371 -7.6116,-3.634 -15.9356,-3.664 -23.3492,-1.019 -6.975,2.43 -12.9258,7.596 -16.4184,14.806 -3.4129,6.797 -3.4801,14.301 -1.3597,21.071 2.0462,6.614 6.4597,12.48 13.0289,15.996 6.4457,3.904 13.848,4.795 20.6287,3.172 7.1183,-1.779 13.7068,-5.908 17.8379,-12.537 2.6323,-4.144 4.2139,-8.639 4.6258,-13.21 0.4829,-4.989 -0.1297,-9.897 -1.9477,-14.444 z"
     id="path5132"
     style="stroke:none;stroke-width:0.2" /><path
     d="m 2635.8546,18148.109 c -0.09,1.9 -1.73,3.4 -3.66,3.3 -1.93,-0.1 -3.43,-1.7 -3.34,-3.7 0,0 -1.6599,-3.9 -3.0499,-9.9 -0.29,-1.2 -0.49,-2.5 -0.61,-3.9 -0.08,-0.9 -0.16,-1.7 -0.08,-2.6 0.23,-2.3 0.84,-4.4 1.47,-6.5 1.8,-5.8 3.7699,-9.6 3.7699,-9.6 0.09,-1.9 1.73,-3.4 3.66,-3.3 1.94,0.1 3.43,1.7 3.34,3.7 0,0 1.62,3.9 2.87,9.9 0.44,2 0.85,4.2 0.87,6.5 0,0.9 -0.16,1.8 -0.31,2.6 -0.26,1.4 -0.57,2.6 -0.98,3.9 -1.94,5.8 -3.95,9.6 -3.95,9.6 z"
     id="path5134"
     style="stroke:none;stroke-width:0.2" /><path
     d="m 2611.2047,18155.609 c 1.52,1.2 1.77,3.4 0.56,4.9 -1.2,1.5 -3.41,1.7 -4.92,0.5 0,0 -6.39,-2.6 -14.51,-7 -1.8,-1 -3.6,-2.1 -5.4299,-3.4 -1.16,-0.7 -2.33,-1.5 -3.41,-2.4 -2.77,-2.4 -5.22,-5 -7.49,-7.5 -6.21,-6.8 -10.26,-12.4 -10.26,-12.4 -1.51,-1.2 -1.76,-3.4 -0.55,-4.9 1.2,-1.5 3.41,-1.8 4.92,-0.6 0,0 6.37,2.7 14.4,7.2 2.93,1.7 6.0299,3.5 8.9499,5.7 1.13,0.8 2.15,1.8 3.16,2.7 1.6,1.6 3.08,3.1 4.44,4.6 6.15,6.9 10.14,12.6 10.14,12.6 z"
     id="path5136"
     style="stroke:none;stroke-width:0.2" /><path
     d="m 2600.4347,18171.809 c 1.91,0.3 3.21,2.1 2.91,4 -0.31,1.9 -2.12,3.2 -4.03,2.9 0,0 -3.64,1.2 -9.35,2 -1.19,0.2 -2.3699,0.2 -3.6499,0.2 -0.79,0 -1.59,0 -2.38,-0.2 -2.05,-0.4 -3.9,-1.2 -5.67,-2.1 -5.16,-2.4 -8.27,-4.7 -8.27,-4.7 -1.91,-0.3 -3.21,-2.1 -2.9,-4 0.31,-1.9 2.11,-3.2 4.02,-2.9 0,0 3.68,-1.2 9.33,-1.8 1.94,-0.3 3.95,-0.5 6.05,-0.2 0.8,0 1.56,0.3 2.3199,0.5 1.22,0.4 2.31,0.9 3.39,1.4 5.17,2.5 8.23,4.9 8.23,4.9 z"
     id="path5138"
     style="stroke:none;stroke-width:0.2" /><path
     d="m 2599.7047,18190.709 c 1.79,-0.7 3.83,0.2 4.55,2 0.71,1.8 -0.16,3.8 -1.96,4.6 0,0 -1.82,2.7 -5.82,6 -1.3,1.1 -2.69,2.2 -4.38,2.8 -1.72,0.7 -3.48,0.7 -5.1799,0.8 -5.09,0.4 -8.34,-0.2 -8.34,-0.2 -1.8,0.7 -3.84,-0.2 -4.55,-2 -0.72,-1.8 0.16,-3.8 1.96,-4.5 0,0 1.97,-2.7 5.89,-5.9 1.3,-1.1 2.61,-2.3 4.31,-3 1.67,-0.7 3.4399,-0.9 5.1099,-1 5.17,-0.3 8.41,0.4 8.41,0.4 z"
     id="path5140"
     style="stroke:none;stroke-width:0.2" /><path
     d="m 2609.1747,18207.209 c 1.28,-1.4 3.49,-1.6 4.95,-0.3 1.45,1.3 1.59,3.5 0.31,4.9 0,0 -2.03,5.2 -5.76,11.9 -0.82,1.4 -1.73,2.9 -2.76,4.3 -0.65,0.9 -1.31,1.9 -2.09,2.7 -2.04,2.1 -4.31,3.9 -6.47,5.6 -6.04,4.6 -10.8899,7.3 -10.8899,7.3 -1.28,1.5 -3.49,1.6 -4.95,0.3 -1.45,-1.3 -1.59,-3.5 -0.31,-4.9 0,0 2.08,-5.2 5.89,-11.7 1.3699,-2.4 2.8699,-4.9 4.7299,-7.2 0.71,-0.9 1.55,-1.6 2.38,-2.4 1.31,-1.2 2.61,-2.3 3.95,-3.3 6.15,-4.5 11.02,-7.2 11.02,-7.2 z"
     id="path5142"
     style="stroke:none;stroke-width:0.2" /><path
     d="m 2630.3146,18217.309 c 0.05,-1.9 1.66,-3.4 3.6,-3.4 1.93,0.1 3.46,1.7 3.4,3.6 0,0 1.73,6.7 3.07,15.9 0.29,2.1 0.49,4.2 0.62,6.4 0.08,1.4 0.16,2.8 0.07,4.2 -0.22,3.6 -0.83,7.2 -1.45,10.5 -1.72,9.1 -3.77,15.7 -3.77,15.7 -0.05,2 -1.66,3.5 -3.6,3.5 -1.93,-0.1 -3.46,-1.7 -3.41,-3.7 0,0 -1.6699,-6.7 -2.8799,-15.9 -0.44,-3.3 -0.86,-6.9 -0.87,-10.5 -0.01,-1.5 0.15,-2.9 0.31,-4.3 0.25,-2.1 0.56,-4.2 0.97,-6.3 1.84,-9.1 3.9399,-15.7 3.9399,-15.7 z"
     id="path5144"
     style="stroke:none;stroke-width:0.2" /><path
     d="m 2666.0146,18197.409 c -1.9,-0.4 -3.11,-2.2 -2.72,-4.1 0.4,-1.9 2.26,-3.1 4.15,-2.7 0,0 6.9699,-0.5 16.3299,-0.2 2.07,0.1 4.2,0.3 6.41,0.5 1.39,0.2 2.81,0.4 4.2,0.7 3.57,0.9 6.98,2.1 10.16,3.3 8.7099,3.4 14.9299,6.6 14.9299,6.6 1.89,0.4 3.1,2.2 2.71,4.1 -0.4,1.9 -2.26,3.1 -4.15,2.7 0,0 -6.98,0.5 -16.2899,0 -3.4,-0.2 -7.02,-0.4 -10.65,-1 -1.4,-0.3 -2.77,-0.7 -4.12,-1.1 -2.13,-0.6 -4.15,-1.3 -6.08,-2.1 -8.7,-3.4 -14.8799,-6.7 -14.8799,-6.7 z"
     id="path5146"
     style="stroke:none;stroke-width:0.2" /><ellipse
     cx="2633.8208"
     cy="18113.996"
     rx="10.557715"
     ry="6.9669971"
     id="ellipse5148"
     style="stroke:none;stroke-width:0.22698" /><ellipse
     cx="-12317.674"
     cy="13541.362"
     rx="10.55774"
     ry="6.9669871"
     id="ellipse5150"
     transform="matrix(0.63807724,-0.76997236,0.76997075,0.63807918,0,0)"
     style="stroke:none;stroke-width:0.22698" /><ellipse
     cx="-16894.092"
     cy="7161.5469"
     rx="10.557738"
     ry="6.9669819"
     id="ellipse5152"
     transform="rotate(-75.077153)"
     style="stroke:none;stroke-width:0.22698" /><ellipse
     cx="-17769.188"
     cy="-4720.1689"
     rx="10.55775"
     ry="6.9669914"
     id="ellipse5154"
     transform="matrix(-0.38951961,-0.92101817,0.92101763,-0.38952089,0,0)"
     style="stroke:none;stroke-width:0.22698" /><ellipse
     cx="-15289.17"
     cy="-10278.554"
     rx="14.387453"
     ry="9.4942083"
     id="ellipse5156"
     transform="rotate(-131.98116)"
     style="stroke:none;stroke-width:0.309314" /><ellipse
     cx="-3458.0513"
     cy="-18132.432"
     rx="12.187894"
     ry="8.0427408"
     id="ellipse5158"
     transform="rotate(-177.40259)"
     style="stroke:none;stroke-width:0.262026" /><ellipse
     cx="17218.139"
     cy="-6512.9102"
     rx="12.187897"
     ry="8.0427322"
     id="ellipse5160"
     transform="matrix(-0.21154163,0.97736899,-0.97736872,-0.21154287,0,0)"
     style="stroke:none;stroke-width:0.262026" /><ellipse
     cx="17192.486"
     cy="-6419.3564"
     rx="6.9580874"
     ry="6.9576349"
     id="ellipse5162"
     transform="rotate(102.21275)"
     style="stroke:none;stroke-width:0.184143" /><ellipse
     cx="17209.383"
     cy="-6405.9058"
     rx="7.7715774"
     ry="6.9576349"
     id="ellipse5164"
     transform="rotate(102.21275)"
     style="stroke:none;stroke-width:0.19461" /><ellipse
     cx="17229.617"
     cy="-6409.8794"
     rx="4.1063008"
     ry="3.6762328"
     id="ellipse5166"
     transform="rotate(102.21273)"
     style="stroke:none;stroke-width:0.102827" /><ellipse
     cx="-8475.9053"
     cy="16314.272"
     rx="9.7701311"
     ry="8.7468786"
     id="ellipse5168"
     transform="matrix(0.81199348,-0.5836665,0.58366385,0.81199539,0,0)"
     style="stroke:none;stroke-width:0.244656" /><ellipse
     cx="-8458.0977"
     cy="16301.256"
     rx="4.8762913"
     ry="4.3655834"
     id="ellipse5170"
     transform="matrix(0.81199439,-0.58366523,0.5836637,0.81199549,0,0)"
     style="stroke:none;stroke-width:0.122108" /><path
     d="m 2970.7938,17858.209 c -20.7199,-0.5 -40.2899,-2.6 -58.4399,-6.1 -22.5499,-4.2 -42.9198,-10.4 -60.4998,-17.5 -18.04,-7.3 -33.1799,-15.7 -44.9199,-24 -8.72,-6.1 -15.6,-12.3 -20.5299,-18 -11.4,9.3 -38.0199,28.2 -79.2298,41.9 -25.97,8.6 -57.7799,15.1 -95.2198,15.9 -1.93,0.1 -3.57,-1.4 -3.65,-3.4 -0.09,-1.9 1.42,-3.5 3.35,-3.6 36.2999,-2.4 66.8398,-10.2 91.6998,-19.7 52.3598,-19.8 78.9598,-47.1 78.9598,-47.1 1.57,-1.5 3.78,-2.3 6,-2.1 2.2199,0.2 4.2199,1.5 5.4299,3.3 5.85,8.8 18.89,19.1 37.2099,29.2 12.8,7.1 28.16,13.9 45.6599,19.9 27.93,9.5 61.2499,16.9 98.5598,18.6 1.97,0.1 4.94,0.9 6.45,4.9 0.73,1.9 1.4,6.3 1.57,12.8 0.52,20.3 -1.9,63.9 -4.89,109.4 -0.08,1.9 -1.72,3.5 -3.65,3.4 -1.93,-0.1 -3.44,-1.7 -3.36,-3.7 0.8,-45.2 1.1,-88.5 -0.32,-108.5 -0.14,-1.9 -0.13,-4 -0.18,-5.6 z m -0.05,-1 c -0.1,-1.4 -0.32,-2.3 -0.9,-2 -1.41,0.6 -0.52,1.3 0.9,2 z m -317.8692,354.7 c -1.2,-1.5 -0.95,-3.7 0.57,-4.9 1.52,-1.2 3.72,-0.9 4.92,0.6 21.3999,25.6 46.2499,47.9 68.5598,64.3 22.13,16.2 41.4399,26.7 52.2299,27.3 12.5899,0.8 29.6599,-6.3 48.5499,-17.5 8.9199,-5.3 18.2099,-11.6 27.5599,-18.5 12.95,-9.6 26.0199,-20.5 38.4099,-32.2 21.1899,-20 40.4199,-42.2 53.5099,-63.8 10.9399,-18 17.7499,-35.4 17.4599,-50.6 l 1.1,-21.4 c 0.08,-2 1.71,-3.5 3.64,-3.4 1.93,0.1 3.44,1.7 3.36,3.6 l 0.06,20.8 c 1.38,20 -7.84,44.4 -23.4599,69.1 -12.08,19.1 -27.98,38.4 -45.4999,56.1 -12.47,12.6 -25.75,24.3 -39.0599,34.5 -9.77,7.4 -19.56,14 -29.02,19.5 -22.2899,12.9 -42.9499,19.7 -57.6898,18.4 -5.31,-0.4 -12.37,-2.7 -20.54,-6.8 -10.8599,-5.5 -24.0399,-14.2 -38.0199,-25.5 -22.0399,-17.9 -46.1499,-42.2 -66.6398,-69.6 z m -55.0699,-335.2 c -0.02,-2 1.54,-3.6 3.47,-3.6 1.93,0 3.52,1.5 3.54,3.5 0,0 2.34,35.9 4.21,78.8 0.74,17.1 1.46,35.2 1.76,52.6 0.27,15.6 0.14,30.7 0.05,43.8 -0.13,21.3 -0.52,37.6 -0.39,43.7 0.12,9 1.3,18.2 3.4,27.4 2.05,8.9 4.87,17.9 8.43,26.8 0.8,1.8 0.01,3.9 -1.75,4.7 -1.76,0.8 -3.84,0 -4.64,-1.8 -4.53,-9 -8.32,-18 -11.24,-27.2 -3.11,-9.7 -5.14,-19.5 -6.07,-29.3 -0.64,-7.6 -2.17,-31.8 -3.17,-61.6 -0.28,-8.4 -0.51,-17.2 -0.57,-26.3 -0.11,-17.4 0.11,-35.6 0.45,-52.6 0.87,-43 2.52,-78.9 2.52,-78.9 z"
     id="path5172"
     style="stroke:none;stroke-width:0.2" /><path
     d="m 2701.8945,17937.509 c -1.94,0 -3.5,-1.6 -3.48,-3.5 0.01,-1.9 1.59,-3.5 3.52,-3.5 l 162.7796,-1.8 c 3.49,0.1 6.2999,2.9 6.3099,6.4 0,0 0.8,47.4 1.02,88.8 0.16,28.1 0,53.4 -0.46,59.8 -0.48,6.2 -3.6999,15 -9.0799,24.6 -7.84,14.1 -20.19,30.7 -32.9299,44.7 -11.62,12.8 -23.63,23.3 -32.77,28.3 -5.53,3.1 -10.4199,4.2 -14.0999,3.8 -14.83,-1.6 -32.39,-14.2 -47.6199,-31.2 -21.08,-23.6 -37.9499,-55.2 -38.9899,-72.5 -0.23,-4 -0.43,-20.3 -0.56,-40.2 -0.25,-39.5 -0.28,-93.3 -0.28,-93.3 -0.04,-2 1.51,-3.6 3.44,-3.6 1.93,0 3.53,1.5 3.57,3.5 0,0 1.9,53.7 3.47,93.1 0.78,19.7 1.47,35.7 1.84,39.7 1.16,13.2 13.5599,35.3 29.2199,54.4 8.36,10.3 17.7299,19.6 27.0499,26.3 7.04,5 13.97,8.4 20.36,9 0.97,0.1 2.08,-0.5 3.43,-1.1 2.4999,-1.3 5.2899,-3.1 8.3099,-5.5 9.21,-7.1 20.02,-18.5 30.02,-30.7 9.7399,-11.9 18.6699,-24.7 24.3199,-35.6 3.06,-5.9 5.23,-11 5.56,-15 0.33,-3.8 0.58,-14.8 0.86,-29 0.7,-36.2 1.35,-93.4 1.55,-112.1 z"
     id="path5174"
     style="stroke:none;stroke-width:0.2" /><path
     d="m 2799.7642,18022.209 v -34.6 c 0,-5.3 -4.11,-9.6 -9.33,-9.8 -6.2099,-0.3 -14.3399,-0.6 -20.6399,-0.9 -2.6,-0.1 -5.13,0.8 -7.05,2.6 -1.91,1.7 -3.04,4.2 -3.14,6.8 -0.51,13.5 -1.37,36.1 -1.37,36.1 0,0 -21.1599,0.5 -33.8099,0.8 -5.19,0.2 -9.37,4.3 -9.51,9.5 -0.17,5.7 -0.38,13.1 -0.55,19 -0.07,2.6 0.92,5.2 2.76,7.1 1.84,1.9 4.36,2.9 7,2.9 13.33,0 35.1999,0 35.1999,0 0,0 0.35,28.1 0.54,43.5 0.03,2.6 1.1,5.1 2.97,6.9 1.87,1.8 4.39,2.8 6.99,2.7 6.62,-0.1 15.31,-0.3 21.8699,-0.4 5.33,-0.1 9.58,-4.5 9.56,-9.8 -0.07,-14.5 -0.18,-40.3 -0.18,-40.3 0,0 27.59,-0.9 42.5899,-1.4 5.26,-0.2 9.43,-4.5 9.43,-9.7 0,-6.1 0,-13.8 0,-19.8 0,-5.3 -4.18,-9.6 -9.44,-9.8 -15.3199,-0.5 -43.8899,-1.4 -43.8899,-1.4 z"
     id="path5176"
     style="stroke:none;stroke-width:0.2" /></g>&#10;</svg>
