<?xml version="1.0" encoding="UTF-8" standalone="no"?>
<svg
   width="2630.2825"
   height="2960.812"
   viewBox="0 0 2630.2825 2960.812"
   version="1.1"
   xml:space="preserve"
   style="clip-rule:evenodd;fill-rule:evenodd;stroke-linejoin:round;stroke-miterlimit:2"
   id="svg5353"
   xmlns="http://www.w3.org/2000/svg"
   xmlns:svg="http://www.w3.org/2000/svg"><defs
   id="defs5353" />&#10;    <g
   id="vectorly-UNI-calculator"
   style="stroke:none;stroke-width:0.2"
   transform="matrix(4.9999999,0,0,4.9999999,-8479.6927,-24319.08)"><path
     d="m 1866.8565,4963.864 c 0.05,5.43 1.22,15.23 3.51,24.45 1.36,5.47 3.08,10.76 5.4,14.67 0.71,1.2 1.43,2.26 2.27,3.05 0.37,0.35 0.67,0.73 1.12,0.8 1.51,0.25 5.08,-0.24 10.23,-0.95 11.37,-1.57 29.0099,-4.84 49.1199,-8.73 56.5998,-10.95 132.5296,-27.23 143.3196,-30.25 1.84,-0.57 3.81,0.47 4.37,2.32 0.57,1.85 -0.48,3.81 -2.33,4.38 -10.69,3.54 -86.0698,23.83 -142.4996,36.96 -20.31,4.73 -38.19,8.45 -49.7199,10.34 -7.4,1.21 -12.59,1.52 -14.79,1.21 -7.03,-0.99 -13.53,-7.47 -17.7699,-17.37 -6.48,-15.13 -8.67,-38.07 -7.99,-45 0.15,-1.41 0.63,-2.99 1.82,-4.57 1.06,-1.39 3.66,-3.55 8.13,-5.4399 9.5699,-4.05 31.1099,-9.85 56.9598,-15.47 33.0299,-7.18 73.1698,-14.22 103.6398,-18.05 23.3999,-2.94 41.3199,-3.72 46.7898,-1.67 5.25,1.97 8.99,6.5 11.33,11.98 4.04,9.46 4.09,21.38 4.09,21.38 0.05,1.94 -1.49,3.5499 -3.42,3.5899 -1.93,0.05 -3.54,-1.4899 -3.59,-3.4199 0,0 -0.5,-10.26 -4.37,-18.23 -1.56,-3.22 -3.68,-6.1 -6.9,-7.13 -1.9699,-0.64 -5.8199,-0.53 -11.0899,-0.15 -11.76,0.85 -29.74,3.75 -50.0999,7.61 -24.9999,4.75 -53.5299,11.05 -78.5298,17.18 -21.02,5.1499 -39.5099,10.1599 -51.1699,14.1599 -2.75,0.94 -5.84,1.66 -7.83,2.35 z m -0.32,0.12 c -1.37,0.5 -2.1,0.99 -1.64,1.56 0.8,0.97 1.32,-0.18 1.64,-1.56 z m 0.4,-2.61 c 0,-0.01 0.01,-0.03 0.01,-0.04 0,0.01 -0.01,0.03 -0.01,0.04 z"
     id="path744"
     style="stroke:none;stroke-width:0.2" /><path
     d="m 1882.0865,4966.964 c -0.43,-1.88 0.75,-3.76 2.64,-4.19 1.89,-0.43 3.76,0.75 4.19,2.64 0,0 2.56,2.49 5.24,7.22 0.88,1.56 1.78,3.23 2.18,5.12 0.4,1.91 0.21,3.79 0.08,5.59 -0.39,5.34 -1.42,8.74 -1.42,8.74 0.43,1.89 -0.75,3.77 -2.64,4.2 -1.89,0.43 -3.77,-0.76 -4.2,-2.64 0,0 -2.4,-2.63 -5.06,-7.27 -0.9,-1.57 -1.89,-3.17 -2.35,-5.07 -0.46,-1.88 -0.37,-3.77 -0.25,-5.56 0.36,-5.42 1.59,-8.78 1.59,-8.78 z"
     id="path746"
     style="stroke:none;stroke-width:0.2" /><path
     d="m 1903.7274,4962.0284 c -0.43,-1.88 0.75,-3.76 2.64,-4.19 1.89,-0.43 3.76,0.75 4.19,2.64 0,0 2.56,2.49 5.24,7.22 0.88,1.56 1.78,3.23 2.18,5.12 0.4,1.91 0.21,3.79 0.08,5.59 -0.39,5.34 -1.42,8.74 -1.42,8.74 0.43,1.89 -0.75,3.77 -2.64,4.2 -1.89,0.43 -3.77,-0.76 -4.2,-2.64 0,0 -2.4,-2.63 -5.06,-7.27 -0.9,-1.57 -1.89,-3.17 -2.35,-5.07 -0.46,-1.88 -0.37,-3.77 -0.25,-5.56 0.36,-5.42 1.59,-8.78 1.59,-8.78 z"
     id="path748"
     style="stroke:none;stroke-width:0.2" /><path
     d="m 1925.3683,4957.0927 c -0.43,-1.88 0.75,-3.76 2.64,-4.19 1.89,-0.43 3.76,0.75 4.19,2.64 0,0 2.5599,2.49 5.2399,7.22 0.88,1.56 1.78,3.23 2.18,5.12 0.4,1.91 0.21,3.79 0.08,5.59 -0.39,5.34 -1.42,8.74 -1.42,8.74 0.43,1.89 -0.75,3.77 -2.64,4.2 -1.8899,0.43 -3.7699,-0.76 -4.1999,-2.64 0,0 -2.4,-2.63 -5.06,-7.27 -0.9,-1.57 -1.89,-3.17 -2.35,-5.07 -0.46,-1.88 -0.37,-3.77 -0.25,-5.56 0.36,-5.42 1.59,-8.78 1.59,-8.78 z"
     id="path750"
     style="stroke:none;stroke-width:0.2" /><path
     d="m 2099.806,4878.2241 c -0.92,-0.18 -3.29,-0.59 -5.31,-0.68 -5.1,-0.23 -12.06,0.11 -20.44,0.87 -29.0599,2.62 -74.5898,10.47 -119.6797,20.05 -45.2099,9.6 -89.9698,20.96 -117.1197,30.77 -7.79,2.82 -14.06,5.46 -18.3199,7.92 -0.93,0.54 -2.24,1.07 -3.01,1.55 0.02,-0.08 0.03,-0.15 0.05,-0.21 -0.02,0.07 -0.04,0.14 -0.06,0.21 -0.53,0.34 -0.79,0.65 -0.46,0.91 0.23,0.18 0.33,-0.16 0.4,-0.52 -0.15,1.36 0.07,3.76 0.31,7.07 0.66,9.0899 2.56,23.2799 5.31,41.0099 8.0199,51.51 23.5899,132.49 40.0399,205.75 14.6499,65.2299 29.8899,124.3199 41.4498,150.6399 1.84,4.19 3.53,7.49 5.13,9.71 0.48,0.67 1.29,1.51 1.41,1.64 3.38,1.25 9.93,1.18 18.75,0.54 20.4299,-1.48 51.6699,-6.91 85.0298,-13.72 68.7898,-14.04 146.5596,-34 157.5396,-38.44 1.79,-0.74 3.84,0.11 4.58,1.9 0.74,1.78 -0.11,3.83 -1.89,4.57 -12.44,5.29 -110.7197,32.34 -184.7896,47.4 -26.4099,5.37 -49.7698,9.19 -65.1498,10.06 -8.63,0.49 -15.04,-0.1 -18.59,-1.47 -1.54,-0.59 -3.2599,-1.78 -4.9999,-3.71 -2.39,-2.67 -5.12,-7.26 -8,-13.56 -12.14,-26.55 -28.7,-86.29 -44.2999,-152.38 -17.33,-73.4399 -33.5799,-154.7199 -41.8999,-206.4499 -2.94,-18.28 -4.86,-32.93 -5.56,-42.3199 -0.49,-6.69 -0.21,-11.24 0.38,-13.29 0.48,-1.64 1.41,-3.44 3.04,-5.22 1.97,-2.17 5.44,-4.68 10.37,-7.17 18.3099,-9.28 60.4398,-21.18 107.2397,-31.64 61.5599,-13.76 131.2097,-25.19 164.1796,-26.15 11.41,-0.33 19.1199,1.08 22.0599,3.06 2.11,1.42 5.4,6.04 8.55,13.94 7.6,19.08 18.76,60.43 30.6699,109.5899 29.01,119.78 62.8499,286.1699 62.8499,286.1699 0.4,1.89 -0.81,3.75 -2.7,4.15 -1.89,0.4 -3.75,-0.81 -4.16,-2.7 0,0 -36.6699,-165.5699 -67.4498,-284.7499 -12.45,-48.1999 -23.88,-88.7599 -31.5999,-107.4299 -1.32,-3.21 -3.21,-6.55 -3.85,-7.67 z m -283.8793,60.48 c -0.02,0.12 -0.04,0.25 -0.07,0.39 0.02,-0.14 0.04,-0.27 0.06,-0.39 z"
     id="path752"
     style="stroke:none;stroke-width:0.2" /><path
     d="m 1867.6465,5072.704 c 0,-1.93 1.57,-3.5 3.51,-3.5 1.93,0 3.5,1.57 3.5,3.5 0.6,2.26 2.24,4.83 3.95,8.06 1.3,2.46 3.03,4.74 4.6,7.18 0.89,1.39 1.75,2.76 2.66,3.99 0.78,1.06 1.13,2.32 2.09,3.02 0.53,0.38 0.8,1.08 1.44,1.26 1.92,0.55 4.02,1.04 6.8,-0.04 1.58,-1.12 3.76,-0.75 4.88,0.83 1.12,1.58 0.75,3.77 -0.83,4.89 -4.9,5.63 -10.12,6.38 -14.96,6.15 -1.62,-0.08 -3.05,-0.73 -4.6,-1.3 -1.72,-0.62 -3.22,-1.7 -4.76,-2.88 -1.89,-1.46 -3.59,-3.37 -4.96,-5.57 -1.18,-1.9 -2.1,-4.02 -2.73,-6.24 -0.73,-2.59 -1.25,-5.12 -1.39,-7.68 -0.25,-4.76 0.03,-8.74 0.8,-11.67 z"
     id="path754"
     style="stroke:none;stroke-width:0.2" /><path
     d="m 1889.0548,5143.5203 c 0,-1.93 1.57,-3.5 3.51,-3.5 1.93,0 3.5,1.57 3.5,3.5 0.6,2.26 2.24,4.83 3.95,8.06 1.3,2.46 3.03,4.74 4.6,7.18 0.8899,1.39 1.7499,2.76 2.6599,3.99 0.78,1.06 1.13,2.32 2.09,3.02 0.53,0.38 0.8,1.08 1.44,1.26 1.92,0.55 4.02,1.04 6.8,-0.04 1.58,-1.12 3.76,-0.75 4.88,0.83 1.12,1.58 0.75,3.77 -0.83,4.89 -4.9,5.63 -10.12,6.38 -14.96,6.15 -1.62,-0.08 -3.0499,-0.73 -4.5999,-1.3 -1.72,-0.62 -3.22,-1.7 -4.76,-2.88 -1.89,-1.46 -3.59,-3.37 -4.96,-5.57 -1.18,-1.9 -2.1,-4.02 -2.73,-6.24 -0.73,-2.59 -1.25,-5.12 -1.39,-7.68 -0.25,-4.76 0.03,-8.74 0.8,-11.67 z"
     id="path756"
     style="stroke:none;stroke-width:0.2" /><path
     d="m 1902.5876,5214.3367 c 0,-1.93 1.57,-3.5 3.51,-3.5 1.93,0 3.5,1.57 3.5,3.5 0.6,2.26 2.24,4.83 3.95,8.06 1.3,2.46 3.0299,4.74 4.5999,7.18 0.89,1.39 1.75,2.76 2.66,3.99 0.78,1.06 1.13,2.32 2.09,3.02 0.53,0.38 0.8,1.08 1.44,1.26 1.92,0.55 4.02,1.04 6.8,-0.04 1.58,-1.12 3.76,-0.75 4.88,0.83 1.12,1.58 0.75,3.77 -0.83,4.89 -4.9,5.63 -10.12,6.38 -14.96,6.15 -1.62,-0.08 -3.05,-0.73 -4.6,-1.3 -1.7199,-0.62 -3.2199,-1.7 -4.7599,-2.88 -1.89,-1.46 -3.59,-3.37 -4.96,-5.57 -1.18,-1.9 -2.1,-4.02 -2.73,-6.24 -0.73,-2.59 -1.25,-5.12 -1.39,-7.68 -0.25,-4.76 0.03,-8.74 0.8,-11.67 z"
     id="path758"
     style="stroke:none;stroke-width:0.2" /><path
     d="m 1923.9958,5296.2759 c 0,-1.93 1.57,-3.5 3.51,-3.5 1.93,0 3.5,1.57 3.5,3.5 0.6,2.26 2.24,4.83 3.95,8.06 1.3,2.46 3.03,4.74 4.6,7.18 0.89,1.39 1.75,2.76 2.66,3.99 0.78,1.06 1.13,2.32 2.09,3.02 0.53,0.38 0.8,1.08 1.44,1.26 1.92,0.55 4.02,1.04 6.8,-0.04 1.58,-1.12 3.76,-0.75 4.88,0.83 1.1199,1.58 0.7499,3.77 -0.83,4.89 -4.9,5.63 -10.12,6.38 -14.96,6.15 -1.62,-0.08 -3.05,-0.73 -4.6,-1.3 -1.72,-0.62 -3.22,-1.7 -4.76,-2.88 -1.89,-1.46 -3.59,-3.37 -4.96,-5.57 -1.18,-1.9 -2.1,-4.02 -2.73,-6.24 -0.73,-2.59 -1.25,-5.12 -1.39,-7.68 -0.25,-4.76 0.03,-8.74 0.8,-11.67 z"
     id="path760"
     style="stroke:none;stroke-width:0.2" /><path
     d="m 1934.7551,5057.9643 c 0,-1.93 1.57,-3.5 3.51,-3.5 1.9299,0 3.4999,1.57 3.4999,3.5 0.6,2.26 2.24,4.83 3.95,8.06 1.3,2.46 3.03,4.74 4.6,7.18 0.89,1.39 1.75,2.76 2.66,3.99 0.78,1.06 1.13,2.32 2.09,3.02 0.53,0.38 0.8,1.08 1.44,1.26 1.92,0.55 4.02,1.04 6.8,-0.04 1.58,-1.12 3.76,-0.75 4.88,0.83 1.12,1.58 0.75,3.77 -0.83,4.89 -4.9,5.63 -10.12,6.38 -14.96,6.15 -1.62,-0.08 -3.05,-0.73 -4.6,-1.3 -1.72,-0.62 -3.22,-1.7 -4.76,-2.88 -1.89,-1.46 -3.59,-3.37 -4.9599,-5.57 -1.18,-1.9 -2.1,-4.02 -2.73,-6.24 -0.73,-2.59 -1.25,-5.12 -1.39,-7.68 -0.25,-4.76 0.03,-8.74 0.8,-11.67 z"
     id="path762"
     style="stroke:none;stroke-width:0.2" /><path
     d="m 1956.1633,5128.7807 c 0,-1.93 1.57,-3.5 3.51,-3.5 1.93,0 3.5,1.57 3.5,3.5 0.6,2.26 2.24,4.83 3.95,8.06 1.3,2.46 3.03,4.74 4.6,7.18 0.89,1.39 1.75,2.76 2.66,3.99 0.78,1.06 1.13,2.32 2.09,3.02 0.53,0.38 0.8,1.08 1.44,1.26 1.92,0.55 4.0199,1.04 6.7999,-0.04 1.58,-1.12 3.76,-0.75 4.88,0.83 1.12,1.58 0.75,3.77 -0.83,4.89 -4.9,5.63 -10.1199,6.38 -14.9599,6.15 -1.62,-0.08 -3.05,-0.73 -4.6,-1.3 -1.72,-0.62 -3.22,-1.7 -4.76,-2.88 -1.89,-1.46 -3.59,-3.37 -4.96,-5.57 -1.18,-1.9 -2.1,-4.02 -2.73,-6.24 -0.73,-2.59 -1.25,-5.12 -1.39,-7.68 -0.25,-4.76 0.03,-8.74 0.8,-11.67 z"
     id="path764"
     style="stroke:none;stroke-width:0.2" /><path
     d="m 1969.6963,5199.597 c 0,-1.93 1.57,-3.5 3.51,-3.5 1.93,0 3.5,1.57 3.5,3.5 0.6,2.26 2.24,4.83 3.95,8.06 1.3,2.46 3.03,4.74 4.6,7.18 0.89,1.39 1.75,2.76 2.66,3.99 0.78,1.06 1.13,2.32 2.09,3.02 0.53,0.38 0.8,1.08 1.44,1.26 1.9199,0.55 4.0199,1.04 6.7999,-0.04 1.58,-1.12 3.76,-0.75 4.88,0.83 1.12,1.58 0.75,3.77 -0.83,4.89 -4.9,5.63 -10.1199,6.38 -14.9599,6.15 -1.62,-0.08 -3.05,-0.73 -4.6,-1.3 -1.72,-0.62 -3.22,-1.7 -4.76,-2.88 -1.89,-1.46 -3.59,-3.37 -4.96,-5.57 -1.18,-1.9 -2.1,-4.02 -2.73,-6.24 -0.73,-2.59 -1.25,-5.12 -1.39,-7.68 -0.25,-4.76 0.03,-8.74 0.8,-11.67 z"
     id="path766"
     style="stroke:none;stroke-width:0.2" /><path
     d="m 1991.1044,5281.5363 c 0,-1.93 1.57,-3.5 3.5099,-3.5 1.93,0 3.5,1.57 3.5,3.5 0.6,2.26 2.24,4.83 3.95,8.06 1.3,2.46 3.03,4.74 4.6,7.18 0.89,1.39 1.75,2.76 2.66,3.99 0.78,1.06 1.13,2.32 2.09,3.02 0.53,0.38 0.8,1.08 1.44,1.26 1.92,0.55 4.02,1.0399 6.8,-0.04 1.58,-1.12 3.76,-0.75 4.88,0.83 1.12,1.5799 0.75,3.7699 -0.83,4.8899 -4.9,5.63 -10.12,6.38 -14.96,6.15 -1.62,-0.08 -3.05,-0.73 -4.6,-1.3 -1.72,-0.62 -3.22,-1.7 -4.76,-2.88 -1.89,-1.46 -3.59,-3.37 -4.96,-5.57 -1.1799,-1.8999 -2.0999,-4.0199 -2.7299,-6.2399 -0.73,-2.59 -1.25,-5.12 -1.39,-7.68 -0.25,-4.76 0.03,-8.74 0.8,-11.67 z"
     id="path768"
     style="stroke:none;stroke-width:0.2" /><path
     d="m 2003.5251,5039.426 c 0,-1.93 1.57,-3.5 3.51,-3.5 1.93,0 3.5,1.57 3.5,3.5 0.6,2.26 2.24,4.83 3.95,8.06 1.2999,2.46 3.0299,4.74 4.5999,7.18 0.89,1.39 1.75,2.76 2.66,3.99 0.78,1.06 1.13,2.32 2.09,3.02 0.53,0.38 0.8,1.08 1.44,1.26 1.92,0.55 4.02,1.04 6.8,-0.04 1.58,-1.12 3.76,-0.75 4.88,0.83 1.12,1.58 0.75,3.77 -0.83,4.89 -4.9,5.63 -10.12,6.38 -14.96,6.15 -1.62,-0.08 -3.05,-0.73 -4.6,-1.3 -1.72,-0.62 -3.2199,-1.7 -4.7599,-2.88 -1.89,-1.46 -3.59,-3.37 -4.96,-5.57 -1.18,-1.9 -2.1,-4.02 -2.73,-6.24 -0.73,-2.59 -1.25,-5.12 -1.39,-7.68 -0.25,-4.76 0.03,-8.74 0.8,-11.67 z"
     id="path770"
     style="stroke:none;stroke-width:0.2" /><path
     d="m 2024.9333,5110.2423 c 0,-1.93 1.57,-3.5 3.51,-3.5 1.93,0 3.5,1.57 3.5,3.5 0.6,2.26 2.24,4.83 3.95,8.06 1.3,2.46 3.03,4.74 4.6,7.18 0.89,1.39 1.75,2.76 2.66,3.99 0.78,1.06 1.13,2.32 2.09,3.02 0.53,0.38 0.8,1.08 1.44,1.26 1.92,0.55 4.02,1.04 6.8,-0.04 1.58,-1.12 3.7599,-0.75 4.8799,0.83 1.12,1.58 0.75,3.77 -0.83,4.89 -4.8999,5.63 -10.1199,6.38 -14.9599,6.15 -1.62,-0.08 -3.05,-0.73 -4.6,-1.3 -1.72,-0.62 -3.22,-1.7 -4.76,-2.88 -1.89,-1.46 -3.59,-3.37 -4.96,-5.57 -1.18,-1.9 -2.1,-4.02 -2.73,-6.24 -0.73,-2.59 -1.25,-5.12 -1.39,-7.68 -0.25,-4.76 0.03,-8.74 0.8,-11.67 z"
     id="path772"
     style="stroke:none;stroke-width:0.2" /><path
     d="m 2038.4661,5181.0589 c 0,-1.93 1.57,-3.5 3.51,-3.5 1.93,0 3.5,1.57 3.5,3.5 0.6,2.26 2.24,4.83 3.95,8.06 1.3,2.46 3.03,4.74 4.6,7.18 0.89,1.39 1.75,2.76 2.66,3.99 0.78,1.06 1.13,2.32 2.09,3.02 0.53,0.38 0.8,1.08 1.44,1.26 1.92,0.55 4.02,1.04 6.8,-0.04 1.58,-1.12 3.7599,-0.75 4.8799,0.83 1.12,1.58 0.75,3.77 -0.83,4.89 -4.8999,5.63 -10.1199,6.38 -14.9599,6.15 -1.62,-0.08 -3.05,-0.73 -4.6,-1.3 -1.72,-0.62 -3.22,-1.7 -4.76,-2.88 -1.89,-1.46 -3.59,-3.37 -4.96,-5.57 -1.18,-1.9 -2.1,-4.02 -2.73,-6.24 -0.73,-2.59 -1.25,-5.12 -1.39,-7.68 -0.25,-4.76 0.03,-8.74 0.8,-11.67 z"
     id="path774"
     style="stroke:none;stroke-width:0.2" /><path
     d="m 2059.8744,5262.9981 c 0,-1.93 1.57,-3.5 3.51,-3.5 1.93,0 3.5,1.57 3.5,3.5 0.6,2.26 2.24,4.83 3.95,8.06 1.2999,2.46 3.0299,4.74 4.5999,7.18 0.89,1.39 1.75,2.76 2.66,3.99 0.78,1.06 1.13,2.32 2.09,3.02 0.53,0.38 0.8,1.08 1.44,1.26 1.92,0.55 4.02,1.04 6.8,-0.04 1.58,-1.12 3.76,-0.75 4.88,0.83 1.12,1.58 0.75,3.77 -0.83,4.89 -4.9,5.63 -10.12,6.38 -14.96,6.15 -1.62,-0.08 -3.05,-0.73 -4.6,-1.3 -1.72,-0.62 -3.2199,-1.7 -4.7599,-2.88 -1.89,-1.46 -3.59,-3.37 -4.96,-5.57 -1.18,-1.9 -2.1,-4.02 -2.73,-6.24 -0.73,-2.59 -1.25,-5.12 -1.39,-7.68 -0.25,-4.76 0.03,-8.74 0.8,-11.67 z"
     id="path776"
     style="stroke:none;stroke-width:0.2" /><path
     d="m 2069.5223,5024.6862 c 0,-1.93 1.57,-3.5 3.51,-3.5 1.93,0 3.5,1.57 3.5,3.5 0.6,2.26 2.24,4.83 3.95,8.06 1.3,2.46 3.03,4.74 4.6,7.18 0.89,1.39 1.75,2.76 2.66,3.99 0.78,1.06 1.13,2.32 2.09,3.02 0.53,0.38 0.8,1.08 1.44,1.26 1.92,0.55 4.02,1.04 6.8,-0.04 1.58,-1.12 3.76,-0.75 4.88,0.83 1.12,1.58 0.75,3.77 -0.83,4.89 -4.9,5.63 -10.12,6.38 -14.96,6.15 -1.62,-0.08 -3.05,-0.73 -4.6,-1.3 -1.72,-0.62 -3.22,-1.7 -4.76,-2.88 -1.89,-1.46 -3.59,-3.37 -4.96,-5.57 -1.18,-1.9 -2.1,-4.02 -2.73,-6.24 -0.73,-2.59 -1.25,-5.12 -1.39,-7.68 -0.25,-4.76 0.03,-8.74 0.8,-11.67 z"
     id="path778"
     style="stroke:none;stroke-width:0.2" /><path
     d="m 2090.9302,5095.5026 c 0,-1.93 1.57,-3.5 3.51,-3.5 1.93,0 3.5,1.57 3.5,3.5 0.6,2.26 2.24,4.83 3.95,8.06 1.3,2.46 3.03,4.74 4.5999,7.18 0.89,1.39 1.75,2.76 2.66,3.99 0.78,1.06 1.13,2.32 2.09,3.02 0.53,0.38 0.8,1.08 1.44,1.26 1.92,0.55 4.02,1.04 6.8,-0.04 1.58,-1.12 3.76,-0.75 4.88,0.83 1.12,1.58 0.75,3.77 -0.83,4.89 -4.9,5.63 -10.12,6.38 -14.96,6.15 -1.62,-0.08 -3.0499,-0.73 -4.5999,-1.3 -1.72,-0.62 -3.22,-1.7 -4.76,-2.88 -1.89,-1.46 -3.59,-3.37 -4.96,-5.57 -1.18,-1.9 -2.1,-4.02 -2.73,-6.24 -0.73,-2.59 -1.25,-5.12 -1.39,-7.68 -0.25,-4.76 0.03,-8.74 0.8,-11.67 z"
     id="path780"
     style="stroke:none;stroke-width:0.2" /><path
     d="m 2104.4634,5166.3193 c 0,-1.93 1.57,-3.5 3.51,-3.5 1.93,0 3.5,1.57 3.5,3.5 0.6,2.26 2.24,4.83 3.95,8.0599 1.2999,2.46 3.0299,4.74 4.5999,7.18 0.89,1.39 1.75,2.76 2.66,3.99 0.78,1.06 1.13,2.32 2.09,3.02 0.53,0.38 0.8,1.08 1.44,1.26 1.92,0.55 4.02,1.04 6.8,-0.04 1.58,-1.12 3.76,-0.75 4.88,0.83 1.12,1.58 0.75,3.77 -0.83,4.89 -4.9,5.63 -10.12,6.38 -14.96,6.15 -1.62,-0.08 -3.05,-0.73 -4.6,-1.3 -1.72,-0.62 -3.2199,-1.7 -4.7599,-2.88 -1.89,-1.46 -3.59,-3.37 -4.96,-5.57 -1.18,-1.9 -2.1,-4.02 -2.73,-6.24 -0.73,-2.59 -1.25,-5.12 -1.39,-7.68 -0.25,-4.76 0.03,-8.7399 0.8,-11.6699 z"
     id="path782"
     style="stroke:none;stroke-width:0.2" /><path
     d="m 2114.0113,5220.0885 c 0,-1.94 1.57,-3.51 3.4999,-3.51 1.94,0 3.51,1.57 3.51,3.51 0.41,2.45 2.94,7.1 6,13.1 2.09,4.12 4.65,8.54 7.17,13.14 1.26,2.29 2.5,4.6 3.67,6.89 1.81,3.56 3.35,7.07 5.23,10.04 1.3,2.06 2.41,3.97 3.81,5.43 0.94,0.97 1.66,1.96 2.67,2.49 1.53,0.8 3.08,1.41 4.85,0.55 1.58,-1.12 3.7599,-0.75 4.8799,0.83 1.12,1.58 0.75,3.77 -0.83,4.89 -6.3599,6.16 -14.1799,4.07 -22.2499,-2.19 -3.2,-2.49 -6.27,-5.87 -9.18,-9.8 -1.85,-2.51 -3.58,-5.25 -5.05,-8.17 -1.42,-2.81 -2.57,-5.78 -3.55,-8.73 -1.25,-3.76 -2.1999,-7.41 -2.8799,-10.89 -1.6,-8.09 -2.05,-14.6 -1.55,-17.58 z"
     id="path784"
     style="stroke:none;stroke-width:0.2" /><path
     d="m 1819.2667,4924.1141 c 1.83,-0.62 3.8199,0.37 4.4399,2.2 0.62,1.84 -0.36,3.83 -2.1999,4.44 -8.39,3.08 -19.7,9.53 -28.45,18.61 -7.39,7.6699 -12.9099,17.3099 -12.4799,28.5799 0.25,7.39 6.8699,36.06 16.0499,74.19 5.41,22.47 11.78,48.17 18.35,74.72 3.26,13.17 6.55,26.56 9.7799,39.86 4.97,20.5 9.85,40.7999 14.52,59.8199 12.95,52.74 24.0199,95.48 29.2199,104.42 6.72,11.62 13.22,19.56 21.14,24.02 8.41,4.75 18.2799,5.55 31.2299,3.16 1.89,-0.4 3.75,0.81 4.15,2.71 0.4,1.89 -0.82,3.75 -2.71,4.15 -15.05,3.55 -26.6499,2.78 -36.7799,-2.32 -9.36,-4.71 -17.48,-13.32 -25.8299,-26.36 -5.71,-8.98 -19.6,-52.24 -34.52,-106.09 -6.2199,-22.43 -12.6999,-46.6999 -18.7199,-71.0899 -6.02,-24.38 -11.6,-48.87 -16.55,-71.6 -11.9699,-55 -20.0199,-99.88 -19.9699,-109.44 0.11,-11.34 4.66,-21.27 11.55,-29.4499 10.6199,-12.61 26.5899,-21.07 37.7799,-24.53 z"
     id="path786"
     style="stroke:none;stroke-width:0.2" /><path
     d="m 1820.3867,4927.4341 c -7.05,3.28 -11.36,6.28 -12.1,8.84 -6.37,22.0099 71.8998,413.3598 98.8597,424.0198 2.83,1.12 7.8,1.5 14.44,1.27 -27.0499,5.68 -41.9199,-2.35 -57.4899,-27.93 -15.5699,-25.59 -88.4697,-328.9199 -88.8397,-355.6099 -0.37,-26.7 28.1799,-44.8699 45.1299,-50.5899 z"
     id="path788"
     style="stroke:none;stroke-width:0.2" /><path
     d="m 1698.877,4983.844 c -1.91,-0.31 -3.21,-2.12 -2.89,-4.02 0.31,-1.91 2.11,-3.21 4.02,-2.9 0,0 6.6399,-0.82 15.7999,-0.33 2.02,0.11 4.09,0.38 6.24,0.75 1.36,0.24 2.74,0.51 4.08,0.95 3.43,1.13 6.7,2.69 9.72,4.46 5.8599,3.44 10.4299,7.18 13.0699,11.01 1.42,1.32 1.5,3.54 0.18,4.95 -1.32,1.42 -3.54,1.5 -4.96,0.18 -2.7099,-1.58 -6.4799,-2.07 -10.8499,-2.95 -1.9,-0.39 -3.82,-0.65 -5.83,-1.06 -1.93,-0.39 -3.91,-0.68 -5.82,-1.24 -3.22,-0.96 -6.25,-2.23 -9.08,-3.42 -8.08,-3.39 -13.6799,-6.38 -13.6799,-6.38 z"
     id="path790"
     style="stroke:none;stroke-width:0.2" /><path
     d="m 1732.7069,5070.284 c -1.12,1.58 -3.31,1.95 -4.89,0.83 -1.58,-1.12 -1.95,-3.31 -0.83,-4.89 0,0 1.6,-5.42 5.34,-12.73 0.8,-1.56 1.75,-3.08 2.83,-4.65 0.67,-0.98 1.37,-1.98 2.22,-2.87 2.11,-2.21 4.5199,-4.15 7.0599,-5.88 4.39,-3 8.61,-5.11 12.72,-6.62 1.59,-1.09 3.77,-0.68 4.87,0.91 1.09,1.6 0.69,3.78 -0.91,4.88 -2.12,2.45 -3.73,5.41 -5.84,8.67 -0.95,1.47 -1.81,2.93 -2.84,4.4 -1,1.44 -1.91,2.92 -3.06,4.21 -1.97,2.22 -4.14,4.07 -6.16,5.77 -5.9899,5.07 -10.5099,7.97 -10.5099,7.97 z"
     id="path792"
     style="stroke:none;stroke-width:0.2" /><path
     d="m 1765.2068,5077.564 c 0.8,-1.77 2.88,-2.55 4.65,-1.75 1.76,0.8 2.54,2.88 1.74,4.64 0,0 -0.52,6.1 -2.12,14.48 -0.56,2.9 -1.16,6.03 -2.14,9.14 -0.58,1.84 -1.44,3.57 -2.19,5.34 -0.77,1.83 -1.62,3.5 -2.38,5.23 -1.74,3.99 -3.45,7.26 -3.85,10.35 0.2,1.93 -1.21,3.65 -3.13,3.85 -1.93,0.19 -3.65,-1.21 -3.85,-3.13 -1.45,-4.28 -1.91,-9.89 -1.5,-16.35 0.21,-3.37 0.73,-6.82 1.67,-10.17 0.37,-1.31 0.91,-2.56 1.46,-3.78 0.87,-1.92 1.77,-3.72 2.78,-5.39 4.61,-7.63 8.86,-12.46 8.86,-12.46 z"
     id="path794"
     style="stroke:none;stroke-width:0.2" /><path
     d="m 2199.9357,5402.1639 c 11.94,0.59 19.15,9.34 21.35,18.67 2.77,11.73 -2.64,23.7899 -15.04,24.2899 -5.59,0.22 -85.3698,3.41 -173.4096,6.24 -38.8299,1.25 -79.2698,2.44 -115.6497,3.27 -66.0198,1.5 -118.8497,1.81 -125.4797,0.6 -15.9199,-3 -25.3999,-17.3499 -24.4299,-29.9799 0.86,-11.35 9.39,-22.85 30.7099,-22.76 18.28,0.17 137.1497,-0.69 240.9594,-0.92 81.6898,-0.18 154.0396,0.06 160.9896,0.59 z m -0.44,7 c -2.95,-0.15 -17.6899,0.13 -39.9199,0.61 -50.5499,1.09 -139.5396,3.48 -216.8694,5.32 -70.9199,1.69 -132.0297,2.9 -144.7197,3 -9.51,0.05 -14.53,3.25 -14.89,8.32 -0.4,5.7 4.35,11.77 11.54,13.0999 4.99,0.94 36.9899,0.75 81.0298,0.44 47.3799,-0.33 108.4297,-0.99 165.1596,-1.5999 84.7298,-0.91 159.7896,-1.64 165.1996,-1.71 6.99,-0.08 9.07,-7.49 7.7,-14.14 -1.33,-6.46 -6.04,-12.7 -14.23,-13.34 z"
     id="path796"
     style="stroke:none;stroke-width:0.2" /><path
     d="m 2199.7157,5405.6639 c 21.78,1.39 24.43,34.7599 6.42,35.2199 -12.48,0.32 -394.489,9.93 -412.969,6.49 -21.8699,-4.08 -27.7999,-37.0799 4.82,-37.0799 32.6299,0 385.9391,-5.64 401.729,-4.63 z"
     id="path798"
     style="stroke:none;stroke-width:0.2" /></g>&#10;</svg>
