<?xml version="1.0" encoding="UTF-8" standalone="no"?>
<svg
   width="2696.532"
   height="2736.3291"
   viewBox="0 0 2696.532 2736.3291"
   version="1.1"
   xml:space="preserve"
   style="clip-rule:evenodd;fill-rule:evenodd;stroke-linejoin:round;stroke-miterlimit:2"
   id="svg5353"
   xmlns="http://www.w3.org/2000/svg"
   xmlns:svg="http://www.w3.org/2000/svg"><defs
   id="defs5353" />&#10;    &#10;<g
   id="vectorly-UNI-target"
   transform="matrix(4.9999999,0,0,4.9999999,-20476.45,-92742.067)"
   style="stroke-width:0.2"><path
     d="m 4414.3877,18762.146 c 0.075,1.926 -1.4707,3.548 -3.3621,3.622 -1.9568,0.09 -3.5577,-1.44 -3.6327,-3.366 -0.3373,-2.719 -0.4556,-5.582 -0.4202,-8.574 0.049,-2.77 0.3056,-5.632 0.6986,-8.545 1.6016,-10.936 5.619,-20.357 10.4987,-26.888 6.2157,-8.337 14.4185,-11.516 21.7109,-10.288 7.3714,1.436 13.8252,7.878 16.6211,18.149 2.1593,8.058 2.0125,18.634 -0.7308,29.645 -3.0435,10.673 -7.9263,19.767 -13.662,25.645 -6.4903,6.749 -13.7783,9.749 -20.166,7.82 -1.8786,-0.551 -3.6345,-1.374 -5.2217,-2.679 -1.8393,-1.579 -3.5214,-3.586 -4.762,-6.178 -1.007,-1.668 -0.4114,-3.8 1.2465,-4.797 1.6521,-0.972 3.8402,-0.407 4.7877,1.247 0.8605,1.199 1.7898,2.086 2.8132,2.83 0.9157,0.666 1.9713,0.981 3.0018,1.126 3.574,0.517 6.7445,-2.519 9.7756,-6.623 3.8429,-5.233 6.7089,-12.836 8.1206,-21.496 1.2712,-6.891 1.0876,-13.422 0.1151,-18.927 -0.5938,-3.54 -1.4812,-6.599 -2.9924,-8.815 -0.668,-0.938 -1.211,-1.876 -2.2185,-2.125 -1.4133,-0.394 -2.9564,0.08 -4.424,1.068 -2.1131,1.361 -4.2275,3.294 -6.2183,5.8 -3.5206,4.622 -6.7747,10.585 -8.8185,17.578 -0.7895,2.444 -1.3887,4.875 -1.8571,7.281 -0.4434,2.574 -0.8041,5.058 -0.9035,7.49 z"
     id="path44-9"
     style="clip-rule:evenodd;fill-rule:evenodd;stroke:none;stroke-width:0.254982;stroke-linejoin:round;stroke-miterlimit:2" /><path
     d="m 4390.5852,18741.138 c 3.6986,-20.254 11.7808,-37.621 21.6978,-49.301 10.6438,-12.64 23.6344,-18.414 35.6324,-16.193 12.2211,2.378 22.2212,13.067 27.4365,29.102 4.9375,14.959 5.6158,34.633 1.2914,55.389 -4.793,20.547 -13.8244,38.131 -24.5783,49.52 -11.4695,12.297 -24.9174,17.811 -37.0038,14.822 -11.8296,-2.984 -21.1822,-13.691 -25.5269,-29.586 -3.9666,-14.692 -3.9869,-33.847 1.0509,-53.753 z m 6.8748,1.518 c -3.4284,18.447 -2.2673,35.934 2.2818,49.154 3.6702,10.785 9.6662,18.617 18.0704,20.205 8.1473,1.586 16.1248,-3.642 23.5146,-12.039 8.8211,-10.215 16.0522,-25.476 19.7254,-43.282 4.1642,-17.698 3.9066,-34.612 0.1945,-47.54 -3.0564,-10.65 -8.2148,-18.777 -16.1496,-20.742 -8.1691,-2.07 -16.8936,2.459 -24.7633,10.697 -9.6804,10.025 -18.0838,25.347 -22.8738,43.547 z"
     id="path46-5"
     style="clip-rule:evenodd;fill-rule:evenodd;stroke:none;stroke-width:0.511812;stroke-linejoin:round;stroke-miterlimit:2" /><path
     d="m 4368.8899,18734.253 c 6.3118,-32.357 19.4892,-60.058 35.2252,-78.649 16.5322,-19.373 36.25,-28.713 54.5456,-25.023 18.4938,3.734 33.0968,20.388 40.729,45.096 7.4379,23.705 8.4479,54.888 1.4135,87.695 -7.4123,32.637 -21.4554,60.497 -38.1818,78.868 -17.4858,18.989 -37.5446,27.992 -55.8915,23.593 -18.1488,-4.355 -31.9229,-21.001 -38.7627,-45.534 -6.664,-23.448 -6.7571,-54.079 0.9227,-86.046 z m 6.9324,1.53 c -6.1243,30.567 -4.8351,59.543 2.1593,81.494 6.32,19.361 16.9694,33.223 31.4835,36.165 14.3159,2.899 29.111,-5.783 42.2016,-20.858 14.7931,-17.142 27.2952,-42.725 33.4891,-72.666 6.7881,-29.809 6.4158,-58.235 0.2136,-80.011 -5.5277,-19.185 -15.3114,-33.205 -29.5172,-36.603 -14.4039,-3.441 -29.8811,4.567 -43.566,19.511 -15.7834,16.923 -29.1512,42.664 -36.4639,72.968 z"
     id="path48-4"
     style="clip-rule:evenodd;fill-rule:evenodd;stroke:none;stroke-width:0.831224;stroke-linejoin:round;stroke-miterlimit:2" /><path
     d="m 4348.1177,18729.719 c 8.8163,-42.46 26.3151,-78.862 47.5209,-103.057 21.5681,-24.574 47.0116,-36.444 70.729,-31.669 23.9345,5.054 42.5958,26.429 52.6346,57.866 10.1114,31.108 11.3591,72.108 2.1564,115.058 -9.7335,42.832 -28.3424,79.219 -50.3444,103.238 -22.34,24.289 -48.2659,35.822 -72.0793,30.221 -23.5479,-5.544 -41.63,-27.022 -50.8484,-58.392 -9.074,-30.764 -9.6224,-71.149 0.2312,-113.265 z m 6.9004,1.523 c -8.1391,40.654 -6.3829,79.35 3.0059,108.688 8.6672,26.302 23.4938,44.875 43.4472,49.05 19.6881,4.116 40.5462,-7.156 58.6844,-27.54 20.0463,-22.725 36.7955,-56.992 45.3444,-96.98 9.1039,-39.981 8.3124,-78.004 -0.5698,-107.115 -7.871,-26.126 -21.8045,-44.963 -41.3957,-49.517 -19.8324,-4.723 -41.1244,5.992 -59.7692,26.15 -21.1079,22.491 -38.9914,56.852 -48.7472,97.264 z"
     id="path50-9"
     style="clip-rule:evenodd;fill-rule:evenodd;stroke:none;stroke-width:1.10512;stroke-linejoin:round;stroke-miterlimit:2" /><path
     d="m 4348.1177,18729.719 c 8.8163,-42.46 26.3151,-78.862 47.5209,-103.057 21.5681,-24.574 47.0116,-36.444 70.729,-31.669 23.9345,5.054 42.5958,26.429 52.6346,57.866 10.1114,31.108 11.3591,72.108 2.1564,115.058 -9.7335,42.832 -28.3424,79.219 -50.3444,103.238 -22.34,24.289 -48.2659,35.822 -72.0793,30.221 -23.5479,-5.544 -41.63,-27.022 -50.8484,-58.392 -9.074,-30.764 -9.6224,-71.149 0.2312,-113.265 z m 6.9004,1.523 c -8.1391,40.654 -6.3829,79.35 3.0059,108.688 8.6672,26.302 23.4938,44.875 43.4472,49.05 19.6881,4.116 40.5462,-7.156 58.6844,-27.54 20.0463,-22.725 36.7955,-56.992 45.3444,-96.98 9.1039,-39.981 8.3124,-78.004 -0.5698,-107.115 -7.871,-26.126 -21.8045,-44.963 -41.3957,-49.517 -19.8324,-4.723 -41.1244,5.992 -59.7692,26.15 -21.1079,22.491 -38.9914,56.852 -48.7472,97.264 z"
     id="path52-3"
     style="clip-rule:evenodd;fill-rule:evenodd;stroke:none;stroke-width:1.10512;stroke-linejoin:round;stroke-miterlimit:2" /><path
     d="m 4356.2392,18645.366 c -0.7773,1.823 -2.7913,2.452 -4.8399,1.539 -1.6588,-0.979 -2.3441,-2.971 -1.2091,-4.715 16.8179,-33.716 38.3909,-60.094 61.4411,-76.174 21.2323,-14.641 43.5495,-20.606 65.0691,-16.162 31.1743,6.574 55.3922,34.47 68.579,74.963 13.4475,41.011 15.7348,95.205 3.5322,152.182 -5.7796,26.182 -13.8362,50.788 -24.2693,72.568 -11.6624,25.651 -26.2548,47.587 -42.0241,64.661 -29.4948,31.685 -63.5954,46.86 -95.0304,39.767 -31.4028,-7.238 -55.1663,-35.494 -67.8663,-76.493 -12.3102,-41.067 -13.8823,-95.102 -0.7362,-151.258 3.1021,-12.354 6.4649,-24.19 10.1208,-35.655 4.1748,-12.117 8.9357,-23.491 14.3148,-34.269 0.7773,-1.823 2.8236,-2.598 4.5146,-1.765 1.6911,0.834 2.3764,2.826 1.599,4.649 -4.6317,10.789 -9.0027,22.096 -12.723,33.853 -3.6236,11.318 -6.5642,22.941 -9.2441,35.081 -11.2638,54.424 -8.8498,106.345 3.8478,145.656 11.6847,35.406 31.999,60.599 59.24,66.306 27.2086,5.853 55.5902,-8.898 80.4114,-36.399 14.8281,-16.208 28.0249,-36.918 39.2999,-60.813 9.4918,-20.914 17.6477,-44.271 23.169,-69.283 12.6619,-53.962 11.2883,-105.5 -1.0195,-144.878 -10.8403,-35.834 -30.6679,-61.533 -58.1373,-67.903 -18.5297,-4.397 -38.4431,0.871 -57.274,13.127 -22.402,14.843 -43.6521,39.758 -60.7655,71.415 z"
     id="path54-8"
     style="clip-rule:evenodd;fill-rule:evenodd;stroke:none;stroke-width:1.48125;stroke-linejoin:round;stroke-miterlimit:2" /><path
     d="m 4146.0689,18580.477 c -1.79,-0.7 -2.64,-2.8 -1.91,-4.5 0.74,-1.8 2.79,-2.7 4.58,-2 0,0 23.7899,7.7 53.8998,18.4 6.88,2.5 14.04,5.1 21.33,7.9 4.68,1.8 9.42,3.6 14.0899,5.6 11.95,5 23.72,10.4 34.61,15.5 28.9699,13.401 51.2998,24.701 51.2998,24.701 1.79,0.7 2.65,2.8 1.91,4.6 -0.74,1.7 -2.79,2.6 -4.58,1.9 0,0 -23.7699,-7.8 -53.8298,-18.6 -11.29,-4.001 -23.45,-8.501 -35.4899,-13.301 -4.71,-1.9 -9.35,-3.9 -13.94,-5.9 -7.15,-3.2 -14.12,-6.3 -20.73,-9.4 -28.9399,-13.6 -51.2398,-24.9 -51.2398,-24.9 z"
     id="path56-9"
     style="clip-rule:evenodd;fill-rule:evenodd;stroke:none;stroke-width:0.2;stroke-linejoin:round;stroke-miterlimit:2" /><path
     d="m 4099.479,18831.178 c -1.9,0.4 -3.74,-0.9 -4.12,-2.8 -0.38,-1.8 0.85,-3.7 2.75,-4.1 0,0 21.4999,-6.3 49.2699,-13.4 6.34,-1.6 12.9999,-3.2 19.8199,-4.7 4.39,-1 8.82,-2 13.29,-2.9 11.42,-2.1 22.8899,-3.9 33.5199,-5.4 28.3499,-4.2 50.5999,-6.7 50.5999,-6.7 1.9,-0.4 3.75,0.8 4.13,2.7 0.37,1.9 -0.86,3.8 -2.76,4.1 0,0 -21.51,6.3 -49.2999,13.3 -10.43,2.6 -21.7,5.3 -33.0699,7.7 -4.45,1 -8.93,1.7 -13.36,2.5 -6.89,1.2 -13.66,2.3 -20.1299,3.2 -28.38,4.1 -50.6399,6.5 -50.6399,6.5 z"
     id="path58-2"
     style="clip-rule:evenodd;fill-rule:evenodd;stroke:none;stroke-width:0.2;stroke-linejoin:round;stroke-miterlimit:2" /><path
     d="m 4239.4186,18763.578 c -1.93,0.1 -3.58,-1.4 -3.67,-3.3 -0.09,-2 1.4,-3.6 3.34,-3.7 0,0 25.33,-3.2 57.8199,-6.3 7.43,-0.7 15.22,-1.3 23.1599,-1.8 5.11,-0.4 10.28,-0.8 15.46,-1 13.23,-0.5 26.4599,-0.6 38.7199,-0.6 32.6299,-0.2 58.1499,0.5 58.1499,0.5 1.93,-0.1 3.57,1.4 3.67,3.4 0.09,1.9 -1.41,3.5 -3.34,3.6 0,0 -25.34,3.1 -57.8399,6.1 -12.2,1.1 -25.3799,2.3 -38.5999,3 -5.18,0.3 -10.36,0.4 -15.48,0.5 -7.9599,0.2 -15.7699,0.3 -23.2299,0.3 -32.6399,0 -58.1599,-0.7 -58.1599,-0.7 z"
     id="path60-6"
     style="clip-rule:evenodd;fill-rule:evenodd;stroke:none;stroke-width:0.2;stroke-linejoin:round;stroke-miterlimit:2" /><path
     d="m 4253.9186,18760.078 c -0.36,-0.1 -0.72,-0.3 -1.08,-0.5 -10.75,-5.2 -22.5499,-11.9 -22.5499,-11.9 -1.83,-0.7 -2.78,-2.7 -2.12,-4.5 0.65,-1.8 2.66,-2.8 4.48,-2.1 0,0 13.3599,2.3 24.9999,5.1 3.63,0.9 7.02,1.8 9.77,2.7 3.85,1.2 6.36,2.2 6.36,2.2 2.9699,1.1 5.0299,3.8 5.2499,6.9 0.23,3.2 -1.44,6.2 -4.2299,7.6 0,0 -6.48,3 -14.06,6 -10.07,3.9 -21.71,7.8 -21.71,7.8 -1.71,0.9 -3.83,0.2 -4.7299,-1.5 -0.9,-1.7 -0.24,-3.8 1.4699,-4.7 0,0 9.36,-7.1 18.15,-13.1 z"
     id="path62-9"
     style="clip-rule:evenodd;fill-rule:evenodd;stroke:none;stroke-width:0.2;stroke-linejoin:round;stroke-miterlimit:2" /><path
     d="m 4184.7888,18723.278 c -1.93,-0.2 -3.35,-1.9 -3.17,-3.8 0.18,-2 1.89,-3.4 3.82,-3.2 0,0 35.0899,1.3 79.8298,3.9 10.2399,0.6 20.9599,1.3 31.8799,2.1 7.02,0.6 14.13,1.1 21.2199,1.8 18.12,1.8 36.18,4 52.8999,6.1 44.4599,5.6 79.1998,10.7 79.1998,10.7 1.93,0.2 3.35,1.9 3.17,3.8 -0.18,1.9 -1.89,3.4 -3.81,3.2 0,0 -35.0999,-1.4 -79.8198,-4.1 -16.8199,-1 -34.9799,-2.2 -53.1199,-3.8 -7.0999,-0.6 -14.1799,-1.3 -21.1799,-2.1 -10.89,-1.2 -21.5599,-2.5 -31.7299,-3.8 -44.4599,-5.6 -79.1898,-10.8 -79.1898,-10.8 z"
     id="path64-0"
     style="clip-rule:evenodd;fill-rule:evenodd;stroke:none;stroke-width:0.2;stroke-linejoin:round;stroke-miterlimit:2" /><path
     d="m 4195.3787,18721.178 c -0.52,-0.4 -1.0399,-0.8 -1.5699,-1.2 -8.95,-6.8 -18.52,-15.2 -18.52,-15.2 -1.65,-1 -2.19,-3.1 -1.19,-4.8 0.99,-1.6 3.15,-2.2 4.81,-1.2 0,0 11.89,4.5 22.0699,9.3 7.63,3.5 14.06,7.2 14.06,7.2 2.56,1.6 4.05,4.4 3.86,7.4 -0.19,3 -2.03,5.6 -4.76,6.8 0,0 -2.42,1.1 -6.13,2.5 -2.66,0.9 -5.93,2 -9.43,3.1 -11.1799,3.5 -24.0399,6.9 -24.0399,6.9 -1.77,0.8 -3.84,0 -4.62,-1.8 -0.78,-1.8 0.03,-3.9 1.8,-4.6 0,0 11.19,-7.2 21.32,-13.1 0.79,-0.5 1.5699,-0.9 2.3399,-1.3 z"
     id="path66-7"
     style="clip-rule:evenodd;fill-rule:evenodd;stroke:none;stroke-width:0.2;stroke-linejoin:round;stroke-miterlimit:2" /><path
     d="m 4225.7887,18655.278 c -1.81,-0.6 -2.73,-2.7 -2.05,-4.5 0.68,-1.8 2.7,-2.7 4.52,-2 0,0 27.7399,8.3 62.8898,19.9 8.04,2.6 16.42,5.5 24.9499,8.5 5.48,2 11.02,3.9 16.51,6 14.02,5.4 27.8799,11.2 40.6999,16.6 34.0999,14.3 60.4899,26.3 60.4899,26.3 1.81,0.7 2.7299,2.7 2.04,4.5 -0.68,1.8 -2.7,2.7 -4.51,2.1 0,0 -27.73,-8.4 -62.8299,-20.1 -13.1899,-4.4 -27.4199,-9.2 -41.5199,-14.4 -5.52,-2 -10.98,-4.2 -16.3799,-6.4 -8.39,-3.3 -16.59,-6.7 -24.38,-10 -34.0699,-14.4 -60.4298,-26.5 -60.4298,-26.5 z"
     id="path68-3"
     style="clip-rule:evenodd;fill-rule:evenodd;stroke:none;stroke-width:0.2;stroke-linejoin:round;stroke-miterlimit:2" /><path
     d="m 4234.8487,18655.778 c -5.24,-6.7 -10.24,-14.2 -10.24,-14.2 -1.4,-1.3 -1.46,-3.5 -0.13,-5 1.33,-1.4 3.55,-1.4 4.95,-0.1 0,0 8.6699,5.2 16.0399,10.4 2.28,1.6 4.33,3.2 5.99,4.6 2.32,1.9 3.75,3.3 3.75,3.3 2.24,2.1 3.06,5.4 2.09,8.3 -0.96,2.9 -3.53,5 -6.6,5.4 0,0 -5.78,0.5 -12.41,0.4 -8.8699,-0.1 -18.7999,-1 -18.7999,-1 -1.92,0.2 -3.67,-1.1 -3.91,-3 -0.24,-2 1.12,-3.7 3.04,-3.9 0,0 8.17,-2.9 16.23,-5.2 z"
     id="path70-0"
     style="clip-rule:evenodd;fill-rule:evenodd;stroke:none;stroke-width:0.2;stroke-linejoin:round;stroke-miterlimit:2" /><path
     d="m 4611.7177,19027.678 c 0.57,-0.4 3.5,-2.9 4.9,-4.9 1.65,-2.4 3.36,-5 3.09,-6.9 l -38.5499,-222.9 c -0.13,-0.7 -0.13,-1.4 -0.01,-2.1 0,0 9.29,-51.4 5.44,-104.2 -1.72,-23.5 -6.01,-47.3 -15.06,-66.801 -3.64,-7.8 -16.5799,-34.9 -45.8999,-51.1 -16.8799,-9.3 -39.1399,-15 -68.1098,-11.6 -1.92,0.3 -3.68,-1.1 -3.93,-3 -0.24,-1.9 1.11,-3.7 3.03,-3.9 30.8899,-4.3 54.7599,1.5 72.9498,11.2 31.9599,17 46.4399,45.9 50.4999,54.3 9.85,20.401 14.88,45.301 17.07,70.101 4.3799,49.5 -2.59,98 -3.81,105.9 1.88,10 17.5099,93.2 28.9399,154.9 6.49,35 11.61,63.1 12.2,67 0.7,4.8 -1.5,11.7 -5.45,17.6 -4.35,6.4 -10.73,10.9 -15.25,11.5 -4.35,0.5 -13.09,-2.1 -19.4899,-6.9 -4.96,-3.7 -8.29,-8.5 -8.9,-13.2 0,0 -21.76,-142.5 -21.76,-142.5 -0.72,1.5 -1.44,2.9 -2.15,4.3 -7.3799,14.2 -14.3599,23.2 -17.7399,27.1 l -5.6,169.5 c -0.29,3.4 -1.93,6.6 -4.78,9.1 -3.68,3.2 -9.7,5.4 -15.73,5.5 -9.6399,0.1 -18.5499,-4.8 -19.7799,-14.9 -0.3,-2.5 -0.33,-20.5 -0.15,-42.8 0.25,-30.9 0.8,-70.4 1.07,-88.4 -11.32,5.6 -22.0899,9.2 -33.0999,11.4 -12.79,2.5 -25.91,3.1 -40.6499,2.4 -2.39,6.7 -7.86,21.7 -14.05,35.6 -4.57,10.2 -9.54,19.8 -13.96,25.3 -4.5899,5.8 -14.3899,8.7 -21.2499,7 -6.04,-1.6 -10.37,-6 -8.71,-14.4 0.79,-3.9 3.3,-12.1 6.44,-21.6 6.99,-21.2 17.06,-48.8 17.06,-48.8 0.64,-1.8 2.64,-2.8 4.47,-2.1 1.8199,0.6 2.7799,2.6 2.1299,4.4 0,0 -9.5099,27.7 -16.0899,48.9 -2.83,9.1 -5.12,17 -5.8,20.8 -0.28,1.6 -0.15,2.7 0.59,3.5 0.93,0.9 2.46,1.1 4.06,1.1 3.66,0.1 7.94,-1.5 10.09,-4.3 3.97,-5.1 8.2899,-14.1 12.3199,-23.6 7.82,-18.4 14.37,-38.7 14.37,-38.7 0.72,-2.2 2.8,-3.6 5.09,-3.5 15.3199,0.8 28.7099,0.2 41.6999,-2.6 12.69,-2.7 24.9699,-7.6 38.3199,-15.4 1.79,-1 3.99,-1 5.78,0 1.78,1 2.87,3 2.86,5 0,0 0.02,56.7 0.28,98 0.13,21.4 0.28,38.7 0.61,41.1 0.25,1.9 2.09,2.4 3.82,2.7 2.2199,0.3 4.6699,0 6.7099,-0.8 1.02,-0.4 3.17,-1 2.45,-1.5 -0.15,-0.1 -0.14,0.3 -0.15,0.5 l 4.08,-171.7 c 0.05,-1.9 0.85,-3.8 2.22,-5.2 0,0 8.09,-8.5 16.98,-25.8 4.1,-8 8.35,-17.9 12.0599,-29.6 1.12,-3.5 4.52,-5.8 8.21,-5.5 3.69,0.3 6.7,3.1 7.25,6.7 0,0 6.59,42.9 13.02,85.8 6.18,41.2 12.2099,82.5 12.6599,86.1 0.05,0.5 0.54,0.8 0.94,1.2 0.94,1 2.15,2 3.42,2.8 2.43,1.5 5.05,2.9 6.73,2.9 z"
     id="path72-7"
     style="clip-rule:evenodd;fill-rule:evenodd;stroke:none;stroke-width:0.2;stroke-linejoin:round;stroke-miterlimit:2" /><path
     d="m 4393.8383,18947.678 c 58.8798,8.1 124.0096,-67.6 147.2096,-172.7 23.8599,-108.1 -5.59,-206.601 -65.7398,-219.901 -6.02,-1.3 -12.11,-1.8 -18.24,-1.3 82.2298,-10.6 112.6897,51.3 118.7297,64.1 30.3699,64.001 11.35,174.001 11.35,174.001 0,0 38.3199,211.7 39.9399,222.9 0.98,6.9 -8.23,19.8 -14.18,20.4 -5.28,0.6 -18.9799,-6.1 -19.9099,-13.5 -0.92,-7.3 -25.92,-171.6 -25.92,-171.6 -12.5799,39.5 -31.0499,58.4 -31.0499,58.4 0,0 -4.5,167 -4.89,172.1 -0.74,9.3 -24.8599,12.6 -26.5599,-0.6 -0.91,-7.2 0.09,-140 0.09,-140 -28.1699,16.2 -51.7799,19.8 -83.1798,18.1 0,0 -15.94,48.1 -27.9899,63.5 -6.18,7.8 -24.8,9 -22.36,-3.9 2.41,-12.7 22.7,-70 22.7,-70 z"
     id="path74-9"
     style="clip-rule:evenodd;fill-rule:evenodd;stroke:none;stroke-width:0.2;stroke-linejoin:round;stroke-miterlimit:2" /></g></svg>
