<?xml version="1.0" encoding="UTF-8" standalone="no"?>
<svg
   width="3443.231"
   height="2872.5845"
   viewBox="0 0 3443.231 2872.5845"
   version="1.1"
   xml:space="preserve"
   style="clip-rule:evenodd;fill-rule:evenodd;stroke-linejoin:round;stroke-miterlimit:2"
   id="svg5353"
   xmlns="http://www.w3.org/2000/svg"
   xmlns:svg="http://www.w3.org/2000/svg"><defs
   id="defs5353" />&#10;    <g
   id="vectorly-UNI-book-notebook"
   transform="matrix(5.4196579,0,0,5.4196579,-13463.036,-70307.572)"
   style="stroke-width:0.184513"><path
     d="m 2842.9841,12992.911 c 1.56,-1.1 3.76,-0.8 4.9,0.8 1.15,1.5 0.82,3.7 -0.74,4.9 0,0 -0.3,2.4 -2.56,6.2 -0.66,1.1 -1.36,2.3 -2.51,3.1 -1.17,0.8 -2.48,1 -3.78,1.3 -4.19,1 -6.61,0.8 -6.61,0.8 -1.5499,1.1 -3.7499,0.8 -4.8999,-0.8 -1.15,-1.5 -0.81,-3.7 0.75,-4.9 0,0 0.5,-2.4 2.66,-6.1 0.6699,-1.1 1.2599,-2.3 2.3999,-3.2 1.11,-0.8 2.42,-1.2 3.68,-1.5 4.29,-1 6.71,-0.6 6.71,-0.6 z"
     id="path3654"
     style="stroke:none;stroke-width:0.184513" /><path
     d="m 2817.7644,13011.06 c 1.56,-1.1 3.76,-0.8 4.9,0.8 1.15,1.5 0.82,3.7 -0.74,4.9 0,0 -0.3,2.4 -2.56,6.2 -0.66,1.1 -1.36,2.3 -2.51,3.1 -1.17,0.8 -2.48,1 -3.78,1.3 -4.19,1 -6.61,0.8 -6.61,0.8 -1.55,1.1 -3.75,0.8 -4.9,-0.8 -1.15,-1.5 -0.81,-3.7 0.75,-4.9 0,0 0.5,-2.4 2.66,-6.1 0.67,-1.1 1.26,-2.3 2.4,-3.2 1.11,-0.8 2.42,-1.2 3.68,-1.5 4.29,-1 6.71,-0.6 6.71,-0.6 z"
     id="path3656"
     style="stroke:none;stroke-width:0.184513" /><path
     d="m 2792.5446,13029.21 c 1.56,-1.1 3.76,-0.8 4.9,0.8 1.15,1.5 0.82,3.7 -0.74,4.9 0,0 -0.3,2.4 -2.56,6.2 -0.66,1.1 -1.36,2.3 -2.51,3.1 -1.17,0.8 -2.48,1 -3.78,1.3 -4.19,1 -6.6099,0.8 -6.6099,0.8 -1.55,1.1 -3.75,0.8 -4.9,-0.8 -1.15,-1.5 -0.81,-3.7 0.75,-4.9 0,0 0.5,-2.4 2.66,-6.1 0.67,-1.1 1.26,-2.3 2.3999,-3.2 1.11,-0.8 2.42,-1.2 3.68,-1.5 4.29,-1 6.71,-0.6 6.71,-0.6 z"
     id="path3658"
     style="stroke:none;stroke-width:0.184513" /><path
     d="m 2767.3249,13047.359 c 1.56,-1.1 3.76,-0.8 4.9,0.8 1.15,1.5 0.82,3.7 -0.74,4.9 0,0 -0.3,2.4 -2.56,6.2 -0.66,1.1 -1.36,2.3 -2.51,3.1 -1.17,0.8 -2.48,1 -3.78,1.3 -4.19,1 -6.61,0.8 -6.61,0.8 -1.55,1.1 -3.75,0.8 -4.9,-0.8 -1.15,-1.5 -0.81,-3.7 0.75,-4.9 0,0 0.5,-2.4 2.66,-6.1 0.67,-1.1 1.26,-2.3 2.4,-3.2 1.11,-0.8 2.42,-1.2 3.68,-1.5 4.29,-1 6.71,-0.6 6.71,-0.6 z"
     id="path3660"
     style="stroke:none;stroke-width:0.184513" /><path
     d="m 2742.1051,13065.508 c 1.56,-1.1 3.76,-0.8 4.9,0.8 1.15,1.5 0.82,3.7 -0.74,4.9 0,0 -0.3,2.4 -2.56,6.2 -0.66,1.1 -1.36,2.3 -2.51,3.1 -1.17,0.8 -2.48,1 -3.78,1.3 -4.1899,1 -6.6099,0.8 -6.6099,0.8 -1.55,1.1 -3.75,0.8 -4.9,-0.8 -1.15,-1.5 -0.81,-3.7 0.75,-4.9 0,0 0.5,-2.4 2.66,-6.1 0.67,-1.1 1.26,-2.3 2.4,-3.2 1.11,-0.8 2.4199,-1.2 3.6799,-1.5 4.29,-1 6.71,-0.6 6.71,-0.6 z"
     id="path3662"
     style="stroke:none;stroke-width:0.184513" /><path
     d="m 2716.8854,13083.658 c 1.56,-1.1 3.76,-0.8 4.9,0.8 1.15,1.5 0.82,3.7 -0.74,4.9 0,0 -0.3,2.4 -2.56,6.2 -0.66,1.1 -1.36,2.3 -2.51,3.1 -1.17,0.8 -2.48,1 -3.78,1.3 -4.19,1 -6.61,0.8 -6.61,0.8 -1.55,1.1 -3.75,0.8 -4.9,-0.8 -1.15,-1.5 -0.81,-3.7 0.75,-4.9 0,0 0.5,-2.4 2.66,-6.1 0.67,-1.1 1.26,-2.3 2.4,-3.2 1.11,-0.8 2.42,-1.2 3.68,-1.5 4.29,-1 6.71,-0.6 6.71,-0.6 z"
     id="path3664"
     style="stroke:none;stroke-width:0.184513" /><path
     d="m 2691.6658,13101.808 c 1.56,-1.1 3.76,-0.8 4.9,0.8 1.15,1.5 0.82,3.7 -0.74,4.9 0,0 -0.3,2.4 -2.56,6.2 -0.66,1.1 -1.36,2.3 -2.51,3.1 -1.17,0.8 -2.48,1 -3.7799,1.3 -4.19,1 -6.61,0.8 -6.61,0.8 -1.55,1.1 -3.75,0.8 -4.9,-0.8 -1.15,-1.5 -0.81,-3.7 0.75,-4.9 0,0 0.5,-2.4 2.66,-6.1 0.67,-1.1 1.26,-2.3 2.4,-3.2 1.11,-0.8 2.42,-1.2 3.68,-1.5 4.2899,-1 6.7099,-0.6 6.7099,-0.6 z"
     id="path3666"
     style="stroke:none;stroke-width:0.184513" /><path
     d="m 2666.4461,13119.957 c 1.56,-1.1 3.76,-0.8 4.9,0.8 1.15,1.5 0.82,3.7 -0.74,4.9 0,0 -0.3,2.4 -2.56,6.2 -0.66,1.1 -1.36,2.3 -2.51,3.1 -1.17,0.8 -2.48,1 -3.78,1.3 -4.19,1 -6.61,0.8 -6.61,0.8 -1.55,1.1 -3.75,0.8 -4.9,-0.8 -1.15,-1.5 -0.81,-3.7 0.75,-4.9 0,0 0.5,-2.4 2.66,-6.1 0.67,-1.1 1.26,-2.3 2.4,-3.2 1.11,-0.8 2.42,-1.2 3.68,-1.5 4.29,-1 6.71,-0.6 6.71,-0.6 z"
     id="path3668"
     style="stroke:none;stroke-width:0.184513" /><path
     d="m 2641.2265,13138.106 c 1.56,-1.1 3.76,-0.8 4.9,0.8 1.15,1.5 0.82,3.7 -0.74,4.9 0,0 -0.3,2.4 -2.56,6.2 -0.66,1.1 -1.36,2.3 -2.51,3.1 -1.17,0.8 -2.48,1 -3.7799,1.3 -4.19,1 -6.61,0.8 -6.61,0.8 -1.55,1.1 -3.75,0.8 -4.9,-0.8 -1.15,-1.5 -0.81,-3.7 0.75,-4.9 0,0 0.5,-2.4 2.66,-6.1 0.67,-1.1 1.26,-2.3 2.4,-3.2 1.11,-0.8 2.42,-1.2 3.68,-1.5 4.2899,-1 6.7099,-0.6 6.7099,-0.6 z"
     id="path3670"
     style="stroke:none;stroke-width:0.184513" /><path
     d="m 2616.0056,13156.256 c 1.56,-1.1 3.76,-0.8 4.9,0.8 1.15,1.5 0.82,3.7 -0.74,4.9 0,0 -0.3,2.4 -2.56,6.2 -0.66,1.1 -1.36,2.3 -2.51,3.1 -1.17,0.8 -2.48,1 -3.78,1.3 -4.19,1 -6.61,0.8 -6.61,0.8 -1.55,1.1 -3.75,0.8 -4.9,-0.8 -1.15,-1.5 -0.81,-3.7 0.75,-4.9 0,0 0.5,-2.4 2.66,-6.1 0.67,-1.1 1.26,-2.3 2.4,-3.2 1.11,-0.8 2.42,-1.2 3.68,-1.5 4.29,-1 6.71,-0.6 6.71,-0.6 z"
     id="path3672"
     style="stroke:none;stroke-width:0.184513" /><path
     d="m 2590.7866,13174.405 c 1.56,-1.1 3.76,-0.8 4.9,0.8 1.15,1.5 0.82,3.7 -0.74,4.9 0,0 -0.3,2.4 -2.56,6.2 -0.66,1.1 -1.36,2.3 -2.5099,3.1 -1.17,0.8 -2.48,1 -3.78,1.3 -4.19,1 -6.61,0.8 -6.61,0.8 -1.55,1.1 -3.75,0.8 -4.9,-0.8 -1.15,-1.5 -0.81,-3.7 0.75,-4.9 0,0 0.5,-2.4 2.66,-6.1 0.67,-1.1 1.26,-2.3 2.4,-3.2 1.11,-0.8 2.42,-1.2 3.68,-1.5 4.29,-1 6.7099,-0.6 6.7099,-0.6 z"
     id="path3674"
     style="stroke:none;stroke-width:0.184513" /><path
     d="m 2565.5677,13192.554 c 1.56,-1.1 3.76,-0.8 4.9,0.8 1.15,1.5 0.82,3.7 -0.74,4.9 0,0 -0.3,2.4 -2.56,6.2 -0.66,1.1 -1.36,2.3 -2.51,3.1 -1.17,0.8 -2.48,1 -3.78,1.3 -4.19,1 -6.61,0.8 -6.61,0.8 -1.55,1.1 -3.75,0.8 -4.9,-0.8 -1.15,-1.5 -0.81,-3.7 0.75,-4.9 0,0 0.5,-2.4 2.66,-6.1 0.67,-1.1 1.26,-2.3 2.4,-3.2 1.11,-0.8 2.42,-1.2 3.68,-1.5 4.29,-1 6.71,-0.6 6.71,-0.6 z"
     id="path3676"
     style="stroke:none;stroke-width:0.184513" /><path
     d="m 2540.3467,13210.704 c 1.56,-1.1 3.76,-0.8 4.9,0.8 1.15,1.5 0.82,3.7 -0.74,4.9 0,0 -0.3,2.4 -2.56,6.2 -0.66,1.1 -1.36,2.3 -2.5099,3.1 -1.17,0.8 -2.48,1 -3.78,1.3 -4.19,1 -6.61,0.8 -6.61,0.8 -1.55,1.1 -3.75,0.8 -4.9,-0.8 -1.15,-1.5 -0.81,-3.7 0.75,-4.9 0,0 0.5,-2.4 2.66,-6.1 0.67,-1.1 1.26,-2.3 2.4,-3.2 1.11,-0.8 2.42,-1.2 3.68,-1.5 4.29,-1 6.7099,-0.6 6.7099,-0.6 z"
     id="path3678"
     style="stroke:none;stroke-width:0.184513" /><path
     d="m 2811.4642,12981.111 c -1.92,0.2 -3.65,-1.2 -3.85,-3.1 -0.2,-1.9 1.19,-3.6 3.12,-3.8 0,0 3.26,-1.2 8.69,-1.5 1.89,-0.1 3.77,0.3 5.98,0.8 1.93,0.4 3.76,1.3 5.7099,2.5 1.16,0.6 2.29,1.5 3.3,2.5 1.66,1.7 3.16,3.8 4.23,6.4 0.63,1.5 1.25,3 1.58,4.8 0.6,3.4 0.96,6.7 0.55,11.1 0.37,1.9 -0.87,3.7 -2.77,4.1 -1.89,0.4 -3.74,-0.9 -4.11,-2.8 -1.1,-2 -2.33,-3.5 -3.46,-5.1 -1.7599,-2.5 -3.8199,-4 -5.5299,-5.6 -0.94,-1 -1.86,-1.7 -2.71,-2.5 -1.02,-0.9 -1.74,-2 -2.68,-2.7 -4.47,-3.5 -8.05,-5.1 -8.05,-5.1 z"
     id="path3680"
     style="stroke:none;stroke-width:0.184513" /><path
     d="m 2786.2444,12999.26 c -1.9199,0.2 -3.6499,-1.2 -3.8499,-3.1 -0.2,-1.9 1.19,-3.6 3.12,-3.8 0,0 3.2599,-1.2 8.6899,-1.5 1.89,-0.1 3.77,0.3 5.98,0.8 1.93,0.4 3.76,1.3 5.71,2.5 1.16,0.6 2.29,1.5 3.3,2.5 1.66,1.7 3.16,3.8 4.23,6.4 0.63,1.5 1.25,3 1.58,4.8 0.6,3.4 0.96,6.7 0.55,11.1 0.37,1.9 -0.87,3.7 -2.77,4.1 -1.89,0.4 -3.74,-0.9 -4.11,-2.8 -1.1,-2 -2.33,-3.5 -3.46,-5.1 -1.76,-2.5 -3.82,-4 -5.53,-5.6 -0.94,-1 -1.86,-1.7 -2.71,-2.5 -1.02,-0.9 -1.74,-2 -2.68,-2.7 -4.47,-3.5 -8.05,-5.1 -8.05,-5.1 z"
     id="path3682"
     style="stroke:none;stroke-width:0.184513" /><path
     d="m 2761.0247,13017.41 c -1.92,0.2 -3.65,-1.2 -3.85,-3.1 -0.2,-1.9 1.19,-3.6 3.12,-3.8 0,0 3.26,-1.2 8.69,-1.5 1.89,-0.1 3.77,0.3 5.98,0.8 1.93,0.4 3.76,1.3 5.71,2.5 1.16,0.6 2.2899,1.5 3.2999,2.5 1.66,1.7 3.16,3.8 4.23,6.4 0.63,1.5 1.25,3 1.58,4.8 0.6,3.4 0.96,6.7 0.55,11.1 0.37,1.9 -0.87,3.7 -2.77,4.1 -1.89,0.4 -3.74,-0.9 -4.11,-2.8 -1.1,-2 -2.3299,-3.5 -3.4599,-5.1 -1.76,-2.5 -3.82,-4 -5.53,-5.6 -0.94,-1 -1.86,-1.7 -2.71,-2.5 -1.02,-0.9 -1.74,-2 -2.68,-2.7 -4.47,-3.5 -8.05,-5.1 -8.05,-5.1 z"
     id="path3684"
     style="stroke:none;stroke-width:0.184513" /><path
     d="m 2735.805,13035.559 c -1.92,0.2 -3.65,-1.2 -3.85,-3.1 -0.2,-1.9 1.19,-3.6 3.12,-3.8 0,0 3.2599,-1.2 8.6899,-1.5 1.89,-0.1 3.77,0.3 5.98,0.8 1.93,0.4 3.76,1.3 5.71,2.5 1.16,0.6 2.29,1.5 3.3,2.5 1.66,1.7 3.16,3.8 4.23,6.4 0.63,1.5 1.25,3 1.58,4.8 0.6,3.4 0.96,6.7 0.55,11.1 0.37,1.9 -0.87,3.7 -2.77,4.1 -1.89,0.4 -3.74,-0.9 -4.11,-2.8 -1.1,-2 -2.33,-3.5 -3.46,-5.1 -1.76,-2.5 -3.82,-4 -5.53,-5.6 -0.94,-1 -1.86,-1.7 -2.71,-2.5 -1.02,-0.9 -1.74,-2 -2.68,-2.7 -4.47,-3.5 -8.0499,-5.1 -8.0499,-5.1 z"
     id="path3686"
     style="stroke:none;stroke-width:0.184513" /><path
     d="m 2710.5852,13053.708 c -1.92,0.2 -3.65,-1.2 -3.85,-3.1 -0.2,-1.9 1.19,-3.6 3.12,-3.8 0,0 3.26,-1.2 8.69,-1.5 1.89,-0.1 3.77,0.3 5.98,0.8 1.93,0.4 3.76,1.3 5.71,2.5 1.16,0.6 2.29,1.5 3.2999,2.5 1.66,1.7 3.16,3.8 4.23,6.4 0.63,1.5 1.25,3 1.58,4.8 0.6,3.4 0.96,6.7 0.55,11.1 0.37,1.9 -0.87,3.7 -2.77,4.1 -1.89,0.4 -3.7399,-0.9 -4.1099,-2.8 -1.1,-2 -2.33,-3.5 -3.46,-5.1 -1.76,-2.5 -3.82,-4 -5.53,-5.6 -0.94,-1 -1.86,-1.7 -2.71,-2.5 -1.02,-0.9 -1.74,-2 -2.68,-2.7 -4.47,-3.5 -8.05,-5.1 -8.05,-5.1 z"
     id="path3688"
     style="stroke:none;stroke-width:0.184513" /><path
     d="m 2685.3655,13071.858 c -1.92,0.2 -3.65,-1.2 -3.85,-3.1 -0.2,-1.9 1.19,-3.6 3.12,-3.8 0,0 3.26,-1.2 8.6899,-1.5 1.89,-0.1 3.77,0.3 5.98,0.8 1.93,0.4 3.76,1.3 5.71,2.5 1.16,0.6 2.29,1.5 3.3,2.5 1.66,1.7 3.16,3.8 4.23,6.4 0.63,1.5 1.25,3 1.58,4.8 0.6,3.4 0.96,6.7 0.55,11.1 0.37,1.9 -0.87,3.7 -2.77,4.1 -1.89,0.4 -3.74,-0.9 -4.11,-2.8 -1.1,-2 -2.33,-3.5 -3.46,-5.1 -1.76,-2.5 -3.82,-4 -5.53,-5.6 -0.94,-1 -1.86,-1.7 -2.71,-2.5 -1.02,-0.9 -1.74,-2 -2.68,-2.7 -4.47,-3.5 -8.0499,-5.1 -8.0499,-5.1 z"
     id="path3690"
     style="stroke:none;stroke-width:0.184513" /><path
     d="m 2660.1459,13090.008 c -1.92,0.2 -3.65,-1.2 -3.85,-3.1 -0.2,-1.9 1.19,-3.6 3.12,-3.8 0,0 3.26,-1.2 8.69,-1.5 1.89,-0.1 3.77,0.3 5.98,0.8 1.93,0.4 3.76,1.3 5.71,2.5 1.16,0.6 2.29,1.5 3.3,2.5 1.66,1.7 3.16,3.8 4.2299,6.4 0.63,1.5 1.25,3 1.58,4.8 0.6,3.4 0.96,6.7 0.55,11.1 0.37,1.9 -0.87,3.7 -2.7699,4.1 -1.89,0.4 -3.74,-0.9 -4.11,-2.8 -1.1,-2 -2.33,-3.5 -3.46,-5.1 -1.76,-2.5 -3.82,-4 -5.53,-5.6 -0.94,-1 -1.86,-1.7 -2.71,-2.5 -1.02,-0.9 -1.74,-2 -2.68,-2.7 -4.47,-3.5 -8.05,-5.1 -8.05,-5.1 z"
     id="path3692"
     style="stroke:none;stroke-width:0.184513" /><path
     d="m 2634.9262,13108.157 c -1.92,0.2 -3.65,-1.2 -3.85,-3.1 -0.2,-1.9 1.19,-3.6 3.12,-3.8 0,0 3.26,-1.2 8.6899,-1.5 1.89,-0.1 3.77,0.3 5.98,0.8 1.93,0.4 3.76,1.3 5.71,2.5 1.16,0.6 2.29,1.5 3.3,2.5 1.66,1.7 3.16,3.8 4.23,6.4 0.63,1.5 1.25,3 1.58,4.8 0.6,3.4 0.96,6.7 0.55,11.1 0.37,1.9 -0.87,3.7 -2.77,4.1 -1.89,0.4 -3.74,-0.9 -4.11,-2.8 -1.1,-2 -2.33,-3.5 -3.46,-5.1 -1.76,-2.5 -3.82,-4 -5.53,-5.6 -0.94,-1 -1.86,-1.7 -2.71,-2.5 -1.02,-0.9 -1.74,-2 -2.68,-2.7 -4.4699,-3.5 -8.0499,-5.1 -8.0499,-5.1 z"
     id="path3694"
     style="stroke:none;stroke-width:0.184513" /><path
     d="m 2609.7066,13126.306 c -1.92,0.2 -3.65,-1.2 -3.85,-3.1 -0.2,-1.9 1.19,-3.6 3.12,-3.8 0,0 3.26,-1.2 8.69,-1.5 1.89,-0.1 3.77,0.3 5.98,0.8 1.93,0.4 3.76,1.3 5.71,2.5 1.16,0.6 2.29,1.5 3.3,2.5 1.66,1.7 3.16,3.8 4.2299,6.4 0.63,1.5 1.25,3 1.58,4.8 0.6,3.4 0.96,6.7 0.55,11.1 0.37,1.9 -0.87,3.7 -2.7699,4.1 -1.89,0.4 -3.74,-0.9 -4.11,-2.8 -1.1,-2 -2.33,-3.5 -3.46,-5.1 -1.76,-2.5 -3.82,-4 -5.53,-5.6 -0.94,-1 -1.86,-1.7 -2.71,-2.5 -1.02,-0.9 -1.74,-2 -2.68,-2.7 -4.47,-3.5 -8.05,-5.1 -8.05,-5.1 z"
     id="path3696"
     style="stroke:none;stroke-width:0.184513" /><path
     d="m 2584.4857,13144.456 c -1.92,0.2 -3.65,-1.2 -3.85,-3.1 -0.2,-1.9 1.19,-3.6 3.12,-3.8 0,0 3.26,-1.2 8.6899,-1.5 1.89,-0.1 3.77,0.3 5.98,0.8 1.93,0.4 3.76,1.3 5.71,2.5 1.16,0.6 2.29,1.5 3.3,2.5 1.66,1.7 3.16,3.8 4.23,6.4 0.63,1.5 1.25,3 1.58,4.8 0.6,3.4 0.96,6.7 0.55,11.1 0.37,1.9 -0.87,3.7 -2.77,4.1 -1.89,0.4 -3.74,-0.9 -4.11,-2.8 -1.1,-2 -2.33,-3.5 -3.46,-5.1 -1.76,-2.5 -3.82,-4 -5.53,-5.6 -0.94,-1 -1.86,-1.7 -2.71,-2.5 -1.02,-0.9 -1.74,-2 -2.68,-2.7 -4.4699,-3.5 -8.0499,-5.1 -8.0499,-5.1 z"
     id="path3698"
     style="stroke:none;stroke-width:0.184513" /><path
     d="m 2559.2667,13162.605 c -1.92,0.2 -3.65,-1.2 -3.85,-3.1 -0.2,-1.9 1.19,-3.6 3.12,-3.8 0,0 3.26,-1.2 8.69,-1.5 1.89,-0.1 3.77,0.3 5.98,0.8 1.93,0.4 3.76,1.3 5.71,2.5 1.16,0.6 2.29,1.5 3.3,2.5 1.66,1.7 3.16,3.8 4.23,6.4 0.63,1.5 1.25,3 1.58,4.8 0.6,3.4 0.96,6.7 0.55,11.1 0.37,1.9 -0.87,3.7 -2.77,4.1 -1.89,0.4 -3.74,-0.9 -4.11,-2.8 -1.1,-2 -2.33,-3.5 -3.46,-5.1 -1.76,-2.5 -3.82,-4 -5.53,-5.6 -0.94,-1 -1.86,-1.7 -2.71,-2.5 -1.02,-0.9 -1.74,-2 -2.68,-2.7 -4.47,-3.5 -8.05,-5.1 -8.05,-5.1 z"
     id="path3700"
     style="stroke:none;stroke-width:0.184513" /><path
     d="m 2534.0478,13180.754 c -1.92,0.2 -3.65,-1.2 -3.85,-3.1 -0.2,-1.9 1.19,-3.6 3.12,-3.8 0,0 3.26,-1.2 8.69,-1.5 1.89,-0.1 3.7699,0.3 5.9799,0.8 1.93,0.4 3.76,1.3 5.71,2.5 1.16,0.6 2.29,1.5 3.3,2.5 1.66,1.7 3.16,3.8 4.23,6.4 0.63,1.5 1.25,3 1.58,4.8 0.6,3.4 0.96,6.7 0.55,11.1 0.37,1.9 -0.87,3.7 -2.77,4.1 -1.89,0.4 -3.74,-0.9 -4.11,-2.8 -1.1,-2 -2.33,-3.5 -3.46,-5.1 -1.76,-2.5 -3.82,-4 -5.53,-5.6 -0.94,-1 -1.86,-1.7 -2.7099,-2.5 -1.02,-0.9 -1.74,-2 -2.68,-2.7 -4.47,-3.5 -8.05,-5.1 -8.05,-5.1 z"
     id="path3702"
     style="stroke:none;stroke-width:0.184513" /><path
     d="m 2508.8268,13198.904 c -1.92,0.2 -3.65,-1.2 -3.85,-3.1 -0.2,-1.9 1.19,-3.6 3.12,-3.8 0,0 3.26,-1.2 8.69,-1.5 1.89,-0.1 3.77,0.3 5.98,0.8 1.93,0.4 3.76,1.3 5.71,2.5 1.16,0.6 2.29,1.5 3.3,2.5 1.66,1.7 3.16,3.8 4.23,6.4 0.63,1.5 1.25,3 1.58,4.8 0.6,3.4 0.96,6.7 0.55,11.1 0.37,1.9 -0.87,3.7 -2.77,4.1 -1.89,0.4 -3.74,-0.9 -4.11,-2.8 -1.1,-2 -2.33,-3.5 -3.46,-5.1 -1.76,-2.5 -3.82,-4 -5.53,-5.6 -0.94,-1 -1.86,-1.7 -2.71,-2.5 -1.02,-0.9 -1.74,-2 -2.68,-2.7 -4.47,-3.5 -8.05,-5.1 -8.05,-5.1 z"
     id="path3704"
     style="stroke:none;stroke-width:0.184513" /><path
     d="m 2497.175,13234.511 c 0.33,9.4 0.34,15.5 0.48,19.6 0.09,2.7 0.01,4.2 0.53,5.4 0.05,0 0.11,0.1 0.16,0.1 1.37,1.4 4.3,4.2 8.46,8 16.6099,15.4 52.4198,47.8 88.2997,80.2 47.3699,42.8 94.8498,85.5 98.3498,88.2 11.57,9.2 27.8699,23.5 44.9699,29.7 9.8,3.6 19.8999,4.4 29.1599,-1.6 35.3199,-22.9 84.9698,-61.1 135.1497,-101.2 88.7598,-71 179.0195,-148.3 193.5095,-160.8 0.44,-6 1.71,-11.3 3.28,-15.8 1.7,-4.9 3.73,-8.9 5.46,-11.7 l -264.3194,-190.6 c -1.58,-1.2 -1.95,-3.4 -0.84,-4.9 1.12,-1.6 3.31,-2 4.89,-0.9 l 272.1593,190 c 1.38,0.9 2.29,2.5 2.51,4.1 0.22,1.7 -0.28,3.4 -1.37,4.7 0,0 -3.98,5 -6.7299,13.3 -1.4,4.2 -2.46,9.2 -2.54,15 -0.03,1.8 -0.82,3.4 -2.16,4.6 0,0 -97.7598,86.5 -194.2696,164.9 -50.3598,40.8 -100.4497,79.4 -135.9996,102.7 -13.81,8.9 -28.7899,8.5 -43.3599,3.2 -18.69,-6.9 -36.6699,-22.3 -49.2999,-32.4 -3.99,-3.2 -65.1298,-58.9 -117.9997,-107.6 -41.4399,-38.1 -77.6898,-72.3 -78.6898,-73.9 -1.35,-2.3 -2.14,-4.7 -2.41,-9 -0.29,-4.3 -0.08,-11.4 -0.44,-25 -0.03,-1 0.12,-2.8 1.53,-4.7 0.88,-1.3 3.05,-3.5 6.48,-6.4 10,-8.6 32.1199,-25.3 60.5298,-46.1 98.8998,-72.2 274.1894,-194.2 274.1894,-194.2 1.58,-1.1 3.7699,-0.7 4.8899,0.8 1.11,1.6 0.74,3.8 -0.84,4.9 0,0 -109.6297,78.8 -203.7594,148.1 -51.8299,38.1 -98.9498,73.3 -120.3197,90.9 -4.53,3.7 -7.83,6.6 -9.64,8.4 z"
     id="path3706"
     style="stroke:none;stroke-width:0.184513" /><path
     d="m 2488.265,13235.211 c -1.44,-1.3 -1.56,-3.6 -0.27,-5 1.29,-1.4 3.51,-1.6 4.95,-0.3 0,0 73.5698,63.8 137.0896,119.5 45.4999,39.9 85.7998,75.8 90.8898,80.7 9.56,9.2 17.54,14.1 25.58,14.9 8.6899,0.9 17.0399,-3.3 27.0399,-10.5 1.51,-1.1 22.4899,-18 53.4699,-42.4 22.8699,-18.1 51.1598,-40.3 80.9698,-63.6 94.1397,-73.6 203.1795,-158.1 203.1795,-158.1 1.5099,-1.2 3.7199,-1 4.9299,0.5 1.2,1.5 0.96,3.7 -0.55,4.9 0,0 -106.3097,88 -198.8095,163.6 -29.2899,24 -57.2098,46.7 -79.9098,65 -31.0999,25 -52.4698,41.9 -53.9898,43 -13.93,9.9 -25.93,14.5 -37.9299,13.2 -10.79,-1.2 -21.92,-7.2 -34.58,-19.7 z"
     id="path3708"
     style="stroke:none;stroke-width:0.184513" /><path
     d="m 3076.5735,13145.811 c 1.52,-1.2 3.73,-0.9 4.92,0.6 1.19,1.5 0.93,3.7 -0.6,4.9 0,0 -46.8899,39.2 -107.3197,88.3 -22.7299,18.5 -47.3799,38.3 -72.2298,58 -12.19,9.6 -24.48,19.1 -36.5699,28.4 -12.56,9.6 -24.94,19 -36.8599,28 -55.8899,42.2 -101.2198,75.9 -109.7598,82.3 l -1.93,24.7 c -0.1,1.9 -1.75,3.4 -3.68,3.3 -1.93,-0.1 -3.4199,-1.8 -3.3199,-3.7 l 0.6999,-26.8 c 0.06,-1.2 0.65,-2.3 1.61,-3.1 0,0 47.1099,-38.9 107.5598,-87.9 11.5899,-9.5 23.6699,-19.2 36.0599,-29.1 11.93,-9.5 24.0899,-19.2 36.3599,-28.7 25.0099,-19.4 50.2199,-38.6 73.6098,-56.2 62.1599,-46.9 111.4497,-83 111.4497,-83 z"
     id="path3710"
     style="stroke:none;stroke-width:0.184513" /><path
     d="m 2841.5341,13062.911 c -0.56,0.2 -1.4,0.5 -2.12,0.7 -2.61,1 -6.03,2.6 -9.9699,4.4 -17,8.2 -43.2099,23 -54.2699,32.3 3.4,2.7 8.54,6.6 14.71,11.3 13.3599,10.1 31.3999,23.4 48.2998,35.6 21.51,15.4 40.8999,29.2 46.0299,30.6 1.34,0.3 3.36,-0.2 5.88,-1 5.27,-1.6 11.89,-4.7 18.75,-8.2 18.7899,-9.7 39.2199,-22.9 39.2199,-22.9 1.59,-1.1 3.7699,-0.7 4.8799,0.9 1.1,1.5 0.71,3.7 -0.88,4.8 0,0 -25.2299,18.7 -45.3698,29.5 -7.03,3.8 -13.53,6.6 -18.25,7.6 -2.78,0.6 -5.14,0.6 -6.96,0.2 -5.58,-1.3 -27.4899,-14.3 -51.2198,-30 -17.5,-11.6 -36.07,-24.6 -49.7499,-34.5 -11.72,-8.5 -19.93,-15.2 -21.61,-17.1 -2.16,-2.5 -3.04,-5.7 -1.73,-9.5 0.52,-1.6 1.61,-3.5 3.47,-5.6 2.37,-2.6 6.43,-5.9 11.64,-9.4 14.28,-9.7 37.5899,-21.9 52.8399,-28.5 8.1099,-3.5 14.3899,-5.3 16.7299,-5.2 1.11,0 3.05,0.3 5.52,1.5 4.29,2.1 12.35,7.3 22.23,14.3 33.6299,23.8 89.7197,68.4 89.7197,68.4 1.54,1.1 1.85,3.3 0.69,4.9 -1.16,1.5 -3.36,1.8 -4.91,0.7 0,0 -46.3998,-33 -80.9198,-55.8 -11.4199,-7.6 -21.4899,-14.1 -28.1099,-17.8 -1.66,-0.9 -3.54,-1.7 -4.54,-2.2 z m -68.7498,39.2 c -0.69,0.5 -1.14,1 -0.73,1.2 0.64,0.4 0.77,-0.3 0.73,-1.2 z m -1.78,-5.4 c 0,0 -0.01,0 -0.01,0 z"
     id="path3712"
     style="stroke:none;stroke-width:0.184513" /><path
     d="m 3102.4235,13205.111 c -1.84,11.4 -2.75,25.3 -58.5399,77.6 -9.78,9.2 -235.6794,191.7 -270.9093,210.6 -29.4599,15.8 -53.2299,11.1 -79.0498,-9.5 -10.42,-8.4 -143.6097,-127.6 -162.8596,-147.3 -30.5799,-31.4 -37.1099,-49.9 -39.2099,-75 0.22,0.7 0.49,1.2 0.83,1.8 2.29,3.8 188.8095,173.2 195.8695,178.9 20.34,16.2 54.9299,47.1 83.3898,28.6 103.5997,-67.5 330.4792,-265.7 330.4792,-265.7 z"
     id="path3714"
     style="stroke:none;stroke-width:0.184513" /></g>&#10;</svg>
