<?xml version="1.0" encoding="UTF-8" standalone="no"?>
<svg
   width="3240.7546"
   height="2875.0879"
   viewBox="0 0 3240.7547 2875.0879"
   version="1.1"
   xml:space="preserve"
   style="clip-rule:evenodd;fill-rule:evenodd;stroke-linejoin:round;stroke-miterlimit:2"
   id="svg5353"
   xmlns="http://www.w3.org/2000/svg"
   xmlns:svg="http://www.w3.org/2000/svg"><defs
   id="defs5353" />&#10;    <g
   id="vectorly-UNI-chart-magnifier"
   style="stroke:none;stroke-width:0.2"
   transform="matrix(4.9999999,0,0,4.9999999,-325.8358,-473.72011)"><path
     d="m 317.67338,488.45388 c -1.92899,0.144 -3.61199,-1.305 -3.75599,-3.234 -0.144,-1.929 1.305,-3.612 3.23399,-3.756 0,0 32.55792,-4.377 75.53582,-9.62499 9.63697,-1.177 19.79395,-2.325 30.23092,-3.451 6.63398,-0.716 13.37397,-1.452 20.17095,-2.04 16.90696,-1.461 34.08692,-2.636 50.53087,-3.811 29.64493,-2.119 56.81486,-3.861 75.66382,-6.129 1.90899,-0.314 3.71399,0.98 4.02799,2.889 0.315,1.908 -0.979,3.713 -2.888,4.028 -18.71195,3.93 -45.72688,8.682 -75.37681,12.79799 -16.38496,2.275 -33.53092,4.452 -50.47287,6.147 -6.80699,0.681 -13.58597,1.181 -20.25795,1.661 -10.49298,0.755 -20.71595,1.39 -30.43293,1.87 -43.30689,2.14 -76.20981,2.653 -76.20981,2.653 z"
     id="path1"
     style="stroke:none;stroke-width:0.2" /><path
     d="m 475.93287,505.87109 c -1.92891,0.14837 -3.61525,-1.29711 -3.76363,-3.22554 -0.14838,-1.92881 1.29685,-3.6152 3.22576,-3.76394 0,0 11.57747,-2.82315 27.24878,-5.78492 3.47924,-0.65755 7.13704,-1.24803 10.92795,-1.78718 2.39877,-0.34133 4.83682,-0.69089 7.30688,-0.88235 6.15695,-0.47658 12.39718,-0.59872 18.39593,-0.69764 10.87412,-0.17984 20.66633,0.12851 27.60808,-0.20981 1.90746,-0.32409 3.71854,0.9614 4.04257,2.86885 0.32367,1.90708 -0.96155,3.71823 -2.86864,4.04232 -6.79883,2.01199 -16.43684,4.68639 -27.31242,6.88046 -5.93729,1.19782 -12.14261,2.32258 -18.33665,3.03333 -2.47915,0.28438 -4.95829,0.39828 -7.39671,0.50431 -3.84763,0.1671 -7.57381,0.24504 -11.13524,0.20645 -16.0117,-0.17235 -27.94266,-1.18434 -27.94266,-1.18434 z"
     id="path2"
     style="stroke:none;stroke-width:0.073826" /><path
     d="m 482.74756,543.85957 c -1.92891,0.14837 -3.61525,-1.29711 -3.76363,-3.22554 -0.14838,-1.92881 1.29685,-3.6152 3.22576,-3.76394 0,0 11.57747,-2.82315 27.24878,-5.78492 3.47924,-0.65755 7.13704,-1.24803 10.92795,-1.78718 2.39877,-0.34133 4.83682,-0.69089 7.30688,-0.88235 6.15695,-0.47658 12.39718,-0.59872 18.39593,-0.69764 10.87412,-0.17984 20.66633,0.12851 27.60808,-0.20981 1.90746,-0.32409 3.71854,0.9614 4.04257,2.86885 0.32367,1.90708 -0.96155,3.71823 -2.86864,4.04232 -6.79883,2.01199 -16.43684,4.68639 -27.31242,6.88046 -5.93729,1.19782 -12.14261,2.32258 -18.33665,3.03333 -2.47915,0.28438 -4.95829,0.39828 -7.39671,0.50431 -3.84763,0.1671 -7.57381,0.24504 -11.13524,0.20645 -16.0117,-0.17235 -27.94266,-1.18434 -27.94266,-1.18434 z"
     id="path4"
     style="stroke:none;stroke-width:0.073826" /><path
     d="m 492.96658,579.17994 c -1.92891,0.14837 -3.61525,-1.29711 -3.76363,-3.22554 -0.14838,-1.92881 1.29685,-3.6152 3.22576,-3.76394 0,0 11.57747,-2.82315 27.24878,-5.78492 3.47924,-0.65755 7.13704,-1.24803 10.92795,-1.78718 2.39877,-0.34133 4.83682,-0.69089 7.30688,-0.88235 6.15695,-0.47658 12.39718,-0.59872 18.39593,-0.69764 10.87412,-0.17984 20.66633,0.12851 27.60808,-0.20981 1.90746,-0.32409 3.71854,0.9614 4.04257,2.86885 0.32367,1.90708 -0.96155,3.71823 -2.86864,4.04232 -6.79883,2.01199 -16.43684,4.68639 -27.31242,6.88046 -5.93729,1.19782 -12.14261,2.32258 -18.33665,3.03333 -2.47915,0.28438 -4.95829,0.39828 -7.39671,0.50431 -3.84763,0.1671 -7.57381,0.24504 -11.13524,0.20645 -16.0117,-0.17235 -27.94266,-1.18434 -27.94266,-1.18434 z"
     id="path6"
     style="stroke:none;stroke-width:0.073826" /><path
     d="m 498.80545,606.43149 c -1.92891,0.14837 -3.61525,-1.29711 -3.76363,-3.22554 -0.14838,-1.92881 1.29685,-3.6152 3.22576,-3.76394 0,0 11.57747,-2.82315 27.24878,-5.78492 3.47924,-0.65755 7.13704,-1.24803 10.92795,-1.78718 2.39877,-0.34133 4.83682,-0.69089 7.30688,-0.88235 6.15695,-0.47658 12.39718,-0.59872 18.39593,-0.69764 10.87412,-0.17984 20.66633,0.12851 27.60808,-0.20981 1.90746,-0.32409 3.71854,0.9614 4.04257,2.86885 0.32367,1.90708 -0.96155,3.71823 -2.86864,4.04232 -6.79883,2.01199 -16.43684,4.68639 -27.31242,6.88046 -5.93729,1.19782 -12.14261,2.32258 -18.33665,3.03333 -2.47915,0.28438 -4.95829,0.39828 -7.39671,0.50431 -3.84763,0.1671 -7.57381,0.24504 -11.13524,0.20645 -16.0117,-0.17235 -27.94266,-1.18434 -27.94266,-1.18434 z"
     id="path8"
     style="stroke:none;stroke-width:0.073826" /><path
     d="m 435.45909,487.24188 c 0.855,-1.735 2.95799,-2.45 4.69299,-1.595 1.73499,0.855 2.44999,2.958 1.59499,4.693 0,0 -8.08298,21.67399 -15.92696,40.22598 -2.92299,6.91 -5.81998,13.352 -8.01298,18.12299 4.96999,1.807 11.64097,4.281 18.67896,7.038 18.87795,7.393 40.2639,16.625 40.2639,16.625 1.83999,0.59899 2.84599,2.57899 2.24699,4.41799 -0.599,1.84 -2.57899,2.846 -4.41799,2.247 0,0 -22.71994,-5.137 -42.33089,-10.28399 -14.90797,-3.912 -27.88993,-7.868 -27.88993,-7.868 -2.206,-0.719 -3.99099,-2.36 -4.89299,-4.497 -0.901,-2.138 -0.83,-4.562 0.196,-6.643 0,0 6.06098,-12.03799 13.60396,-25.34599 9.93198,-17.52299 22.19395,-37.13698 22.19395,-37.13698 z"
     id="path10"
     style="stroke:none;stroke-width:0.2" /><path
     d="m 459.75603,515.11787 c 1.62799,-1.046 3.79799,-0.573 4.84299,1.055 1.04499,1.628 0.572,3.798 -1.056,4.843 0,0 -5.98599,6.13899 -14.55196,13.50499 -1.921,1.652 -3.97699,3.277 -6.14799,4.893 -1.384,1.031 -2.78799,2.073 -4.28099,2.978 -3.83999,2.325 -7.83798,4.282 -11.59197,6.05799 -10.18197,4.817 -18.24095,7.76 -18.24095,7.76 -1.628,1.045 -3.798,0.572 -4.84299,-1.056 -1.046,-1.628 -0.572,-3.798 1.05499,-4.843 0,0 6.03099,-6.10399 14.64797,-13.35599 3.17799,-2.675 6.62098,-5.496 10.33397,-8.019 1.444,-0.982 2.975,-1.824 4.48899,-2.654 2.373,-1.301 4.70599,-2.49399 7.00798,-3.55299 10.26298,-4.724 18.33596,-7.611 18.33596,-7.611 z"
     id="path12"
     style="stroke:none;stroke-width:0.2" /><path
     d="m 430.2751,505.16287 c 1.788,0.737 2.641,2.788 1.904,4.576 -0.737,1.789 -2.788,2.642 -4.57599,1.905 -23.77094,-8.562 -43.17289,-4.086 -56.00386,6.962 -7.17398,6.17799 -12.04897,14.47899 -14.44897,23.55799 -2.30499,8.72399 -2.19299,18.21099 0.91,27.32899 3.80199,12.39999 12.31697,20.82399 22.69494,25.68499 7.39399,3.46299 15.65997,5.28399 24.03195,5.33999 21.29894,0.142 43.05989,-10.25699 51.17287,-31.29298 0.619,-1.832 2.60899,-2.818 4.44199,-2.199 1.83299,0.619 2.81799,2.609 2.19899,4.442 -7.47098,25.66799 -32.21792,40.30998 -57.41986,41.96998 -18.61895,1.227 -37.4349,-4.886 -50.11487,-18.21899 -5.33199,-5.608 -9.47798,-12.594 -12.19897,-20.817 -3.75299,-12.26099 -3.70599,-24.94899 -0.086,-36.40498 3.69199,-11.687 10.83497,-22.15899 20.79395,-29.47299 16.14996,-11.85999 39.6039,-16.00099 66.69983,-3.361 z"
     id="path14"
     style="stroke:none;stroke-width:0.2" /><path
     d="m 315.38843,145.16548 c 44.74032,-0.58745 85.52632,16.08797 115.53788,43.47564 31.26939,28.53493 50.76107,68.72203 51.27134,113.30001 0.3755,44.92238 -18.62433,85.76028 -49.60345,115.08422 -30.11062,28.50037 -71.54858,46.02241 -117.20577,46.18251 -45.63992,-0.20963 -87.03641,-17.76968 -117.11593,-46.27926 -30.93189,-29.31704 -49.91791,-70.10771 -49.53088,-114.98747 0.49069,-44.53882 19.95933,-84.69021 51.18149,-113.22053 29.98391,-27.39804 70.73882,-44.10226 115.46532,-43.55512 z m 0,7.01019 c -42.45505,0.52064 -80.76687,17.20642 -108.61525,43.86728 -28.32064,27.11354 -45.74819,64.6122 -45.29321,105.89818 0.35247,40.94502 18.37438,77.76179 46.94497,104.13353 27.71477,25.58157 65.42762,41.33204 106.96349,41.14199 41.51743,0.14628 79.18652,-15.65027 106.87248,-41.23875 28.52337,-26.36368 46.52916,-63.13437 46.87126,-104.03677 0.47226,-41.24681 -16.92881,-78.71208 -45.20337,-105.81755 -27.82189,-26.67238 -66.10031,-43.39041 -108.54037,-43.94791 z"
     id="path16"
     style="stroke:none;stroke-width:0.23037" /><path
     d="m 514.87989,110.98303 c -3.36999,-0.239 -9.35997,-0.574 -15.28296,-0.468 -39.5079,0.705 -125.34969,8.705 -202.0855,17.727 -57.48986,6.75999 -109.86473,14.01199 -133.73867,19.54899 -3.86299,0.896 -7.56298,2.115 -9.61097,2.832 2.55399,11.89399 5.67398,25.61899 9.26897,40.77998 3.201,13.496 6.77299,28.12399 10.68498,43.60598 0.497,1.869 -0.616,3.791 -2.486,4.288 -1.86899,0.498 -3.79099,-0.616 -4.28799,-2.485 -5.26098,-18.81099 -10.00097,-36.35898 -14.08896,-52.14598 -3.35099,-12.94399 -6.25999,-24.70099 -8.69398,-34.98798 -0.405,-1.713 -0.009,-4.543 3.64599,-6.641 2.97899,-1.711 10.21698,-3.922 20.77995,-6.299 38.7299,-8.71699 124.61769,-21.36299 201.9035,-30.42398 58.05486,-6.807001 111.26772,-11.557999 136.10466,-11.569999 8.22298,-0.004 13.83197,0.736 16.29196,1.674999 4.09599,1.564 5.51099,4.406 6.00399,6.536 12.93296,57.38497 26.94393,109.74395 40.8999,157.26393 17.28495,58.85898 34.69591,110.23296 51.28387,154.14994 49.60087,131.31395 91.25577,195.94192 91.25577,195.94192 1.074,1.609 0.64,3.787 -0.969,4.861 -1.60899,1.074 -3.78799,0.639 -4.86098,-0.97 0,0 -55.57087,-80.42497 -116.48772,-246.2579 -16.69295,-45.44098 -33.78091,-97.30396 -50.02687,-155.71994 -8.84198,-31.79398 -17.30396,-65.56297 -25.50394,-101.24096 z m -1.019,-4.44699 c -0.005,-0.022 -0.01,-0.044 -0.015,-0.066 0.005,0.022 0.01,0.044 0.015,0.066 z M 334.52734,653.36881 c 1.152,0.163 3.74899,0.502 5.96998,0.586 10.11398,0.385 26.89794,-0.662 47.77489,-2.42 14.49896,-1.222 30.93792,-2.779 48.47288,-4.555 31.64492,-3.20599 66.83583,-7.14399 100.63875,-11.06899 79.3078,-9.208 150.90362,-18.37599 150.90362,-18.37599 1.913,-0.288 3.69899,1.032 3.98699,2.945 0.287,1.91299 -1.032,3.69899 -2.94499,3.98699 0,0 -84.63179,14.636 -171.79957,27.18599 -40.6349,5.851 -81.8048,11.298 -115.20172,14.611 -30.73292,3.05 -55.01486,4.21399 -66.52383,3.06 -6.76899,-0.679 -10.66798,-3.01 -12.07197,-4.722 -15.32297,-18.82399 -32.02892,-50.60198 -48.42488,-90.06997 -17.17196,-41.33798 -34.08892,-91.13696 -50.01688,-142.62994 -0.608,-1.836 0.389,-3.821 2.22499,-4.429 1.837,-0.608 3.821,0.389 4.42899,2.225 17.84396,50.50298 36.88791,99.15396 55.27087,139.65995 16.53296,36.42998 32.47792,66.16297 47.31188,84.01096 z m 1.093,1.296 c 0.002,0.002 0.004,0.004 0.005,0.006 -10e-4,-0.002 -0.003,-0.004 -0.005,-0.006 z"
     id="path18"
     style="stroke:none;stroke-width:0.2" /><path
     d="m 221.77262,201.346 c -0.474,-1.876 0.663,-3.783 2.53799,-4.258 1.876,-0.474 3.78299,0.663 4.25799,2.538 0,0 11.65797,39.85198 24.18194,84.13196 3.38199,11.956 6.79099,24.23099 10.05598,36.13499 3.94499,14.38399 7.71698,28.19499 10.86997,40.22498 3.86399,14.742 6.89098,26.77599 8.62598,33.76199 11.60297,-1.169 36.35891,-3.627 63.46084,-6.091 49.06288,-4.46 105.73274,-9.019 105.73274,-9.019 1.92199,-0.221 3.66199,1.16 3.88299,3.082 0.221,1.922 -1.16,3.662 -3.08199,3.883 0,0 -56.22686,8.417 -105.02274,15.205 -37.23291,5.17899 -70.10483,9.35399 -70.10483,9.35399 -3.93399,0.452 -7.59598,-2.076 -8.56698,-5.915 0,0 -4.37999,-16.60999 -10.18397,-40.39998 -2.94799,-12.08199 -6.19699,-26.02499 -9.56798,-40.55598 -2.78899,-12.023 -5.62798,-24.44299 -8.33898,-36.56799 C 230.4706,241.94698 221.77262,201.346 221.77262,201.346 Z"
     id="path20"
     style="stroke:none;stroke-width:0.2" /><path
     d="m 349.2723,330.50994 c 0.137,-0.311 0.017,-0.518 -0.29,-0.651 -0.223,-0.391 -0.465,-0.555 -0.75199,-0.356 -0.075,0.052 -0.036,0.124 0.037,0.195 -1.64,-0.18 -4.84799,0.255 -7.20999,0.271 -4.40999,0.03 -9.44697,0.476 -14.18996,1.142 -4.83899,0.679 -9.37198,1.475 -12.33197,2.712 0.101,0.513 0.205,1.051 0.258,1.547 0.387,3.609 1.162,8.416 2.06699,13.77 3.37999,20.00699 8.89898,47.05498 8.89898,47.05498 0.521,1.863 -0.569,3.798 -2.43199,4.319 -1.863,0.521 -3.79799,-0.568 -4.31899,-2.432 0,0 -9.39798,-26.29799 -15.02696,-46.02298 -1.931,-6.767 -3.32,-12.786 -3.96699,-16.768 -0.497,-3.058 -0.369,-5.346 -0.142,-6.60299 0.49199,-2.552 2.40899,-5.452 6.25398,-7.759 3.71099,-2.227 10.29497,-4.337 17.64996,-5.486 9.17397,-1.433 19.52495,-1.497 26.04193,-0.198 4.62799,0.923 7.89598,2.716 9.51998,4.58 0.933,1.079 2.22399,3.064 3.25099,6.025 1.348,3.88999 2.86199,9.96899 4.20099,16.97499 3.87099,20.25999 7.05398,48.17198 7.05398,48.17198 0.344,1.903 -0.922,3.728 -2.82599,4.072 -1.904,0.344 -3.72899,-0.922 -4.07299,-2.825 0,0 -5.37699,-21.33699 -10.74197,-39.79198 -1.983,-6.821 -3.94399,-13.208 -5.68499,-17.898 -0.487,-1.313 -0.849,-2.973 -1.246,-4.044 z m 0,0 c -0.008,0.018 -0.017,0.037 -0.027,0.056 -0.165,0.321 -0.511,-0.446 -0.716,-0.652 -0.055,-0.054 -0.17999,-0.135 -0.26199,-0.216 0.29299,0.032 0.53599,0.084 0.71499,0.161 0.1,0.176 0.196,0.397 0.29,0.651 z m -34.96191,2.091 c 0.114,-0.245 0.206,-0.472 0.251,-0.649 0.034,-0.136 0.246,-0.468 0.06,-0.488 -0.386,-0.041 -0.412,0.437 -0.311,1.137 z"
     id="path22"
     style="stroke:none;stroke-width:0.2" /><path
     d="m 435.12109,288.36696 c 0.066,0.041 0.132,0.083 0.197,0.126 -0.049,-0.032 -0.156,-0.077 -0.197,-0.126 z m 0,0 c -3.00599,-1.857 -7.89298,-1.682 -12.84397,-1.22 -4.86399,0.453 -9.83897,1.609 -13.79296,3.205 -1.277,0.515 -3.29,1.033 -4.27099,1.597 -0.012,0.779 -0.031,3.279 0.179,5.412 0.50999,5.19 1.67099,12.15899 3.03999,19.95499 4.45299,25.36299 11.60597,58.92898 13.38597,68.05597 0.46599,1.878 -0.681,3.78 -2.558,4.246 -1.87799,0.465 -3.77999,-0.681 -4.24599,-2.559 -2.70499,-8.955 -13.76196,-41.69098 -20.27695,-66.76297 -2.56699,-9.878 -4.30799,-18.61399 -4.92999,-24.30999 -0.50499,-4.624 0.059,-7.952 0.735,-9.635 1.205,-2.923 3.97999,-6.014 8.24398,-8.49099 4.56899,-2.655 11.15297,-4.869 18.04696,-5.877 10.68797,-1.563 21.90994,-0.117 28.01093,4.394 1.68099,1.26 3.62099,3.403 5.24099,6.62799 2.39299,4.761 4.79298,12.357 6.78498,21.18 5.66198,25.08298 9.15998,60.13397 9.15998,60.13397 0.293,1.913 -1.023,3.702 -2.935,3.995 -1.91199,0.292 -3.70199,-1.023 -3.99399,-2.935 0,0 -5.63198,-26.84399 -12.26697,-49.73498 -2.43199,-8.39 -4.98598,-16.20599 -7.50398,-21.84499 -1.126,-2.522 -2.19499,-6.571 -3.21099,-5.5 -0.022,0.023 -0.017,0.046 0.002,0.068 z m -30.97492,3.622 c -0.487,0.295 -0.681,0.603 -0.332,0.93 0.111,0.104 0.106,-0.267 0.158,-0.384 0.056,-0.122 0.123,-0.357 0.174,-0.546 z"
     id="path24"
     style="stroke:none;stroke-width:0.2" /><path
     d="m 279.20248,404.35491 c -1.057,1.62 -3.231,2.077 -4.85099,1.019 -1.62,-1.057 -2.077,-3.23 -1.02,-4.84999 0,0 15.26596,-26.46799 28.83193,-49.24698 10.34397,-17.37 19.69695,-32.51999 19.69695,-32.51999 0.759,-1.162 1.823,-2.093 3.07499,-2.69 0,0 16.76796,-8.66 36.16891,-17.68099 23.23195,-10.801 50.13688,-22.22999 54.61687,-24.12599 l 43.42689,-37.76299 c 1.4,-1.335 3.62099,-1.281 4.95499,0.119 1.33399,1.401 1.28099,3.621 -0.12,4.956 l -40.6949,42.45998 c -0.472,0.45 -1.012,0.822 -1.601,1.103 0,0 -28.54893,15.269 -53.74386,27.58999 -15.58596,7.622 -29.89693,14.048 -34.75292,16.20599 -3.10799,4.49 -11.30897,16.294 -20.51495,29.20699 -15.39096,21.58799 -33.47291,46.21698 -33.47291,46.21698 z"
     id="path26"
     style="stroke:none;stroke-width:0.2" /><path
     d="m 541.71883,329.19694 c 1.91999,-0.235 3.66999,1.132 3.90499,3.052 0.236,1.92 -1.132,3.67 -3.052,3.906 0,0 -9.03297,3.059 -21.13694,6.119 -2.725,0.689 -5.57599,1.298 -8.52798,1.848 -1.886,0.351 -3.79499,0.705 -5.72699,0.896 -4.95899,0.49 -9.90597,0.579 -14.51696,0.606 -12.45297,0.074 -21.96695,-0.657 -21.96695,-0.657 -1.91999,0.235 -3.66999,-1.132 -3.90499,-3.052 -0.236,-1.921 1.132,-3.671 3.05199,-3.906 0,0 9.05498,-3.007 21.15795,-5.944 4.47999,-1.088 9.30298,-2.196 14.23297,-2.919 1.92099,-0.281 3.85899,-0.39999 5.77398,-0.51399 2.99799,-0.179 5.91099,-0.277 8.72198,-0.267 12.48497,0.045 21.98895,0.83199 21.98895,0.83199 z"
     id="path28"
     style="stroke:none;stroke-width:0.2" /><path
     d="m 516.71789,335.29894 c 0.503,1.868 -0.607,3.792 -2.475,4.294 -1.86799,0.502 -3.79199,-0.607 -4.29399,-2.475 0,0 -6.58898,-18.53199 -14.64096,-42.39298 -3.02099,-8.949 -6.21598,-18.61999 -9.32298,-28.34999 -1.90599,-5.967 -3.78799,-11.94199 -5.50298,-17.78599 -1.819,-6.202 -3.45199,-12.25 -4.99299,-17.90199 -3.23399,-11.858 -5.90699,-21.961 -7.99898,-28.31399 -0.803,-2.44 -1.897,-5.23 -1.897,-5.23 0,0 0.128,0.089 0.163,0.135 -0.59599,-0.771 -1.81099,-0.957 -3.21599,-1.144 -2.09899,-0.28 -4.49099,-0.349 -6.98998,-0.209 -10.65297,0.595 -22.80494,3.838 -22.80494,3.838 -1.831,0.624 -3.82399,-0.356 -4.44899,-2.186 -0.624,-1.831 0.356,-3.825 2.18699,-4.449 0,0 16.00196,-6.517 28.22593,-7.811 7.10998,-0.753 12.99297,0.964 16.07396,4.119 2.043,2.139 7.22798,13.584 12.86597,29.66999 2.96899,8.472 6.25698,18.25199 9.20898,28.57399 3.26799,11.42999 6.17898,23.47799 8.80598,34.83998 6.61298,28.60299 11.05397,52.77898 11.05397,52.77898 z"
     id="path30"
     style="stroke:none;stroke-width:0.2" /><path
     d="m 453.26005,193.978 c -1.341,1.394 -3.562,1.437 -4.95599,0.096 -1.395,-1.341 -1.438,-3.561 -0.097,-4.955 0,0 1.97399,-4.761 5.66398,-10.94099 0.799,-1.338 1.69,-2.633 2.701,-3.957 0.634,-0.831 1.27899,-1.673 2.04399,-2.403 1.991,-1.899 4.18999,-3.443 6.29799,-4.868 5.91698,-3.998 10.58497,-6.208 10.58497,-6.208 1.341,-1.394 3.56099,-1.438 4.95499,-0.097 1.39499,1.341 1.43799,3.562 0.097,4.956 0,0 -2.026,4.751 -5.78999,10.818 -1.34199,2.163 -2.79899,4.42 -4.61899,6.48299 -0.7,0.793 -1.51599,1.471 -2.32199,2.137 -1.283,1.061 -2.54299,2.003 -3.84899,2.853 -6.03099,3.928 -10.71097,6.086 -10.71097,6.086 z"
     id="path32"
     style="stroke:none;stroke-width:0.2" /><path
     d="m 473.041,171.31001 c -1.294,0.02 -2.718,0.021 -4.19399,-0.013 -7.43599,-0.17 -15.64496,-1.067 -15.64496,-1.067 -1.915,0.271 -3.69,-1.063 -3.96199,-2.979 -0.271,-1.915 1.06299,-3.69 2.97899,-3.962 0,0 7.63498,-3.143 14.73196,-5.37199 5.25799,-1.653 9.95498,-2.64 9.95498,-2.64 3.57799,-0.507 7.04898,1.455 8.45998,4.78199 0,0 0.75599,1.572 1.59099,4.028 0.601,1.767 1.248,3.932 1.805,6.29 1.81699,7.687 3.05399,16.34199 3.05399,16.34199 0.755,1.781 -0.078,3.84 -1.859,4.595 -1.78099,0.755 -3.83999,-0.078 -4.59498,-1.859 0,0 -5.36099,-6.906 -9.62298,-13.55599 -1.034,-1.613 -1.942,-3.182 -2.69799,-4.589 z"
     id="path34"
     style="stroke:none;stroke-width:0.2" /><path
     d="m 513.0129,366.12393 c 1.92599,-0.177 3.63399,1.243 3.81099,3.17 0.177,1.926 -1.243,3.634 -3.16999,3.811 0,0 -7.06499,2.58 -16.76596,5.05799 -2.161,0.552 -4.41199,1.017 -6.76099,1.421 -1.49499,0.257 -3.00799,0.516 -4.53899,0.611 -3.94399,0.244 -7.84798,0.087 -11.49797,-0.113 -9.95697,-0.546 -17.39095,-1.741 -17.39095,-1.741 -1.926,0.177 -3.63399,-1.24299 -3.81099,-3.16899 -0.177,-1.926 1.24299,-3.634 3.16899,-3.811 0,0 7.09098,-2.53 16.78196,-4.883 3.55299,-0.862 7.36298,-1.728 11.28497,-2.207 1.52199,-0.186 3.05799,-0.208 4.57399,-0.227 2.38399,-0.031 4.68099,0.016 6.90698,0.164 9.98998,0.668 17.40796,1.916 17.40796,1.916 z"
     id="path36"
     style="stroke:none;stroke-width:0.2" /><path
     d="m 499.61993,410.35491 c 1.924,-0.206 3.65199,1.189 3.85799,3.113 0.205,1.923 -1.189,3.652 -3.11299,3.857 0,0 -11.01897,3.134 -25.55994,6.252 -3.29099,0.706 -6.73798,1.333 -10.28797,1.9 -2.274,0.363 -4.57499,0.728 -6.89499,0.93 -5.94798,0.51799 -11.88897,0.63599 -17.41195,0.68899 -14.84597,0.142 -26.28594,-0.536 -26.28594,-0.536 -1.92299,0.205 -3.65199,-1.18899 -3.85699,-3.11299 -0.206,-1.924 1.189,-3.652 3.11299,-3.858 0,0 11.03798,-3.079 25.57894,-6.077 5.40999,-1.115 11.24097,-2.254 17.16396,-3.005 2.30999,-0.293 4.63699,-0.422 6.93598,-0.547 3.58999,-0.196 7.09198,-0.311 10.45698,-0.317 14.87196,-0.023 26.30393,0.712 26.30393,0.712 z"
     id="path38"
     style="stroke:none;stroke-width:0.2" /><path
     d="m 118.47936,531.1869 c -4.60428,4.37185 -11.29528,5.57351 -18.585555,4.21869 -7.7899,-1.44824 -16.094851,-6.42604 -23.111969,-13.9933 -7.072377,-7.98046 -10.898408,-17.30495 -11.526524,-25.4686 -0.665829,-8.66479 2.476678,-16.09203 8.191211,-20.85742 5.908499,-4.50047 13.818395,-5.94204 22.107839,-3.38406 7.802818,2.40756 16.047378,8.14024 22.271808,16.76283 5.87119,8.44538 8.91948,17.59948 8.6851,25.49382 -0.21997,7.38828 -2.80898,13.65518 -8.03191,17.22804 z m -4.38886,-5.46752 c 3.53841,-3.30915 3.82271,-8.78239 2.31698,-14.6008 -1.28448,-4.95887 -4.25843,-10.05946 -8.51472,-14.67976 -4.023,-4.4977 -8.824134,-7.53434 -13.431115,-9.25944 -4.181335,-1.56748 -8.263092,-1.95622 -11.005387,0.37673 -2.841347,2.18128 -3.259612,6.2433 -2.618735,10.63994 0.705117,4.84598 2.621515,10.16455 6.133528,15.03712 3.564084,5.14704 7.86709,9.15347 12.404977,11.48953 5.333892,2.74545 10.710842,3.70798 14.714472,0.99668 z"
     id="path40"
     style="stroke:none;stroke-width:0.228366" /><path
     d="m 79.597972,485.01888 c -1.409997,1.325 -3.629991,1.256 -4.953988,-0.154 -1.324997,-1.41 -1.255997,-3.63 0.154,-4.954 0,0 12.247969,-14.19299 28.678926,-31.75098 3.74599,-4.003 7.74498,-8.115 11.88497,-12.26 2.659,-2.662 5.34999,-5.354 8.15498,-7.926 7.17399,-6.57999 14.59697,-12.84999 21.51495,-18.61699 18.45895,-15.38699 33.35392,-26.77499 33.35392,-26.77499 1.40999,-1.325 3.62999,-1.256 4.95398,0.154 1.325,1.41 1.256,3.63 -0.154,4.955 0,0 -12.29396,14.156 -28.79892,31.62199 -6.18599,6.546 -12.90697,13.56399 -19.91995,20.31399 -2.742,2.64 -5.59699,5.159 -8.41898,7.647 -4.39499,3.87299 -8.74698,7.60899 -12.97597,11.09899 -18.545955,15.305 -33.473918,26.64599 -33.473918,26.64599 z"
     id="path42"
     style="stroke:none;stroke-width:0.2" /><path
     d="m 117.93188,531.55686 c -1.388,1.348 -3.60899,1.316 -4.95599,-0.072 -1.348,-1.388 -1.316,-3.608 0.072,-4.956 0,0 12.54297,-14.91199 29.35093,-33.39098 3.83399,-4.215 7.92598,-8.55 12.16097,-12.923 2.71999,-2.808 5.47498,-5.64899 8.34398,-8.37199 7.33698,-6.964 14.92996,-13.623 22.00494,-19.75 18.87195,-16.34299 34.10792,-28.49398 34.10792,-28.49398 1.38699,-1.347 3.60799,-1.315 4.95598,0.073 1.348,1.387 1.316,3.60799 -0.072,4.95599 0,0 -12.58896,14.876 -29.47392,33.26399 -6.32999,6.894 -13.20797,14.28999 -20.38195,21.42199 -2.805,2.788 -5.72499,5.458 -8.61098,8.096 -4.49499,4.106 -8.94698,8.071 -13.27197,11.77999 -18.95995,16.264 -34.22991,28.36699 -34.22991,28.36699 z"
     id="path44"
     style="stroke:none;stroke-width:0.2" /><path
     d="m 168.47375,396.70392 c -51.24387,-80.41797 2.512,-161.30594 2.512,-161.30594 -10.17198,20.13 -15.87497,42.70499 -15.87497,66.54398 0,30.65898 9.43398,59.22797 25.67494,83.19396 z m 52.98487,29.40999 c 26.40093,18.30299 58.85685,29.09798 93.92877,29.09798 35.07191,0 67.52783,-10.79499 93.92976,-29.09798 -49.08287,52.24297 -139.83865,46.09598 -198.4955,10.33199 z"
     id="path46"
     style="stroke:none;stroke-width:0.2" /><path
     d="m 166.62676,397.88092 c -18.88696,-28.24699 -24.72694,-56.84898 -24.25294,-82.11597 0.3,-15.98999 3.15299,-30.64299 6.80998,-43.02098 7.23698,-24.49599 17.63996,-40.11199 17.63996,-40.11199 1.46399,-2.20299 4.39098,-2.88399 6.67698,-1.55299 2.28599,1.33099 3.13899,4.21199 1.94599,6.57299 -5.05098,9.832 -8.96397,20.28499 -11.68497,31.18899 -2.65399,10.638 -4.19699,21.70399 -4.35199,33.10099 -0.262,14.71999 1.723,28.97298 5.62199,42.49098 4.03299,13.98399 10.07497,27.18199 17.89096,39.25498 0.71099,1.05 0.55399,2.461 -0.37,3.329 l -12.57897,11.283 c -0.475,0.447 -1.125,0.659 -1.772,0.578 -0.647,-0.082 -1.22499,-0.447 -1.57499,-0.997 z m -15.54197,-89.08197 c -0.25099,2.385 -0.44899,4.81 -0.58699,7.27 -1.315,23.45399 2.72799,50.12598 18.43095,77.11497 0,0 8.49298,-8.357 8.49298,-8.357 -8.08898,-11.75099 -14.56096,-24.61199 -19.09795,-38.31798 -3.97199,-11.997 -6.42799,-24.63299 -7.23899,-37.70999 z m 71.62183,115.51396 c 13.44096,8.94499 28.39993,15.90499 44.41189,20.53199 15.25896,4.409 31.47392,6.66899 48.26888,6.38599 16.71796,-0.214 32.77392,-2.98999 47.83288,-7.80099 15.65896,-5.003 30.23792,-12.242 43.25989,-21.40899 2.093,-1.451 4.94499,-1.088 6.60798,0.842 1.664,1.929 1.602,4.80299 -0.14199,6.65999 -10.43298,11.053 -22.62095,19.652 -36.01392,25.86099 -19.63195,9.102 -41.77289,13.2 -64.26084,13.094 -36.46491,-0.173 -73.86681,-11.43 -103.13374,-29.92599 -0.652,-0.397 -1.083,-1.073 -1.168,-1.831 -0.085,-0.758 0.186,-1.513 0.733,-2.044 l 10.82997,-10.13499 c 0.751,-0.729 1.913,-0.825 2.774,-0.229 z m 108.35973,34.37898 c -5.16399,0.4 -10.39398,0.569 -15.67896,0.502 -17.52696,-0.296 -34.37192,-3.178 -50.11988,-8.348 -15.76396,-5.17499 -30.41792,-12.60099 -43.56489,-21.86799 0,0 -6.87298,6.929 -6.87298,6.929 28.38493,15.97399 63.64884,24.96099 97.76875,24.20399 6.21199,-0.138 12.38397,-0.605 18.46796,-1.419 z"
     id="path47"
     style="stroke:none;stroke-width:0.2" /></g>&#10;</svg>
