<?xml version="1.0" encoding="UTF-8" standalone="no"?>
<svg
   width="2819.6812"
   height="2636.5945"
   viewBox="0 0 2819.6812 2636.5945"
   version="1.1"
   xml:space="preserve"
   style="clip-rule:evenodd;fill-rule:evenodd;stroke-linejoin:round;stroke-miterlimit:2"
   id="svg5353"
   xmlns="http://www.w3.org/2000/svg"
   xmlns:svg="http://www.w3.org/2000/svg"><defs
   id="defs5353" />&#10;    <g
   id="vectorly-UNI-bubble-chat"
   style="stroke:none;stroke-width:0.2"
   transform="matrix(4.9999999,0,0,4.9999999,-4484.1355,-28806.162)"><path
     d="m 926.26287,6282.8735 c 18.62396,-23.86 34.84192,-48.37 47.37188,-73.87 12.47597,-25.4 21.27395,-51.7799 25.10394,-79.5099 -67.95883,-33.69 -98.53975,-86.12 -101.64775,-139.24 -3.49599,-59.73 27.97293,-120.6099 81.2278,-157.8599 69.30986,-48.26 155.45966,-73.04 236.39946,-71.05 89.2697,2.2 172.0095,36.89 219.6094,106.62 42.3299,62.5199 37.9799,179.9199 -43.5799,247.2499 -51.5899,42.59 -134.3496,65.2899 -255.9993,39.55 -6.82,-1.45 -12.98,3.66 -21.36,11.61 -18.3199,17.3599 -43.8499,49.0399 -91.5598,79.2299 -24.2199,15.33 -54.12883,30.27 -91.68974,42.76 -1.47099,0.5 -3.09699,-0.02 -3.99299,-1.29 -0.896,-1.27 -0.849,-2.98 0.117,-4.2 z m 13.09997,-5.31 c 31.35692,-11.83 56.86586,-25.32 77.90576,-39.05 46.6399,-30.4 71.3799,-61.99 89.2098,-79.3299 11.46,-11.15 20.89,-16.45 30.3599,-14.56 116.9898,23.34 196.2396,1.65 245.3294,-39.7 74.5899,-62.83 78.8198,-170.84 39.2999,-228.1799 -44.8598,-65.63 -123.0997,-97.32 -207.1594,-99.66 -77.9098,-2.17 -160.9996,20.82 -228.05348,66.8 -49.87087,34.04 -79.8198,90.2099 -77.24681,145.7499 2.344,50.56 31.73893,100.37 97.05079,132.73 1.86,0.9 2.93,2.89 2.67,4.94 -4.12,29.93 -13.82,58.2699 -27.65796,85.4199 -11.38298,22.33 -25.55994,43.87 -41.7079,64.84 z"
     id="path1434"
     style="stroke:none;stroke-width:0.2" /><path
     d="m 1019.2086,5929.6636 c -1.94,0.03 -3.5399,-1.51 -3.5699,-3.4399 -0.04,-1.94 1.4999,-3.54 3.4299,-3.57 0,0 22.09,-2.39 50.4599,-4.48 6.47,-0.48 13.26,-0.87 20.19,-1.19 4.45,-0.21 8.9599,-0.41 13.4699,-0.45 11.53,-0.11 23.04,0.18 33.7099,0.51 28.41,0.88 50.5799,2.35 50.5799,2.35 1.94,-0.04 3.54,1.5 3.57,3.43 0.04,1.94 -1.5,3.54 -3.43,3.58 0,0 -22.0999,2.3199 -50.4599,4.2999 -10.6399,0.74 -22.1299,1.47 -33.6599,1.81 -4.51,0.14 -9.0199,0.11 -13.4799,0.07 -6.93,-0.05 -13.73,-0.17 -20.22,-0.4 -28.4199,-0.99 -50.5899,-2.52 -50.5899,-2.52 z"
     id="path1436"
     style="stroke:none;stroke-width:0.2" /><path
     d="m 1009.8295,5976.6048 c -1.9287,0.031 -3.5426,-1.5117 -3.5631,-3.4418 -0.043,-1.93 1.4887,-3.5371 3.4174,-3.5681 0,0 50.958,-2.957 115.9581,-5.7474 14.8658,-0.6424 30.487,-1.2031 46.3819,-1.6968 10.2445,-0.3219 20.5806,-0.6348 30.9356,-0.7879 26.4503,-0.3989 52.8906,-0.3976 77.3785,-0.3349 65.0409,0.1598 116.0623,1.0829 116.0623,1.0829 1.929,-0.041 3.5428,1.5017 3.5863,3.4316 0.02,1.9402 -1.5117,3.5373 -3.4407,3.5784 0,0 -50.9561,2.8869 -115.9535,5.5672 -24.4458,1.0071 -50.8887,2.0261 -77.3218,2.6548 -10.3576,0.2532 -20.7108,0.3362 -30.9491,0.408 -15.9086,0.1238 -31.517,0.1742 -46.4109,0.1068 -65.0609,-0.2797 -116.081,-1.2528 -116.081,-1.2528 z"
     id="path1438"
     style="stroke:none;stroke-width:0.30307" /><path
     d="m 1009.8212,6030.5828 c -1.9357,0.031 -3.5365,-1.5105 -3.5776,-3.4405 -0.027,-1.94 1.5002,-3.5387 3.4358,-3.5694 0,0 31.0707,-2.5628 70.8066,-4.8737 9.0781,-0.5305 18.6184,-0.9735 28.3264,-1.3475 6.2429,-0.2446 12.5698,-0.4798 18.8956,-0.5549 16.158,-0.1998 32.3129,5e-4 47.2753,0.2475 39.783,0.6492 70.9217,1.9564 70.9217,1.9564 1.9357,-0.041 3.5366,1.5005 3.5777,3.4305 0.041,1.94 -1.5002,3.5387 -3.4359,3.5795 0,0 -31.0702,2.5028 -70.8052,4.6936 -14.9287,0.823 -31.0635,1.6427 -47.2233,2.0725 -6.3265,0.1751 -12.6517,0.1802 -18.9067,0.175 -9.7191,0 -19.2554,-0.063 -28.356,-0.2426 -39.7961,-0.7691 -70.9344,-2.1264 -70.9344,-2.1264 z"
     id="path1440"
     style="stroke:none;stroke-width:0.23687" /></g>&#10;</svg>
