<?xml version="1.0" encoding="UTF-8" standalone="no"?>
<svg
   width="3090.3459"
   height="3228.4263"
   viewBox="0 0 3090.346 3228.4263"
   version="1.1"
   xml:space="preserve"
   style="clip-rule:evenodd;fill-rule:evenodd;stroke-linejoin:round;stroke-miterlimit:2"
   id="svg5353"
   xmlns="http://www.w3.org/2000/svg"
   xmlns:svg="http://www.w3.org/2000/svg"><defs
   id="defs5353" />&#10;    &#10;<g
   id="vectorly-UNI-compass"
   style="stroke:none;stroke-width:0.2"
   transform="matrix(4.9999999,0,0,4.9999999,-8649.3192,-44430.012)"><path
     d="m 1965.8163,9271.0238 c -1.55,1.16 -3.75,0.84 -4.91,-0.72 -1.16,-1.55 -0.84,-3.74 0.72,-4.9 1.78,-1.73 3.88,-3.01 6.17,-4.1 2.27,-1.09 4.76,-1.63 7.39,-1.95 6.95,-0.75 13.3499,1.8 18.3199,5.96 5.22,4.35 8.15,11.01 8.67,18.32 0.03,7.45 -2.81,14.39 -7.86,19.12 -4.97,4.66 -11.7999,7.38 -19.1299,6.87 -6.98,-0.7 -13.23,-3.61 -17.31,-8.68 -3.82,-4.76 -6.17,-10.77 -5.41,-17.31 0,-1.94 1.57,-3.51 3.5,-3.51 1.94,0 3.51,1.57 3.51,3.51 0.48,4.13 2.84,7.44 5.85,9.86 2.67,2.15 6.19,2.95 9.86,2.58 3.31,-0.23 5.95,-2.15 8.05,-4.39 1.9999,-2.14 3.3999,-4.9 3.4099,-8.05 0.24,-3.33 -0.61,-6.49 -2.6,-8.86 -2.2199,-2.67 -5.1299,-4.9 -8.8599,-5.31 -1.61,-0.2 -3.17,-0.3 -4.69,0 -1.65,0.32 -3.24,0.75 -4.68,1.56 z"
     id="path2430"
     style="stroke:none;stroke-width:0.2" /><path
     d="m 1959.8163,9296.3923 c 1.38,-1.35 3.6,-1.33 4.96,0.05 1.35,1.39 1.33,3.61 -0.06,4.96 0,0 -4.64,7.25 -11.57,16.23 -1.55,2.02 -3.24,4.03 -5.05,6.06 -1.15,1.3 -2.32,2.61 -3.6,3.8 -3.2999,3.07 -6.8299,5.81 -10.1599,8.32 -9.02,6.8099 -16.35,11.3499 -16.35,11.3499 -1.38,1.36 -3.6,1.33 -4.95,-0.05 -1.36,-1.38 -1.33,-3.6 0.05,-4.96 0,0 4.69,-7.2199 11.69,-16.0999 2.58,-3.27 5.39,-6.75 8.53,-9.98 1.22,-1.26 2.56,-2.4 3.87,-3.53 2.07,-1.76 4.12,-3.41 6.1699,-4.92 9.12,-6.74 16.47,-11.23 16.47,-11.23 z m 75.5098,-73.94 c 1.38,-1.36 3.6,-1.33 4.95,0.05 1.36,1.38 1.33,3.6 -0.05,4.96 0,0 -4.76,7.36 -11.83,16.49 -1.59,2.04 -3.32,4.09 -5.1599,6.16 -1.17,1.32 -2.37,2.65 -3.67,3.87 -3.37,3.13 -6.96,5.92 -10.34,8.49 -9.17,6.95 -16.61,11.61 -16.61,11.61 -1.38,1.36 -3.6,1.33 -4.96,-0.05 -1.35,-1.38 -1.33,-3.6 0.05,-4.96 0,0 4.82,-7.34 11.96,-16.36 2.64,-3.33 5.51,-6.86 8.71,-10.16 1.24,-1.28 2.6,-2.44 3.94,-3.59 2.11,-1.8 4.19,-3.48 6.27,-5.03 9.2699,-6.88 16.7399,-11.48 16.7399,-11.48 z"
     id="path2432"
     style="stroke:none;stroke-width:0.2" /><path
     d="m 1974.2549,9178.5244 c 0.026,-1.9413 1.6075,-3.4873 3.54,-3.4698 1.9325,0.018 3.4873,1.6075 3.4698,3.5401 0,0 1.8359,9.074 3.2765,21.126 0.325,2.7143 0.5622,5.534 0.7115,8.4416 0.097,1.871 0.202,3.7508 0.1317,5.6307 -0.1669,4.8401 -0.729,9.6187 -1.3088,14.0459 -1.5636,12.0168 -3.5488,21.0645 -3.5488,21.0645 -0.018,1.9325 -1.6075,3.4873 -3.54,3.4698 -1.9325,-0.018 -3.4873,-1.6075 -3.4698,-3.5401 0,0 -1.7832,-9.0916 -3.1008,-21.126 -0.4919,-4.4623 -0.9487,-9.2409 -1.0189,-14.0723 -0.026,-1.8886 0.1141,-3.7684 0.2547,-5.6306 0.2196,-2.9076 0.5007,-5.7185 0.8784,-8.4329 1.6954,-12.0255 3.7245,-21.0469 3.7245,-21.0469 z m -1.4933,142.7433 c 0.018,-1.9325 1.6075,-3.4873 3.54,-3.4698 1.9413,0.026 3.4961,1.6163 3.4698,3.5401 0,0 1.8446,9.0125 3.2852,20.9766 0.3163,2.688 0.5534,5.4902 0.7028,8.3802 0.1054,1.8446 0.202,3.7157 0.1405,5.5867 -0.1757,4.7962 -0.7291,9.5309 -1.3088,13.9405 -1.5724,11.9202 -3.5488,20.8889 -3.5488,20.8889 -0.026,1.9413 -1.6075,3.4873 -3.54,3.4697 -1.9326,-0.017 -3.4961,-1.5987 -3.4698,-3.54 0,0 -1.792,-9.0126 -3.1096,-20.9591 -0.4831,-4.4185 -0.9487,-9.1707 -1.019,-13.9669 -0.026,-1.871 0.1142,-3.7333 0.2548,-5.578 0.2196,-2.89 0.5007,-5.6833 0.8872,-8.3713 1.6865,-11.9289 3.7157,-20.8976 3.7157,-20.8976 z"
     id="path2434"
     style="stroke:none;stroke-width:0.248454" /><path
     d="m 2001.6131,9314.7196 c -1.3743,-1.3657 -1.3676,-3.5859 0,-4.9502 1.3657,-1.3744 3.5859,-1.3676 4.9602,0 0,0 5.4693,2.773 12.3884,7.441 1.5208,1.0241 3.0126,2.1486 4.5258,3.4028 0.9583,0.7901 1.9268,1.59 2.7863,2.501 2.2051,2.3871 4.0723,4.9777 5.7881,7.4399 4.7314,6.8109 7.5587,12.2717 7.5587,12.2717 1.3743,1.3657 1.3675,3.5859 0,4.9502 -1.3657,1.3744 -3.5859,1.3676 -4.9602,0 0,0 -5.4499,-2.8332 -12.2597,-7.5623 -2.4681,-1.7143 -5.0577,-3.5773 -7.441,-5.7925 -0.9189,-0.8505 -1.7191,-1.8222 -2.5091,-2.7739 -1.2459,-1.5171 -2.3715,-3.0054 -3.3976,-4.5348 -4.6626,-6.9216 -7.4399,-12.3929 -7.4399,-12.3929 z m -87.9237,-87.9256 c -1.3743,-1.3657 -1.3675,-3.5859 0,-4.9502 1.3657,-1.3744 3.5859,-1.3676 4.9602,0 0,0 4.5806,1.9423 10.5491,5.6001 1.2884,0.7965 2.5277,1.6736 3.7981,2.6704 0.7967,0.6317 1.5933,1.2634 2.2912,2.0162 1.7907,1.9713 3.2334,4.1364 4.5552,6.2127 3.7414,5.8512 5.7293,10.4306 5.7293,10.4306 1.3744,1.3657 1.3676,3.5859 0,4.9503 -1.3657,1.3743 -3.5858,1.3775 -4.9603,0 0,0 -4.571,-1.9923 -10.4303,-5.7213 -2.074,-1.3283 -4.2391,-2.7658 -6.2081,-4.5653 -0.7572,-0.6921 -1.3857,-1.4956 -2.014,-2.2891 -1.0033,-1.2696 -1.8763,-2.5105 -2.6698,-3.7923 -3.6626,-5.972 -5.6007,-10.562 -5.6007,-10.562 z"
     id="path2436"
     style="stroke:none;stroke-width:0.2" /><path
     d="m 1995.566,9288.3122 c -1.9326,0 -3.504,-1.571 -3.5066,-3.5036 0,-1.9326 1.571,-3.5039 3.5036,-3.5065 0,0 11.347,-1.9458 26.2119,-3.5068 3.3609,-0.3425 6.872,-0.6076 10.4805,-0.7947 2.3091,-0.1208 4.6447,-0.233 6.9906,-0.1961 6.0012,0.1218 11.945,0.6395 17.4761,1.1702 14.8436,1.4437 26.1955,3.328 26.1955,3.328 1.9415,0.01 3.504,1.5709 3.5066,3.5035 0,1.9326 -1.5621,3.5127 -3.5036,3.5066 0,0 -11.3564,1.8844 -26.205,3.3222 -5.5199,0.5408 -11.4794,1.0511 -17.4693,1.1665 -2.3363,0.042 -4.6742,-0.074 -6.9946,-0.1905 -3.6037,-0.1907 -7.1114,-0.4439 -10.4708,-0.7954 -14.8712,-1.5575 -26.2149,-3.5034 -26.2149,-3.5034 z m -125.1727,-6e-4 c -1.9415,-0.01 -3.5039,-1.571 -3.5065,-3.5036 0,-1.9326 1.5709,-3.5039 3.5035,-3.5065 0,0 11.1187,-1.9435 25.6849,-3.5013 3.2994,-0.3507 6.7315,-0.6062 10.2698,-0.7925 2.2651,-0.1291 4.5655,-0.241 6.85,-0.1946 5.8869,0.1142 11.7078,0.6331 17.1246,1.1563 14.5625,1.4466 25.686,3.3332 25.686,3.3332 1.9326,0 3.504,1.571 3.5066,3.5036 0,1.9326 -1.571,3.504 -3.5036,3.5066 0,0 -11.128,1.882 -25.6867,3.3255 -5.4145,0.5398 -11.251,1.0488 -17.1179,1.1628 -2.3012,0.042 -4.5951,-0.066 -6.8541,-0.1919 -3.5421,-0.1826 -6.9795,-0.4365 -10.2776,-0.7974 -14.5725,-1.5607 -25.679,-3.5002 -25.679,-3.5002 z"
     id="path2438"
     style="stroke:none;stroke-width:0.248454" /><path
     d="m 1949.8063,9263.5523 c 0.48,1.88 -0.66,3.78 -2.54,4.26 -1.87,0.47 -3.78,-0.67 -4.2499,-2.55 l -32.84,-119.38 c -0.75,-2.98 0.81,-6.06 3.66,-7.22 2.85,-1.16 6.12,-0.05 7.66,2.61 0,0 25.4399,41.84 47.1899,78.25 16.5999,27.79 31.0299,52.42 31.0299,52.42 0.3,0.52 0.54,1.07 0.72,1.64 0,0 8.32,26.75 17.46,57.16 11.9799,39.8499 25.4299,85.9699 25.4299,85.9699 0.97,3.11 -0.52,6.45 -3.48,7.81 -2.96,1.35 -6.47,0.3 -8.19,-2.46 l -76.9398,-128.6299 c -1.03,-1.64 -0.53,-3.8 1.11,-4.83 1.64,-1.02 3.81,-0.52 4.83,1.12 0,0 55.0499,84.2599 55.0499,84.2599 -4.02,-12.35 -8.39,-25.83 -12.51,-38.6699 -8.68,-27.07 -16.25,-51.34 -17.74,-56.13 -2.5599,-4.44 -15.5299,-26.86 -29.8299,-52.05 -8.02,-14.13 -16.4699,-29.12 -23.8399,-42.24 z"
     id="path2440"
     style="stroke:none;stroke-width:0.2" /><path
     d="m 1971.6911,9122.4123 c 0,-1.93 1.57,-3.51 3.5,-3.51 1.9299,0 3.5099,1.58 3.5099,3.51 0,0 1.83,3.74 3.5,9.61 0.35,1.24 0.6,2.48 0.79,3.84 0.12,0.85 0.24,1.71 0.2,2.57 -0.12,2.26 -0.64,4.38 -1.17,6.4 -1.53,5.83 -3.32,9.61 -3.32,9.61 0,1.94 -1.58,3.51 -3.5099,3.51 -1.93,0 -3.5,-1.57 -3.5,-3.51 0,0 -1.8,-3.78 -3.33,-9.61 -0.53,-2.02 -1.05,-4.14 -1.16,-6.4 -0.05,-0.86 0.07,-1.72 0.19,-2.57 0.19,-1.36 0.44,-2.6 0.79,-3.84 1.67,-5.87 3.51,-9.61 3.51,-9.61 z"
     id="path2442"
     style="stroke:none;stroke-width:0.2" /><path
     d="m 1971.6911,9072.8864 c 0,-1.9328 1.57,-3.5026 3.5,-3.5026 1.9299,0 3.5099,1.5698 3.5099,3.5026 0,0 1.83,3.6595 3.5,9.4285 0.35,1.2166 0.6,2.4332 0.79,3.7675 0.12,0.8339 0.24,1.6777 0.2,2.5214 -0.12,2.2174 -0.64,4.2973 -1.17,6.2792 -1.53,5.7395 -3.32,9.4285 -3.32,9.4285 0,1.9328 -1.58,3.5124 -3.5099,3.5124 -1.93,0 -3.5,-1.5796 -3.5,-3.5124 0,0 -1.8,-3.689 -3.33,-9.4285 -0.53,-1.9819 -1.05,-4.0618 -1.16,-6.2792 -0.05,-0.8437 0.07,-1.6875 0.19,-2.5214 0.19,-1.3343 0.44,-2.5509 0.79,-3.7675 1.67,-5.769 3.51,-9.4285 3.51,-9.4285 z"
     id="path2444"
     style="stroke:none;stroke-width:0.198102" /><path
     d="m 2077.5274,9099.4003 c 0.9664,-1.6739 3.111,-2.2483 4.7824,-1.2833 1.6714,0.965 2.2549,3.1144 1.2885,4.7883 0,0 -0.245,4.0843 -1.6832,9.9154 -0.3052,1.2286 -0.697,2.4072 -1.1996,3.6577 -0.313,0.7823 -0.631,1.573 -1.0875,2.2837 -1.2126,1.8603 -2.7029,3.4016 -4.1528,4.8529 -4.1948,4.2056 -7.5895,6.5054 -7.5895,6.5054 -0.9664,1.6738 -3.1245,2.2518 -4.7959,1.2868 -1.6714,-0.965 -2.2413,-3.118 -1.2749,-4.7918 0,0 0.2856,-4.0948 1.8304,-9.8304 0.5319,-1.9813 1.1216,-4.0426 2.135,-6.0179 0.3785,-0.7557 0.9043,-1.4265 1.4252,-2.0887 0.8317,-1.0605 1.6565,-1.9891 2.5679,-2.8677 4.3308,-4.1611 7.754,-6.4104 7.754,-6.4104 z"
     id="path2446"
     style="stroke:none;stroke-width:0.198103" /><path
     d="m 2155.9523,9175.2407 c 1.6738,-0.9664 3.8183,-0.3917 4.7833,1.2798 0.965,1.6714 0.3955,3.8246 -1.2783,4.791 0,0 -2.2543,3.4146 -6.4153,7.7454 -0.8786,0.9114 -1.8072,1.7362 -2.8678,2.5679 -0.6622,0.5209 -1.3329,1.0467 -2.0836,1.4339 -1.9803,1.0048 -4.0416,1.5944 -6.0229,2.1264 -5.7356,1.5447 -9.8253,1.839 -9.8253,1.839 -1.6739,0.9664 -3.8318,0.3879 -4.7968,-1.2835 -0.965,-1.6715 -0.3821,-3.8209 1.2918,-4.7873 0,0 2.2947,-3.4034 6.5003,-7.5982 1.4513,-1.4499 2.9926,-2.9402 4.8579,-4.1442 0.7057,-0.4651 1.4964,-0.7831 2.2786,-1.0961 1.2506,-0.5027 2.4292,-0.8944 3.6578,-1.1996 5.831,-1.4383 9.9203,-1.6745 9.9203,-1.6745 z"
     id="path2448"
     style="stroke:none;stroke-width:0.198103" /><path
     d="m 2185.9454,9280.1445 c 1.9328,0 3.5026,1.57 3.5026,3.5 0,1.93 -1.5698,3.51 -3.5026,3.51 0,0 -3.6595,1.83 -9.4285,3.5 -1.2165,0.35 -2.4331,0.6 -3.7674,0.79 -0.834,0.12 -1.6777,0.24 -2.5215,0.2 -2.2173,-0.12 -4.2973,-0.64 -6.2791,-1.17 -5.7396,-1.53 -9.4285,-3.32 -9.4285,-3.32 -1.9328,0 -3.5124,-1.58 -3.5124,-3.51 0,-1.93 1.5796,-3.5 3.5124,-3.5 0,0 3.6889,-1.8 9.4285,-3.33 1.9818,-0.53 4.0618,-1.05 6.2791,-1.16 0.8438,-0.05 1.6875,0.07 2.5215,0.19 1.3343,0.19 2.5509,0.44 3.7674,0.79 5.769,1.67 9.4285,3.51 9.4285,3.51 z"
     id="path2450"
     style="stroke:none;stroke-width:0.198102" /><path
     d="m 2159.462,9385.964 c 1.6739,0.9664 2.2483,3.111 1.2834,4.7824 -0.965,1.6715 -3.1145,2.2549 -4.7884,1.2885 0,0 -4.0842,-0.245 -9.9153,-1.6832 -1.2286,-0.3052 -2.4072,-0.6969 -3.6577,-1.1996 -0.7822,-0.313 -1.573,-0.631 -2.2837,-1.0875 -1.8602,-1.2126 -3.4015,-2.7029 -4.8529,-4.1528 -4.2055,-4.1948 -6.5053,-7.5895 -6.5053,-7.5895 -1.6738,-0.9664 -2.2518,-3.1245 -1.2868,-4.796 0.965,-1.6714 3.118,-2.2413 4.7918,-1.2749 0,0 4.0948,0.2857 9.8303,1.8304 1.9814,0.532 4.0427,1.1216 6.0179,2.135 0.7557,0.3786 1.4264,0.9044 2.0887,1.4253 1.0605,0.8317 1.9891,1.6565 2.8677,2.5679 4.1611,4.3308 6.4103,7.754 6.4103,7.754 z"
     id="path2452"
     style="stroke:none;stroke-width:0.198103" /><path
     d="m 2083.5895,9464.363 c 0.9664,1.6738 0.3916,3.8183 -1.2798,4.7833 -1.6714,0.965 -3.8246,0.3955 -4.791,-1.2783 0,0 -3.4146,-2.2543 -7.7454,-6.4154 -0.9114,-0.8786 -1.7361,-1.8072 -2.5679,-2.8678 -0.5208,-0.6622 -1.0466,-1.3329 -1.4339,-2.0836 -1.0047,-1.9803 -1.5944,-4.0416 -2.1263,-6.023 -1.5447,-5.7356 -1.8391,-9.8253 -1.8391,-9.8253 -0.9664,-1.6739 -0.3878,-3.8319 1.2836,-4.7969 1.6714,-0.965 3.8209,-0.382 4.7873,1.2919 0,0 3.4033,2.2947 7.5981,6.5003 1.4499,1.4514 2.9402,2.9927 4.1441,4.858 0.4652,0.7057 0.7832,1.4964 1.0962,2.2786 0.5026,1.2506 0.8944,2.4292 1.1996,3.6578 1.4382,5.8311 1.6745,9.9204 1.6745,9.9204 z"
     id="path2454"
     style="stroke:none;stroke-width:0.198103" /><path
     d="m 1978.701,9494.3696 c 0,1.9327 -1.57,3.5025 -3.5,3.5025 -1.93,0 -3.51,-1.5698 -3.51,-3.5025 0,0 -1.83,-3.6596 -3.4999,-9.4286 -0.35,-1.2166 -0.6,-2.4331 -0.79,-3.7675 -0.12,-0.8339 -0.24,-1.6777 -0.2,-2.5214 0.12,-2.2174 0.64,-4.2973 1.17,-6.2792 1.5299,-5.7395 3.3199,-9.4285 3.3199,-9.4285 0,-1.9328 1.58,-3.5124 3.51,-3.5124 1.93,0 3.5,1.5796 3.5,3.5124 0,0 1.8,3.689 3.33,9.4285 0.53,1.9819 1.05,4.0618 1.16,6.2792 0.05,0.8437 -0.07,1.6875 -0.19,2.5214 -0.19,1.3344 -0.44,2.5509 -0.79,3.7675 -1.67,5.769 -3.51,9.4286 -3.51,9.4286 z"
     id="path2456"
     style="stroke:none;stroke-width:0.198102" /><path
     d="m 1872.8491,9467.8905 c -0.9664,1.6739 -3.111,2.2484 -4.7824,1.2834 -1.6714,-0.965 -2.2549,-3.1145 -1.2885,-4.7884 0,0 0.245,-4.0843 1.6832,-9.9154 0.3052,-1.2286 0.697,-2.4072 1.1996,-3.6577 0.313,-0.7822 0.631,-1.573 1.0875,-2.2837 1.2126,-1.8602 2.7029,-3.4015 4.1528,-4.8529 4.1948,-4.2056 7.5895,-6.5054 7.5895,-6.5054 0.9664,-1.6738 3.1245,-2.2518 4.7959,-1.2868 1.6715,0.965 2.2413,3.118 1.2749,4.7918 0,0 -0.2856,4.0948 -1.8304,9.8304 -0.5319,1.9814 -1.1216,4.0427 -2.135,6.0179 -0.3785,0.7558 -0.9043,1.4265 -1.4252,2.0887 -0.8317,1.0606 -1.6565,1.9892 -2.5679,2.8677 -4.3308,4.1611 -7.754,6.4104 -7.754,6.4104 z"
     id="path2458"
     style="stroke:none;stroke-width:0.198103" /><path
     d="m 1794.4302,9392.0131 c -1.6738,0.9664 -3.8183,0.3917 -4.7833,-1.2798 -0.965,-1.6714 -0.3955,-3.8246 1.2783,-4.791 0,0 2.2543,-3.4146 6.4153,-7.7454 0.8786,-0.9114 1.8072,-1.7362 2.8678,-2.5679 0.6622,-0.5209 1.3329,-1.0467 2.0836,-1.4339 1.9803,-1.0048 4.0416,-1.5944 6.0229,-2.1264 5.7356,-1.5447 9.8253,-1.839 9.8253,-1.839 1.6739,-0.9664 3.8318,-0.3879 4.7968,1.2835 0.965,1.6715 0.3821,3.8209 -1.2918,4.7873 0,0 -2.2947,3.4034 -6.5003,7.5982 -1.4513,1.4499 -2.9926,2.9402 -4.8579,4.1442 -0.7057,0.4651 -1.4964,0.7831 -2.2786,1.0961 -1.2506,0.5027 -2.4292,0.8944 -3.6578,1.1996 -5.831,1.4383 -9.9203,1.6745 -9.9203,1.6745 z"
     id="path2460"
     style="stroke:none;stroke-width:0.198103" /><path
     d="m 1764.4368,9287.1478 c -1.9328,0 -3.5026,-1.57 -3.5026,-3.5 0,-1.93 1.5698,-3.51 3.5026,-3.51 0,0 3.6595,-1.83 9.4285,-3.5 1.2165,-0.35 2.4331,-0.6 3.7674,-0.79 0.834,-0.12 1.6777,-0.24 2.5215,-0.2 2.2173,0.12 4.2973,0.64 6.2791,1.17 5.7396,1.53 9.4285,3.32 9.4285,3.32 1.9328,0 3.5124,1.58 3.5124,3.51 0,1.93 -1.5796,3.5 -3.5124,3.5 0,0 -3.6889,1.8 -9.4285,3.33 -1.9818,0.53 -4.0618,1.05 -6.2791,1.16 -0.8438,0.05 -1.6875,-0.07 -2.5215,-0.19 -1.3343,-0.19 -2.5509,-0.44 -3.7674,-0.79 -5.769,-1.67 -9.4285,-3.51 -9.4285,-3.51 z"
     id="path2462"
     style="stroke:none;stroke-width:0.198102" /><path
     d="m 1790.9205,9181.2722 c -1.6739,-0.9664 -2.2483,-3.111 -1.2834,-4.7824 0.965,-1.6715 3.1145,-2.2549 4.7884,-1.2885 0,0 4.0842,0.245 9.9153,1.6832 1.2286,0.3052 2.4072,0.6969 3.6577,1.1996 0.7822,0.313 1.573,0.631 2.2837,1.0875 1.8602,1.2126 3.4015,2.7029 4.8529,4.1528 4.2055,4.1948 6.5053,7.5895 6.5053,7.5895 1.6738,0.9664 2.2518,3.1245 1.2868,4.796 -0.965,1.6714 -3.118,2.2413 -4.7918,1.2749 0,0 -4.0948,-0.2857 -9.8303,-1.8304 -1.9814,-0.532 -4.0427,-1.1216 -6.0179,-2.135 -0.7557,-0.3786 -1.4264,-0.9044 -2.0887,-1.4253 -1.0605,-0.8317 -1.9891,-1.6565 -2.8677,-2.5679 -4.1611,-4.3308 -6.4103,-7.754 -6.4103,-7.754 z"
     id="path2464"
     style="stroke:none;stroke-width:0.198103" /><path
     d="m 1866.793,9102.9021 c -0.9664,-1.6738 -0.3916,-3.8183 1.2798,-4.7833 1.6714,-0.965 3.8246,-0.3955 4.791,1.2783 0,0 3.4146,2.2543 7.7454,6.4154 0.9114,0.8786 1.7361,1.8072 2.5679,2.8678 0.5208,0.6622 1.0466,1.3329 1.4339,2.0836 1.0047,1.9803 1.5944,4.0416 2.1263,6.023 1.5447,5.7356 1.8391,9.8253 1.8391,9.8253 0.9664,1.6739 0.3878,3.8319 -1.2836,4.7969 -1.6714,0.965 -3.8209,0.382 -4.7873,-1.2919 0,0 -3.4033,-2.2947 -7.5981,-6.5003 -1.4499,-1.4514 -2.9402,-2.9927 -4.1441,-4.858 -0.4652,-0.7057 -0.7832,-1.4964 -1.0962,-2.2786 -0.5026,-1.2506 -0.8944,-2.4292 -1.1996,-3.6578 -1.4382,-5.8311 -1.6745,-9.9204 -1.6745,-9.9204 z"
     id="path2466"
     style="stroke:none;stroke-width:0.198103" /><path
     d="m 2086.7024,9167.1802 c 1.3647,-1.3647 3.5921,-1.3718 4.9568,-0.01 1.3647,1.3648 1.3647,3.5992 0,4.9639 0,0 -1.3506,3.9386 -4.3204,9.2702 -0.6293,1.1243 -1.3294,2.1779 -2.1567,3.274 -0.5162,0.6858 -1.0394,1.3788 -1.6758,1.9586 -1.6829,1.5133 -3.5497,2.6446 -5.3528,3.6982 -5.2043,3.0406 -9.1429,4.4477 -9.1429,4.4477 -1.3718,1.3718 -3.5992,1.3648 -4.9639,0 -1.3647,-1.3647 -1.3647,-3.585 0.01,-4.9568 0,0 1.4,-3.9457 4.4406,-9.15 1.0536,-1.8031 2.185,-3.6699 3.7052,-5.3457 0.5728,-0.6435 1.2658,-1.1668 1.9517,-1.6829 1.096,-0.8274 2.1496,-1.5274 3.2739,-2.1567 5.3315,-2.9699 9.2772,-4.3134 9.2772,-4.3134 z"
     id="path2468"
     style="stroke:none;stroke-width:0.2" /><path
     d="m 2136.4077,9280.1445 c 1.93,0 3.51,1.57 3.51,3.5 0,1.93 -1.58,3.51 -3.51,3.51 0,0 -3.7399,1.83 -9.6099,3.5 -1.24,0.35 -2.48,0.6 -3.84,0.79 -0.85,0.12 -1.71,0.24 -2.57,0.2 -2.26,-0.12 -4.38,-0.64 -6.4,-1.17 -5.83,-1.53 -9.61,-3.32 -9.61,-3.32 -1.94,0 -3.51,-1.58 -3.51,-3.51 0,-1.93 1.57,-3.5 3.51,-3.5 0,0 3.78,-1.8 9.61,-3.33 2.02,-0.53 4.14,-1.05 6.4,-1.16 0.86,-0.05 1.72,0.07 2.57,0.19 1.36,0.19 2.6,0.44 3.84,0.79 5.87,1.67 9.6099,3.51 9.6099,3.51 z"
     id="path2470"
     style="stroke:none;stroke-width:0.2" /><path
     d="m 2091.6573,9395.1551 c 1.3647,1.3647 1.3718,3.5921 0.01,4.9568 -1.3647,1.3647 -3.5992,1.3647 -4.9639,0 0,0 -3.9386,-1.3506 -9.2701,-4.3204 -1.1243,-0.6294 -2.1779,-1.3294 -3.274,-2.1567 -0.6858,-0.5162 -1.3788,-1.0395 -1.9586,-1.6759 -1.5132,-1.6829 -2.6446,-3.5497 -3.6982,-5.3528 -3.0406,-5.2043 -4.4477,-9.1429 -4.4477,-9.1429 -1.3718,-1.3718 -1.3647,-3.5992 0,-4.9639 1.3647,-1.3647 3.585,-1.3647 4.9568,0.01 0,0 3.9457,1.4 9.15,4.4406 1.8031,1.0536 3.6699,2.185 5.3457,3.7053 0.6435,0.5727 1.1667,1.2657 1.6829,1.9516 0.8273,1.096 1.5274,2.1496 2.1567,3.2739 2.9698,5.3316 4.3133,9.2773 4.3133,9.2773 z"
     id="path2472"
     style="stroke:none;stroke-width:0.2" /><path
     d="m 1978.701,9444.8808 c 0,1.93 -1.57,3.51 -3.5,3.51 -1.93,0 -3.51,-1.58 -3.51,-3.51 0,0 -1.83,-3.74 -3.4999,-9.61 -0.35,-1.24 -0.6,-2.48 -0.79,-3.84 -0.12,-0.85 -0.24,-1.71 -0.2,-2.57 0.12,-2.26 0.64,-4.38 1.17,-6.4 1.5299,-5.83 3.3199,-9.61 3.3199,-9.61 0,-1.94 1.58,-3.51 3.51,-3.51 1.93,0 3.5,1.57 3.5,3.51 0,0 1.8,3.78 3.33,9.61 0.53,2.02 1.05,4.14 1.16,6.4 0.05,0.86 -0.07,1.72 -0.19,2.57 -0.19,1.36 -0.44,2.6 -0.79,3.84 -1.67,5.87 -3.51,9.61 -3.51,9.61 z"
     id="path2474"
     style="stroke:none;stroke-width:0.2" /><path
     d="m 1863.6801,9400.0792 c -1.3647,1.3647 -3.5921,1.3718 -4.9568,0.01 -1.3647,-1.3648 -1.3647,-3.5992 0,-4.9639 0,0 1.3506,-3.9386 4.3204,-9.2702 0.6293,-1.1243 1.3294,-2.1779 2.1567,-3.274 0.5162,-0.6858 1.0394,-1.3788 1.6758,-1.9586 1.6829,-1.5133 3.5497,-2.6446 5.3528,-3.6982 5.2043,-3.0406 9.1429,-4.4477 9.1429,-4.4477 1.3718,-1.3718 3.5992,-1.3648 4.9639,0 1.3647,1.3647 1.3647,3.585 -0.01,4.9568 0,0 -1.4,3.9457 -4.4406,9.15 -1.0536,1.8031 -2.185,3.6699 -3.7052,5.3457 -0.5728,0.6435 -1.2658,1.1668 -1.9517,1.6829 -1.096,0.8274 -2.1496,1.5274 -3.2739,2.1567 -5.3315,2.9699 -9.2772,4.3134 -9.2772,4.3134 z"
     id="path2476"
     style="stroke:none;stroke-width:0.2" /><path
     d="m 1813.9753,9287.1478 c -1.93,0 -3.51,-1.57 -3.51,-3.5 0,-1.93 1.58,-3.51 3.51,-3.51 0,0 3.7399,-1.83 9.6099,-3.5 1.24,-0.35 2.48,-0.6 3.84,-0.79 0.85,-0.12 1.71,-0.24 2.57,-0.2 2.26,0.12 4.38,0.64 6.4,1.17 5.83,1.53 9.61,3.32 9.61,3.32 1.94,0 3.51,1.58 3.51,3.51 0,1.93 -1.57,3.5 -3.51,3.5 0,0 -3.78,1.8 -9.61,3.33 -2.02,0.53 -4.14,1.05 -6.4,1.16 -0.86,0.05 -1.72,-0.07 -2.57,-0.19 -1.36,-0.19 -2.6,-0.44 -3.84,-0.79 -5.87,-1.67 -9.6099,-3.51 -9.6099,-3.51 z"
     id="path2478"
     style="stroke:none;stroke-width:0.2" /><path
     d="m 1858.7252,9172.1268 c -1.3647,-1.3647 -1.3718,-3.5921 -0.01,-4.9568 1.3647,-1.3647 3.5992,-1.3647 4.9639,0 0,0 3.9386,1.3506 9.2701,4.3204 1.1243,0.6294 2.1779,1.3294 3.274,2.1567 0.6858,0.5162 1.3788,1.0395 1.9586,1.6759 1.5132,1.6829 2.6446,3.5497 3.6982,5.3528 3.0406,5.2043 4.4477,9.1429 4.4477,9.1429 1.3718,1.3718 1.3647,3.5992 0,4.9639 -1.3647,1.3647 -3.585,1.3647 -4.9568,-0.01 0,0 -3.9457,-1.4 -9.15,-4.4406 -1.8031,-1.0536 -3.6699,-2.185 -5.3457,-3.7053 -0.6435,-0.5727 -1.1667,-1.2657 -1.6829,-1.9516 -0.8273,-1.096 -1.5274,-2.1496 -2.1567,-3.2739 -2.9698,-5.3316 -4.3133,-9.2773 -4.3133,-9.2773 z"
     id="path2480"
     style="stroke:none;stroke-width:0.2" /><path
     d="m 1975.2109,9100.8261 c 50.6589,-0.5752 96.7984,19.5569 130.4066,52.4256 33.8548,33.1564 54.9319,79.2959 55.4249,130.4069 0.3698,51.3985 -20.1732,98.1954 -53.7403,132.0914 -33.6905,34.0602 -80.4462,55.0551 -132.0912,55.2195 -51.6038,-0.2054 -98.3596,-21.2415 -132.05,-55.3017 -33.485,-33.8959 -54.0279,-80.6518 -53.6581,-132.0092 0.493,-51.0699 21.57,-97.1683 55.3837,-130.3247 33.5672,-32.9098 79.6656,-53.042 130.3244,-52.5078 z m 0,7.0257 c -48.317,0.493 -91.868,20.5429 -123.2165,52.5489 -31.1431,31.7594 -50.207,75.3106 -49.755,123.2579 0.3698,47.5775 20.0499,90.4713 51.4395,121.4912 31.2664,30.8966 74.16,50.0016 121.532,49.7962 47.331,0.1643 90.1836,-18.9818 121.4088,-49.8784 31.3486,-31.0199 51.0287,-73.8726 51.3574,-121.409 0.493,-47.9062 -18.5708,-91.4163 -49.6318,-123.1757 -31.3485,-32.006 -74.8584,-52.097 -123.1344,-52.6311 z"
     id="path2482"
     style="stroke:none;stroke-width:0.821718" /><path
     d="m 1761.5137,9179.7929 c -0.8355,1.7512 -2.9435,2.4928 -4.6947,1.6573 -1.7317,-0.8872 -2.4216,-2.9758 -1.6056,-4.6753 26.9229,-56.8515 73.7632,-99.192 128.8349,-121.6792 54.9488,-22.4743 118.1484,-25.147 178.2428,-3.0826 64.1914,23.723 112.7631,71.2541 139.2558,129.0122 26.5056,57.8809 30.7773,125.9305 6.7504,190.3028 -24.3176,64.204 -72.3656,112.5814 -130.4917,138.6407 -57.9126,25.9626 -125.7871,29.769 -189.7064,5.3222 -63.5702,-24.4335 -111.3593,-72.3195 -136.9794,-130.0445 -25.5105,-57.3887 -29.1882,-124.5069 -4.8586,-187.6442 0.6804,-1.8095 2.6917,-2.7644 4.5011,-2.0841 1.8095,0.6804 2.7451,2.7434 2.0647,4.5529 -22.5309,61.3352 -18.0107,126.0558 7.4501,181.0655 25.2996,54.6541 71.3781,99.7136 132.3319,122.1602 60.6242,22.3817 124.5687,18.0418 179.0543,-6.9671 54.2528,-24.8603 99.2017,-70.3314 121.6412,-130.6389 22.8209,-60.2231 18.998,-123.9734 -5.4678,-178.4909 -24.5303,-54.6599 -69.7551,-100.1065 -130.0749,-123.1408 -56.9527,-21.9453 -117.2166,-20.1751 -169.9788,0.407 -53.5058,20.8336 -99.3357,60.9577 -126.2693,115.3268 z"
     id="path2484"
     style="stroke:none;stroke-width:1.10466" /><path
     d="m 1781.5568,9494.2322 c 1.2299,1.81 3.2199,2.73 5.4999,3.49 2.67,0.9 5.79,1.25 9.25,1.49 4.19,0.29 8.83,0.26 13.78,0.12 6.88,-0.18 14.2999,-0.57 21.9299,-0.83 19.88,-0.67 40.8299,-0.43 56.7699,6.41 1.82,0.65 2.77,2.66 2.12,4.48 -0.65,1.82 -2.66,2.77 -4.48,2.12 -9.47,-2.67 -20.33,-2.52 -31.5599,-1.61 -7.2,0.58 -14.5,1.57 -21.67,2.52 -7.74,1.03 -15.2899,2.08 -22.3199,2.6 -5.65,0.42 -10.98,0.5 -15.78,0.09 -12.25,-1.07 -21.3399,-5.31 -25.9199,-13.16 -2.01,-3.57 -2.59,-7.22 -1.44,-11.15 1.29,-4.41 4.98,-9.55 9.69,-15.54 5.9199,-7.53 13.3099,-16.95 14.9499,-30.67 0.09,-1.93 1.74,-3.43 3.67,-3.33 1.93,0.09 3.42,1.73 3.33,3.67 0.19,6.96 -1.01,13.16 -2.84,18.79 -3.04,9.33 -8.02,16.81 -11.71,23.01 -1.09,1.84 -2.02,3.53 -2.72,5.1 -0.4399,0.96 -1.4699,2.65 -0.6699,2.63 0.09,0 0.17,-0.15 0.12,-0.23 z m 0,0 z"
     id="path2486"
     style="stroke:none;stroke-width:0.2" /><path
     d="m 2146.2258,9518.2922 c 11.33,-0.22 42.7099,-6.61 86.8498,-8.9 13.52,-0.7 28.2,-0.99 43.8499,-0.66 -1.5,-0.5 -2.79,-1.01 -3.89,-1.52 -4.46,-2.09 -6.84,-4.54 -8.1299,-6.95 -1.46,-2.75 -1.85,-5.67 -1.16,-8.92 0.44,-2.05 1.63,-4.31 4.2899,-6.1 2.08,-1.4 5.76,-2.81 10.43,-3.91 5.07,-1.19 11.61,-2.16 17.87,-3.16 -11.18,-0.84 -24.75,-1.51 -36.7699,-3.18 -11.05,-1.54 -20.84,-3.96 -26.87,-7.79 -13.8399,-8.79 -24.0499,-17.87 -31.5499,-26.31 -17.6999,-19.92 -20.5099,-36.19 -20.5099,-36.19 -0.38,-1.9 0.85,-3.74 2.75,-4.12 1.8999,-0.38 3.7499,0.85 4.1199,2.75 0,0 3.32,14.41 19.93,31.76 7.32,7.65 17.19,15.82 30.4499,23.6 6.14,3.6 16.67,5.03 28.0399,5.94 17.27,1.39 36.39,1.19 47.0499,2.69 3.91,0.55 6.91,1.45 8.79,2.46 1.73,0.93 2.86,2.13 3.62,3.29 2.75,4.23 1.95,9.68 -5.82,13.09 -6.77,2.97 -22.6599,5.31 -34.2699,7.95 -1.04,0.24 -2.17,0.55 -3.26,0.87 0.03,0.01 0.07,0.02 0.1,0.03 6.67,2.01 17.75,3.71 35.5099,5.55 9.95,1.04 16.43,2.38 20.35,3.7 4.13,1.38 6.4,3.18 7.59,4.56 2.0699,2.4 2.5299,4.89 2.2899,7.18 -0.21,2.01 -1.09,4.1 -2.9899,5.96 -1.55,1.51 -4.45,3.14 -8.22,4.16 -4.4,1.19 -10.24,1.73 -15.08,1.25 -25.3399,-2.7 -48.9799,-3.39 -70.2398,-3.22 -55.8199,0.47 -95.5298,7.65 -106.9497,7.02 -4.73,-0.27 -7.36,-2.01 -8.82,-3.84 -2.1,-2.64 -2.77,-6.42 -0.87,-10.78 0.6,-1.37 1.52,-2.88 2.59,-4.42 -14.59,3.17 -32.01,5.91 -48.8799,7.91 -28.3699,3.37 -55.1599,4.68 -64.3899,2.98 -1.9099,-0.31 -3.2099,-2.11 -2.8999,-4.02 0.31,-1.91 2.11,-3.21 4.0199,-2.9 8.97,1.28 34.72,-1.26 61.9599,-5.56 22.1399,-3.5 45.2399,-8.2 61.1198,-13.3 4.33,-1.38 6.62,0.61 7.6,1.66 1.23,1.32 2.66,4.41 0.35,8.44 -1.16,2.02 -7.5,7.34 -9.95,10.95 z m 131.5797,-24.51 c -0.01,-0.45 -0.15,-0.95 -0.41,-0.73 -0.32,0.26 -0.11,0.5 0.41,0.73 z m 55.2099,17.95 c 1.04,-0.25 1.59,-0.71 1.23,-1.49 -0.21,-0.49 -0.66,0.67 -0.86,0.93 -0.14,0.18 -0.26,0.37 -0.37,0.56 z m -0.33,6.25 c 0.38,1.33 0.99,2.84 1.62,1.74 0.45,-0.77 -0.2,-1.32 -1.62,-1.74 z m -187.1296,1.46 c -0.51,1.12 -0.41,1.95 0.7,2.28 0.81,0.24 -0.15,-1.47 -0.49,-2.01 -0.05,-0.08 -0.12,-0.17 -0.21,-0.27 z"
     id="path2488"
     style="stroke:none;stroke-width:0.2" /><path
     d="m 1968.6463,9042.4624 c 0.16,1.92 -1.28,3.62 -3.21,3.78 -1.93,0.15 -3.62,-1.28 -3.78,-3.21 -1.48,-7.58 -3.42,-17.92 -4.21,-25.99 -0.4,-4.16 -0.34,-7.7 -0.09,-10.09 0.21,-2.03 0.89,-3.51 1.41,-4.53 1.08,-2.12 3.49,-4.25 6.91,-6.01 3.38,-1.72 8.15,-3.08 13.04,-3.65 4.02,-0.47 8.1199,-0.38 11.4999,0.24 4.46,0.83 7.96,2.52 9.91,4.64 0.82,0.9 1.83,2.1 2.44,3.9 0.64,1.9 1.28,4.75 1.45,8.32 0.41,8.98 -0.82,22.98 -1.98,33.82 -0.02,1.93 -1.6,3.49 -3.53,3.48 -1.94,-0.01 -3.5,-1.59 -3.48,-3.53 -0.75,-7.54 -1.91,-16.57 -3.12,-24.28 -0.86,-5.43 -0.68,-13.26 -2.88,-12.15 -0.49,0.24 0.48,0.87 0.74,1.1 0.12,0.11 0.33,0.4 0.33,0.4 0,0 -1.06,-0.14 -1.71,-0.23 -1.29,-0.16 -2.75,-0.12 -4.28,-0.08 -2.3299,0.05 -4.7999,0.28 -7.0899,0.67 -2.28,0.39 -4.41,0.74 -5.86,1.48 -0.11,0.05 -0.33,0.07 -0.33,0.07 0,0 0.3,-0.53 0.45,-0.75 0.1,-0.15 0.47,-0.56 0.21,-0.64 -2.21,-0.73 -1.22,6.42 -1.6,11.36 -0.56,7.2 -1.04,15.5 -1.24,21.88 z"
     id="path2490"
     style="stroke:none;stroke-width:0.2" /><path
     d="m 1981.1886,9013.2163 c 1.9371,0 3.5094,1.5723 3.5094,3.5094 0,1.9371 -1.5723,3.5094 -3.5094,3.5094 -15.9873,0.6918 -30.6664,-5.3333 -41.572,-15.3961 -11.22,-10.3521 -18.1633,-25.1318 -18.7797,-41.5719 -0.3773,-16.7923 6.1006,-32.2136 17.0062,-43.3456 10.9684,-11.2074 26.44,-17.9118 43.3455,-17.874 16.7545,0.4277 31.8739,7.371 42.5279,18.6916 10.4275,11.0943 16.7042,26.1256 16.1256,42.528 -0.3145,7.7232 -2.0126,15.0564 -5.0188,21.6853 -3.0818,6.7798 -7.3836,12.8552 -12.6917,17.9118 -1.3459,1.3836 -3.5598,1.4214 -4.956,0.076 -1.3962,-1.3459 -1.4213,-3.5597 -0.088,-4.956 4.2012,-4.7295 7.4465,-10.264 9.61,-16.3143 2.0503,-5.7358 3.0188,-11.9496 2.7672,-18.4023 -0.478,-13.1194 -6.3395,-24.7168 -15.2074,-33.0689 -8.6288,-8.1132 -20.3017,-12.9559 -33.0688,-12.6288 -12.6037,0.025 -23.8866,5.2829 -32.2387,13.459 -8.4402,8.2515 -14.0376,19.5092 -14.3395,32.2387 -0.478,13.0816 4.327,25.0941 12.5533,34.0248 8.5283,9.2452 20.4778,15.3332 34.0249,15.9244 z"
     id="path2492"
     style="stroke:none;stroke-width:0.25157" /><path
     d="m 2032.6261,8916.8124 c 3.21,-0.05 6.58,1.04 9.9,3.67 5.14,4.07 10.87,12.82 16.16,24.61 6.2099,13.83 12.3199,31.95 17.6599,50.21 11.13,38.08 19.06,76.61 19.06,76.61 0.45,1.88 -0.71,3.78 -2.59,4.23 -1.88,0.45 -3.78,-0.72 -4.23,-2.6 0,0 -13.93,-51.18 -29.9499,-92.99 -6.13,-16.02 -12.54,-30.62 -18.66,-40.21 -1.71,-2.67 -3.37,-4.91 -5.01,-6.58 -0.66,-0.68 -1.73,-1.4 -2.21,-1.7 -3.51,0.66 -6.66,1.14 -9.5299,1.45 -0.3,4.57 0.6399,17.38 1.8799,32.78 2.79,34.72 7.52,81.91 7.52,81.91 0.26,1.92 -1.09,3.68 -3.01,3.94 -1.92,0.25 -3.68,-1.1 -3.94,-3.02 0,0 -7.8199,-46.92 -12.5499,-81.53 -2.08,-15.21 -3.44,-28.14 -3.57,-34.12 -2.31,-0.39 -4.32,-1 -6.12,-1.82 -5.92,-2.7 -10.11,-7.71 -14.61,-16.01 -5.4499,-10.24 -0.81,-19.57 9.07,-25.09 5.54,-3.1 12.78,-4.84 19.39,-4.51 5.52,0.27 10.6099,1.92 14.2999,4.92 4.76,3.86 6.34,8.39 5.91,13.33 -0.33,3.84 -2.23,8.16 -4.87,12.52 z m -18.0499,1.51 c 1.82,-3.07 3.88,-6.19 5.59,-9.22 0.73,-1.29 1.36,-2.56 1.83,-3.79 0.35,-0.91 0.96,-1.77 0.14,-2.4 -2.56,-1.96 -6.71,-1.66 -10.52,-0.82 -3.08,0.67 -6.02,1.93 -7.97,3.75 -0.66,0.61 -1.22,1.33 -0.74,2.22 2.9,5.47 4.71,8.98 9.43,9.94 0.71,0.15 1.45,0.25 2.24,0.32 z"
     id="path2494"
     style="stroke:none;stroke-width:0.2" /><path
     style="fill:#000000;stroke:none;stroke-width:0.2;stroke-linecap:round;stroke-linejoin:round"
     d="m 1967.4438,9302.7422 29.353,-7.3853 32.5563,104.1543 z"
     id="path125" /></g></svg>
