<?xml version="1.0" encoding="UTF-8" standalone="no"?>
<svg
   width="3345.1394"
   height="2744.1633"
   viewBox="0 0 3345.1394 2744.1633"
   version="1.1"
   xml:space="preserve"
   style="clip-rule:evenodd;fill-rule:evenodd;stroke-linejoin:round;stroke-miterlimit:2"
   id="svg5353"
   xmlns="http://www.w3.org/2000/svg"
   xmlns:svg="http://www.w3.org/2000/svg"><defs
   id="defs5353" />&#10;    &#10;<g
   id="vectorly-UNI-chart-bar"
   style="stroke:none;stroke-width:0.2"
   transform="matrix(4.9999999,0,0,4.9999999,-4211.0936,-12269.123)"><path
     d="m 859.53704,2576.905 c 0.021,-1.93 1.60899,-3.48 3.54299,-3.46 1.93499,0.02 3.48799,1.61 3.46699,3.54 0,0 0.315,155.55 1.724,268.8799 0.73399,59.01 1.52799,106.39 3.37799,113.3 2.46499,9.32 6.61298,16.15 14.97796,19.93 6.84698,3.1 16.09996,4.28 28.60693,3.85 3.82699,-0.11 40.6209,-1.05 94.1148,-1.98 39.9699,-0.68 89.2597,-1.36 141.0896,-1.95 163.7496,-1.86 352.7591,-3.11 352.7591,-3.11 1.93,-0.04 3.53,1.5 3.57,3.43 0.04,1.94 -1.51,3.54 -3.44,3.57 0,0 -188.9095,5.99 -352.6091,10.46 -51.8099,1.41 -101.0897,2.64 -141.0496,3.52 -53.4139,1.17 -90.15781,1.69 -93.9798,1.8 -20.12695,0.48 -33.41992,-3.07 -42.4079,-9.62 -8.31998,-6.07 -13.33896,-14.73 -16.22696,-26.12 -1.79699,-7.17 -2.45999,-56.1 -2.02699,-117.05 0.806,-113.3999 4.50999,-268.9899 4.50999,-268.9899 z"
     id="path406"
     style="stroke:none;stroke-width:0.2" /><path
     d="m 1493.4075,2978.9749 c -0.6,-0.96 -1.23,-2.02 -1.84,-3.12 -3.6,-6.43 -6.74,-13.94 -6.74,-13.94 -1.21,-1.52 -0.96,-3.72 0.55,-4.93 1.51,-1.21 3.72,-0.96 4.93,0.55 0,0 6.62,4.74 12.0899,9.68 4.02,3.62 7.11,7.21 7.11,7.21 2.44,3.07 2.3,7.46 -0.34,10.36 0,0 -1.12,1.3 -3.02,3.03 -1.36,1.25 -3.07,2.67 -4.97,4.14 -6.1499,4.76 -13.3099,9.5599 -13.3099,9.5599 -1.3,1.43 -3.52,1.53 -4.95,0.23 -1.43,-1.3 -1.53,-3.5199 -0.23,-4.9499 0,0 4.11,-7.58 8.27,-14.14 0.84,-1.32 1.67,-2.56 2.45,-3.68 z"
     id="path408"
     style="stroke:none;stroke-width:0.2" /><path
     d="m 863.33403,2586.425 c -0.869,0.51 -1.821,1.03 -2.83699,1.54 -5.89699,2.95 -12.60097,5.42 -12.60097,5.42 -1.518,1.2 -3.72399,0.94 -4.92299,-0.58 -1.199,-1.52 -0.941,-3.72 0.577,-4.92 0,0 3.95499,-5.95 8.18198,-11.01 1.27599,-1.53 2.55199,-2.85 3.66399,-3.91 1.53599,-1.45 2.70199,-2.27 2.70199,-2.27 2.93499,-2.33 7.08898,-2.29 9.98698,0.07 0,0 2.83499,2.73 5.71698,6.24 3.94499,4.8 7.66698,10.46 7.66698,10.46 1.499,1.22 1.722,3.43 0.499,4.93 -1.223,1.5 -3.43299,1.72 -4.93199,0.5 0,0 -6.28598,-2.51 -11.78497,-5.42 -0.664,-0.35 -1.30699,-0.7 -1.91699,-1.05 z"
     id="path410"
     style="stroke:none;stroke-width:0.2" /><path
     d="m 988.29872,2768.2849 c 0.01,0 0.03,0 0.05,-0.02 0.13,-0.08 0.07,-0.19 -0.09,-0.31 -0.01,-0.06 -0.01,-0.11 -0.02,-0.17 0,0.04 0,0.1 0,0.16 -0.25,-0.18 -0.708,-0.38 -0.964,-0.56 -0.824,-0.57 -1.81599,-1.06 -2.91999,-1.54 -4.16199,-1.77 -9.70898,-2.92 -15.63796,-3.65 -10.15998,-1.25 -21.44395,-1.13 -29.45193,0.43 -2.04,0.39 -4.44499,1.27 -5.58899,1.71 -1.97899,13.4 -4.63098,61.8 -7.00198,111.71 -2.13899,45.06 -4.09399,91.29 -3.85499,114.56 0.065,1.93 -1.452,3.56 -3.38499,3.62 -1.934,0.07 -3.55599,-1.45 -3.62099,-3.38 -1.336,-23.35 -1.898,-69.84 -1.528,-115.15 0.202,-24.7 0.69,-49.02 1.347,-69.04 0.772,-23.51 1.87599,-41.18 2.83899,-46.87 0.693,-3.97 3.98299,-8.2199 10.53698,-10.7399 7.47798,-2.89 20.60494,-4.22 33.56991,-3.42 13.34697,0.82 26.43094,3.96 33.33092,8.73 4.63,3.1999 7.16,7.1999 7.65,11.4799 0.78,6.88 0.4,34.04 -0.87,67.86 -2.01,53.57 -5.99,124.05 -7.79,155.71 -0.07,1.94 -1.69999,3.45 -3.62999,3.38 -1.92999,-0.07 -3.44999,-1.7 -3.37999,-3.63 0.47,-31.67 1.1,-102.19 1.23,-155.73 0.08,-31.97 0.06,-57.78 -0.82,-65.14 z m 0,0 c -0.06,-0.01 -0.06,-0.19 -0.06,-0.34 0.01,0 0.02,0.01 0.02,0.01 0.01,0.1 0.03,0.22 0.04,0.33 z m -54.33287,-5.69 c 0.002,-0.01 0.003,-0.01 0.005,-0.02 -0.002,0.01 -0.003,0.01 -0.005,0.02 z"
     id="path412"
     style="stroke:none;stroke-width:0.2" /><path
     d="m 1104.2284,2723.555 c -0.6,-0.31 -2.61,-1.32 -4.18,-1.82 -5.6099,-1.77 -13.4499,-2.79 -21.2499,-3.05 -7.78,-0.25 -15.53,0.22 -20.9,1.86 -0.92,0.28 -2.0799,0.83 -2.6999,1.13 -0.69,4.98 -1.3,22.17 -2.12,45.6899 -1.09,31.18 -2.26,73.09 -3.05,113.05 -0.86,43.83 -1.38,85.28 -0.53,107.59 0.11,1.93 -1.36,3.59 -3.29,3.71 -1.94,0.11 -3.59,-1.36 -3.71,-3.29 -2.13,-26.91 -3.76,-81.7 -4.37,-135.01 -0.33,-29.04 -0.35,-57.62 -0.13,-80.99 0.3,-30.3499 1.22,-52.1599 2.04,-55.5899 0.82,-3.38 3.12,-6.54 7.15,-8.91 5.21,-3.08 14.5799,-4.98 24.8999,-5.25 12.64,-0.33 26.6999,1.57 35.1199,4.83 5.65,2.2 9.25,5.39 10.73,8.37 0.61,1.22 1.51,5 1.82,11 0.67,13.06 0.49,40.2899 -0.37,72.8399 -1.72,64.8 -5.91,150.79 -8.07,187.44 -0.08,1.94 -1.71,3.44 -3.64,3.36 -1.94,-0.08 -3.44,-1.71 -3.36,-3.64 0.82,-36.65 1.48,-122.6 1.24,-187.32 -0.12,-32.07 -0.41,-58.8699 -1.33,-71.7299 -0.1,-1.48 0.02,-3.12 0,-4.27 z m -48.8498,-2.9 c 0.01,-0.01 0.01,-0.01 0.01,-0.01 z m 48.8398,2.73 c -0.03,-0.88 -0.17,-1.43 -0.62,-1.32 -0.39,0.1 0.24,0.68 0.34,0.89 0.06,0.11 0.18,0.29 0.28,0.43 z"
     id="path414"
     style="stroke:none;stroke-width:0.2" /><path
     d="m 1207.5485,2679.8336 c -0.68,-0.4313 -2.37,-1.4615 -3.71,-1.9886 -5.5199,-2.1563 -13.3799,-3.4141 -21.1899,-3.7136 -6.6,-0.2635 -13.17,0.1438 -18.27,1.5094 -1.37,0.3714 -2.6199,0.7906 -3.6899,1.3297 -0.46,0.2276 -1.09,0.6828 -1.35,0.8745 -0.89,5.5704 -1.74,34.165 -2.77,72.5107 -0.89,32.8832 -1.84,72.7863 -2.55,111.6711 -0.88,47.9532 -1.51,94.3371 -1.06,124.0697 0.06,1.9287 -1.46,3.5459 -3.39,3.6177 -1.93,0.06 -3.56,-1.4614 -3.62,-3.3901 -1.85,-36.1655 -3.31,-97.0084 -3.87,-155.3956 -0.32,-33.6498 -0.34,-66.4612 -0.12,-93.2469 0.29,-34.74 1.15,-59.5252 1.94,-63.5143 0.93,-4.5761 4.14,-8.6251 9.63,-11.4162 5.36,-2.7193 13.4399,-4.3365 22.2399,-4.6241 13.09,-0.4432 27.7399,1.9407 36.2899,6.0376 5.29,2.5277 8.67,5.9537 10.08,9.3678 0.55,1.3297 1.3,5.3907 1.59,11.8236 0.67,14.9981 0.51,46.1922 -0.32,83.7713 -1.58,71.5883 -5.43,166.4045 -7.75,215.9749 -0.05,1.9407 -1.67,3.462 -3.61,3.4021 -1.93,-0.06 -3.45,-1.6771 -3.39,-3.6177 0.73,-49.5704 1.15,-144.3626 0.85,-215.8911 -0.15,-37.1598 -0.48,-68.0065 -1.38,-82.8249 -0.15,-2.4558 -0.44,-5.0792 -0.58,-6.337 z m -48.1298,-2.4438 z"
     id="path416"
     style="stroke:none;stroke-width:0.2189" /><path
     d="m 1263.2496,2740.6024 c -0.89,5.5105 -1.77,33.7697 -2.99,71.7201 -1.62,50.3011 -3.69,117.2654 -4.44,171.8791 0.02,1.9287 -1.54,3.5099 -3.48,3.5219 -1.93,0.024 -3.51,-1.5453 -3.53,-3.474 -1.31,-46.1802 -2.43,-101.1892 -2.63,-147.5491 -0.24,-52.8287 0.68,-94.5048 1.7,-99.7517 0.93,-4.5761 4.13,-8.6131 9.61,-11.4043 5.35,-2.7313 13.4399,-4.3485 22.2299,-4.648 13.09,-0.4312 27.73,1.9646 36.2799,6.0735 5.27,2.5277 8.64,5.9418 10.05,9.3439 0.49,1.2099 1.17,4.5521 1.44,9.7871 0.61,11.7158 0.59,35.9619 -0.07,66.3174 -1.07,49.8459 -3.75,116.2592 -6.09,170.6213 -0.05,1.9406 -1.66,3.474 -3.59,3.4261 -1.93,-0.048 -3.47,-1.6532 -3.42,-3.5818 0.19,-54.3621 -0.08,-120.7395 -0.65,-170.5374 -0.34,-29.8884 -0.75,-53.7392 -1.62,-65.2633 -0.2,-2.5037 0.37,-5.4985 -0.61,-5.2709 -0.24,0.06 0.14,0.4313 0.2,0.587 0.06,0.1198 0.19,0.3714 0.19,0.3714 0,0 -2.3,-1.5094 -4.0199,-2.1803 -5.53,-2.1563 -13.4,-3.3901 -21.21,-3.6896 -6.6,-0.2636 -13.17,0.1437 -18.27,1.4974 -1.3799,0.3714 -2.6299,0.7906 -3.6999,1.3177 -0.47,0.2396 -1.12,0.6948 -1.38,0.8865 z m 0.09,-0.4432 c 0,0 0,-0.012 0,-0.012 z"
     id="path418"
     style="stroke:none;stroke-width:0.2189" /><path
     d="m 1386.806,2981.5468 c 0.09,1.9266 -1.4,3.58 -3.33,3.6663 -1.93,0.1006 -3.58,-1.3946 -3.68,-3.3212 -2.29,-35.7569 -4.06,-117.148 -4.71,-196.7707 -0.34,-42.2123 -0.37,-83.9071 -0.13,-118.025 0.3,-43.5638 1.15,-74.9356 1.97,-79.8239 0.83,-4.8884 3.69,-8.986 8.34,-12.0627 5.45,-3.5944 13.93,-5.751 23.2399,-6.168 11.44,-0.5032 24.11,1.4809 32.92,5.2047 7.4299,3.1486 12.3299,7.8501 14.0199,12.7241 0.53,1.524 1.18,6.3548 1.45,13.9605 0.68,19.0502 0.49,58.7034 -0.39,105.9623 -1.79,96.7894 -6.24,225.5256 -8.32,273.7478 -0.06,1.941 -1.68,3.465 -3.61,3.3931 -1.93,-0.057 -3.4499,-1.6678 -3.3999,-3.5944 0.8499,-48.2365 1.5599,-176.9296 1.3299,-273.6615 -0.09,-38.7906 -0.29,-72.4339 -0.88,-93.6408 -0.3299,-11.7033 -0.4699,-19.2083 -1.0899,-20.9336 -0.43,-1.2077 -2.05,-1.7685 -3.76,-2.6024 -5.43,-2.6598 -13.32,-4.1982 -21.14,-4.572 -6.62,-0.3019 -13.22,0.2013 -18.2299,1.9266 -1.27,0.4313 -2.42,0.9489 -3.38,1.5671 -0.65,0.4314 -1.32,0.762 -1.44,1.4522 -0.94,5.3053 -1.87,42.8018 -2.94,93.0512 -0.89,42.0399 -1.85,92.8788 -2.51,141.446 -0.9,65.7196 -1.38,127.241 -0.33,157.0743 z"
     id="path420"
     style="stroke:none;stroke-width:0.239812" /><path
     d="m 1275.928,2624.805 c 0.86,-0.52 4.83,-2.98 7.99,-5.59 9.71,-8.02 23.7899,-22.04 39.5199,-38.49 47.4499,-49.61 109.3297,-121.1499 109.3297,-121.1499 1.24,-1.48 3.45,-1.69 4.94,-0.46 1.49,1.24 1.69,3.45 0.46,4.94 0,0 -59.1399,74.2699 -105.1197,125.5599 -19.08,21.29 -36.0399,38.6 -45.6099,45.56 -4.22,3.06 -7.74,4.34 -9.92,4.53 -5.38,0.46 -13.83,-2.08 -23.6099,-6.76 -15.42,-7.38 -35.18,-19.81 -51.2999,-27.64 -4.62,-2.24 -8.9,-4.12 -12.65,-5.27 -2.46,-0.75 -4.55,-1.31 -6.21,-1.04 -3.45,0.55 -13.6699,5.2 -28.1299,12 -18.26,8.57 -42.6799,20.71 -68.5698,33.7 -63.7299,31.98 -136.15769,69.44 -145.28067,75.48 -1.59099,1.1 -3.77599,0.7 -4.87598,-0.89 -1.1,-1.59 -0.702,-3.77 0.88999,-4.87 8.93298,-6.44 79.98676,-47.43 143.05666,-81.62 30.6199,-16.61 59.3898,-31.54 78.0698,-40.44 11.14,-5.31 19.0899,-8.42 22.2099,-8.97 5.71,-0.98 14.48,1.11 24.54,5.7 15.5999,7.11 35.3999,19.78 51.4399,28.2 7.8799,4.12 14.4699,7.55 18.8299,7.52 z"
     id="path422"
     style="stroke:none;stroke-width:0.2" /><path
     d="m 1428.2076,2470.0451 c -0.66,-0.01 -1.33,-0.03 -2.01,-0.05 -7.4699,-0.28 -15.6299,-1.54 -15.6299,-1.54 -1.92,0.24 -3.67,-1.12 -3.91,-3.04 -0.24,-1.92 1.13,-3.67 3.04,-3.91 0,0 7.61,-3.23 14.7699,-5.33 5.26,-1.55 10.01,-2.29 10.01,-2.29 2.27,-0.28 4.56,0.42 6.28,1.94 1.72,1.52 2.7,3.7 2.7,5.99 0,0 0.02,1.7 -0.22,4.23 -0.18,1.83 -0.48,4.01 -0.89,6.35 -1.34,7.58 -3.38,15.87 -3.38,15.87 0,1.94 -1.57,3.51 -3.5,3.51 -1.94,0 -3.51,-1.57 -3.51,-3.51 0,0 -2.03,-8.29 -3.37,-15.87 -0.14,-0.8 -0.27,-1.59 -0.38,-2.35 z"
     id="path424"
     style="stroke:none;stroke-width:0.2" /><path
     style="fill:#000000;stroke:none;stroke-width:0.2;stroke-linecap:round;stroke-linejoin:round"
     d="m 1149.5241,2978.9277 2.2854,-308.6066 35.786,-6.1258 24.6083,9.7994 0.3102,308.7499 z"
     id="path69" /><path
     style="fill:#000000;stroke:none;stroke-width:0.2;stroke-linecap:round;stroke-linejoin:round"
     d="m 925.45368,2753.9604 44.62478,0.1087 26.34931,7.2875 -4.28869,226.7647 c 0,0 -77.57979,9.399 -74.6758,0.5753 2.90398,-8.8236 7.9904,-234.7362 7.9904,-234.7362 z"
     id="path71" /></g></svg>
