<?xml version="1.0" encoding="UTF-8" standalone="no"?>
<svg
   width="2838.7522"
   height="2559.3835"
   viewBox="0 0 2838.7522 2559.3836"
   version="1.1"
   xml:space="preserve"
   style="clip-rule:evenodd;fill-rule:evenodd;stroke-linejoin:round;stroke-miterlimit:2"
   id="svg5353"
   xmlns="http://www.w3.org/2000/svg"
   xmlns:svg="http://www.w3.org/2000/svg"><defs
   id="defs5353" />&#10;    <g
   id="vectorly-UNI-paper-pen"
   transform="matrix(4.9999999,0,0,4.9999999,-498.24316,-65088.17)"
   style="stroke-width:0.2"><path
     d="m 258.67453,13103.611 c 13.07797,27.4 28.44893,51 45.00789,71.5 20.42395,25.4 42.75189,45.9 65.19783,62.7 59.00886,44.2 118.98871,62.1 147.32664,70.1 8.73598,2.5 14.68596,4.2 17.09096,5.4 3.97399,2 4.83198,4.9 4.97498,6.4 0.188,2.1 -0.263,4.2 -2.24099,6 -12.44597,11.7 -21.08595,24.4 -22.79194,34.1 -0.471,2.7 -0.524,5.1 0.74999,6.8 1.876,2.4 5.69099,3 11.37598,2.7 7.05798,-0.5 24.96693,-4.4 44.07189,-9.4 19.43095,-5.2 40.0819,-11.5 51.95287,-16.8 2.21199,-1 4.48199,-2.4 5.96798,-3.3 -8.82097,-11.8 -17.59595,-25.1 -26.19293,-39.3 -12.43697,-20.7 -24.51594,-43.3 -35.89891,-66.4 -0.876,-1.7 -0.187,-3.8 1.53699,-4.7 1.725,-0.9 3.83599,-0.2 4.71299,1.5 11.82597,22.6 24.33794,44.8 37.14291,64.9 9.40998,14.8 18.97795,28.5 28.56093,40.5 2.17999,2.7 2.37099,6.8 -2.50299,10.8 -3.17,2.6 -9.54298,5.8 -17.80996,9.1 -27.63993,11.1 -77.36281,24.3 -90.60378,25.5 -11.43997,0.9 -18.54295,-2.4 -22.41494,-7.3 -3.28599,-4.2 -4.52499,-9.9 -3.45699,-16.7 1.54299,-9.8 8.40798,-22.4 19.20295,-34.7 -2.24699,-0.4 -4.75099,-0.8 -7.18198,-1.5 -29.40593,-7.9 -91.80577,-25.6 -153.04962,-70.9 -23.53694,-17.5 -46.87689,-39 -68.06983,-65.6 -18.29796,-22.9 -34.93692,-49.7 -48.82188,-80.8 -1.207,-2.7 -1.634,-7.3 3.71499,-11 3.14599,-2.2 11.15297,-5.4 22.63794,-8.9 58.78986,-17.8 215.51247,-49.6 215.51247,-49.6 2.62299,-0.6 5.25398,0.9 6.15798,3.4 0,0 11.61097,33.5 30.28893,79.7 9.57797,23.7 20.99595,50.8 33.68691,78.4 0.828,1.8 0.079,3.9 -1.66899,4.7 -1.749,0.8 -3.83999,0.1 -4.66799,-1.7 -13.36497,-27.4 -25.45894,-54.4 -35.59191,-78 -15.53296,-36.1 -26.47794,-64.5 -30.46893,-75 -25.87793,5.8 -156.59761,35.3 -208.91348,52 -5.52898,1.8 -11.01097,4 -14.52496,5.4 z m 266.57234,220.5 c 0.545,1.7 1.32699,3.2 2.05799,1.7 0.354,-0.8 -0.486,-1.3 -2.05799,-1.7 z m 104.10874,18.3 c 0.002,0.1 0.004,0.1 0.005,0.1 -10e-4,0 -0.003,0 -0.005,-0.1 z m -373.28008,-244.3 c -0.001,0 -0.002,0 -0.004,0 0.002,0 0.003,0 0.004,0 z"
     id="path3570"
     style="stroke:none;stroke-width:0.2" /><path
     d="m 321.54437,13238.811 c -1.39799,-1.3 -1.44699,-3.5 -0.109,-4.9 1.337,-1.4 3.55699,-1.5 4.95499,-0.1 0,0 18.92995,15.8 45.58689,37 9.46497,7.5 19.89095,15.7 30.72192,24.1 6.71998,5.2 13.59797,10.6 20.46395,16 10.28997,8.1 20.58395,16.2 30.76292,23.7 21.42995,15.8 41.9089,29.2 58.83786,35.1 1.85599,0.5 2.91999,2.5 2.37399,4.3 -0.546,1.9 -2.49599,2.9 -4.35199,2.4 -12.83697,-3.1 -28.00593,-9.6 -44.11389,-18.5 -13.04897,-7.1 -26.70793,-15.7 -40.1469,-25.1 -7.72098,-5.3 -15.36896,-11 -22.72894,-16.8 -7.53198,-6 -14.74997,-12.1 -21.62395,-18.2 -9.03798,-7.9 -17.40396,-15.7 -24.89794,-22.9 -21.56794,-20.7 -35.72991,-36.1 -35.72991,-36.1 z"
     id="path3572"
     style="stroke:none;stroke-width:0.2" /><path
     d="m 515.79389,13287.611 c 0,0 5.05999,-24.7 9.69598,-43.1 2.16399,-8.6 4.31599,-15.9 5.77098,-19 2.89499,-6.1 30.60493,-62.9 51.70587,-104.5 12.26497,-24.2 22.50795,-43.2 24.05594,-45.3 1.412,-1.8 4.17299,-3.8 8.12498,-5 6.15899,-1.8 16.10996,-2.1 23.31595,0.1 6.65198,2.1 11.10497,6.3 12.35197,11.5 0.76499,3.3 0.52899,7.2 -2.003,11.8 -2.85599,5 -11.90297,23.1 -23.39994,45.3 -11.08697,21.4 -24.41094,46.6 -36.34991,68 -13.37497,24 -25.23194,43.2 -30.40393,47.7 -4.50599,4 -9.81097,9 -14.97696,13.9 -11.29997,10.9 -21.90394,21.8 -21.90394,21.8 -1.081,1.1 -2.811,1.4 -4.21499,0.7 -1.404,-0.8 -2.13,-2.4 -1.769,-3.9 z m 119.2987,-201.5 c -0.012,0 -0.022,-0.1 -0.029,-0.1 -1.22699,-0.4 -3.55699,-0.5 -4.95498,-0.6 -1.109,-0.2 -2.246,-0.2 -3.371,-0.2 -3.28699,-0.1 -9.04597,-0.4 -8.05998,1.1 0.09,0.2 0.199,0.1 0.312,0 0.261,-0.4 0.459,-0.7 0.593,-0.9 -0.15,0.2 -0.38,0.7 -0.593,0.9 -1.98399,3.2 -7.53398,13.5 -14.91896,27 -7.37698,13.6 -16.42696,30.3 -25.42194,46.8 -18.09395,33.2 -35.86691,65.5 -38.2269,70 -1.821,3.4 -4.75599,12.7 -7.74798,22.8 -2.235,7.6 -4.47699,15.6 -6.27499,22.2 3.322,-3.6 7.20999,-7.9 11.19798,-12.1 5.03398,-5.3 10.23497,-10.7 14.65396,-14.9 4.67099,-4.4 14.58496,-23.2 26.24793,-46.3 11.02098,-21.8 23.32295,-47.4 33.73892,-69 10.97497,-22.8 19.88395,-41.2 22.65794,-46.4 0.052,-0.1 0.124,-0.2 0.197,-0.3 z m -0.029,-0.1 c 0.04,0 0.079,0 0.116,0 0.169,-0.3 0.296,-0.5 0.11,-0.5 -0.21,-0.1 -0.262,0.2 -0.226,0.5 z m 0.116,0 c -0.028,0 -0.057,0.1 -0.087,0.1 0.113,0.5 0.435,1.1 0.636,0.8 0.343,-0.4 0.06,-0.7 -0.549,-0.9 z"
     id="path3574"
     style="stroke:none;stroke-width:0.2" /><path
     d="m 654.04255,13033.311 c 0.05,0 0.076,0 0.049,0 -0.035,0.1 -0.05,0.1 -0.049,0 z m 0,0 c -0.084,0 -0.236,0 -0.309,0 -0.377,-0.2 -0.835,-0.3 -1.314,-0.5 -0.874,-0.3 -1.544,0.2 -2.20799,0.7 -0.919,0.6 -1.671,1.5 -2.51,2.5 -2.61399,3.2 -5.15298,7.3 -7.43698,11.6 -1.044,1.8 -5.30699,9.1 -9.76397,16.3 -5.04099,8.2 -10.17798,16 -10.17798,16 -0.846,1.8 -2.94599,2.5 -4.68499,1.7 -1.73899,-0.9 -2.46399,-3 -1.61699,-4.7 0,0 3.01599,-8.9 6.30998,-17.9 2.88999,-7.9 5.95299,-15.7 6.65898,-17.6 1.945,-4.7 3.99199,-9.3 6.48599,-13 2.51199,-3.7 5.46498,-6.6 8.58798,-8.4 4.80698,-2.6 10.07997,-3.4 15.83996,-0.7 4.13499,2.1 6.90898,4.3 8.21598,7.4 0.91399,2.1 1.61599,4.6 1.10999,7.7 -0.38499,2.3 -1.15599,5.2 -2.85199,8.7 -1.96899,4 -4.90699,9 -9.07798,15.5 -0.83999,1.7 -2.93599,2.4 -4.67898,1.6 -1.743,-0.8 -2.475,-2.9 -1.635,-4.7 3.09199,-9 4.80399,-15.1 5.41099,-19.5 0.18,-1.3 0.65099,-3.3 -0.164,-3.1 -0.116,0 -0.186,0.3 -0.19,0.4 z"
     id="path3576"
     style="stroke:none;stroke-width:0.2" /><path
     d="m 608.97166,13089.311 c 1.507,1.3 1.74599,3.5 0.533,5 -1.213,1.5 -3.42099,1.7 -4.92799,0.5 -1.283,-0.8 -6.53998,-2 -11.73797,-1 -2.75599,0.6 -5.13799,2.4 -6.85898,5.9 -1.74,3.2 -3.352,6.9 -5.17799,10.7 -1.129,2.4 -2.272,4.8 -3.53099,7.3 -2.946,5.6 -6.11099,11.3 -9.04098,16.7 -7.62998,14.1 -13.87397,25.5 -13.87397,25.5 -0.67799,1.8 -2.69899,2.7 -4.51098,2 -1.812,-0.7 -2.732,-2.7 -2.054,-4.5 0,0 2.42399,-10.7 6.72798,-24.3 1.607,-5.1 3.446,-10.6 5.62499,-16 1.424,-3.5 2.96699,-7 4.69799,-10.3 2.90099,-5.5 6.23298,-10.4 9.25798,-14.6 4.21498,-5.4 8.90497,-8.2 13.90896,-8.9 3.18799,-0.5 6.31799,-0.4 9.21498,0.3 5.86198,1.5 10.50397,4.4 11.74797,5.7 z"
     id="path3578"
     style="stroke:none;stroke-width:0.2" /><path
     d="m 533.42485,13225.711 c -0.006,-2 1.55999,-3.5 3.49399,-3.6 1.93499,0 3.50999,1.6 3.51599,3.5 0,0 1.81499,1.4 4.83499,5.2 0.80399,1 1.89299,1.9 2.70199,3.4 0.521,0.9 0.695,2 1.115,3.1 0.288,0.8 0.366,1.5 0.631,2.3 0.66799,2.1 0.90999,3.9 1.91099,6.3 1.395,1.4 1.439,3.6 0.098,5 -1.34,1.4 -3.56099,1.4 -4.95499,0.1 -2.39399,-0.9 -3.97699,-1.7 -5.94398,-2.8 -1.446,-0.8 -2.472,-1.6 -3.61499,-2.5 -1.316,-1.2 -2.334,-2.3 -3.141,-3.6 -0.47699,-0.8 -0.79499,-1.6 -1.03299,-2.4 -0.419,-1.4 -0.756,-2.6 -0.828,-3.8 -0.12,-2.1 -0.195,-3.5 0.068,-5 0.648,-3.7 1.146,-5.2 1.146,-5.2 z"
     id="path3580"
     style="stroke:none;stroke-width:0.2" /><path
     d="m 314.50739,13136.511 c -1.933,0.1 -3.57099,-1.4 -3.65599,-3.3 -0.085,-2 1.41499,-3.6 3.34699,-3.7 10.16797,-1.3 20.18895,-3.2 30.37092,-5.1 6.64899,-1.3 13.26197,-2.8 19.95396,-4.2 5.48198,-1.2 10.96497,-2.5 16.50995,-3.7 5.47199,-1.2 10.98798,-2.4 16.53796,-3.6 9.11498,-2 18.27996,-4.1 27.55593,-6.5 9.07698,-2.4 18.17696,-4.9 27.39394,-7.9 1.78299,-0.8 3.83999,0.1 4.59099,1.9 0.75199,1.7 -0.086,3.8 -1.868,4.5 -13.34397,6.9 -26.49893,13.1 -39.9399,18 -9.30098,3.4 -18.62695,6.3 -28.03093,8.5 -3.82299,0.9 -7.67598,1.6 -11.52197,2.2 -5.82699,1 -11.63397,1.7 -17.45296,2.2 -14.74696,1.3 -29.26193,1.2 -43.79089,0.7 z"
     id="path3582"
     style="stroke:none;stroke-width:0.2" /><path
     d="m 342.37932,13178.411 c -1.917,0.3 -3.68299,-1.1 -3.94199,-3 -0.258,-1.9 1.089,-3.7 3.00599,-3.9 0,0 12.74197,-3.6 30.95093,-9.2 3.87299,-1.2 7.98198,-2.5 12.29697,-3.7 2.66599,-0.8 5.38998,-1.6 8.20297,-2.3 6.67799,-1.7 13.66197,-3.2 20.70495,-4.9 10.49398,-2.6 21.00095,-5.1 30.81493,-8.6 1.74199,-0.9 3.83899,-0.2 4.67999,1.6 0.84099,1.7 0.11,3.8 -1.632,4.7 -9.25598,5.7 -19.21795,10.9 -29.59593,15.3 -6.95598,2.9 -13.96996,5.4 -20.85495,7.3 -2.88899,0.9 -5.77598,1.5 -8.59497,2.1 -4.53999,0.9 -8.89998,1.6 -13.04097,2.2 -19.35495,2.5 -32.99592,2.4 -32.99592,2.4 z"
     id="path3584"
     style="stroke:none;stroke-width:0.2" /><path
     d="m 364.71426,13214.411 c -1.91799,0.3 -3.68099,-1.1 -3.93299,-3 -0.25299,-1.9 1.099,-3.7 3.017,-3.9 0,0 14.81596,-3.9 36.08291,-10 7.30298,-2.1 15.31196,-4.6 23.83994,-6.9 6.42798,-1.8 13.15097,-3.4 19.94895,-5.2 6.60398,-1.7 13.27097,-3.4 19.89895,-5.4 8.39498,-2.4 16.61996,-5 24.47894,-8.2 1.72599,-0.8 3.83699,-0.2 4.71199,1.6 0.87499,1.7 0.185,3.8 -1.541,4.7 -11.13197,6.9 -23.18994,13.2 -35.65791,18.3 -8.39198,3.5 -16.85496,6.5 -25.13894,8.9 -3.47999,1 -6.95098,1.8 -10.34097,2.5 -5.45699,1.2 -10.70598,2.2 -15.68396,2.9 -23.21195,3.5 -39.68291,3.7 -39.68291,3.7 z"
     id="path3586"
     style="stroke:none;stroke-width:0.2" /><path
     d="m 397.88818,13244.011 c -1.90399,0.3 -3.72499,-1 -4.06299,-2.9 -0.338,-1.9 0.934,-3.7 2.839,-4 0,0 10.46297,-3.4 25.56093,-8.3 5.20799,-1.7 10.90897,-3.6 16.97196,-5.4 4.12899,-1.2 8.39498,-2.5 12.75197,-3.7 4.24499,-1.1 8.56698,-2.1 12.86197,-3.2 6.58898,-1.6 13.05996,-3.1 19.21295,-4.9 6.85198,-1.9 13.18397,-3.8 18.69295,-6.2 1.69,-0.9 3.82599,-0.3 4.76699,1.4 0.94,1.7 0.331,3.8 -1.36,4.7 -8.31698,5.8 -18.88595,11.5 -30.53692,16.4 -6.97998,3 -14.24796,5.7 -21.50995,7.8 -2.95199,0.9 -5.92398,1.5 -8.84298,2.2 -4.62698,1 -9.11897,1.8 -13.41296,2.5 -19.44095,2.9 -33.93292,3.6 -33.93292,3.6 z"
     id="path3588"
     style="stroke:none;stroke-width:0.2" /><path
     d="m 340.84332,13255.111 c 0.007,-1.9 1.583,-3.5 3.517,-3.5 1.93499,0 3.49999,1.6 3.49299,3.5 0,0 1.89199,14.8 2.85699,34.1 0.218,4.3 0.31,8.9 0.3,13.6 -0.006,3 -0.028,6.1 -0.23,9.1 -0.515,7.8 -1.51,15.5 -2.67299,22.7 -2.476,15.3 -5.89799,28.2 -9.12398,34.1 -0.758,1.7 -2.81899,2.6 -4.59799,1.8 -1.78,-0.7 -2.60899,-2.8 -1.851,-4.6 1.214,-3.9 1.521,-10.7 1.777,-19.1 0.185,-6.1 0.15,-12.9 0.205,-20.1 0.034,-4.4 0.025,-8.9 0.207,-13.4 0.182,-4.5 0.52,-9 0.894,-13.4 0.537,-6.3 1.20899,-12.3 1.84799,-17.9 1.809,-15.7 3.37799,-26.9 3.37799,-26.9 z"
     id="path3590"
     style="stroke:none;stroke-width:0.2" /><path
     d="m 181.78672,13178.011 c -3.60099,74.6 -12.78597,131.6 -23.35494,174.3 -3.89399,15.7 -8.00398,29.4 -12.03597,41.4 -9.90898,29.5 -19.28496,48.2 -24.40494,58.9 57.87985,-3.1 100.24175,-13.2 131.12067,-25.1 56.31286,-21.7 74.06782,-49.9 77.29281,-53.7 1.236,-1.4 3.44699,-1.6 4.93599,-0.4 1.48799,1.2 1.69399,3.4 0.459,4.9 -3.218,4.1 -20.51495,34.5 -78.60181,59.3 -33.15192,14.1 -79.7078,26.2 -144.58564,30.6 -2.69899,0.1 -4.60699,-0.8 -6.01299,-1.9 -1.68399,-1.3 -2.97999,-3.3 -3.13399,-6.4 -0.066,-1.3 0.22,-3.3 1.241,-6.1 0.996,-2.7 2.87099,-6.7 5.43299,-12.2 6.34598,-13.6 16.81995,-37.1 27.59793,-73.5 6.24498,-21.1 12.66797,-46.5 18.33595,-76.9 6.13299,-32.8 11.55697,-71.4 14.92497,-116.6 0.11299,-1.4 0.69099,-3.4 2.97499,-4.9 1.59299,-1.1 5.43898,-2.5 10.96197,-3.7 26.12494,-5.6 95.37776,-12.2 95.37776,-12.2 1.922,-0.2 3.65899,1.2 3.87699,3.1 0.218,2 -1.16599,3.7 -3.08799,3.9 0,0 -68.15783,9 -93.75777,15.5 -2.08699,0.5 -4.18299,1.2 -5.55698,1.7 z m -69.86683,275 c -0.032,0 -0.064,0 -0.097,0 0.033,0 0.065,0 0.097,0 z"
     id="path3592"
     style="stroke:none;stroke-width:0.2" /><path
     d="m 200.16467,13228.011 c -1.92899,0.1 -3.61599,-1.3 -3.76499,-3.2 -0.15,-2 1.295,-3.7 3.22399,-3.8 0,0 10.73498,-2.7 26.66094,-6.3 3.34699,-0.7 6.90298,-1.4 10.65997,-2.1 2.311,-0.5 4.68299,-0.9 7.12698,-1.2 5.77799,-0.8 11.82697,-1.2 17.99996,-1.7 9.10998,-0.7 18.24995,-1.1 27.18093,-2.2 1.881,-0.4 3.77399,0.8 4.22299,2.6 0.45,1.9 -0.712,3.8 -2.59399,4.3 -8.61798,3.2 -17.44496,6.3 -26.46594,8.7 -6.11598,1.7 -12.16997,3.1 -18.04995,4.1 -2.483,0.4 -4.94099,0.6 -7.33398,0.8 -3.87899,0.4 -7.57098,0.6 -11.06498,0.6 -16.56796,0.4 -27.80193,-0.6 -27.80193,-0.6 z"
     id="path3594"
     style="stroke:none;stroke-width:0.2" /><path
     d="m 200.00067,13278.711 c -1.93299,0 -3.55099,-1.5 -3.60999,-3.4 -0.059,-2 1.463,-3.6 3.39699,-3.6 0,0 12.41497,-2.3 30.09693,-5.9 6.10998,-1.2 12.79297,-2.6 19.87295,-3.9 5.37299,-0.9 10.95997,-1.6 16.58996,-2.5 5.53398,-0.9 11.07197,-1.7 16.56996,-2.7 7.09198,-1.4 13.94796,-2.8 20.45195,-4.8 1.77399,-0.8 3.83999,0.1 4.60999,1.8 0.77099,1.8 -0.045,3.9 -1.819,4.6 -9.27998,5.3 -19.55895,9.9 -30.33792,13.4 -7.06899,2.4 -14.23697,4.3 -21.26295,5.6 -2.92399,0.6 -5.83399,0.9 -8.67798,1.2 -4.55699,0.5 -8.93598,0.8 -13.08797,1 -19.20095,0.6 -32.79292,-0.8 -32.79292,-0.8 z"
     id="path3596"
     style="stroke:none;stroke-width:0.2" /><path
     d="m 199.77067,13323.211 c -1.93299,-0.1 -3.44799,-1.7 -3.37899,-3.7 0.068,-1.9 1.693,-3.4 3.62599,-3.4 0,0 10.92398,-1.5 27.14594,-4.2 5.44998,-1 11.43897,-2.1 17.88095,-3.1 4.78199,-0.7 9.79198,-1.2 14.92396,-1.8 4.91799,-0.7 9.89598,-1.2 14.95997,-2 6.25698,-1 12.44697,-2 18.63695,-3.6 1.804,-0.7 3.83599,0.2 4.53599,2 0.7,1.8 -0.196,3.8 -2,4.5 -8.94897,4.7 -18.14195,8.7 -27.53293,11.7 -6.54298,2.1 -13.04096,3.7 -19.33795,4.8 -2.67599,0.4 -5.32299,0.6 -7.89698,0.8 -4.17499,0.3 -8.14798,0.5 -11.89497,0.4 -17.76396,-0.2 -29.66793,-2.4 -29.66793,-2.4 z"
     id="path3598"
     style="stroke:none;stroke-width:0.2" /><path
     d="m 195.47368,13366.511 c -1.93499,-0.1 -3.48199,-1.7 -3.45399,-3.6 0.028,-1.9 1.622,-3.5 3.55599,-3.5 0,0 9.32198,-1.4 22.98695,-4.3 4.61599,-1 9.65497,-2.2 15.06296,-3.4 3.21699,-0.7 6.54298,-1.4 9.95998,-2.1 4.88598,-0.9 9.90797,-1.8 14.96596,-2.9 8.95198,-1.9 17.85195,-4.1 26.14193,-7.8 1.66,-1 3.81399,-0.5 4.80699,1.2 0.992,1.7 0.45,3.8 -1.21,4.8 -7.80698,6 -16.43196,11 -25.58893,14.9 -6.18299,2.6 -12.48897,4.6 -18.69596,6 -2.59499,0.6 -5.18798,1 -7.71998,1.3 -4.06399,0.5 -7.96298,0.8 -11.66397,0.9 -17.14196,0.5 -29.14793,-1.5 -29.14793,-1.5 z"
     id="path3600"
     style="stroke:none;stroke-width:0.2" /><path
     d="m 103.05991,13522.311 c -1.93399,0 -3.461988,-1.6 -3.409988,-3.6 0.053,-1.9 1.664998,-3.4 3.598988,-3.4 0,0 64.27484,-0.2 148.70763,-0.9 31.03993,-0.3 64.79384,-0.7 99.08276,-0.9 27.54793,-0.2 55.43486,-0.1 82.52679,-0.4 28.85593,-0.2 56.79386,-0.5 82.4658,-1.2 42.51089,-1.2 78.7308,-3.4 102.40475,-7.4 1.89899,-0.3 3.73799,0.9 4.10199,2.8 0.36399,1.9 -0.882,3.8 -2.782,4.1 -23.74194,5.1 -60.22785,9.2 -103.15174,12.2 -31.82292,2.2 -67.16284,3.8 -103.42375,4.8 -20.55794,0.6 -41.40689,1 -62.06684,1.1 -21.05195,0 -41.9049,-0.2 -62.05285,-0.5 -26.40693,-0.5 -51.58887,-1.2 -74.42781,-1.9 -65.47184,-2.2 -111.57373,-4.8 -111.57373,-4.8 z"
     id="path3602"
     style="stroke:none;stroke-width:0.2" /></g>&#10;</svg>
