<?xml version="1.0" encoding="UTF-8" standalone="no"?>
<svg
   width="2500.2283"
   height="3271.6316"
   viewBox="0 0 2500.2283 3271.6316"
   version="1.1"
   xml:space="preserve"
   style="clip-rule:evenodd;fill-rule:evenodd;stroke-linejoin:round;stroke-miterlimit:2"
   id="svg5353"
   xmlns="http://www.w3.org/2000/svg"
   xmlns:svg="http://www.w3.org/2000/svg"><defs
   id="defs5353" />&#10;    <g
   id="vectorly-UNI-highfive"
   transform="matrix(4.9999999,0,0,4.9999999,-715.54618,-56513.529)"
   style="stroke-width:0.2"><path
     d="m 290.86145,11658.211 c 0.81,1.7 0.042,3.8 -1.714,4.6 -1.75599,0.8 -3.84099,0.1 -4.65099,-1.7 -3.96899,-7.9 -16.64196,-36 -23.04494,-58.2 -2.12999,-7.3 -3.51099,-14.1 -3.82699,-19.4 -0.28,-4.6 0.458,-8.3 1.741,-10.9 2.98399,-5.8 8.91797,-8.4 15.74796,-7.8 6.17998,0.6 13.24796,4.4 18.53795,11.1 7.29398,9.5 21.52595,27.5 36.58591,47.9 7.84798,10.6 15.93396,21.8 23.40594,32.7 17.29996,25.3 31.44892,49.1 34.40492,59.7 6.08298,22.5 7.64498,44.8 6.89098,64.4 -1.409,36.6 -10.52197,63.4 -10.52197,63.4 -0.566,1.8 -2.527,2.9 -4.37699,2.3 -1.85,-0.6 -2.893,-2.5 -2.327,-4.4 0,0 7.06598,-26.2 6.52699,-61.4 -0.283,-18.5 -2.653,-39.4 -9.42798,-60.4 -2.47399,-7.8 -12.50097,-23.1 -24.76194,-40.9 -8.27598,-12.1 -17.64996,-25.3 -26.74493,-38.1 -16.82496,-23.7 -32.78892,-46 -40.6659,-57 -1.685,-2.4 -3.69799,-4.2 -5.83899,-5.3 -1.56499,-0.8 -3.11999,-1.4 -4.54499,-1.2 -0.80799,0 -1.61199,0.2 -2.02999,0.9 -0.846,1.5 -0.826,3.9 -0.634,7 0.401,6.3 2.138,14.5 4.44499,23.1 5.40499,20.2 13.86697,42.6 16.82496,49.6 z"
     id="path3060"
     style="stroke:none;stroke-width:0.2" /><path
     d="m 254.09154,11656.911 c 0.531,1.9 -0.547,3.8 -2.407,4.3 -1.85999,0.6 -3.80199,-0.5 -4.33298,-2.4 -5.72599,-16.9 -13.20097,-35.2 -20.64295,-52.8 -7.14699,-16.9 -14.44297,-33 -20.60295,-46.6 -6.14699,-13.6 -11.07897,-24.5 -14.22797,-30.5 -6.27398,-12.8 -1.49299,-23.2 7.27999,-26.2 5.41198,-1.8 13.85396,-1.2 23.32394,6.5 7.49398,6.1 15.28496,16.2 22.09394,27.5 10.42798,17.2 18.86096,36.7 22.21795,45.5 0.773,1.8 -0.041,3.8 -1.814,4.6 -1.77399,0.8 -3.84099,-0.1 -4.61299,-1.8 -4.00799,-8.2 -13.97896,-26.1 -25.40693,-42 -6.74999,-9.3 -13.97497,-17.8 -20.91195,-22.7 -4.22699,-3 -10.62298,-5.8 -9.72198,-3.5 0.035,0.1 0.211,0.1 0.211,0.1 0,0 0,0.6 0.03,1 0.104,1.1 0.602,2.4 1.323,3.7 2.81399,5.4 7.31498,14.6 12.27497,26.3 4.86599,11.4 10.26197,25.3 15.50596,40.2 7.84698,22.2 15.18996,46.7 20.42095,68.8 z"
     id="path3062"
     style="stroke:none;stroke-width:0.2" /><path
     d="m 226.18361,11661.311 c 0.531,1.8 -0.548,3.8 -2.408,4.3 -1.85999,0.5 -3.80099,-0.6 -4.33299,-2.4 -3.00799,-8.8 -11.47897,-29.5 -21.34794,-53.1 -4.77199,-11.4 -9.90298,-23.4 -14.87697,-35.1 -4.34498,-10.2 -8.60797,-20.1 -12.53496,-29 -5.11399,-11.6 -9.52398,-21.5 -13.45997,-27.6 -7.19298,-11.4 -7.60898,-20.9 -4.62599,-27.1 4.12099,-8.5 14.66196,-12.9 26.83593,-7.3 6.62599,3 11.37498,6.8 14.70297,10.7 7.13598,8.3 8.06698,16.5 8.06698,16.5 0.314,1.9 -0.98,3.7 -2.889,4 -1.90899,0.3 -3.71399,-0.9 -4.02799,-2.9 0,0 -1.49899,-5.9 -7.47398,-11.6 -2.88199,-2.7 -6.85498,-5.3 -12.21697,-7.1 -5.42698,-1.9 -10.20097,-1.2 -11.65397,2.6 -1.34199,3.5 0.485,8.3 4.90899,14.3 4.61299,6.4 10.42997,16.5 16.23296,28.9 4.20499,9 8.42998,19.2 12.46397,29.8 4.56799,12 8.84198,24.5 12.67897,36.4 7.93998,24.6 13.84396,46.5 15.95796,55.7 z"
     id="path3064"
     style="stroke:none;stroke-width:0.2" /><path
     d="m 222.63462,11747.811 c 0.248,2 -1.109,3.7 -3.027,4 -1.91899,0.2 -3.67699,-1.1 -3.92499,-3.1 -1.10899,-6.1 -6.01598,-20.5 -12.71696,-39.3 -4.97499,-14 -11.07198,-30.2 -17.34096,-47.2 -3.80699,-10.4 -7.71598,-21 -11.44497,-31.5 -3.80499,-10.8 -7.39998,-21.5 -10.90498,-31.7 -6.25098,-18.2 -11.92097,-34.7 -16.91295,-47.2 -4.72299,-12.1 -4.11499,-23.3 0.61099,-29.9 4.02599,-5.5 10.74098,-8.6 20.07995,-5.8 1.878,0.5 3.026,2.4 2.562,4.3 -0.464,1.8 -2.366,3 -4.24399,2.5 -6.70798,-1.3 -10.89897,1.6 -12.17197,6.7 -1.204,4.8 0.05,11.2 3.32499,17.7 7.21398,14.9 16.37696,35.5 25.31794,58.3 2.53599,6.4 5.02899,13 7.41498,19.7 2.35599,6.6 4.59699,13.3 6.74598,20 4.47299,13.9 8.59698,27.6 12.17997,40.4 8.28798,29.5 13.76597,53.6 14.45197,62.1 z"
     id="path3066"
     style="stroke:none;stroke-width:0.2" /><path
     d="m 296.23243,11861.811 c 1.922,0.2 3.304,2 3.084,3.9 -0.219,1.9 -1.958,3.3 -3.87999,3.1 -6.12399,-0.4 -14.12097,-3.4 -21.40295,-8.5 -6.25898,-4.4 -11.82497,-10.4 -15.37196,-17.6 -5.09399,-10.5 -12.18097,-21.7 -20.33595,-33.1 -7.33398,-10.3 -15.64296,-20.6 -24.36194,-30.6 -6.91598,-7.9 -14.11997,-15.5 -21.34495,-22.7 -11.84397,-11.8 -23.72694,-22.4 -35.24791,-30 -8.35798,-5.6 -13.17697,-15.2 -11.91697,-23.1 1.181,-7.4 6.84898,-14.7 20.88895,-15.1 9.59997,-0.2 17.93895,1.8 24.75094,4.8 12.98696,5.7 20.35694,14.3 20.35694,14.3 1.319,1.4 1.241,3.6 -0.17399,4.9 -1.415,1.4 -3.635,1.3 -4.95399,-0.1 0,0 -6.97699,-6.7 -18.49396,-10.7 -5.83898,-2 -12.86596,-3.2 -20.79295,-2.4 -5.94698,0.7 -9.04997,2.6 -9.33097,5.8 -0.329,3.7 2.82599,7.7 6.89798,10 12.66397,7.5 26.21094,17.9 39.1039,30.2 7.70698,7.4 15.16197,15.5 22.16995,24 8.80798,10.6 16.88596,21.9 23.86594,33 7.84598,12.5 14.22696,25 18.75595,36.4 2.31,5.9 6.36899,11 10.98898,14.9 5.56598,4.7 11.78697,7.8 16.74495,8.6 z"
     id="path3068"
     style="stroke:none;stroke-width:0.2" /><path
     d="m 265.86851,11849.411 c 0.16,-1.9 1.855,-3.4 3.78299,-3.2 1.928,0.1 3.36299,1.8 3.20299,3.8 0,0 0.99,11.4 0.99,26.5 0,3.3 -0.127,6.9 -0.35,10.5 -0.143,2.3 -0.298,4.7 -0.626,7 -0.831,5.9 -2.09799,11.8 -3.46299,17.4 -2.70899,10.9 -5.94198,20.3 -8.51298,25.7 -0.601,1.8 -2.58199,2.8 -4.42099,2.2 -1.83799,-0.6 -2.84299,-2.5 -2.24199,-4.4 1.068,-5.5 1.14,-14.8 1.65899,-25.5 0.271,-5.6 0.517,-11.5 1.104,-17.3 0.233,-2.3 0.62,-4.6 0.995,-6.8 0.591,-3.6 1.226,-7 1.91999,-10.3 3.108,-14.7 5.96099,-25.6 5.96099,-25.6 z"
     id="path3070"
     style="stroke:none;stroke-width:0.2" /><path
     d="m 385.50721,11925.811 c -0.049,0.1 -0.099,0.3 -0.149,0.4 0.037,-0.1 0.052,-0.4 0.149,-0.4 z m 0,0 c 2.186,-6.7 3.60199,-13.8 4.68199,-21.1 1.671,-11.2 2.32,-22.8 2.182,-33.9 -0.312,-25 -4.15999,-47.3 -8.30998,-56.1 -0.924,-1.7 -0.295,-3.8 1.40399,-4.7 1.699,-0.9 3.82899,-0.3 4.75399,1.4 5.42599,8.8 12.88397,32 15.53196,58.7 1.183,11.9 1.362,24.5 -0.005,36.6 -0.94899,8.5 -2.80399,16.8 -5.32398,24.5 -0.817,2.3 -2.667,5.4 -6.52999,8.3 -4.56699,3.5 -12.57697,7.6 -25.12694,10.8 -15.89096,4.1 -39.4409,7 -72.78281,6.7 -1.932,0.1 -3.568,-1.4 -3.65,-3.3 -0.082,-2 1.421,-3.6 3.354,-3.7 25.77093,-2.4 45.18588,-6.3 59.63685,-10.3 11.45997,-3.2 19.53895,-6.5 24.87094,-9.7 2.81999,-1.6 6.64198,-3.5 5.37698,-4.2 -0.025,0 -0.046,0 -0.064,0 z"
     id="path3072"
     style="stroke:none;stroke-width:0.2" /><path
     d="m 417.38613,11594.311 c -1.25399,1.4 -3.46699,1.6 -4.94098,0.4 -1.474,-1.3 -1.652,-3.5 -0.399,-5 7.60798,-10.9 16.08296,-19.8 25.78193,-26.6 4.23399,-3 8.73098,-5.4 13.39197,-7.5 3.13299,-1.3 6.35498,-2.5 9.67898,-3.4 8.03398,-2.1 16.49696,-2.8 25.24093,-2.4 11.53997,0.6 23.42495,3.4 35.94191,8 1.872,0.5 2.992,2.4 2.502,4.3 -0.491,1.8 -2.408,3 -4.27999,2.5 -12.11797,-2 -23.29894,-2.1 -33.90292,-1.1 -7.45698,0.7 -14.44396,2.2 -21.28094,4.1 -6.93499,2 -13.64897,4.3 -20.16595,7.5 -9.58698,4.8 -18.86796,10.8 -27.56794,19.2 z"
     id="path3074"
     style="stroke:none;stroke-width:0.2" /><path
     d="m 550.4688,11604.911 c -1.05699,1.7 -3.22999,2.1 -4.84998,1.1 -1.621,-1.1 -2.078,-3.3 -1.021,-4.9 9.03898,-15.2 22.32394,-34.7 37.59291,-48.5 12.48396,-11.2 26.44393,-18.4 40.1419,-18.1 9.72797,0.3 15.22796,6.8 16.94695,16.2 1.499,8.1 -0.56699,18.9 -4.81098,27.3 -3.13,6 -6.99599,13.4 -11.15898,21.7 -5.05498,10 -10.49297,21.2 -14.91896,32.7 -4.89499,12.7 -8.74998,25.6 -9.32698,37.5 -0.605,11 -4.32099,22.3 -9.27497,32 -6.33299,12.5 -14.42997,22.5 -19.46996,26.5 -1.46899,1.2 -3.68299,1 -4.94198,-0.4 -1.259,-1.5 -1.089,-3.7 0.38,-5 4.21799,-3.9 10.58597,-13.5 15.38296,-25.1 3.62799,-8.7 6.26098,-18.7 6.07498,-28.2 -0.171,-13.2 2.943,-27.8 7.64398,-42.2 4.02099,-12.2 9.16398,-24.3 14.24197,-34.8 4.05599,-8.5 8.12998,-16 11.30097,-22.1 2.42499,-4.4 4.00899,-9.9 4.04099,-14.8 0.011,-1.7 -0.117,-3.4 -0.646,-4.8 -0.39,-1 -0.973,-1.9 -2.20499,-2 -10.60598,-0.9 -21.41595,4.7 -31.72392,12.8 -15.46097,12 -29.63093,29.4 -39.39891,43.1 z"
     id="path3076"
     style="stroke:none;stroke-width:0.2" /><path
     d="m 562.19677,11584.211 c 1.11,1.6 0.725,3.8 -0.85999,4.9 -1.584,1.1 -3.77199,0.7 -4.88099,-0.9 -1.376,-1.8 -3.34599,-7.9 -5.43499,-16.9 -4.64599,-20.1 -10.93297,-55.6 -16.86096,-86.8 -2.38899,-12.6 -4.67098,-24.5 -6.85198,-34.3 -2.09199,-9.5 -3.96199,-16.9 -5.82698,-21 -1.074,-2.4 -2.375,-4.4 -4.00699,-5.5 -0.893,-0.7 -1.898,-1 -2.937,-0.5 -3.46699,1.5 -6.53998,5.8 -9.46597,13.1 -5.66199,13.6 -7.99798,30.2 -8.72898,46.5 -1.677,37.3 5.27899,73.5 5.27899,73.5 0.43999,1.9 -0.732,3.8 -2.615,4.2 -1.88399,0.4 -3.77099,-0.7 -4.21099,-2.6 0,0 -10.05397,-36.7 -10.68097,-75.3 -0.293,-18 1.64499,-36.3 7.08098,-51.7 6.36699,-17.5 16.41996,-23.6 24.45994,-23.8 7.85798,-0.1 15.76396,5.3 20.42395,15.6 2.60499,6 5.53199,18.2 8.15898,33.5 1.87699,10.9 3.67999,23.5 5.35699,36.4 2.42599,18.7 4.58798,38.2 6.59898,54.5 2.38799,19.4 4.11599,34.2 6.00298,37.1 z"
     id="path3078"
     style="stroke:none;stroke-width:0.2" /><path
     d="m 466.95701,11559.111 c 0.376,1.9 -0.86,3.8 -2.75799,4.1 -1.897,0.4 -3.74299,-0.8 -4.11899,-2.7 -1.324,-5.2 -5.11099,-25.2 -7.89298,-49.9 -0.775,-6.9 -1.43,-14.2 -1.93,-21.6 -0.538,-8 -0.923,-16.1 -0.952,-24.1 -0.03,-8.3 0.262,-16.5 0.991,-24.3 1.136,-12 3.25799,-22.9 6.22499,-31.5 3.36399,-9.7 7.99298,-16.8 13.60096,-20.2 5.95699,-3.6 11.38697,-5 16.23396,-3.7 3.39699,0.9 6.71999,2.9 9.57298,6.7 4.16099,5.5 7.84398,15.4 10.42097,31.3 0.413,1.9 -0.78599,3.8 -2.67599,4.2 -1.889,0.4 -3.75899,-0.8 -4.17199,-2.7 -3.70699,-13.4 -7.45098,-21.8 -11.53997,-26.2 -3.33299,-3.6 -6.89798,-2.3 -10.92997,0.7 -3.419,2.5 -5.30599,7.6 -7.02799,14.1 -2.12299,7.9 -3.16699,17.8 -3.91199,28.6 -0.508,7.4 -0.86199,15.2 -1.08299,23.2 -0.216,7.8 -0.387,15.7 -0.405,23.5 -0.017,7.2 0.04,14.3 0.141,21.2 0.361,24.3 1.48699,44.2 2.21199,49.3 z"
     id="path3080"
     style="stroke:none;stroke-width:0.2" /><path
     d="m 436.96709,11573.911 c 0.22599,1.9 -1.151,3.7 -3.072,3.9 -1.92099,0.2 -3.66399,-1.1 -3.88999,-3.1 -2.12899,-11.4 -4.84599,-30.9 -6.21698,-52.2 -0.74,-11.5 -1.179,-23.5 -0.9,-34.9 0.255,-10.5 1.197,-20.5 2.30699,-29.3 1.783,-14 4.46299,-25 7.39599,-30.1 4.84698,-8.3 11.25697,-13.1 16.97395,-13.9 5.73999,-0.8 11.15398,1.4 13.89997,8 0.866,1.7 0.165,3.8 -1.565,4.7 -1.72999,0.9 -3.83699,0.2 -4.70398,-1.6 -1.826,-3.1 -4.78999,-3.3 -7.56599,-1.7 -2.78799,1.6 -5.18498,5 -7.05598,9.4 -2.01099,4.7 -2.61399,14.3 -3.09599,26.4 -0.275,7 -0.302,14.7 -0.481,22.8 -0.164,7.4 -0.421,15.1 -0.664,22.8 -0.292,9.4 -0.651,18.7 -0.917,27.5 -0.50799,16.9 -0.89699,31.8 -0.44899,41.3 z"
     id="path3082"
     style="stroke:none;stroke-width:0.2" /><path
     d="m 527.73786,11729.411 c 1.925,-0.2 3.64699,1.2 3.84299,3.2 0.197,1.9 -1.206,3.6 -3.13099,3.8 -10.38998,1.4 -35.68091,-0.8 -57.87486,-4.7 -17.53795,-3.1 -33.06992,-7.6 -38.7959,-11.7 -6.62599,-4.7 -14.17097,-15.5 -20.73895,-29.6 -6.52598,-14 -12.16497,-31.5 -15.79596,-48.6 -2.01,-10.5 -3.51299,-21.3 -4.38399,-32.1 -1.327,-16.5 -1.394,-32.9 -0.59,-48.3 2,-38.2 9.45798,-69.8 16.26596,-79.5 4.71199,-6.7 9.85298,-9.9 14.33797,-10.9 5.77198,-1.3 10.63397,0.7 13.08396,4 1.214,1.5 0.976,3.7 -0.531,4.9 -1.50599,1.2 -3.71399,1 -4.92798,-0.5 -1.408,-1.6 -4.31299,-1.8 -7.39799,-0.2 -2.46799,1.3 -4.92298,3.7 -7.22498,7.5 -5.80198,9.4 -10.06197,39.4 -10.12397,75.1 -0.026,14.8 0.752,30.6 2.49299,46.4 1.127,10.3 2.598,20.5 4.67599,30.5 3.02399,16.1 8.06298,32.4 13.69597,45.7 4.90998,11.6 9.97597,20.9 15.14896,25 5.69198,4.5 23.73794,9.6 42.19289,13.6 18.39096,4.1 37.20191,7 45.77889,6.4 z"
     id="path3084"
     style="stroke:none;stroke-width:0.2" /><path
     d="m 521.56988,11792.611 c -0.472,0.4 1.16099,0.8 2.02499,1.2 1.445,0.7 3.22699,1.2 5.33899,1.6 7.42798,1.2 18.08795,0.5 32.11592,-3.9 12.67397,-4 27.86193,-10.6 45.50388,-21.8 1.573,-1.1 3.764,-0.7 4.88999,0.9 1.126,1.5 0.764,3.7 -0.809,4.8 -11.02997,9 -21.15094,16 -30.47592,21.2 -13.92097,7.9 -25.95894,12 -35.79091,13.7 -11.00297,2 -19.55195,1 -25.36494,-1.1 -6.36698,-2.3 -10.04597,-6.1 -11.68497,-9.6 -0.6,-1.3 -1.98899,-3.6 -3.83399,-6.6 -4.10199,-6.7 -10.39297,-16.3 -16.81696,-26.3 -10.69897,-16.7 -21.71494,-34.2 -25.30694,-40 -1.12199,-1.6 -0.75299,-3.8 0.823,-4.9 1.576,-1.1 3.76599,-0.8 4.88799,0.8 3.98399,4.9 15.83896,18.8 27.41993,33.1 3.97199,4.9 7.87798,9.8 11.43197,14.5 7.75399,10.1 13.78397,18.9 15.64697,22.4 z m 0,0 c 0.004,0 0.008,0 0.012,0 0.059,-0.1 0.055,0.1 0.085,0.2 -0.031,-0.1 -0.063,-0.1 -0.097,-0.2 z"
     id="path3086"
     style="stroke:none;stroke-width:0.2" /><path
     d="m 586.62971,11690.211 c -0.80299,-1.8 -0.026,-3.9 1.734,-4.7 1.76,-0.8 3.83999,0 4.64399,1.8 0,0 4.33599,5.6 11.67897,13.8 2.41999,2.7 5.17899,5.5 8.11498,8.6 1.71,1.9 3.49599,3.8 5.26799,5.8 2.49399,2.8 4.92598,5.9 7.66798,8.8 4.67899,5.1 9.48597,10.2 15.52296,14.6 1.71799,0.9 2.39099,3 1.502,4.7 -0.889,1.7 -3.006,2.4 -4.72399,1.5 -7.81698,-2.6 -14.83597,-6.1 -21.18095,-10.4 -4.54999,-3 -8.61598,-6.5 -12.09297,-10.1 -1.483,-1.6 -2.76999,-3.2 -3.97599,-4.9 -1.958,-2.7 -3.68099,-5.3 -5.11599,-7.9 -6.78498,-12.3 -9.04298,-21.6 -9.04298,-21.6 z"
     id="path3088"
     style="stroke:none;stroke-width:0.2" /><path
     d="m 328.03336,11306.011 c 0.148,-2 1.83299,-3.4 3.76199,-3.3 1.92899,0.2 3.37499,1.9 3.22799,3.8 0,0 0.829,14.8 0.926,33.9 0.022,4.4 -0.065,8.9 -0.232,13.5 -0.107,3 -0.218,6 -0.492,9 -0.703,7.7 -1.798,15.3 -2.872,22.3 -2.87199,18.9 -5.88098,33.4 -5.88098,33.4 -0.147,2 -1.832,3.4 -3.76099,3.3 -1.929,-0.2 -3.37599,-1.9 -3.22899,-3.8 0,0 -0.772,-14.8 -0.75,-33.9 0.008,-7.1 0.079,-14.8 0.549,-22.5 0.183,-3 0.53,-6 0.875,-9 0.53899,-4.6 1.13999,-9.1 1.82099,-13.4 2.99199,-18.8 6.05599,-33.3 6.05599,-33.3 z"
     id="path3090"
     style="stroke:none;stroke-width:0.2" /><path
     d="m 165.85276,11346.411 c -1.293,-1.5 -1.176,-3.7 0.262,-5 1.43799,-1.3 3.65599,-1.2 4.94998,0.3 0,0 13.23097,11.8 29.55593,27.6 3.72099,3.6 7.53398,7.5 11.37397,11.5 2.466,2.5 4.95899,5.1 7.32999,7.8 6.06698,6.9 11.81797,14.1 17.10295,20.8 14.10997,17.8 24.48094,32.2 24.48094,32.2 1.294,1.4 1.176,3.6 -0.262,4.9 -1.43799,1.3 -3.65599,1.2 -4.94999,-0.2 0,0 -13.19396,-11.9 -29.42492,-27.8 -6.08099,-5.9 -12.59397,-12.4 -18.83496,-19.2 -2.43999,-2.6 -4.75698,-5.4 -7.04498,-8.1 -3.56299,-4.2 -6.99198,-8.4 -10.18897,-12.5 -14.02697,-17.9 -24.34994,-32.3 -24.34994,-32.3 z"
     id="path3092"
     style="stroke:none;stroke-width:0.2" /><path
     d="m 404.30117,11371.911 c 1.24899,-1.5 3.46199,-1.7 4.93998,-0.4 1.477,1.2 1.663,3.4 0.414,4.9 0,0 -2.61199,6 -7.03998,13.7 -0.979,1.7 -2.07199,3.4 -3.27699,5.2 -0.765,1 -1.541,2.1 -2.444,3.1 -2.33199,2.6 -4.91098,4.9 -7.36598,7 -6.74698,5.7 -12.25397,9.3 -12.25397,9.3 -1.24799,1.5 -3.46199,1.7 -4.93898,0.4 -1.477,-1.2 -1.663,-3.4 -0.414,-4.9 0,0 2.66499,-6.1 7.17398,-13.7 1.63999,-2.7 3.43399,-5.6 5.58699,-8.4 0.83299,-1 1.78999,-2 2.73699,-2.9 1.49299,-1.5 2.97699,-2.9 4.49399,-4.1 6.85798,-5.7 12.38797,-9.2 12.38797,-9.2 z"
     id="path3094"
     style="stroke:none;stroke-width:0.2" /></g>&#10;</svg>
