<?xml version="1.0" encoding="UTF-8" standalone="no"?>
<svg
   width="3570.6855"
   height="2482.7966"
   viewBox="0 0 3570.6856 2482.7966"
   version="1.1"
   xml:space="preserve"
   style="clip-rule:evenodd;fill-rule:evenodd;stroke-linejoin:round;stroke-miterlimit:2"
   id="svg5353"
   xmlns="http://www.w3.org/2000/svg"
   xmlns:svg="http://www.w3.org/2000/svg"><defs
   id="defs5353" />&#10;    <g
   id="vectorly-UNI-idea-book"
   style="stroke:none;stroke-width:0.2"
   transform="matrix(4.9999999,0,0,4.9999999,-12425.021,-16568.933)"><path
     d="m 2937.5518,3511.5558 c -0.69,1.81 -2.718,2.72 -4.525,2.03 -1.807,-0.69 -2.714,-2.72 -2.024,-4.53 8.199,-23.58 -2.23,-46.8199 -20.239,-63.5399 -17.2029,-15.97 -41.5188,-26.04 -64.0488,-23.94 -21.3069,1.65 -37.7619,13.12 -46.3549,28.54 -8.716,15.64 -9.351,35.4099 2.103,53.5199 12.549,20.25 30.2589,31.11 48.6059,35.71 22.5339,5.65 45.9649,2.18 62.3528,-5.3 1.736,-0.85 3.838,-0.13 4.692,1.6 0.854,1.74 0.137,3.84 -1.599,4.7 -17.4329,9.2 -42.8549,14.47 -67.8078,9.59 -21.4479,-4.19 -42.3999,-15.94 -57.9979,-38.63 -15.4359,-22.89 -15.3629,-48.6499 -4.2869,-68.8899 10.7779,-19.69 32.1089,-34.12 59.2368,-35.84 26.2379,-1.26 54.2579,11.08 73.2228,30.65 19.655,20.28 29.714,47.8499 18.67,74.3299 z"
     id="path1238"
     style="stroke:none;stroke-width:0.2" /><path
     d="m 2897.6499,3469.9059 c 0.101,-1.93 1.751,-3.42 3.683,-3.32 1.932,0.1 3.418,1.75 3.317,3.69 0,0 1.509,7.32 3.162,17.8399 0.352,2.24 0.654,4.59 0.904,7.06 0.155,1.53 0.329,3.09 0.35,4.69 0.05,3.86 -0.22,7.79 -0.409,11.72 -0.305,6.33 -0.96,12.22 -0.647,17.63 0.459,1.88 -0.694,3.78 -2.573,4.24 -1.879,0.46 -3.778,-0.69 -4.237,-2.57 -2.4,-5.35 -4.584,-11.39 -6.148,-18.05 -0.953,-4.07 -1.677,-8.21 -1.963,-12.31 -0.117,-1.67 -0.053,-3.33 0.027,-4.95 0.127,-2.59 0.34,-5.05 0.683,-7.39 1.591,-10.8699 3.851,-18.2799 3.851,-18.2799 z"
     id="path1240"
     style="stroke:none;stroke-width:0.2" /><path
     d="m 2840.779,3496.4858 c -1.629,-1.05 -2.106,-3.21 -1.063,-4.84 1.043,-1.63 3.212,-2.11 4.842,-1.07 0,0 8.426,3.12 19.171,8.61 2.389,1.22 4.808,2.6 7.2699,4.12 1.562,0.96 3.143,1.96 4.629,3.1 3.758,2.88 7.252,6.12 10.453,9.36 6.211,6.29 10.983,12.4 13.606,17.02 1.212,1.51 0.972,3.72 -0.536,4.93 -1.508,1.21 -3.716,0.97 -4.928,-0.53 -3.08,-2.75 -8.028,-5.57 -13.735,-8.98 -2.337,-1.4 -4.749,-2.79 -7.208,-4.32 -2.365,-1.47 -4.7699,-2.94 -7.0669,-4.56 -1.482,-1.04 -2.885,-2.18 -4.263,-3.3 -2.186,-1.79 -4.25,-3.56 -6.187,-5.31 -8.782,-7.98 -14.984,-14.23 -14.984,-14.23 z"
     id="path1242"
     style="stroke:none;stroke-width:0.2" /><path
     d="m 2935.4188,3552.8658 c -0.054,0.09 -0.11,0.18 -0.168,0.26 0.061,-0.08 0.022,-0.44 0.11,-0.34 0.024,0.03 0.043,0.06 0.058,0.08 z m -29.2309,8.44 c 2.791,0.33 7.3089,-1.08 12.1229,-2.35 4.99,-1.32 10.207,-2.83 13.983,-4.61 1.198,-0.57 3.482,-0.86 3.125,-1.48 0.997,-1.74 1.366,-5.62 1.763,-9.84 0.908,-9.65 1.108,-20.5 1.108,-20.5 -0.205,-1.92 1.191,-3.65 3.114,-3.86 1.924,-0.2 3.652,1.19 3.857,3.12 0,0 3.142,14.02 3.92,24.84 0.435,6.04 -0.5,11.14 -1.688,13.65 -1.066,2.15 -3.628,4.61 -7.325,6.95 -2.646,1.67 -6.034,3.31 -9.742,4.68 -4.016,1.48 -8.415,2.66 -12.525,3.33 -5.95,0.98 -11.3479,0.95 -14.6989,0.07 -1.933,-0.55 -6.75,-3.27 -11.897,-7.54 -8.847,-7.33 -19.934,-18.09 -19.934,-18.09 -1.525,-1.19 -1.7979,-3.4 -0.609,-4.92 1.189,-1.53 3.393,-1.8 4.919,-0.61 0,0 12.852,7.88 22.659,13.34 3.354,1.87 7.406,5.69 7.994,3.96 0.027,-0.08 -0.054,-0.12 -0.146,-0.14 z m 0,0 c -0.061,0 -0.121,-0.01 -0.181,-0.02 0.04,0 0.114,0.01 0.181,0.02 z"
     id="path1244"
     style="stroke:none;stroke-width:0.2" /><path
     d="m 2579.7597,3408.4959 c 1.193,1.21 2.596,2.63 4.179,4.26 16.7159,17.23 52.7388,52.73 93.8837,92.9399 34.2689,33.49 72.1088,70.21 105.6448,102.02 36.2989,34.42 67.4308,63.15 83.5708,75.4 3.1089,2.37 6.7479,4.58 7.5899,5.08 2.56,-0.07 8.348,-1.51 16.642,-3.66 17.616,-4.57 45.0729,-12.8 76.3538,-22.51 93.7978,-29.12 221.7325,-71.7 221.7325,-71.7 1.828,-0.63 3.8259,0.34 4.4589,2.17 0.633,1.82 -0.337,3.82 -2.1649,4.46 0,0 -126.9897,45.71 -220.2595,76.78 -37.9359,12.63 -70.3318,22.81 -86.4478,26.69 -5.906,1.42 -10.027,1.94 -11.936,1.81 -2.245,-0.15 -7.4639,-2.48 -14.5209,-7.7 -16.536,-12.23 -48.6729,-40.77 -85.7198,-75.47 -33.8099,-31.67 -71.8038,-68.41 -105.9557,-102.17 -41.0509,-40.5799 -76.5229,-76.8799 -93.0518,-94.3899 -6.745,-7.15 -10.518,-11.73 -10.975,-12.66 -1.089,-2.22 -1.566,-5.2 1.182,-8.28 0.927,-1.04 3.502,-2.86 7.901,-4.68 9.786,-4.02 31.4439,-10.72 59.2528,-18.53 90.6398,-25.46 247.0424,-63.4 265.5804,-64.56 1.929,-0.14 3.61,1.32 3.751,3.24 0.141,1.93 -1.311,3.61 -3.24,3.75 -20.895,1.75 -217.4765,54.64 -294.9303,79.85 -9.597,3.13 -17.3099,5.79 -22.5209,7.86 z m 294.2872,279.6899 c 0,0 -10e-4,0 -10e-4,0 z"
     id="path1246"
     style="stroke:none;stroke-width:0.2" /><path
     d="m 2905.8809,3332.6559 c -1.414,-1.32 -1.49,-3.54 -0.17,-4.96 1.32,-1.41 3.54,-1.49 4.9539,-0.17 0,0 47.7819,41.84 103.9218,92.4 22.3499,20.13 46.0519,41.59 68.4718,62.46 20.235,18.8299 39.3739,37.2299 56.0009,53.1899 32.7589,31.44 55.4388,53.79 55.4388,53.79 1.196,1.11 1.87,2.68 1.859,4.31 -0.012,1.64 -0.707,3.2 -1.918,4.3 0,0 -18.4019,15.84 -23.3489,37.37 -2.847,12.39 -1.148,26.64 11.224,40.83 1.308,1.42 1.212,3.64 -0.213,4.95 -1.425,1.31 -3.644,1.21 -4.952,-0.21 -15.396,-15.95 -17.942,-32.72 -15.307,-47.46 3.137,-17.54 14.073,-32.23 20.299,-39.41 -8.348,-7.43 -27.995,-24.97 -53.0869,-47.76 -17.061,-15.5 -36.7169,-33.33 -56.8919,-52.23 -22.3529,-20.9399 -45.3888,-43.1199 -66.9978,-64.0399 -54.2799,-52.55 -99.2837,-97.36 -99.2837,-97.36 z"
     id="path1248"
     style="stroke:none;stroke-width:0.2" /><path
     d="m 3194.4261,3684.4058 c 1.816,-0.66 3.832,0.27 4.499,2.08 0.668,1.82 -0.264,3.83 -2.08,4.5 0,0 -41.1399,16.73 -93.8287,37.4199 -29.548,11.6 -62.6689,24.53 -94.2018,36.39 -17.666,6.65 -34.8499,12.91 -50.5689,18.53 -43.8799,15.69 -76.2788,26.62 -76.2788,26.62 -1.96,0.72 -4.147,0.46 -5.878,-0.71 0,0 -27.5189,-18.96 -26.0279,-57.83 0.608,-15.87 6.082,-35.2299 20.9279,-58.0199 1.013,-1.64 3.173,-2.16 4.821,-1.15 1.649,1.02 2.164,3.18 1.151,4.82 -12.5899,21.75 -16.8949,39.8099 -16.7259,54.4799 0.292,25.31 14.5159,39.89 20.5079,44.92 9.152,-3.62 36.7319,-14.47 72.0978,-27.83 15.617,-5.9 32.759,-12.27 50.5229,-18.65 31.7089,-11.39 65.3199,-22.9899 95.3448,-33.2899 53.5378,-18.38 95.7177,-32.28 95.7177,-32.28 z"
     id="path1250"
     style="stroke:none;stroke-width:0.2" /><path
     d="m 3142.5863,3628.1758 c 1.838,-0.61 3.821,0.4 4.425,2.23 0.604,1.84 -0.397,3.82 -2.235,4.43 0,0 -32.91,12.88 -75.2468,28.42 -9.685,3.56 -19.876,7.18 -30.288,10.8 -6.696,2.33 -13.4709,4.68 -20.2969,6.88 -17.443,5.61 -34.9939,10.84 -51.2579,15.62 -43.2579,12.73 -77.3798,21.94 -77.3798,21.94 -1.837,0.61 -3.82,-0.39 -4.424,-2.23 -0.604,-1.84 0.397,-3.82 2.235,-4.43 0,0 32.9319,-12.83 75.3018,-28.25 15.93,-5.81 33.1609,-12.01 50.5299,-17.84 6.798,-2.29 13.647,-4.41 20.4179,-6.52 10.528,-3.26 20.88,-6.39 30.785,-9.28 43.2989,-12.61 77.4338,-21.77 77.4338,-21.77 z"
     id="path1252"
     style="stroke:none;stroke-width:0.2" /><path
     d="m 3142.5383,3649.7858 c 1.828,-0.64 3.825,0.34 4.457,2.17 0.631,1.82 -0.342,3.82 -2.17,4.45 0,0 -32.775,13.39 -75.0288,29.46 -9.662,3.68 -19.833,7.42 -30.23,11.16 -6.685,2.41 -13.4509,4.83 -20.2729,7.1 -17.42,5.79 -34.9659,11.18 -51.2529,16.08 -40.5039,12.1799 -73.2558,20.9599 -78.2668,21.5599 -1.91,0.31 -3.711,-0.99 -4.021,-2.9 -0.31,-1.91 0.989,-3.71 2.899,-4.02 4.87,-1 35.9859,-13.1099 75.0448,-27.5899 15.93,-5.91 33.1289,-12.27 50.4559,-18.27 6.787,-2.36 13.625,-4.56 20.3819,-6.73 10.512,-3.38 20.844,-6.64 30.729,-9.65 43.2349,-13.15 77.2748,-22.82 77.2748,-22.82 z"
     id="path1254"
     style="stroke:none;stroke-width:0.2" /><path
     d="m 3142.5013,3675.2458 c 1.822,-0.66 3.829,0.29 4.481,2.12 0.651,1.82 -0.299,3.82 -2.12,4.48 0,0 -32.726,13.78 -74.9808,30.38 -9.656,3.8 -19.823,7.66 -30.22,11.53 -6.683,2.48 -13.4469,4.9899 -20.2699,7.3399 -17.406,6 -34.9549,11.6 -51.2679,16.69 -38.8629,12.14 -70.7378,21.07 -78.1188,22.46 -1.884,0.44 -3.769,-0.73 -4.206,-2.62 -0.438,-1.88 0.737,-3.77 2.621,-4.21 7.167,-1.97 37.5859,-14.13 75.2238,-28.54 15.944,-6.1 33.1339,-12.6599 50.4439,-18.8599 6.788,-2.44 13.626,-4.72 20.3819,-6.98 10.515,-3.51 20.849,-6.89 30.734,-10.02 43.2669,-13.69 77.2978,-23.77 77.2978,-23.77 z"
     id="path1256"
     style="stroke:none;stroke-width:0.2" /><path
     d="m 2551.2417,3502.9058 c 0.874,0.91 2.635,2.62 5.153,5.06 9.499,9.22 29.68,28.24 55.0549,52.59 18.2319,17.5 39.2279,37.65 60.8308,58.9 23.941,23.56 48.6249,48.46 71.8519,71.87 58.3378,58.7999 106.9667,108.6399 106.9667,108.6399 1.386,1.35 1.417,3.57 0.068,4.96 -1.349,1.39 -3.57,1.42 -4.956,0.07 0,0 -51.1719,-47.24 -111.4397,-104.0699 -23.998,-22.63 -49.5029,-46.69 -73.6138,-70.08 -21.761,-21.11 -42.3749,-41.66 -60.2299,-59.56 -24.8999,-24.95 -44.2629,-44.9 -53.4249,-54.5 -4.5359,-4.75 -6.8149,-7.71 -6.9589,-8.06 -7.742,-18.48 -8.392,-39.2999 -4.413,-57.5699 5.168,-23.73 18.0389,-42.93 31.7209,-47.57 1.816,-0.66 3.831,0.27 4.497,2.09 0.667,1.81 -0.267,3.83 -2.083,4.49 -11.605,4.59 -21.063,22.16 -24.5679,42.84 -2.716,16.03 -1.651,34.0599 5.5439,49.8999 z"
     id="path1258"
     style="stroke:none;stroke-width:0.2" /><path
     d="m 2844.534,3796.9857 c 1.706,-0.91 3.832,-0.26 4.744,1.44 0.912,1.71 0.268,3.83 -1.438,4.75 -5.311,3 -32.7569,8.07 -58.3799,4.06 -14.0969,-2.2 -27.5299,-7.25 -36.8239,-16.25 -8.3839,-8.19 -41.5529,-41.24 -81.4358,-82.3099 -17.0339,-17.54 -35.2989,-36.53 -53.3368,-55.69 -18.085,-19.22 -35.9059,-38.64 -52.3529,-56.64 -41.8069,-45.76 -74.4468,-82.74 -77.2798,-87.3 -6.345,-10.25 -3.109,-22.61 7.743,-32.7699 9.621,-9.01 25.1769,-16.4 43.1209,-18.36 1.918,-0.25 3.68,1.1 3.933,3.02 0.253,1.92 -1.099,3.68 -3.017,3.93 -15.889,2.46 -29.519,9.47 -37.7339,17.85 -6.626,6.7699 -9.741,14.3999 -5.431,20.7499 3.307,4.92 45.5419,48.28 95.2247,99.65 10.476,10.83 21.274,22.02 32.06,33.33 10.6779,11.2 21.3569,22.5 31.7699,33.61 18.8079,20.07 36.7919,39.48 52.4888,56.45 26.328,28.4499 46.1089,50.0799 52.2659,56.5399 7.491,7.89 18.759,12.26 30.5179,14.64 23.179,4.7 48.3929,1.81 53.3609,-0.7 z"
     id="path1260"
     style="stroke:none;stroke-width:0.2" /><path
     d="m 2846.187,3800.0857 c -7.864,4.2 -65.3588,11.36 -89.5408,-13.07 -24.1829,-24.43 -256.2543,-268.6299 -264.1083,-280.7499 -10.857,-16.77 13.587,-40.4699 47.0149,-44.8699 -1.474,14.81 0.219,30.6399 6.544,44.8699 1.4159,3.18 271.3613,265.8599 300.0902,293.8199 z"
     id="path1262"
     style="stroke:none;stroke-width:0.2" /></g>&#10;</svg>
