<?xml version="1.0" encoding="UTF-8" standalone="no"?>
<svg
   width="2833.4294"
   height="2908.8862"
   viewBox="0 0 2833.4295 2908.8862"
   version="1.1"
   xml:space="preserve"
   style="clip-rule:evenodd;fill-rule:evenodd;stroke-linejoin:round;stroke-miterlimit:2"
   id="svg5353"
   xmlns="http://www.w3.org/2000/svg"
   xmlns:svg="http://www.w3.org/2000/svg"><defs
   id="defs5353" />&#10;    <g
   id="vectorly-UNI-hand-gesture"
   transform="matrix(4.9999999,0,0,4.9999999,-4552.6082,-56935.906)"
   style="stroke-width:0.2"><path
     d="m 1441.7508,11460.223 c 0.13,-2.061 0.29,-4.164 0.48,-6.294 0.08,-1.923 1.7,-3.417 3.61,-3.348 1.92,0.06 3.43,1.646 3.4,3.569 0.05,1.854 0.07,3.652 0.07,5.409 0.36,14.167 2.02,25.981 5.59,34.462 3.0899,7.346 7.9099,11.551 15.4999,11.081 3.02,-0.07 5.71,1.909 6.55,4.814 0.83,2.906 -0.4,6.005 -2.99,7.554 -9.59,6.101 -15.82,11.884 -19.4799,20.71 -2.55,6.17 -3.88,13.738 -4.31,23.726 -0.03,1.978 -0.08,4.012 -0.16,6.115 0,0.1 -0.01,0.193 -0.01,0.29 -0.24,4.344 -3.92,7.692 -8.26,7.54 -4.35,-0.166 -7.76,-3.791 -7.68,-8.135 0.1,-3.403 0.27,-6.585 0.52,-9.587 0.25,-8.411 -0.24,-15.522 -2.01,-22.204 -2.38,-9.02 -6.99,-17.251 -15.22,-26.852 -1.74,-1.882 -2.1299,-4.649 -0.99,-6.945 1.14,-2.297 3.58,-3.653 6.13,-3.404 5.73,0.775 9.85,-2.656 12.96,-9.656 3.03,-6.806 5.14,-16.366 6.3,-28.845 z m 2.47,65.188 c 2.96,-4.399 6.6,-8.176 11.05,-11.662 -2.93,-2.103 -5.38,-4.898 -7.37,-8.384 -1.61,-2.795 -2.89,-6.073 -3.89,-9.781 -0.58,1.397 -1.21,2.684 -1.88,3.874 -2.37,4.164 -5.26,7.124 -8.62,9.02 4.71,5.727 8.18,11.247 10.71,16.933 z"
     id="path2130"
     style="stroke:none;stroke-width:0.235238" /><path
     d="m 1213.9202,11442.754 c 0.1199,-1.465 0.2611,-2.958 0.4304,-4.481 0.085,-1.914 1.6937,-3.407 3.6131,-3.349 1.9124,0.06 3.4296,1.65 3.3943,3.564 0.057,1.249 0.092,2.47 0.12,3.661 0.4375,9.86 1.7642,18.041 4.3611,23.908 1.9265,4.345 4.855,6.785 9.3784,6.414 3.0203,-0.07 5.709,1.914 6.5417,4.813 0.8397,2.91 -0.3882,6.014 -2.9851,7.557 -6.2805,4.11 -10.317,7.976 -12.688,13.833 -1.729,4.257 -2.5617,9.49 -2.7945,16.421 -0.014,1.191 -0.035,2.421 -0.071,3.68 0,0.03 0,0.07 0,0.108 h -0.01 c 0,0.1 0,0.195 -0.01,0.293 -0.2399,4.344 -3.9165,7.693 -8.2635,7.527 -4.347,-0.166 -7.7624,-3.778 -7.6778,-8.123 0.01,-0.1 0.01,-0.195 0.014,-0.293 0.092,-2.518 0.2329,-4.881 0.4305,-7.097 0.1764,-5.399 -0.1129,-10.026 -1.2208,-14.4 -1.5454,-6.121 -4.5305,-11.744 -10.0136,-18.324 -1.7289,-1.885 -2.1241,-4.647 -0.9809,-6.942 1.1432,-2.294 3.5778,-3.651 6.1324,-3.407 3.3167,0.508 5.6736,-1.523 7.5507,-5.555 2.1806,-4.666 3.7754,-11.217 4.7422,-19.808 z m 3.1826,41.989 c 1.3196,-1.572 2.7874,-3.026 4.4175,-4.403 -1.376,-1.347 -2.5686,-2.948 -3.5848,-4.803 -0.6069,-1.103 -1.1503,-2.304 -1.6231,-3.603 -1.2631,2.148 -2.7239,3.847 -4.3752,5.155 2.0465,2.568 3.7542,5.096 5.1656,7.654 z"
     id="path2144"
     style="stroke:none;stroke-width:0.166003" /><path
     d="m 929.59489,11561.046 c 0.11997,-1.465 0.2611,-2.958 0.43047,-4.481 0.0847,-1.914 1.69362,-3.408 3.61307,-3.349 1.91238,0.06 3.42959,1.65 3.39431,3.563 0.0565,1.25 0.0917,2.47 0.11996,3.661 0.43752,9.861 1.7642,18.042 4.36109,23.909 1.9265,4.344 4.85506,6.785 9.37845,6.414 3.02031,-0.07 5.70894,1.914 6.54164,4.813 0.83975,2.909 -0.38813,6.014 -2.98502,7.556 -6.28053,4.11 -10.31701,7.976 -12.68808,13.834 -1.72891,4.257 -2.56161,9.489 -2.79449,16.421 -0.0141,1.191 -0.0353,2.421 -0.0706,3.68 0,0.03 0,0.07 0,0.108 h -0.007 c 0,0.1 0,0.195 -0.007,0.293 -0.23993,4.344 -3.91651,7.693 -8.26348,7.527 -4.34698,-0.166 -7.76246,-3.779 -7.67778,-8.123 0.007,-0.1 0.007,-0.195 0.0141,-0.293 0.0917,-2.519 0.23287,-4.881 0.43046,-7.097 0.17642,-5.399 -0.11291,-10.027 -1.22082,-14.4 -1.54544,-6.121 -4.53045,-11.745 -10.01357,-18.325 -1.72891,-1.884 -2.12409,-4.647 -0.98089,-6.941 1.1432,-2.294 3.57779,-3.651 6.13234,-3.407 3.31668,0.508 5.67365,-1.523 7.55075,-5.555 2.18054,-4.667 3.77538,-11.217 4.74215,-19.808 z m 3.18261,41.989 c 1.31962,-1.572 2.78743,-3.027 4.41754,-4.403 -1.37607,-1.347 -2.56866,-2.949 -3.58484,-4.803 -0.60688,-1.104 -1.15026,-2.304 -1.62306,-3.603 -1.26316,2.148 -2.72391,3.847 -4.3752,5.155 2.04646,2.567 3.7542,5.096 5.16556,7.654 z"
     id="path2146"
     style="stroke:none;stroke-width:0.166003" /><path
     d="m 1126.271,11395.013 c 0.12,-1.464 0.2611,-2.958 0.4305,-4.481 0.085,-1.914 1.6936,-3.407 3.613,-3.349 1.9124,0.06 3.4296,1.65 3.3944,3.564 0.056,1.249 0.092,2.47 0.1199,3.661 0.4375,9.86 1.7642,18.041 4.3611,23.908 1.9265,4.345 4.8551,6.785 9.3785,6.414 3.0203,-0.07 5.7089,1.914 6.5416,4.813 0.8398,2.91 -0.3881,6.014 -2.985,7.557 -6.2806,4.11 -10.317,7.976 -12.6881,13.833 -1.7289,4.257 -2.5616,9.49 -2.7945,16.421 -0.014,1.191 -0.035,2.421 -0.071,3.681 0,0.03 0,0.07 0,0.107 h -0.01 c 0,0.1 0,0.195 -0.01,0.293 -0.2399,4.344 -3.9165,7.693 -8.2635,7.527 -4.3469,-0.166 -7.7624,-3.778 -7.6777,-8.123 0.01,-0.1 0.01,-0.195 0.014,-0.293 0.092,-2.518 0.2329,-4.881 0.4305,-7.097 0.1764,-5.399 -0.113,-10.026 -1.2209,-14.4 -1.5454,-6.121 -4.5304,-11.744 -10.0135,-18.324 -1.7289,-1.885 -2.1241,-4.647 -0.9809,-6.942 1.1432,-2.294 3.5778,-3.651 6.1323,-3.407 3.3167,0.508 5.6737,-1.523 7.5508,-5.555 2.1805,-4.666 3.7753,-11.217 4.7421,-19.808 z m 3.1826,41.989 c 1.3196,-1.572 2.7874,-3.026 4.4176,-4.403 -1.3761,-1.347 -2.5687,-2.948 -3.5849,-4.803 -0.6069,-1.103 -1.1502,-2.304 -1.623,-3.603 -1.2632,2.148 -2.724,3.847 -4.3752,5.155 2.0464,2.568 3.7542,5.096 5.1655,7.654 z"
     id="path2148"
     style="stroke:none;stroke-width:0.166003" /><path
     d="m 983.96373,11832.711 c -0.944,1.7 -3.08199,2.3 -4.76999,1.4 -1.688,-1 -2.29199,-3.1 -1.348,-4.8 0,0 11.04298,-20.3 20.25295,-39 5.26001,-10.7 9.93001,-20.8 11.45001,-26.2 0.85,-3 0.4,-7.1 -0.52,-11.7 -1.9,-9.5 -6.12,-21 -9.21001,-31.4 -2.67999,-9.2 -4.40999,-17.7 -3.69999,-23.7 5.49,-46.5 12.56,-92.1 13.45,-136.2 0.61,-30.4 -1.74,-60 -9.88001,-88.7 -1.87,-6.6 0.89001,-13.2 7.86001,-17.8 7.03,-4.6 19.1799,-7.1 32.6999,-3.8 16.1999,4 34.6799,16.3 47.1299,43.5 5.38,11.8 7.96,24.7 8.98,37.9 1.3799,17.9 -0.17,36.2 -0.93,51.9 -0.61,12.5 -0.99,23.2 1.9399,30.2 0.85,2.1 3.03,2.4 5.75,2.3 3.69,-0.2 8.11,-1.3 13.21,-3.4 10.96,-4.4 24.5499,-12.6 40.0399,-24.4 6.68,-5.1 89.5998,-71.6 155.0496,-117 32.2599,-22.4 60.5199,-39.5 73.7598,-42.6 12.34,-2.8 26.59,6.6 25.2,26.5 -0.79,11.4 -7.13,26.8 -24.04,44.8 -6.06,6.5 -25.2699,26.2 -46.3999,47.9 -32.6499,33.4 -69.8698,71.3 -69.8698,71.3 -1.34,1.4 -3.56,1.4 -4.95,0.1 -1.4,-1.3 -1.44,-3.6 -0.1,-5 l 113.6997,-121.3 c 11.08,-12.2 16.99,-22.9 19.32,-31.7 3.77,-14.2 -2.54,-22.9 -10.13,-21.1 -12.4799,3.1 -38.6499,20.3 -68.8698,41.9 -64.5898,46.2 -146.5396,113.5 -153.1296,118.6 -21.1,16.3 -39.1399,26.2 -52.3199,29.7 -16.34,4.4 -26.8099,-0.3 -31.0099,-10.5 -2.9,-7 -3.71,-16.8 -3.42,-28.4 0.44,-16.9 3.04,-38 1.59,-58.7 -0.79,-11.3 -2.79,-22.5 -7.33,-32.7 -7.73,-17.3 -18.2699,-27.5 -28.8199,-32.6 -10.64,-5.2 -21.08,-5.2 -27.53,-2.3 -1.17,0.5 -2.1899,1.1 -2.9499,1.9 -0.38,0.3 -0.9,0.6 -0.77,1.1 8.0399,30 10.1599,61.1 8.9699,92.8 -1.67,44.4 -9.7399,90.2 -16.1699,137 -0.7,5.1 0.9,12.2 2.99,19.8 2.93,10.8 6.9499,22.7 8.6799,32.5 1.1,6.2 1.26,11.7 0.01,15.7 -1.38,4.5 -4.8999,12.2 -9.2299,20.8 -10.13001,20.1 -24.63497,45.4 -24.63497,45.4 z"
     id="path3096"
     style="stroke:none;stroke-width:0.2" /><path
     d="m 1300.1079,11700.311 c -1.43,1.3 -3.6499,1.2 -4.9499,-0.3 -1.3,-1.4 -1.2,-3.6 0.24,-4.9 6.7099,-7.4 11.6599,-15.1 15.5799,-22.8 2.83,-5.6 4.86,-11.2 6.43,-16.7 1.38,-4.8 2.21,-9.6 2.75,-14.2 0.58,-4.9 0.8,-9.7 0.46,-14.2 -0.61,-8.3 -2.61,-16 -6.54,-22.3 -4.23,-6.7 -10.05,-12.2 -17.8599,-15 -1.87,-0.6 -2.98,-2.5 -2.47,-4.3 0.51,-1.9 2.44,-3 4.2999,-2.5 12.67,2.3 22.66,9.8 29.53,20.4 2.83,4.3 4.97,9.2 6.5,14.5 1.99,6.9 2.83,14.5 2.25,22.4 -0.29,3.8 -0.99,7.7 -2.04,11.6 -1.45,5.5 -3.5,11 -6.37,16.4 -6.13,11.5 -15.32,22.4 -27.81,31.9 z"
     id="path3098"
     style="stroke:none;stroke-width:0.2" /><path
     d="m 1330.6179,11757.611 c -1.58,1.1 -3.77,0.7 -4.88,-0.8 -1.12,-1.6 -0.73,-3.8 0.85,-4.9 6.46,-5.6 11.16,-12.8 14.8599,-20.6 2.41,-5 4.14,-10.4 5.51,-15.8 1.15,-4.5 1.85,-9.1 2.35,-13.6 0.51,-4.7 0.74,-9.2 0.51,-13.5 -0.82,-15.9 -7.68,-29 -24.3799,-28.9 -1.93,0.2 -3.63,-1.2 -3.8,-3.2 -0.17,-1.9 1.26,-3.6 3.19,-3.8 16.6099,-2.9 28.0799,5.1 34.8699,17.7 2.61,4.8 4.31,10.5 5.22,16.6 0.8,5.4 0.93,11.1 0.25,16.9 -0.64,5.4 -1.99,10.9 -3.93,16.2 -2.28,6.2 -5.29,12.2 -9.11,17.7 -5.74,8.2 -12.91,15.1 -21.5099,20 z"
     id="path3100"
     style="stroke:none;stroke-width:0.2" /><path
     d="m 1122.0484,11954.611 c 1.27,-0.6 3.77,-1.7 5.67,-2.9 11.3899,-7.3 28.2099,-22.6 47.0099,-36.3 9.0899,-6.5 18.6599,-12.7 28.2399,-17.5 15.2799,-7.5 30.2299,-15.4 44.5999,-23.3 23.4099,-13 45.1999,-26.3 63.8498,-39.7 27.0699,-19.5 47.5899,-39.1 56.3999,-58 5.51,-11.8 6.62,-23.6 4.73,-33.6 -2.41,-12.8 -9.51,-22.8 -18.49,-26.1 -1.84,-0.6 -2.82,-2.6 -2.19,-4.5 0.62,-1.8 2.61,-2.8 4.44,-2.2 11.29,3.6 21.07,15.3 24.7399,31 2.71,11.7 1.99,25.4 -3.8899,39.5 -8.66,20.6 -29.44,42.8 -57.7399,64.6 -18.64,14.4 -40.5399,28.7 -64.2598,42.4 -14.45,8.4 -29.61,16.4 -45.0499,24.2 -16.33,8 -32.51,20.3 -46.5499,31.1 -13.18,10.2 -24.59,19.1 -32.4799,23 -8.77,4.3 -15.17,3 -18.55,-1.3 -12.6,-16 -28.5799,-32.9 -44.7299,-49.1 -29.9899,-30.1 -60.6298,-57.4 -72.5398,-70.2 -1.35,-1.4 -1.31,-3.6 0.07,-5 1.39,-1.3 3.60999,-1.3 4.96,0.1 12.45,12.3 44.3499,38 75.4998,66.8 16.63,15.3 32.9999,31.6 46.2599,47 z m 1.31,1.5 c 0,0 0.01,0 0.01,0.1 0,-0.1 -0.01,-0.1 -0.01,-0.1 z"
     id="path3102"
     style="stroke:none;stroke-width:0.2" /></g>&#10;</svg>
