<?xml version="1.0" encoding="UTF-8" standalone="no"?>
<svg
   width="2830.96"
   height="3451.7009"
   viewBox="0 0 2830.96 3451.7009"
   version="1.1"
   xml:space="preserve"
   style="clip-rule:evenodd;fill-rule:evenodd;stroke-linejoin:round;stroke-miterlimit:2"
   id="svg5353"
   xmlns="http://www.w3.org/2000/svg"
   xmlns:svg="http://www.w3.org/2000/svg"><defs
   id="defs5353" />&#10;    <g
   id="vectorly-UNI-blub"
   style="stroke:none;stroke-width:0.2"
   transform="matrix(4.9999999,0,0,4.9999999,-422.18255,-24011.036)"><g
     id="g207"
     style="stroke-width:0.2"><path
       d="m 386.69921,5274.9139 c 1.549,-17.02 3.31599,-35.46 5.10199,-53.12 3.78799,-37.4699 7.77098,-71.4099 10.00297,-81.1199 1.718,-7.44 6.43099,-8.05 9.34098,-7.18 1.247,0.37 2.85199,1.21 4.30399,3.08 1.178,1.52 2.60599,4.14 4.04699,7.71 10.62497,26.34 28.55393,112.1299 28.55393,112.1299 0.431,1.88 -0.751,3.76 -2.637,4.19 -1.88599,0.43 -3.76699,-0.75 -4.19699,-2.64 0,0 -17.85995,-72.0099 -29.53892,-102.8299 -1.248,11.41 -2.682,28.47 -4.20599,47.7399 -2.141,27.08 -4.33099,58.45 -6.25499,84.74 -2.34299,32.02 -4.24099,56.49 -4.24099,56.49 -0.30599,4.07 -3.62599,7.25 -7.70098,7.38 -4.07499,0.13 -7.59298,-2.83 -8.15798,-6.87 0,0 -4.47798,-32.4 -9.80197,-70.85 -5.18799,-37.45 -11.16497,-80.6299 -15.51996,-104.9799 -1.761,6.45 -3.60999,13.63 -5.44499,20.98 -7.18498,28.7599 -14.08696,59.9899 -14.08696,59.9899 -0.375,1.9 -2.221,3.14 -4.11799,2.76 -1.898,-0.37 -3.134,-2.22 -2.759,-4.11 0,0 5.53799,-31.65 11.60497,-60.7899 3.37,-16.18 6.93499,-31.59 9.72898,-40.52 0.579,-1.85 1.649,-2.77 2.40099,-3.31 1.707,-1.21 3.55399,-1.35 5.52299,-0.57 0.891,0.35 2.46499,1.34 3.63299,3.8 1.159,2.45 2.94399,9.05 4.98099,18.52 5.19599,24.14 12.80897,67.9799 18.90495,106.0199 0.18,1.12 0.359,2.24 0.537,3.36 z m 20.75595,-130.2299 c -0.371,-0.79 -0.723,-1.22 -1.074,-0.88 -0.494,0.48 0.275,0.74 1.074,0.88 z"
       id="path660"
       style="stroke:none;stroke-width:0.2" /><path
       d="m 388.42721,5356.5939 c 1.92799,-0.16 3.62699,1.27 3.79399,3.2 0.166,1.92 -1.264,3.62 -3.192,3.79 -24.95293,2.44 -49.18887,-0.33 -68.37383,-14.95 -15.34396,-11.69 -27.54393,-31.01 -34.12591,-61.69 -14.06597,-65.96 -40.7949,-96.5099 -57.21886,-136.1399 -7.56998,-18.26 -13.01897,-38.38 -14.38196,-64.3 -2.359,-47.01 19.41795,-88.35 52.06187,-117.86 33.83391,-30.5899 79.3048,-48.2799 120.8127,-47.0099 51.95387,1.9 93.32177,24.94 120.6947,57.9699 29.81792,35.98 43.00189,83.77 35.38891,128.55 -3.89999,22.79 -13.09897,43.01 -23.21194,62.39 -10.13998,19.43 -21.18995,37.9799 -28.04393,57.6799 -3.39699,9.76 -5.76599,19.79 -6.41699,30.37 -1.90599,30.88 -8.67698,53.87 -17.49695,70.11 -10.85598,19.98 -24.87894,29.93 -36.98791,32.15 -1.899,0.37 -3.73999,-0.88 -4.10899,-2.77 -0.37,-1.9 0.872,-3.74 2.77099,-4.11 10.48698,-2.16 22.13395,-11.47 31.20292,-29.05 8.03198,-15.56 13.90997,-37.51 15.11397,-66.82 0.476,-11.5 2.80399,-22.46 6.28298,-33.13 12.69397,-38.9399 41.5739,-73.8299 48.43288,-118.8399 6.33099,-41.07 -6.46498,-84.53 -34.15391,-117.11 -25.19694,-29.64 -62.84085,-50.2199 -109.97273,-51.4899 -37.75091,-1.25 -78.93981,15.0899 -109.91173,42.6899 -29.63093,26.4 -50.01087,63.23 -48.37288,105.65 0.876,24.14 5.67099,42.92 12.40797,60.04 15.90496,40.41 42.1069,71.9699 55.02986,139.0199 5.36499,28.02 15.78396,45.98 29.49193,56.92 17.29096,13.8 39.5499,16.46 62.48485,14.74 z"
       id="path662"
       style="stroke:none;stroke-width:0.2" /><path
       d="m 317.67138,5343.7839 c -0.155,-1.92 1.285,-3.61 3.21399,-3.77 1.928,-0.15 3.61899,1.29 3.77299,3.21 1.615,11.19 3.64399,28.63 5.84299,46.49 1.289,10.46 2.67499,21 4.20599,30.43 1.144,7.04 2.36299,13.42 3.77299,18.5699 1.061,3.89 1.795,7.03 3.31299,8.56 7.23398,7.56 12.09697,10.11 15.77696,13.53 2.632,2.45 4.89999,5.13 6.86399,9.44 2.03699,4.57 6.36198,7.66 11.51397,9.79 8.66098,3.58 19.28995,4.81 27.61293,4.51 1.92599,-0.18 3.64099,1.23 3.82899,3.15 0.188,1.93 -1.223,3.64 -3.14799,3.83 -9.35898,1.51 -21.55095,1.57 -31.81792,-1.33 -8.53698,-2.41 -15.50397,-7.16 -19.52196,-14.03 -1.30899,-2.28 -2.72699,-3.62 -4.29899,-4.85 -4.15099,-3.25 -9.37797,-5.62 -17.55195,-12.96 -2.503,-2.31 -4.95999,-6.3 -6.83498,-11.79 -2.131,-6.24 -3.769,-14.7399 -4.82699,-24.3499 -1.076,-9.78 -1.594,-20.73 -1.799,-31.59 -0.338,-17.98 0.268,-35.54 0.081,-46.84 z"
       id="path664"
       style="stroke:none;stroke-width:0.2" /><path
       d="m 447.93206,5345.6339 c 0.06,-1.94 1.67899,-3.46 3.61299,-3.4 1.93299,0.06 3.45399,1.68 3.39399,3.61 0.39,6.89 1.591,17.7 2.171,30.51 0.29499,6.52 0.43699,13.47 0.22499,20.65 -0.16799,5.7 -0.52399,11.53 -1.27299,17.3 -0.757,5.84 -1.905,11.63 -3.35199,17.21 -2.081,8.0199 -4.76999,15.5999 -8.14398,22.3499 -6.16799,12.34 -14.27197,21.93 -24.93194,26.52 -1.709,0.9 -3.83299,0.25 -4.73999,-1.46 -0.906,-1.71 -0.255,-3.83 1.454,-4.74 9.96697,-6.33 15.21796,-18.53 18.83195,-32.75 1.785,-7.0299 2.94199,-14.5599 4.05799,-22.2299 0.731,-5.03 1.461,-10.11 2.13399,-15.15 1.059,-7.93 2.028,-15.72 2.834,-23.08 1.62699,-14.85 2.82099,-27.63 3.72599,-35.34 z"
       id="path666"
       style="stroke:none;stroke-width:0.2" /><path
       d="m 417.08513,5393.4439 c 1.869,-0.5 3.792,0.61 4.29199,2.48 0.499,1.87 -0.61199,3.79 -2.48099,4.29 0,0 -11.65297,5.05 -29.28493,7.52 -3.80299,0.54 -7.86198,0.83 -12.13197,0.91 -2.64999,0.05 -5.37798,0.02 -8.14498,-0.25 -6.51798,-0.64 -13.26896,-2.05 -19.99895,-4.25 -9.38697,-3.06 -18.51095,-7.62 -27.18893,-13.82 -1.692,-0.93 -2.30499,-3.07 -1.367,-4.76 0.937,-1.69 3.072,-2.31 4.76399,-1.37 5.93499,2.4 11.87597,3.88 17.83496,5.14 6.17298,1.3 12.22397,1.94 18.13995,2.47 3.73499,0.34 7.38298,0.54 10.92198,0.8 3.81499,0.27 7.47998,0.61 10.99197,0.82 4.85099,0.29 9.31598,0.53 13.38697,0.59 12.25596,0.2 20.26594,-0.57 20.26594,-0.57 z"
       id="path668"
       style="stroke:none;stroke-width:0.2" /><path
       d="m 402.58717,5429.9139 c 1.794,-0.73 3.83799,0.14 4.56399,1.93 0.725,1.8 -0.142,3.84 -1.935,4.57 0,0 -4.88698,2.9699 -14.00196,5.8199 -2.87099,0.89 -6.08699,1.68 -9.75798,2.31 -3.08099,0.53 -6.40698,0.85 -9.99197,0.96 -2.151,0.06 -4.39099,0.05 -6.68899,-0.19 -5.14398,-0.56 -10.58597,-1.78 -16.22096,-3.74 -7.17998,-2.49 -14.38996,-6.1199 -22.00794,-10.9199 -1.765,-0.79 -2.55699,-2.86 -1.766,-4.63 0.791,-1.77 2.866,-2.56 4.63099,-1.77 4.66299,1.29 9.04298,2.07 13.36497,2.82 4.65899,0.8 9.01798,1.2 13.23297,1.59 3.02899,0.27 5.92098,0.38 8.69997,0.61 3.035,0.25 5.90699,0.55 8.63398,0.76 4.29899,0.34 8.15198,0.65 11.64597,0.72 10.97498,0.22 17.59796,-0.84 17.59796,-0.84 z"
       id="path670"
       style="stroke:none;stroke-width:0.2" /><path
       d="m 215.07522,5218.2434 c 1.90756,-0.3193 3.71658,0.9684 4.03634,2.8738 0.32285,1.915 -0.96726,3.7174 -2.8758,4.0368 0,0 -9.32155,3.534 -21.80944,7.2186 -2.81586,0.8322 -5.76927,1.5815 -8.82428,2.2913 -1.95477,0.4419 -3.93284,0.8991 -5.93991,1.1886 -5.1501,0.7523 -10.31022,1.0976 -15.12054,1.3572 -12.9706,0.7199 -22.94082,0.4859 -22.94082,0.4859 -1.90757,0.3192 -3.71658,-0.9685 -4.03845,-2.8836 -0.31977,-1.9054 0.97034,-3.7078 2.87791,-4.027 0,0 9.34576,-3.4881 21.84052,-7.0412 4.62962,-1.3256 9.62169,-2.678 14.73309,-3.6573 1.99088,-0.3883 4.00991,-0.5986 6.00338,-0.8135 3.11848,-0.3348 6.15592,-0.5805 9.08705,-0.7214 13.00567,-0.6046 22.97095,-0.3082 22.97095,-0.3082 z"
       id="path680"
       style="stroke:none;stroke-width:0.2" /><path
       d="m 163.56774,5035.9044 c 1.871,0.49 2.98899,2.41 2.49599,4.28 -0.49299,1.87 -2.41199,2.99 -4.28198,2.49 0,0 -10.15898,-0.67 -23.31295,-2.52 -2.96699,-0.42 -6.03198,-0.96 -9.16997,-1.59 -2.007,-0.41 -4.03799,-0.82 -6.02799,-1.39 -5.10799,-1.47 -10.05997,-3.31 -14.64996,-5.07 -12.373968,-4.75 -21.571946,-9.12 -21.571946,-9.12 -1.870995,-0.5 -2.988992,-2.42 -2.495993,-4.29 0.492998,-1.87 2.411994,-2.99 4.282989,-2.49 0,0 10.158975,0.72 23.26694,2.69 4.86199,0.73 10.07597,1.57 15.24296,2.81 2.014,0.49 3.98399,1.13 5.92999,1.77 3.04299,0.99 5.97698,2.03 8.76497,3.13 12.35797,4.87 21.52695,9.3 21.52695,9.3 z"
       id="path682"
       style="stroke:none;stroke-width:0.2" /><path
       d="m 218.86529,4843.8524 c -1.101,-1.59 -0.703,-3.78 0.887,-4.88 1.59099,-1.1 3.77599,-0.7 4.87699,0.89 0,0 7.68098,7.68 16.95695,18.34 2.096,2.41 4.19199,4.99 6.28499,7.68 1.34,1.72 2.69299,3.47 3.91199,5.31 3.12799,4.73 5.89898,9.63 8.42798,14.22 6.80398,12.36 11.34297,22.23 11.34297,22.23 1.101,1.59 0.704,3.77 -0.886,4.88 -1.59099,1.1 -3.77599,0.7 -4.87699,-0.89 0,0 -7.64398,-7.72 -16.81195,-18.44 -3.407,-3.99 -7.02299,-8.31 -10.34298,-12.9 -1.294,-1.79 -2.45299,-3.67 -3.59599,-5.53 -1.786,-2.9 -3.45899,-5.77 -4.97599,-8.58 -6.71298,-12.44 -11.19897,-22.33 -11.19897,-22.33 z"
       id="path686"
       style="stroke:none;stroke-width:0.2" /><path
       d="m 435.45086,4805.7374 c -0.016,-1.93 1.542,-3.52 3.476,-3.53 1.93499,-0.02 3.51799,1.54 3.53399,3.47 0,0 2.01099,9.09 3.67499,21.18 0.375,2.72 0.655,5.55 0.866,8.47 0.13499,1.87 0.26899,3.76 0.23899,5.65 -0.078,4.87 -0.55199,9.68 -1.04899,14.15 -1.344,12.1 -3.15199,21.23 -3.15199,21.23 0.016,1.94 -1.542,3.52 -3.476,3.53 -1.93399,0.02 -3.51799,-1.54 -3.53399,-3.47 0,0 -1.95599,-9.11 -3.49899,-21.18 -0.57,-4.46 -1.123,-9.26 -1.28,-14.12 -0.062,-1.9 0.042,-3.79 0.146,-5.66 0.163,-2.93 0.397,-5.76 0.726,-8.49 1.466,-12.11 3.32799,-21.23 3.32799,-21.23 z"
       id="path690"
       style="stroke:none;stroke-width:0.2" /><path
       d="m 645.59829,4954.091 c 1.741,-0.84 3.83899,-0.11 4.68099,1.63 0.841,1.74 0.111,3.84 -1.631,4.68 0,0 -8.14498,6.0899 -19.33195,13.2299 -2.52299,1.61 -5.20198,3.2 -7.99498,4.75 -1.78699,1 -3.59599,2 -5.47798,2.86 -4.82999,2.21 -9.78198,4.03 -14.41097,5.68 -12.47897,4.43 -22.30294,7.08 -22.30294,7.08 -1.741,0.84 -3.83899,0.11 -4.68099,-1.63 -0.842,-1.74 -0.111,-3.84 1.63099,-4.68 0,0 8.18198,-6.05 19.40796,-13.07 4.16399,-2.61 8.66898,-5.36 13.39696,-7.77 1.843,-0.94 3.75499,-1.74 5.64499,-2.52 2.95699,-1.22 5.85898,-2.34 8.68898,-3.31 12.54597,-4.3299 22.37994,-6.9299 22.37994,-6.9299 z"
       id="path696"
       style="stroke:none;stroke-width:0.2" /><path
       d="m 619.50364,5224.1553 c 1.89198,0.4064 3.09265,2.278 2.68314,4.1696 -0.40625,1.8821 -2.27661,3.0922 -4.16441,2.6767 0,0 -9.92301,-0.1648 -22.83358,-1.36 -2.91028,-0.2686 -5.9186,-0.6593 -9.00238,-1.1396 -1.97438,-0.3011 -3.97058,-0.6123 -5.93364,-1.0843 -5.03762,-1.2122 -9.93562,-2.8004 -14.48072,-4.3257 -12.25749,-4.1303 -21.38178,-8.0437 -21.38178,-8.0437 -1.89289,-0.4068 -3.09683,-2.2688 -2.68731,-4.1605 0.41042,-1.8912 2.28078,-3.1012 4.16858,-2.6858 0,0 9.92669,0.2216 22.79211,1.539 4.77085,0.4846 9.88937,1.0627 14.97658,2.0445 1.98336,0.3823 3.92577,0.9329 5.85055,1.4644 3.00304,0.8503 5.9069,1.7322 8.66329,2.7004 12.24976,4.2479 21.34957,8.205 21.34957,8.205 z"
       id="path698"
       style="stroke:none;stroke-width:0.2" /><path
       d="m 264.76551,5109.864 c -0.001,-2.54 2.06,-4.6 4.59899,-4.6 2.53899,0 4.60099,2.06 4.60099,4.6 1.695,4.55 3.61899,7.81 4.91699,11.86 0.876,2.73 1.66799,5.26 1.85999,7.77 0.229,2.99 -0.343,5.59 -0.663,7.98 -1.10599,8.28 -2.37599,12.31 -2.37599,12.31 0.571,2.47 -0.974,4.94 -3.44799,5.51 -2.47399,0.57 -4.94599,-0.97 -5.51699,-3.45 0,0 -2.97099,-3.63 -6.44098,-12.07 -1.004,-2.44 -1.988,-5.15 -2.458,-8.39 -0.15999,-1.11 -0.11299,-2.27 -0.033,-3.46 0.115,-1.72 0.29,-3.4 0.71,-5.21 1.016,-4.37 2.465,-8.05 4.24899,-12.85 z m 90.96178,-143.78 c 2.41299,-0.79 5.01398,0.53 5.80598,2.94 0.791,2.41 -0.525,5.01 -2.93699,5.8 -5.27599,2.5 -12.75497,8.05 -21.47595,15.58 -4.18399,3.62 -8.44298,7.75 -12.92096,12.23 -3.342,3.33 -6.64699,6.94 -10.08598,10.62 -3.24399,3.47 -6.58498,6.99 -9.82098,10.73 -5.20498,6.02 -10.30697,12.29 -14.69396,19.37 -4.28099,6.9 -8.19898,14.05 -10.99397,22.11 -0.543,2.48 -2.99699,4.05 -5.47699,3.51 -2.48099,-0.54 -4.05399,-3 -3.51099,-5.47 1.502,-14.39 5.61199,-27.62 11.74997,-39.63 4.33799,-8.49 9.65398,-16.24 15.61296,-22.99 2.487,-2.82 5.18999,-5.36 7.91598,-7.75 4.31599,-3.79 8.68898,-7.18 13.11497,-10.08 15.24196,-9.99 29.44793,-15.3 37.71691,-16.97 z"
       id="path708"
       style="stroke:none;stroke-width:0.2" /></g></g>&#10;</svg>
