<?xml version="1.0" encoding="UTF-8" standalone="no"?>
<svg
   width="3154.1345"
   height="2970.0918"
   viewBox="0 0 3154.1345 2970.0918"
   version="1.1"
   xml:space="preserve"
   style="clip-rule:evenodd;fill-rule:evenodd;stroke-linejoin:round;stroke-miterlimit:2"
   id="svg5353"
   xmlns="http://www.w3.org/2000/svg"
   xmlns:svg="http://www.w3.org/2000/svg"><defs
   id="defs5353" />&#10;    <g
   id="vectorly-UNI-note-todo-checklist"
   transform="matrix(4.9999999,0,0,4.9999999,-12431.414,-84704.043)"
   style="stroke-width:0.2"><path
     d="m 2630.2346,17083.709 c 1.53,0.1 3.92,0 5.63,0 7.32,0.3 16.48,-1 22.54,-2.8 -0.97,0.4 -1.95,0.8 -1.18,1.2 0.69,0.4 1.12,-0.2 1.43,-1.3 0.36,-0.1 0.71,-0.2 1.05,-0.3 -0.21,0.1 -0.61,0.2 -1.05,0.3 0.55,-1.9 0.71,-5.4 1.26,-8.2 2.9,-14.5 5.02,-38.2 6.22,-60 0.88,-16 1.36,-31 1.08,-40.5 -0.12,-4.4 -0.2,-7.4 -0.67,-8.7 -0.95,-2.4 -3.72,-4.2 -6.74,-5.6 -7.39,-3.6 -16.62,-5.1 -16.62,-5.1 -1.92,-0.2 -3.3,-1.9 -3.08,-3.9 0.22,-1.9 1.97,-3.3 3.89,-3 0,0 10.56,0.8 19.2,4.2 5.44,2.2 9.9399,5.6 11.8999,9.8 1.31,2.8 2.61,13.8 3.21,28.5 0.75,18.6 0.73,43.2 -0.56,63.5 -1.06,16.7 -3.24,30.6 -5.91,36.6 -1.93,4.4 -4.8099,6.4 -7.0599,7.2 -9.92,3.3 -28.51,5.3 -38.3699,2.6 -8.3,-2.2 -12.08,-7.4 -11.54,-13.3 2.36,-23.3 2.29,-45 1.31,-64 -1.44,-28 -4.98,-50.3 -7.31,-64 -0.39,-1.9 0.82,-3.8 2.72,-4.2 1.89,-0.4 3.75,0.8 4.15,2.7 3.41,13.8 9.02,36.2 12.3,64.5 2.1899,19 3.1999,40.5 2.1999,63.8 z m 28.17,-2.8 c 0.09,0 0.17,0 0.25,-0.1 0,0 0,0 0,0 -0.08,0.1 -0.16,0.1 -0.25,0.1 z m -28.27,5 c 0,0 -0.01,0.1 -0.01,0.1 z m -0.28,-2.2 c -0.23,-0.9 -0.59,-1.6 -1.01,-1 -0.3599,0.6 0.12,0.8 1.01,1 z"
     id="path4888"
     style="stroke:none;stroke-width:0.2" /><path
     d="m 2838.0241,17075.409 c 1.78,-3.7 6.95,-15.4 13.23,-29.7 6.2,-14.2 13.46,-30.9 19.24,-45.3 4.2199,-10.6 7.7199,-19.9 9.3199,-26 0.55,-2.1 0.9,-4.7 0.9,-4.7 0,0 0.07,0.1 0.09,0.2 -0.67,-2.3 -2.69,-4.2 -4.97,-5.9 -5.7699,-4.2 -13.2599,-6.6 -13.2599,-6.6 -1.87,-0.6 -2.97,-2.5 -2.46,-4.4 0.51,-1.8 2.44,-2.9 4.31,-2.4 0,0 8.9499,2.1 16.0599,6.5 4.17,2.5 7.54,6 9.02,9.9 0.6,1.5 0.64,4.9 -0.2,9.5 -1.19,6.5 -4.02,16.5 -7.7,27.9 -4.85,15 -11.1199,32.3 -16.6999,46.9 -5.76,15 -10.83,27.1 -12.47,30.9 -4.58,10 -17.54,11.5 -28.1899,5 -8.9,-5.3 -14.77,-15.4 -11.79,-24.7 7.43,-22.2 11.3,-41.5 13.5,-57.9 3.82,-28.7 2.31,-48.8 3.18,-60.4 0.07,-1.9 1.6999,-3.4 3.6299,-3.4 1.93,0.1 3.45,1.7 3.38,3.7 0.07,11.7 3.6,31.9 1.73,61.3 -1.1,17.3 -4.24,37.6 -10.6999,61.2 -0.19,0.7 0.11,1.3 0.4,1.9 0.59,1.2 1.61,2.3 2.7299,3.2 1.89,1.6 4.22,2.7 6.41,3.1 0.35,0.1 0.94,0.2 1.31,0.2 z m 0,0 c 0.23,0 0.37,0 0.3,-0.2 -0.04,-0.1 -0.2,0.1 -0.3,0.2 z m -0.05,0.1 z"
     id="path4890"
     style="stroke:none;stroke-width:0.2" /><path
     d="m 2946.2539,17054.309 c -1.01,-0.3 -2.45,-0.6 -3.65,-1 -13.08,-4.2 -42.6499,-8.7 -80.1298,-13 -1.92,-0.2 -3.33,-1.9 -3.14,-3.8 0.19,-2 1.91,-3.4 3.83,-3.2 31.2899,2.6 57.1998,5.5 72.9498,8.6 9.38,1.9 15.4699,4.1 17.7399,6 2.26,1.9 2.73,4.1 2.48,6 -2.51,19.5 -4.41,38.3 -5.9999,56.3 -4.34,49.4 -6.07,93.2 -9.72,132.2 -1.03,10.6 -2.18,20.8 -3.59,30.6 -1.51,10.6 -3.32,20.8 -5.49,30.6 -1.24,5.6 -2.61,11.2 -4.13,16.5 -1.57,5.6 -3.31,11 -5.22,16.3 -9.61,26.4 -23.4599,49.7 -44.4499,70.2 -17.2099,16.7 -39.2399,31.5 -67.5698,44.5 0.35,3.3 2.21,8.7 1.38,12.5 -1.53,6.9 -5.98,14.4 -19.99,18.5 -10.0799,3 -26.1599,4.3 -51.6598,2 -39.3699,-3.6 -102.1698,-15.9 -202.1695,-43.4 -1.87,-0.5 -2.99,-2.4 -2.51,-4.3 0.49,-1.9 2.41,-3 4.28,-2.5 99.7897,24.5 162.3196,34.9 201.3995,37.5 21.8399,1.5 36.0199,0.5 45.1799,-2.1 6.1999,-1.7 9.5099,-3.9 10.9199,-6.7 1.39,-2.8 0.79,-5.9 0.47,-8.4 -0.43,-3.3 -0.7,-6.2 -0.34,-8.3 0.62,-3.5 2.48,-5.9 5.54,-7.4 26.98,-12.8 47.7799,-27.1 64.0399,-43.2 19.0799,-18.8 31.8099,-40.1 40.5799,-64.3 1.83,-4.9 3.48,-10 5.0099,-15.2 1.49,-5.1 2.86,-10.3 4.11,-15.6 2.21,-9.4 4.05,-19.2 5.66,-29.4 1.52,-9.6 2.84,-19.6 4.02,-29.9 3.95,-33.8 6.45,-71.4 10.75,-113 2.4,-23.2 5.39,-47.7 9.42,-73.6 z m -137.4297,397.4 c 0,0 -0.01,0 -0.02,0 0.01,0 0.02,0 0.02,0 z m 1.32,-0.8 c 1.33,-1 2.61,-2.4 1.3,-2.5 -1.18,0 -1.44,1 -1.3,2.5 z m 136.4097,-396.4 c 0.11,0.8 0.37,1.4 0.86,0.9 0.3,-0.4 -0.11,-0.7 -0.86,-0.9 z m -402.639,-23.5 c -2.65,28.2 -5.11,55.7 -7.69,82.3 -1.88,19.4 -3.75,38.2 -5.72,56.5 -1.76,16.2 -3.61,31.9 -5.45,47 -2,16.3 -4.06,32 -6.04,46.9 -2.22,16.7 -4.38,32.4 -6.48,46.9 -8.3899,58 -15.2699,97.5 -19.4099,109.4 -0.59,1.8 -2.57,2.8 -4.41,2.2 -1.84,-0.6 -2.86,-2.6 -2.26,-4.4 4.1,-13.9 9.14,-65.6 16.61,-140.1 2.84,-28.4 5.9799,-60 9.8099,-94.1 2.26,-20.1 4.9,-41 7.65,-62.6 3.83,-30.1 8.15,-61.5 12.47,-93.8 0.24,-1.8 1.14,-3.9 3.88,-5.4 2.48,-1.3 8.41,-2.6 17.2399,-3.1 14.89,-0.9 39.0099,-0.6 68.2499,0.6 1.93,0.1 3.48,1.7 3.44,3.6 -0.03,1.9 -1.63,3.5 -3.56,3.5 -35.1099,0.2 -62.6499,1.4 -75.2198,3.8 -1.09,0.2 -2.24,0.5 -3.11,0.8 z m 128.0396,-3.2 c -1.94,-0.1 -3.4499,-1.7 -3.3699,-3.7 0.07,-1.9 1.6999,-3.4 3.6299,-3.3 15.22,-0.6 30.9,-1.3 46.9499,-1.4 6.23,-0.1 12.48,0 18.76,0.2 4.16,0.1 8.32,0.2 12.4799,0.5 10.45,0.8 20.84,1.9 31.1,3.2 15.9999,2 31.4999,4.5 46.4499,6.8 1.93,0.2 3.3699,1.9 3.2099,3.8 -0.16,1.9 -1.8599,3.4 -3.7899,3.2 -15.08,-0.2 -30.74,0 -46.7999,-0.2 -10.3,-0.1 -20.7,-0.3 -31.1299,-0.8 -4.14,-0.2 -8.28,-0.6 -12.41,-0.9 -6.23,-0.6 -12.42,-1.1 -18.6,-1.8 -15.8999,-1.8 -31.3999,-3.9 -46.4799,-5.6 z"
     id="path4892"
     style="stroke:none;stroke-width:0.2" /><path
     d="m 2911.2739,17333.209 c 0.29,-1.9 2.08,-3.2 4,-2.9 1.91,0.3 3.22,2.1 2.93,4 -1.44,16.8 -6.51,34.1 -14.1799,50.5 -2.96,6.4 -6.37,12.6 -10.04,18.5 -2.46,4 -5.03,7.9 -7.8,11.7 -7.21,9.6 -15.17,18.4 -23.0899,26.1 -15.63,15.1 -31.14,26 -41.9699,31.2 -1.68,1 -3.82,0.4 -4.78,-1.3 -0.95,-1.7 -0.36,-3.8 1.32,-4.8 6.24,-4.1 13.8299,-10.9 22.1599,-19.6 6.33,-6.6 12.9,-14.2 19.54,-22.6 4.02,-5 7.96,-10.4 11.9599,-15.8 3.86,-5.2 7.74,-10.6 11.46,-16.1 4.92,-7.3 9.63,-14.7 13.79,-22.4 6.48,-11.9 11.85,-24.1 14.6999,-36.5 z"
     id="path4894"
     style="stroke:none;stroke-width:0.2" /><path
     d="m 2586.0048,17168.609 c -1.93,-0.2 -3.34,-1.9 -3.16,-3.9 0.19,-1.9 1.9,-3.3 3.83,-3.1 0,0 27.8999,0.7 63.5198,2.6 8.14,0.4 16.67,0.9 25.3499,1.6 5.59,0.4 11.24,0.8 16.87,1.4 14.4,1.5 28.7499,3.4 42.0199,5.2 35.3299,4.8 62.8698,9.4 62.8698,9.4 1.93,0.2 3.34,1.9 3.16,3.8 -0.19,1.9 -1.9,3.3 -3.83,3.1 0,0 -27.8999,-0.7 -63.4998,-2.7 -13.38,-0.7 -27.8199,-1.6 -42.2399,-2.9 -5.65,-0.5 -11.27,-1.1 -16.84,-1.8 -8.6499,-1 -17.1199,-2.1 -25.1999,-3.2 -35.3199,-4.9 -62.8498,-9.5 -62.8498,-9.5 z"
     id="path4896"
     style="stroke:none;stroke-width:0.2" /><path
     d="m 2570.8969,17260.315 c -1.93,-0.2 -3.34,-1.9 -3.16,-3.9 0.19,-1.9 1.9,-3.3 3.83,-3.1 0,0 27.9,0.7 63.5199,2.6 8.14,0.4 16.6699,0.9 25.3499,1.6 5.59,0.4 11.24,0.8 16.87,1.4 14.3999,1.5 28.7499,3.4 42.0199,5.2 35.3299,4.8 62.8698,9.4 62.8698,9.4 1.93,0.2 3.34,1.9 3.16,3.8 -0.19,1.9 -1.9,3.3 -3.83,3.1 0,0 -27.8999,-0.7 -63.4998,-2.7 -13.38,-0.7 -27.82,-1.6 -42.2399,-2.9 -5.65,-0.5 -11.27,-1.1 -16.84,-1.8 -8.65,-1 -17.1199,-2.1 -25.1999,-3.2 -35.3199,-4.9 -62.8499,-9.5 -62.8499,-9.5 z"
     id="path4898"
     style="stroke:none;stroke-width:0.2" /><path
     d="m 2565.0493,17338.317 c -1.9299,-0.2 -3.3399,-1.9 -3.1599,-3.9 0.19,-1.9 1.8999,-3.3 3.8299,-3.1 0,0 27.9,0.7 63.5199,2.6 8.14,0.4 16.6699,0.9 25.3499,1.6 5.59,0.4 11.24,0.8 16.87,1.4 14.3999,1.5 28.7499,3.4 42.0199,5.2 35.3299,4.8 62.8698,9.4 62.8698,9.4 1.93,0.2 3.34,1.9 3.16,3.8 -0.19,1.9 -1.9,3.3 -3.83,3.1 0,0 -27.8999,-0.7 -63.4998,-2.7 -13.38,-0.7 -27.8199,-1.6 -42.2399,-2.9 -5.65,-0.5 -11.27,-1.1 -16.84,-1.8 -8.65,-1 -17.1199,-2.1 -25.1999,-3.2 -35.3199,-4.9 -62.8499,-9.5 -62.8499,-9.5 z"
     id="path4900"
     style="stroke:none;stroke-width:0.2" /><path
     d="m 2823.5342,17176.109 c -0.49,-1.9 0.62,-3.8 2.49,-4.3 1.87,-0.5 3.79,0.6 4.2899,2.5 2.24,6 6.11,11.3 11.03,13.3 3.68,1.5 7.61,-0.4 12.35,-5.3 2.33,-2.3 6.2,-7 11.29,-12.5 3.58,-3.8 7.7299,-8.1 12.0699,-12.4 6.23,-6.2 12.88,-12.5 18.83,-18.1 10.75,-10.2 19.1899,-17.8 19.1899,-17.8 1.29,-1.5 3.5,-1.6 4.95,-0.3 1.44,1.3 1.57,3.5 0.28,5 0,0 -6.66,9.2 -15.7199,21 -5.02,6.5 -10.66,13.7 -16.36,20.5 -3.99,4.7 -7.97,9.2 -11.66,13.1 -5.58,5.8 -10.4999,10.1 -13.1899,12.3 -11.09,8.5 -20.21,8.7 -27.09,4.5 -6.5299,-4.1 -11.2399,-12.3 -12.7499,-21.5 z"
     id="path4902"
     style="stroke:none;stroke-width:0.2" /><path
     d="m 2808.4263,17267.815 c -0.49,-1.9 0.62,-3.8 2.49,-4.3 1.87,-0.5 3.79,0.6 4.29,2.5 2.24,6 6.11,11.3 11.03,13.3 3.68,1.5 7.61,-0.4 12.35,-5.3 2.33,-2.3 6.2,-7 11.2899,-12.5 3.58,-3.8 7.73,-8.1 12.07,-12.4 6.23,-6.2 12.88,-12.5 18.83,-18.1 10.7499,-10.2 19.1899,-17.8 19.1899,-17.8 1.29,-1.5 3.5,-1.6 4.95,-0.3 1.44,1.3 1.57,3.5 0.28,5 0,0 -6.66,9.2 -15.72,21 -5.0199,6.5 -10.6599,13.7 -16.3599,20.5 -3.99,4.7 -7.97,9.2 -11.66,13.1 -5.58,5.8 -10.5,10.1 -13.19,12.3 -11.0899,8.5 -20.2099,8.7 -27.0899,4.5 -6.53,-4.1 -11.24,-12.3 -12.75,-21.5 z"
     id="path4904"
     style="stroke:none;stroke-width:0.2" /><path
     d="m 2802.5788,17345.817 c -0.49,-1.9 0.62,-3.8 2.49,-4.3 1.8699,-0.5 3.7899,0.6 4.2899,2.5 2.24,6 6.11,11.3 11.03,13.3 3.68,1.5 7.61,-0.4 12.35,-5.3 2.33,-2.3 6.2,-7 11.29,-12.5 3.5799,-3.8 7.7299,-8.1 12.0699,-12.4 6.23,-6.2 12.88,-12.5 18.83,-18.1 10.75,-10.2 19.1899,-17.8 19.1899,-17.8 1.29,-1.5 3.5,-1.6 4.95,-0.3 1.44,1.3 1.57,3.5 0.28,5 0,0 -6.66,9.2 -15.7199,21 -5.02,6.5 -10.66,13.7 -16.36,20.5 -3.99,4.7 -7.97,9.2 -11.66,13.1 -5.58,5.8 -10.4999,10.1 -13.1899,12.3 -11.09,8.5 -20.21,8.7 -27.09,4.5 -6.53,-4.1 -11.2399,-12.3 -12.7499,-21.5 z"
     id="path4906"
     style="stroke:none;stroke-width:0.2" /><path
     d="m 3101.3135,17452.809 c -0.06,-6.3 -1.5,-17.9 -3.67,-33 -3.29,-23 -8.48,-53.7 -14.23,-86.1 -11.2199,-63.2 -24.6699,-133.1 -32.0999,-165.3 -1.59,-6.8 -2.85,-11.9 -3.76,-14.8 -1.23,-0.1 -3.1,-0.2 -4.87,-0.2 -8.2,0 -21.1899,1.1 -35.3299,2.6 -25.3799,2.7 -54.4299,6.8 -66.6898,8.7 -1.91,0.3 -3.72,-1 -4.05,-2.9 -0.33,-1.9 0.96,-3.7 2.86,-4 16.1599,-3.1 61.4498,-10.9 89.2198,-13.8 9.8799,-1 17.6599,-1.3 21.4699,-0.8 2.35,0.4 3.88,1.2 4.73,1.9 0.5,0.4 1.43,1.5 2.24,3.5 0.95,2.3 2.42,7.2 4.27,14.1 6.86,25.8 19.4799,81.4 30.8599,137.6 6.61,32.5 12.8,65.2 17.31,92.3 5.2499,31.5 8.1099,55.7 7.4399,63.9 -0.14,1.6 -0.69,3.5 -2.23,5.5 -1.65,2 -5.8099,5.2 -12.5999,8.4 -18.63,9.1 -60.3399,23.2 -113.8397,35.9 -56.4399,13.4 -126.0597,25.2 -195.1896,28.5 -6.7899,0.3 -11.5399,-3.1 -14.7299,-8 -5.44,-8.3 -5.91,-21.1 -5.91,-21.1 -0.08,-2 1.42,-3.6 3.35,-3.7 1.93,-0.1 3.57,1.4 3.65,3.3 0,0 0.59,10.6 5.25,17.2 1.78,2.6 4.28,4.4 7.8999,4.2 55.8599,-4.3 111.8298,-14.3 160.7796,-25.7 63.9799,-14.9 115.8098,-32.3 139.0197,-43.3 3.64,-1.7 7.11,-3.8 8.85,-4.9 z m -0.07,2.5 z"
     id="path4908"
     style="stroke:none;stroke-width:0.2" /><path
     d="m 3035.5136,17095.609 c 1.15,-1.5 3.35,-1.8 4.91,-0.7 1.55,1.2 1.88,3.4 0.73,4.9 0,0 -6.46,12 -15.4499,27.5 -2.02,3.5 -4.19,7.1 -6.49,10.8 -1.45,2.3 -2.93,4.7 -4.53,7 -4.02,5.7 -8.33,11.3 -12.37,16.7 -7.57,10.1 -14.4699,18.8 -17.8699,25.1 -0.73,1.8 -2.78,2.7 -4.57,1.9 -1.79,-0.7 -2.65,-2.7 -1.92,-4.5 2.11,-7.3 6.65,-18.1 12.82,-29.8 3.1999,-6.1 6.7499,-12.4 10.6599,-18.4 1.55,-2.4 3.24,-4.6 4.92,-6.9 2.63,-3.5 5.26,-6.8 7.88,-9.9 11.64,-13.9 21.2799,-23.7 21.2799,-23.7 z"
     id="path4910"
     style="stroke:none;stroke-width:0.2" /><path
     d="m 3052.7236,17116.009 c -1.76,-0.8 -2.52,-2.9 -1.71,-4.6 0.81,-1.8 2.9,-2.6 4.65,-1.8 3.01,1.1 5.67,1.3 7.93,1.2 1.84,-0.1 3.17,-0.9 3.77,-2 0.37,-0.7 -0.33,-1.5 -0.78,-2.5 -0.89,-2.1 -2.86,-4.1 -5.61,-6.4 -5.21,-4.7 -11.68,-8 -17.75,-10.8 -3.4,-1.5 -6.67,-2.9 -9.71,-4 -3.6899,-1.2 -6.8799,-2.2 -9.2699,-2.4 -1.11,-0.1 -2.06,1 -2.46,2.4 -0.67,2.3 -0.65,5.2 0.97,8.3 1.83,3.6 4.94,7.5 10.0899,11.4 1.65,1 2.18,3.1 1.17,4.8 -1,1.6 -3.1599,2.2 -4.8099,1.2 -13.28,-6.5 -18.27,-15.2 -19.57,-22.1 -1.63,-8.6 3.05,-15.5 8.33,-18.6 2.01,-1.1 4.26,-1.6 6.53,-1.7 3.93,-0.1 9.6399,0.6 16.0299,2.6 3.07,0.9 6.3,2.1 9.51,3.7 7.42,3.6 14.77,8.9 20.71,15.2 9.2699,10.6 9.5699,19.8 5.7299,24.7 -1.84,2.4 -4.4099,4.4 -7.9799,5 -4.16,0.7 -9.7,0 -15.77,-3.6 z"
     id="path4912"
     style="stroke:none;stroke-width:0.2" /><path
     d="m 2933.7939,17245.109 c -1.92,0.3 -3.68,-1.1 -3.92,-3 -0.25,-1.9 1.11,-3.7 3.03,-3.9 0,0 4.88,-2.5 12.04,-5.1 1.56,-0.5 3.18,-1 4.9,-1.4 1.08,-0.3 2.1799,-0.5 3.3099,-0.6 2.91,-0.3 5.77,-0.1 8.47,0 7.53,0.6 12.92,1.7 12.92,1.7 1.92,-0.2 3.68,1.1 3.93,3.1 0.24,1.9 -1.12,3.6 -3.03,3.9 0,0 -4.92,2.5 -12.07,4.9 -2.57,0.9 -5.3,1.7 -8.18,2.2 -1.12,0.2 -2.25,0.2 -3.36,0.3 -1.7699,0 -3.4499,0 -5.0999,-0.2 -7.57,-0.6 -12.94,-1.9 -12.94,-1.9 z"
     id="path4914"
     style="stroke:none;stroke-width:0.2" /><path
     d="m 2924.4202,17305.375 c -1.92,0.2 -3.68,-1.1 -3.93,-3 -0.24,-1.9 1.11,-3.7 3.03,-4 0,0 4.51,-2.4 11.25,-4.9 1.45,-0.6 2.96,-1 4.57,-1.4 1.01,-0.3 2.04,-0.5 3.09,-0.6 2.74,-0.2 5.41,-0.1 7.95,0.1 7.0999,0.6 12.1099,1.8 12.1099,1.8 1.92,-0.2 3.68,1.1 3.93,3.1 0.24,1.9 -1.12,3.6 -3.03,3.9 0,0 -4.55,2.4 -11.2699,4.8 -2.4,0.8 -4.94,1.7 -7.64,2.1 -1.05,0.2 -2.1,0.2 -3.15,0.3 -1.66,0 -3.23,-0.1 -4.77,-0.2 -7.16,-0.7 -12.14,-2 -12.14,-2 z"
     id="path4916"
     style="stroke:none;stroke-width:0.2" /><path
     d="m 2899.8231,17382.161 c -1.9248,0.264 -3.6857,-1.084 -3.9198,-3.085 -0.2518,-1.9 1.1088,-3.651 3.0201,-3.915 0,0 10.0417,-3.24 23.3884,-6.487 3.0185,-0.802 6.1756,-1.407 9.4265,-2.015 2.0899,-0.37 4.2109,-0.84 6.3323,-1.01 5.4706,-0.58 10.9506,-0.759 16.042,-0.926 13.7156,-0.347 24.261,0.213 24.261,0.213 1.9204,-0.164 3.6679,1.185 3.9198,3.085 0.2518,1.9 -1.1088,3.651 -3.0201,3.915 0,0 -10.0641,3.14 -23.4109,6.387 -4.9609,1.167 -10.2971,2.345 -15.7497,3.126 -2.1166,0.37 -4.2648,0.54 -6.3727,0.71 -3.3138,0.208 -6.5294,0.313 -9.6379,0.415 -13.747,0.147 -24.279,-0.413 -24.279,-0.413 z"
     id="path4918"
     style="stroke:none;stroke-width:0.23199" /><path
     d="m 2860.1642,17458.846 c -1.9235,0.224 -3.6955,-1.074 -3.9509,-2.973 -0.2227,-2.003 1.1157,-3.702 3.0391,-3.926 0,0 18.818,-4.431 43.1564,-9.115 5.5426,-1.061 11.3639,-2.14 17.3188,-3.025 3.8326,-0.649 7.7248,-1.301 11.6115,-1.752 9.9754,-1.143 19.9396,-1.882 29.2072,-2.576 24.6923,-1.682 44.0212,-2.315 44.0212,-2.315 1.9234,-0.224 3.6628,1.177 3.9182,3.076 0.2554,1.899 -1.1157,3.701 -3.0192,3.924 0,0 -18.8451,4.332 -43.1707,8.915 -9.1164,1.693 -18.9692,3.433 -28.9231,4.877 -3.8795,0.551 -7.7734,0.901 -11.6401,1.35 -6.0163,0.587 -11.9004,1.065 -17.5329,1.426 -24.7194,1.583 -44.0355,2.114 -44.0355,2.114 z"
     id="path4920"
     style="stroke:none;stroke-width:0.283316" /><path
     d="m 2994.2337,17232.409 c -1.01,-1.6 -0.5,-3.8 1.15,-4.8 1.65,-1 3.81,-0.5 4.82,1.1 2.16,2.5 5.49,2.6 8.68,2.1 2.65,-0.5 4.89,-2.4 6.61,-5 l 20.5799,-39.2 c 0.55,-1.9 2.51,-3 4.36,-2.4 1.86,0.6 2.91,2.5 2.35,4.4 0,0 -0.69,6.1 -2.33,14.3 -0.9,4.5 -2.05,9.4 -3.54,14.2 -1.04,3.3 -2.23,6.5 -3.62,9.3 -1.9999,4 -4.3799,7.2 -6.4199,9.3 -5.27,4.8 -11.59,7.4 -17.72,6.7 -6.47,-0.8 -12.43,-3.9 -14.92,-10 z"
     id="path4922"
     style="stroke:none;stroke-width:0.2" /><path
     d="m 3002.0758,17304.94 c -1.01,-1.6 -0.5,-3.8 1.15,-4.8 1.65,-1 3.8099,-0.5 4.8199,1.1 2.16,2.5 5.49,2.6 8.68,2.1 2.65,-0.5 4.89,-2.4 6.61,-5 l 20.58,-39.2 c 0.55,-1.9 2.51,-3 4.3599,-2.4 1.86,0.6 2.91,2.5 2.35,4.4 0,0 -0.69,6.1 -2.33,14.3 -0.9,4.5 -2.0499,9.4 -3.5399,14.2 -1.04,3.3 -2.23,6.5 -3.62,9.3 -2,4 -4.38,7.2 -6.42,9.3 -5.27,4.8 -11.59,7.4 -17.72,6.7 -6.47,-0.8 -12.4299,-3.9 -14.9199,-10 z"
     id="path4924"
     style="stroke:none;stroke-width:0.2" /><path
     d="m 3009.1612,17366.967 c -1.01,-1.6 -0.5,-3.8 1.15,-4.8 1.65,-1 3.81,-0.5 4.82,1.1 2.16,2.5 5.49,2.6 8.68,2.1 2.65,-0.5 4.89,-2.4 6.61,-5 l 20.5799,-39.2 c 0.55,-1.9 2.51,-3 4.36,-2.4 1.86,0.6 2.91,2.5 2.35,4.4 0,0 -0.69,6.1 -2.33,14.3 -0.9,4.5 -2.05,9.4 -3.54,14.2 -1.04,3.3 -2.23,6.5 -3.62,9.3 -2,4 -4.38,7.2 -6.4199,9.3 -5.27,4.8 -11.59,7.4 -17.72,6.7 -6.47,-0.8 -12.43,-3.9 -14.92,-10 z"
     id="path4926"
     style="stroke:none;stroke-width:0.2" /><path
     d="m 3023.1802,17428.994 c -1.01,-1.6 -0.5,-3.8 1.15,-4.8 1.65,-1 3.81,-0.5 4.82,1.1 2.16,2.5 5.49,2.6 8.68,2.1 2.65,-0.5 4.89,-2.4 6.61,-5 l 20.5799,-39.2 c 0.55,-1.9 2.51,-3 4.36,-2.4 1.86,0.6 2.91,2.5 2.35,4.4 0,0 -0.69,6.1 -2.33,14.3 -0.9,4.5 -2.05,9.4 -3.54,14.2 -1.04,3.3 -2.23,6.5 -3.62,9.3 -2,4 -4.38,7.2 -6.42,9.3 -5.2699,4.8 -11.5899,7.4 -17.7199,6.7 -6.47,-0.8 -12.43,-3.9 -14.92,-10 z"
     id="path4928"
     style="stroke:none;stroke-width:0.2" /></g>&#10;</svg>
