<?xml version="1.0" encoding="UTF-8" standalone="no"?>
<svg
   width="2738.3101"
   height="2704.5952"
   viewBox="0 0 2738.3101 2704.5952"
   version="1.1"
   xml:space="preserve"
   style="clip-rule:evenodd;fill-rule:evenodd;stroke-linejoin:round;stroke-miterlimit:2"
   id="svg5353"
   xmlns="http://www.w3.org/2000/svg"
   xmlns:svg="http://www.w3.org/2000/svg"><defs
   id="defs5353" />&#10;    <g
   id="vectorly-UNI-receipt-paper"
   transform="matrix(4.9999999,0,0,4.9999999,-20514.388,-68878.469)"
   style="stroke-width:0.2"><path
     d="m 4233.7307,13782.21 c -1.65,-1.1 -2.16,-3.2 -1.14,-4.9 1.02,-1.6 3.18,-2.1 4.83,-1.1 0,0 15.8499,7.5 35.7699,18.1 4.54,2.4 9.2399,5 13.9899,7.7 3.06,1.7 6.15,3.5 9.15,5.4 7.69,4.9 15.14,10.2 22.01,15 18.3399,13.1 32.1699,23.9 32.1699,23.9 1.65,1 2.15,3.2 1.13,4.8 -1.01,1.7 -3.18,2.2 -4.82,1.2 0,0 -15.83,-7.6 -35.6799,-18.2 -7.44,-4 -15.43,-8.4 -23.23,-13.1 -3.06,-1.8 -6.0199,-3.8 -8.9499,-5.7 -4.56,-3.1 -8.98,-6.1 -13.15,-9.1 -18.29,-13.2 -32.0799,-24 -32.0799,-24 z"
     id="path4008"
     style="stroke:none;stroke-width:0.2" /><path
     d="m 4220.3507,13938.81 c -1.92,-0.2 -3.32,-1.9 -3.12,-3.8 0.2,-1.9 1.93,-3.3 3.85,-3.1 0,0 13.19,-0.6 30.2399,-0.4 3.87,0.1 7.91,0.2 12.04,0.5 2.65,0.1 5.32,0.3 7.99,0.6 6.81,0.8 13.5499,2.1 19.7899,3.3 16.74,3.1 29.54,6.4 29.54,6.4 1.9199,0.2 3.3199,1.9 3.1199,3.8 -0.2,2 -1.9299,3.4 -3.8499,3.2 0,0 -13.2,0.5 -30.23,0.1 -6.35,-0.1 -13.1999,-0.3 -20.0399,-0.9 -2.67,-0.2 -5.32,-0.6 -7.95,-1 -4.09,-0.6 -8.07,-1.3 -11.86,-2.1 -16.7399,-3.3 -29.5199,-6.6 -29.5199,-6.6 z"
     id="path4010"
     style="stroke:none;stroke-width:0.2" /><path
     d="m 4253.4506,14058.71 c -1.84,0.6 -3.82,-0.4 -4.42,-2.2 -0.59,-1.9 0.42,-3.8 2.27,-4.4 0,0 6.48,-4.1 15.6,-8.7 2.03,-1.1 4.17,-2 6.42,-2.9 1.44,-0.6 2.89,-1.2 4.39,-1.7 3.87,-1.1 7.7999,-1.8 11.4799,-2.4 10.02,-1.7 17.69,-2.3 17.69,-2.3 1.84,-0.5 3.82,0.5 4.41,2.3 0.6,1.9 -0.42,3.8 -2.26,4.4 0,0 -6.52,4.1 -15.65,8.6 -3.35,1.6 -6.96,3.3 -10.76,4.7 -1.4799,0.5 -2.9999,0.8 -4.5099,1.2 -2.37,0.6 -4.66,1 -6.91,1.4 -10.09,1.6 -17.75,2 -17.75,2 z"
     id="path4012"
     style="stroke:none;stroke-width:0.2" /><path
     d="m 4619.2497,13859.01 c -1.84,-3.2 -4.46,-5.6 -7.22,-7.5 -6.74,-4.5 -14.2599,-5.6 -14.2599,-5.6 -1.92,-0.2 -3.27,-2 -3.02,-3.9 0.26,-1.9 2.02,-3.3 3.94,-3 0,0 11.5699,1.4 20.4699,8.6 3.85,3 7.18,7.2 9.04,12.6 0.39,1.2 0.57,3 -1.51,4.5 -0.36,0.3 -1.22,0.7 -2.63,1.2 -2.55,0.7 -8.04,2 -15.58,3.5 -43.0099,8.9 -153.8096,28.3 -153.8096,28.3 -2.64,0.4 -5.22,-1.1 -6.19,-3.6 0,0 -4.48,-11.1 -13.0099,-18.1 -4.65,-3.8 -10.68,-6.3 -18.04,-4 -9.93,3.2 -16.6699,13.8 -17.6799,28 -0.77,10.8 1.85,23.7 8.8999,37.5 3.83,7.6 55.5299,99.3 75.5698,192.8 10.75,50.2 12.09,100.9 -6.2499,139.8 -11.34,23.8 -28.27,36.8 -45.6999,42.4 -23.42,7.5 -47.8799,1.6 -61.9099,-10 -20.7999,-17.2 -41.6999,-30.4 -61.2498,-38.4 -16.44,-6.8 -31.8399,-9.9 -45.3299,-8.5 -14.65,1.5 -26.3599,11.5 -38.0399,22.5 -12.39,11.6 -24.6199,24.4 -38.9599,31.8 -7.88,4.1 -16.38,6.6 -25.84,6.7 -15.4899,0.1 -27.0499,-2.2 -35.5199,-5.1 -16.1499,-5.5 -21.6499,-13.4 -21.6499,-13.4 -0.91,-1.2 -1.14,-2.8 -0.62,-4.3 0.53,-1.4 1.75,-2.5 3.25,-2.8 l 101.5297,-22.8 c 1.88,-0.4 3.77,0.7 4.21,2.6 0.45,1.9 -0.72,3.8 -2.61,4.2 0,0 -92.0697,22.6 -92.0697,22.6 3.5599,2.2 8.7999,4.5 16.1299,6.3 7.1,1.7 16.05,2.7 27.2,2.5 7.7199,-0.2 14.6099,-2.5 20.9899,-5.9 16.18,-8.8 29.1599,-25 43.2699,-37.7 11.26,-10 23.2299,-17.9 37.3399,-19.6 15.29,-1.8 32.8799,1.2 51.6599,8.6 20.7899,8.2 43.0999,21.8 65.3398,39.6 11,8.9 30.0899,12.9 48.2199,6.8 13.99,-4.6 27.3099,-15.5 36.2399,-34.8 16.96,-36.1 14.63,-83.1 4.84,-129.8 -19.27,-91.9 -68.6298,-182.5 -72.3198,-190 -10.18,-20.8 -11.74,-39.6 -8.04,-54.1 3.9,-15.1 13.51,-25.6 25.4399,-29.2 9.57,-2.9 17.73,-1 24.43,3.1 9.5799,5.9 15.9399,16.5 18.9099,22.4 20.77,-3.2 111.7397,-17.3 149.8096,-24.4 5.25,-0.9 9.47,-1.7 12.33,-2.4 z"
     id="path4014"
     style="stroke:none;stroke-width:0.2" /><path
     d="m 4177.0208,14312.11 c -1.89,0.4 -3.76,-0.8 -4.16,-2.7 -0.4,-1.9 0.81,-3.7 2.7,-4.1 0,0 21.36,-6.6 48.9599,-14 6.3,-1.7 12.93,-3.4 19.7099,-5 4.35,-1.1 8.76,-2.2 13.21,-3.1 11.36,-2.3 22.78,-4.2 33.3599,-5.9 28.22,-4.5 50.3799,-7.3 50.3799,-7.3 1.89,-0.4 3.76,0.8 4.16,2.7 0.4,1.9 -0.81,3.8 -2.7,4.2 0,0 -21.3699,6.5 -48.9899,13.8 -10.37,2.7 -21.5699,5.7 -32.8799,8.2 -4.43,1 -8.89,1.8 -13.29,2.6 -6.8599,1.3 -13.5999,2.5 -20.0399,3.5 -28.2499,4.4 -50.4199,7.1 -50.4199,7.1 z"
     id="path4016"
     style="stroke:none;stroke-width:0.2" /><path
     d="m 4381.6503,14242.31 c 0.76,-0.1 1.32,-0.2 1.65,-0.3 -0.35,0.1 -1.28,0.4 -1.65,0.3 z m 0,0 c -3.05,0.4 -9.39,1.3 -17.67,2.3 -8.2399,1 -18.3899,2 -29.0599,3 -9.64,0.9 -19.6699,1.7 -29.1399,2.5 -23.81,1.8 -43.7699,3 -43.7699,3 -1.92,0.2 -3.68,-1.1 -3.92,-3.1 -0.24,-1.9 1.12,-3.6 3.04,-3.9 0,0 19.63,-3.8 43.1399,-8 9.34,-1.7 19.2599,-3.4 28.8099,-4.9 10.58,-1.7 20.66,-3.3 28.89,-4.4 10.2999,-1.4 17.6599,-2.1 19.2999,-2.3 1.96,-0.2 5.96,0.5 10.9,3.5 5.82,3.6 14.7599,10.2 24.9599,17.1 7.81,5.4 16.3,10.9 24.85,15.2 8.7999,4.4 17.4699,7.7 25.2599,7.6 1.93,-0.1 3.59,1.4 3.71,3.3 0.11,2 -1.37,3.6 -3.3,3.7 -8.86,1 -19.21,-1.3 -29.7499,-5.3 -17.78,-6.7 -35.9999,-18.3 -47.7999,-25.2 -3.89,-2.3 -8.15,-6.2 -8.59,-4.5 -0.05,0.2 0.01,0.3 0.14,0.4 z"
     id="path4018"
     style="stroke:none;stroke-width:0.2" /><path
     d="m 4427.2302,14309.81 c -1.92,0.2 -3.66,-1.2 -3.88,-3.1 -0.22,-1.9 1.16,-3.7 3.08,-3.9 0,0 17.0499,-3.9 39.1399,-8 5.03,-1 10.31,-1.8 15.72,-2.7 3.4699,-0.5 6.9899,-1 10.5199,-1.4 9.04,-0.9 18.09,-1.4 26.49,-1.9 22.4199,-1.1 39.9199,-1.2 39.9199,-1.2 1.92,-0.2 3.66,1.1 3.88,3.1 0.22,1.9 -1.16,3.6 -3.08,3.8 0,0 -17.06,3.9 -39.1499,7.9 -8.28,1.5 -17.21,3.1 -26.22,4.2 -3.53,0.5 -7.07,0.8 -10.5699,1 -5.45,0.5 -10.79,0.8 -15.91,1.1 -22.44,1 -39.9399,1.1 -39.9399,1.1 z"
     id="path4020"
     style="stroke:none;stroke-width:0.2" /><path
     d="m 4573.8298,13870.41 c 0.37,-1.9 2.22,-3.1 4.11,-2.8 1.9,0.4 3.14,2.2 2.77,4.1 -2.68,16.4 -0.66,32.4 3.89,48.7 8.2,29.5 24.9899,59.6 39.5299,93.3 6.7,15.5 12.94,31.7 17.63,48.9 4.4699,16.4 7.4299,33.7 8.4499,51.9 1.65,40.8 -2.89,80.5 -13.5399,112 -9.94,29.3 -25.11,51.4 -44.6299,60.9 -1.72,0.8 -3.84,0.2 -4.73,-1.5 -0.89,-1.8 -0.22,-3.9 1.49,-4.8 17.3399,-9.6 29.5399,-30.7 37.3499,-57.9 8.78,-30.6 11.78,-68.8 8.65,-107.8 -1.12,-17.1 -4.32,-33.2 -8.42,-48.7 -4.4,-16.5 -9.97,-32.3 -15.9,-47.4 -13.5599,-34.7 -28.8799,-66.1 -35.6199,-96.4 -3.95,-17.8 -4.94,-35.2 -1.03,-52.5 z"
     id="path4022"
     style="stroke:none;stroke-width:0.2" /><path
     d="m 4416.1302,13869.61 c -1.92,0.3 -3.69,-1 -3.97,-2.9 -0.27,-2 1.06,-3.7 2.98,-4 0,0 21.5,-5.1 49.2199,-10.6 6.33,-1.2 12.98,-2.5 19.7799,-3.6 4.36,-0.8 8.78,-1.5 13.23,-2.1 11.36,-1.5 22.75,-2.6 33.3099,-3.6 28.14,-2.6 50.1899,-3.8 50.1899,-3.8 1.91,-0.3 3.69,1 3.96,3 0.28,1.9 -1.06,3.7 -2.97,3.9 0,0 -21.5099,5 -49.2499,10.4 -10.4099,2.1 -21.6499,4.2 -32.9799,5.9 -4.43,0.7 -8.88,1.2 -13.28,1.7 -6.8599,0.8 -13.5799,1.5 -20.0099,2.1 -28.1599,2.5 -50.2099,3.6 -50.2099,3.6 z"
     id="path4024"
     style="stroke:none;stroke-width:0.2" /><path
     d="m 4445.9601,13925.11 c -1.92,0.3 -3.6899,-1 -3.9499,-3 -0.26,-1.9 1.08,-3.6 2.9999,-3.9 0,0 12.65,-3.7 29.24,-7.5 3.77,-0.9 7.72,-1.7 11.7799,-2.5 2.61,-0.4 5.24,-0.9 7.9,-1.2 6.81,-0.9 13.64,-1.3 19.97,-1.6 16.9899,-0.9 30.1799,-0.8 30.1799,-0.8 1.91,-0.3 3.68,1.1 3.94,3 0.27,1.9 -1.08,3.7 -2.99,4 0,0 -12.67,3.6 -29.2699,7.3 -6.19,1.4 -12.88,2.8 -19.66,3.9 -2.64,0.4 -5.31,0.7 -7.95,0.9 -4.11,0.4 -8.1299,0.7 -11.9899,0.8 -17.02,0.8 -30.2,0.6 -30.2,0.6 z"
     id="path4026"
     style="stroke:none;stroke-width:0.2" /><path
     d="m 4456.582,13975.295 c -1.9118,0.329 -3.6807,-1.01 -3.947,-2.911 -0.2656,-1.999 1.0813,-3.76 2.9984,-3.989 0,0 7.4029,-2.918 17.5379,-5.895 2.2648,-0.694 4.633,-1.28 7.0933,-1.858 1.5736,-0.259 3.1664,-0.615 4.7821,-0.772 4.1541,-0.53 8.2978,-0.567 12.1647,-0.529 10.5272,0.02 18.4698,0.806 18.4698,0.806 1.9171,-0.23 3.686,1.109 3.9462,3.009 0.2602,1.9 -1.0805,3.661 -2.9923,3.99 0,0 -7.4336,2.915 -17.567,5.695 -3.7226,1.062 -7.7275,2.099 -11.8525,2.829 -1.6043,0.257 -3.22,0.414 -4.8288,0.472 -2.5121,0.178 -4.9497,0.264 -7.3121,0.159 -10.5632,-0.123 -18.4927,-1.006 -18.4927,-1.006 z"
     id="path4028"
     style="stroke:none;stroke-width:0.155708" /><path
     d="m 4468.9544,14013.302 c -1.9168,0.335 -3.6853,-1.018 -3.9454,-2.918 -0.2628,-1.999 1.0766,-3.747 2.9961,-3.983 0,0 10.0313,-3.353 23.3827,-6.696 3.0166,-0.797 6.1729,-1.489 9.4341,-2.178 2.0943,-0.33 4.2021,-0.758 6.3394,-0.986 5.4845,-0.716 10.9661,-0.934 16.0632,-1.065 13.7429,-0.443 24.3186,0 24.3186,0 1.9115,-0.235 3.6799,1.117 3.9481,3.017 0.2601,1.9 -1.0793,3.648 -2.9962,3.983 0,0 -10.0581,3.253 -23.4122,6.497 -4.955,1.23 -10.2971,2.448 -15.752,3.364 -2.1185,0.328 -4.2639,0.556 -6.3877,0.685 -3.3121,0.29 -6.5382,0.482 -9.6486,0.479 -13.7778,0.343 -24.3401,-0.203 -24.3401,-0.203 z"
     id="path4030"
     style="stroke:none;stroke-width:0.179204" /><path
     d="m 4484.5194,14054.807 c -1.9169,0.335 -3.6853,-1.018 -3.9454,-2.918 -0.2628,-1.999 1.0766,-3.747 2.9961,-3.983 0,0 10.0313,-3.353 23.3827,-6.696 3.0166,-0.797 6.1729,-1.489 9.4341,-2.178 2.0943,-0.33 4.2021,-0.758 6.3394,-0.986 5.4844,-0.716 10.966,-0.934 16.0631,-1.065 13.7429,-0.443 24.3187,0 24.3187,0 1.9114,-0.235 3.6799,1.117 3.9481,3.017 0.2601,1.9 -1.0793,3.648 -2.9962,3.983 0,0 -10.0581,3.253 -23.4122,6.497 -4.955,1.23 -10.2971,2.448 -15.7521,3.364 -2.1185,0.328 -4.2638,0.556 -6.3877,0.685 -3.3121,0.29 -6.5381,0.482 -9.6485,0.479 -13.7778,0.343 -24.3401,-0.203 -24.3401,-0.203 z"
     id="path4032"
     style="stroke:none;stroke-width:0.179204" /><path
     d="m 4505.2631,14111.867 c -1.9191,0.328 -3.6895,-1.05 -3.9494,-2.95 -0.2599,-1.9 1.0814,-3.723 2.999,-3.95 0,0 14.1713,-3.904 32.6629,-7.969 4.2103,-0.961 8.6194,-1.824 13.1509,-2.688 2.9114,-0.442 5.8466,-0.983 8.812,-1.325 7.5941,-1.008 15.2026,-1.515 22.2531,-1.913 18.8919,-1.165 33.6053,-1.27 33.6053,-1.27 1.9176,-0.227 3.6784,1.051 3.9479,3.051 0.2599,1.9 -1.0799,3.622 -2.999,3.949 0,0 -14.1921,3.805 -32.6932,7.769 -6.9117,1.499 -14.38,3.006 -21.9438,4.214 -2.9447,0.441 -5.9213,0.783 -8.8629,1.025 -4.581,0.464 -9.0603,0.827 -13.3583,0.988 -18.9237,1.065 -33.6245,1.069 -33.6245,1.069 z"
     id="path4034"
     style="stroke:none;stroke-width:0.211206" /><path
     d="m 4508.8125,14147.47 c -1.9118,0.352 -3.684,-1.067 -3.9442,-2.967 -0.2667,-1.9 1.0788,-3.68 2.9954,-3.933 0,0 7.8693,-3.074 18.5696,-6.036 2.3975,-0.712 4.9034,-1.317 7.5064,-1.914 1.6705,-0.271 3.3492,-0.641 5.057,-0.81 4.3852,-0.564 8.7687,-0.632 12.8527,-0.624 11.0931,-0.06 19.5022,0.665 19.5022,0.665 1.9166,-0.253 3.6839,1.066 3.9441,2.966 0.2651,2 -1.0788,3.681 -2.9906,4.033 0,0 -7.8999,2.973 -18.5986,5.836 -3.9402,1.092 -8.1782,2.161 -12.5408,2.924 -1.69,0.27 -3.4043,0.439 -5.1039,0.51 -2.6548,0.197 -5.2302,0.302 -7.7246,0.215 -11.1238,-0.04 -19.5247,-0.865 -19.5247,-0.865 z"
     id="path4036"
     style="stroke:none;stroke-width:0.160105" /></g>&#10;</svg>
