<?xml version="1.0" encoding="UTF-8" standalone="no"?>
<svg
   width="3693.4373"
   height="1913.5635"
   viewBox="0 0 3693.4373 1913.5635"
   version="1.1"
   xml:space="preserve"
   style="clip-rule:evenodd;fill-rule:evenodd;stroke-linejoin:round;stroke-miterlimit:2"
   id="svg5353"
   xmlns="http://www.w3.org/2000/svg"
   xmlns:svg="http://www.w3.org/2000/svg"><defs
   id="defs5353" />&#10;    &#10;<g
   id="vectorly-UNI-target-arrow"
   transform="matrix(4.9999999,0,0,4.9999999,-4236.5395,-97139.335)"
   style="stroke-width:0.2"><path
     d="m 1582.4452,19794.18 c 1.94,0 3.53,1.5 3.55,3.5 0.02,1.9 -1.53,3.5 -3.46,3.5 0,0 -91.0997,3.1 -207.1895,6.1 -26.5799,0.7 -54.4698,1.3 -82.8798,1.8 -18.2799,0.4 -36.7699,0.7 -55.2598,0.9 -47.2299,0.5 -94.4598,0.6 -138.1597,0.6 -116.12272,0 -207.27652,-0.8 -207.27652,-0.8 -1.9339,0.1 -3.5239,-1.5 -3.5479,-3.4 -0.024,-1.9 1.527,-3.5 3.4609,-3.6 0,0 91.1058,-3 207.18352,-5.9 43.6899,-1.1 90.9098,-2.2 138.1397,-2.9 18.4899,-0.2 36.9899,-0.4 55.2698,-0.5 28.41,-0.1 56.2999,-0.2 82.8998,-0.2 116.1198,0.1 207.2695,0.9 207.2695,0.9 z"
     id="path110-4"
     style="clip-rule:evenodd;fill-rule:evenodd;stroke:none;stroke-width:0.2;stroke-linejoin:round;stroke-miterlimit:2" /><path
     d="m 875.62898,19644.479 c -1.343,-1.3 -1.302,-3.6 0.091,-4.9 1.393,-1.4 3.614,-1.3 4.956,0.1 0,0 22.0199,20.001 49.4849,46.301 6.2799,6 12.7829,12.4 19.3589,18.9 4.228,4.2 8.504,8.5 12.662,12.9 10.6259,11.2 20.9529,22.6 30.4699,33.3 25.32692,28.3 44.56492,51 44.56492,51 1.35,1.4 1.31,3.6 -0.09,5 -1.39,1.3 -3.61,1.3 -4.95,-0.1 0,0 -21.9849,-20.1 -49.36092,-46.4 -10.288,-9.9 -21.3539,-20.7 -32.1479,-31.7 -4.224,-4.3 -8.329,-8.8 -12.385,-13.1 -6.308,-6.9 -12.4399,-13.6 -18.2119,-20.1 -25.246,-28.4 -44.4419,-51.201 -44.4419,-51.201 z"
     id="path112-0"
     style="clip-rule:evenodd;fill-rule:evenodd;stroke:none;stroke-width:0.2;stroke-linejoin:round;stroke-miterlimit:2" /><path
     d="m 889.22898,19652.179 c -0.037,-0.4 -0.073,-0.8 -0.108,-1.3 -0.613,-7.5 -0.795,-14.7 -0.795,-14.7 -0.468,-1.9 0.675,-3.8 2.5519,-4.3 1.877,-0.5 3.781,0.7 4.249,2.6 0,0 3.255,6.5 6.243,13.4 1.249,2.9 2.381,5.7 3.264,8.101 1.177,3.3 1.828,5.6 1.828,5.6 0.715,2.8 -0.219,5.9 -2.425,7.8 -2.205,2 -5.317,2.6 -8.078,1.5 0,0 -2.748,-0.9 -6.4899,-2.6 -1.921,-0.8 -4.045,-1.9 -6.264,-3.1 -8.78,-4.8 -18.331,-10.801 -18.331,-10.801 -1.81,-0.6 -2.723,-2.7 -2.039,-4.5 0.684,-1.8 2.708,-2.7 4.518,-2 0,0 11.099,1.8 20.85,4.1 0.345,0 0.687,0.1 1.026,0.2 z"
     id="path114-4"
     style="clip-rule:evenodd;fill-rule:evenodd;stroke:none;stroke-width:0.2;stroke-linejoin:round;stroke-miterlimit:2" /><path
     d="m 859.87598,19547.079 c -1.921,-0.2 -3.294,-2 -3.064,-3.9 0.23,-1.9 1.976,-3.3 3.897,-3.1 0,0 34.8429,2.2 79.2358,6 10.155,0.8 20.791,1.9 31.6229,3 6.966,0.7 14.013,1.4 21.041,2.3 17.95802,2.3 35.84792,4.9 52.40792,7.4 44.0399,6.7 78.4298,12.8 78.4298,12.8 1.92,0.2 3.29,1.9 3.06,3.9 -0.23,1.9 -1.97,3.3 -3.9,3 0,0 -34.8399,-2.2 -79.2098,-6.1 -16.69,-1.5 -34.7009,-3.1 -52.68692,-5.1 -7.039,-0.8 -14.058,-1.8 -20.9959,-2.7 -10.788,-1.5 -21.362,-3 -31.433,-4.6 -44.0279,-6.8 -78.4048,-12.9 -78.4048,-12.9 z"
     id="path116-4"
     style="clip-rule:evenodd;fill-rule:evenodd;stroke:none;stroke-width:0.2;stroke-linejoin:round;stroke-miterlimit:2" /><path
     d="m 1110.5964,19573.579 c -0.01,0 -0.01,0 -0.01,0 -4.72,-6 -9.25,-13 -9.25,-13 -1.45,-1.3 -1.59,-3.5 -0.32,-4.9 1.28,-1.5 3.5,-1.6 4.95,-0.3 0,0 7.53,3.6 14,7.5 1.98,1.2 3.75,2.4 5.17,3.5 1.97,1.5 3.15,2.7 3.15,2.7 2.0299,1.8 3.0099,4.4 2.6199,7.1 -0.4,2.7 -2.1199,5 -4.5699,6.1 0,0 -4.2,1.5 -9.18,2.8 -6.74,1.8 -14.33,3 -14.33,3 -1.75,0.8 -3.84,0 -4.64,-1.7 -0.8,-1.8 -0.03,-3.9 1.73,-4.7 0,0 5.27,-4.3 10.68,-8.1 z"
     id="path118-6"
     style="clip-rule:evenodd;fill-rule:evenodd;stroke:none;stroke-width:0.2;stroke-linejoin:round;stroke-miterlimit:2" /><path
     d="m 854.61198,19527.179 c -1.616,-1.1 -2.066,-3.3 -1.003,-4.9 1.063,-1.6 3.238,-2.1 4.855,-1 0,0 12.453,5.4 23.035,11 7.954,4.1 14.6209,8.4 14.6209,8.4 2.642,1.7 4.012,4.9 3.496,8 -0.516,3.1 -2.821,5.6 -5.881,6.4 0,0 -7.7369,1.8 -16.6569,3.1 -11.83,1.9 -25.384,3.2 -25.384,3.2 -1.873,0.5 -3.7869,-0.7 -4.273,-2.5 -0.486,-1.9 0.64,-3.8 2.512,-4.3 0,0 12.48,-5.4 23.712,-9.6 0.333,-0.1 0.664,-0.2 0.993,-0.4 -0.277,-0.2 -0.555,-0.4 -0.834,-0.6 -9.294,-7.5 -19.192,-16.8 -19.192,-16.8 z"
     id="path120-5"
     style="clip-rule:evenodd;fill-rule:evenodd;stroke:none;stroke-width:0.2;stroke-linejoin:round;stroke-miterlimit:2" /><path
     d="m 1375.4099,19624.512 c -0.2591,1.898 -2.0236,3.203 -3.9365,2.942 -1.9225,-0.262 -3.2725,-1.993 -3.0134,-3.891 0.3152,-8.978 2.7204,-16.768 6.0026,-22.377 4.3469,-7.525 10.9383,-10.62 17.0345,-10.303 6.3577,0.481 12.1301,5.393 15.5751,13.725 1.4542,3.549 2.4394,7.807 2.7673,12.363 0.2508,3.9 -0.01,7.86 -0.6893,12.148 -1.8205,9.03 -5.2118,16.944 -9.6015,22.272 -5.3622,6.356 -11.6653,9.49 -17.431,8.188 -3.2838,-0.835 -6.3313,-2.54 -8.5466,-5.678 -2.0385,-2.855 -3.66,-6.685 -4.3359,-11.417 -0.4695,-1.868 0.672,-3.774 2.5464,-4.163 1.8819,-0.516 3.7797,0.645 4.2492,2.514 0.9214,2.574 2.1811,4.679 3.5676,6.286 1.1326,1.314 2.4861,2.015 3.9357,2.084 0.9805,0.134 1.7435,-0.793 2.6161,-1.447 1.7145,-1.442 2.9463,-3.722 4.1915,-6.387 1.8581,-3.999 3.0124,-8.867 3.4187,-14.353 0.7062,-5.316 0.361,-10.389 -0.5647,-14.511 -0.5677,-2.655 -1.1315,-5.051 -2.345,-6.635 -0.4211,-0.573 -0.6039,-1.242 -1.2018,-1.452 -2.7435,-0.633 -5.3132,1.98 -7.7636,5.512 -2.6752,3.887 -5.0752,8.843 -6.4754,14.58 z"
     id="path122-3"
     style="clip-rule:evenodd;fill-rule:evenodd;stroke:none;stroke-width:0.2226;stroke-linejoin:round;stroke-miterlimit:2" /><path
     d="m 1354.6675,19621.715 c -0.3325,1.69 -2.2123,3.168 -4.0625,2.569 -1.9218,-0.263 -3.1617,-2.167 -2.8293,-3.857 3.0442,-20.062 9.7775,-37.537 18.2805,-49.911 9.5625,-13.619 21.7352,-20.286 33.5334,-19.37 12.7999,1.401 23.8763,12.631 30.2322,30.505 5.6582,15.35 7.5092,36.426 4.6385,58.941 -3.4481,22.089 -11.106,41.867 -20.7219,55.131 -10.8433,15.179 -24.2038,22.725 -36.711,20.671 -9.662,-1.667 -18.0306,-8.71 -23.6266,-20.233 -5.1648,-10.77 -8.2207,-25.07 -8.2804,-41.39 -0.07,-2.092 1.4351,-3.622 3.3784,-3.704 1.9184,-0.08 3.5292,1.523 3.646,3.275 1.0695,15.07 4.6574,27.707 10.0084,37.114 4.3606,7.537 9.8205,12.794 16.4559,13.353 8.7068,0.842 16.715,-6.047 23.7125,-16.892 7.9573,-12.102 14.0417,-29.666 16.3655,-49.479 2.8728,-19.737 1.4949,-38.32 -3.0017,-52.123 -2.2608,-6.902 -5.1353,-12.848 -8.9379,-16.838 -2.6193,-2.787 -5.553,-4.576 -8.9257,-5.383 -7.9864,-1.091 -15.9117,4.074 -23.1259,13.154 -8.5698,10.63 -15.8692,26.293 -20.0284,44.467 z"
     id="path124-7"
     style="clip-rule:evenodd;fill-rule:evenodd;stroke:none;stroke-width:0.588626;stroke-linejoin:round;stroke-miterlimit:2" /><path
     d="m 1333.2011,19648.079 c -0.1067,1.69 -1.7975,3.164 -3.7067,2.903 -1.9092,-0.26 -3.4223,-1.603 -3.2395,-3.851 l 1.3152,-16.3 c 4.1435,-35.803 15.0251,-66.708 29.273,-88.629 15.6088,-24.009 35.6604,-36.614 54.991,-34.543 19.5387,2.668 35.9647,20.254 45.5359,47.132 4.6663,13.707 7.7331,30.037 8.779,47.227 0.8224,14.887 0.1521,30.707 -2.1735,47.437 -5.3216,35.642 -17.2948,66.966 -32.4009,88.202 -16.345,23.34 -36.5185,35.928 -55.6155,32.752 -14.6235,-1.996 -27.0941,-12.791 -35.8479,-29.897 -8.4288,-17.062 -13.618,-39.365 -14.217,-65.586 -0.1371,-1.724 1.3507,-3.225 3.2954,-3.528 1.9854,-0.297 3.5442,1.62 3.6813,3.344 1.6348,24.09 7.1846,45.873 15.8012,61.256 7.5402,12.963 17.2334,21.674 28.8104,23.254 15.4715,1.544 30.3389,-10.064 42.8706,-28.81 13.5675,-20.878 23.9362,-50.148 28.0239,-83.117 2.0921,-15.625 2.5288,-30.34 1.8739,-44.636 -0.9494,-15.473 -3.3562,-30.576 -7.4791,-42.504 -6.9258,-21.403 -17.8122,-36.527 -32.8419,-38.579 -15.1567,-2.638 -30.3135,8.362 -43.4545,27.025 -14.3445,20.204 -25.9267,49.876 -31.2279,83.248 z"
     id="path126-3"
     style="clip-rule:evenodd;fill-rule:evenodd;stroke:none;stroke-width:0.960898;stroke-linejoin:round;stroke-miterlimit:2" /><path
     d="m 1205.8362,19623.179 c -1.9,-0.3 -3.15,-2.2 -2.79,-4.1 0.36,-1.9 2.19,-3.1 4.09,-2.8 0,0 21.1699,2 48.1698,5.6 6.16,0.8 12.6,1.7 19.15,2.8 4.22,0.7 8.48,1.4 12.71,2.2 10.8199,2.2 21.5399,4.7 31.4599,7.1 26.4399,6.5 46.8999,12.3 46.8999,12.3 1.9,0.4 3.15,2.2 2.79,4.1 -0.36,1.9 -2.2,3.1 -4.1,2.8 0,0 -21.16,-2.1 -48.1299,-5.7 -10.12,-1.4 -21.03,-3 -31.8899,-4.9 -4.25,-0.7 -8.47,-1.7 -12.64,-2.6 -6.48,-1.4 -12.82,-2.9 -18.86,-4.4 -26.4199,-6.5 -46.8598,-12.4 -46.8598,-12.4 z"
     id="path128-1"
     style="clip-rule:evenodd;fill-rule:evenodd;stroke:none;stroke-width:0.2;stroke-linejoin:round;stroke-miterlimit:2" /><path
     d="m 1216.6661,19621.879 c -6.1999,-5.9 -12.2199,-12.6 -12.2199,-12.6 -1.57,-1.2 -1.93,-3.4 -0.81,-4.9 1.12,-1.6 3.32,-2 4.89,-0.9 0,0 9.2999,4 17.2399,8.2 5.92,3.1 10.81,6.4 10.81,6.4 2.48,1.8 3.73,4.8 3.23,7.8 -0.51,3 -2.69,5.5 -5.62,6.3 0,0 -2.07,0.7 -5.24,1.4 -2.28,0.5 -5.07,1 -8.06,1.5 -9.59,1.4 -20.4699,2.4 -20.4699,2.4 -1.85,0.6 -3.81,-0.5 -4.35,-2.3 -0.55,-1.9 0.51,-3.8 2.37,-4.4 0,0 9.47,-4.9 18.2299,-8.9 z"
     id="path130-3"
     style="clip-rule:evenodd;fill-rule:evenodd;stroke:none;stroke-width:0.2;stroke-linejoin:round;stroke-miterlimit:2" /><path
     d="m 1176.3362,19527.179 c -1.64,-1 -2.15,-3.2 -1.12,-4.8 1.02,-1.7 3.18,-2.2 4.82,-1.1 0,0 22.57,11.7 50.9799,27.5 6.48,3.7 13.23,7.5 20.0599,11.6 4.4,2.6 8.85,5.2 13.21,8 11.14,7 22.05,14.4 32.1299,21.3 26.83,18.4 47.3699,33.4 47.3699,33.4 1.64,1 2.15,3.2 1.12,4.8 -1.02,1.6 -3.18,2.2 -4.82,1.1 0,0 -22.5499,-11.7 -50.8798,-27.7 -10.64,-6 -22.1,-12.5 -33.37,-19.4 -4.41,-2.7 -8.7299,-5.5 -12.9999,-8.3 -6.64,-4.3 -13.11,-8.6 -19.23,-12.9 -26.7699,-18.4 -47.2699,-33.5 -47.2699,-33.5 z"
     id="path132-0"
     style="clip-rule:evenodd;fill-rule:evenodd;stroke:none;stroke-width:0.2;stroke-linejoin:round;stroke-miterlimit:2" /><path
     d="m 1190.0562,19529.479 c -0.04,-0.3 -0.08,-0.6 -0.12,-1 -0.88,-7.9 -1.03,-16.9 -1.03,-16.9 -0.5,-1.9 0.61,-3.8 2.48,-4.3 1.87,-0.5 3.8,0.6 4.29,2.5 0,0 4.33,7.8 7.53,15.2 2.37,5.4 3.92,10.4 3.92,10.4 0.67,2.5 0.1,5.1 -1.53,7.1 -1.62,2 -4.1,3.1 -6.66,2.9 0,0 -1.98,0 -4.89,-0.4 -2.1,-0.3 -4.62,-0.8 -7.3,-1.4 -8.64,-1.8 -18.1599,-4.5 -18.1599,-4.5 -1.93,-0.2 -3.4,-1.8 -3.28,-3.8 0.12,-1.9 1.78,-3.4 3.71,-3.2 0,0 9.7799,-1.6 18.5899,-2.4 0.83,0 1.66,-0.1 2.45,-0.2 z"
     id="path134-3"
     style="clip-rule:evenodd;fill-rule:evenodd;stroke:none;stroke-width:0.2;stroke-linejoin:round;stroke-miterlimit:2" /><path
     d="m 1333.2358,19452.479 c -1.7899,-0.7 -2.6399,-2.8 -1.9099,-4.6 0.7399,-1.8 2.7899,-2.6 4.5799,-1.9 0,0 27.39,9.2 62.0699,21.8 7.92,2.9 16.1899,6 24.5899,9.3 5.4,2.1 10.87,4.2 16.27,6.5 13.8,5.8 27.4399,12 40.0399,17.7 33.5399,15.4 59.4598,28.1 59.4598,28.1 1.79,0.8 2.65,2.8 1.91,4.6 -0.74,1.8 -2.79,2.6 -4.58,1.9 0,0 -27.3699,-9.2 -61.9898,-21.9 -13.01,-4.8 -27.0399,-10 -40.9299,-15.6 -5.44,-2.2 -10.81,-4.6 -16.13,-6.9 -8.2599,-3.6 -16.3199,-7.2 -23.9799,-10.7 -33.4999,-15.5 -59.3999,-28.3 -59.3999,-28.3 z"
     id="path136-8"
     style="clip-rule:evenodd;fill-rule:evenodd;stroke:none;stroke-width:0.2;stroke-linejoin:round;stroke-miterlimit:2" /><path
     d="m 1527.4554,19528.879 c -0.19,-0.8 -0.36,-1.6 -0.52,-2.4 -1.37,-6.8 -2.11,-14.5 -2.11,-14.5 -0.73,-1.8 0.14,-3.8 1.93,-4.5 1.79,-0.8 3.84,0.1 4.57,1.9 0,0 4.7899,6 8.6099,11.8 1.16,1.8 2.12,3.5 2.88,5 1.05,2 1.59,3.5 1.59,3.5 1.66,4 -0.28,8.7 -4.34,10.3 0,0 -4.17,1.5 -9.1099,2.6 -6.73,1.4 -14.26,2.3 -14.26,2.3 -1.78,0.7 -3.84,-0.1 -4.58,-1.9 -0.74,-1.8 0.11,-3.9 1.9,-4.6 0,0 5.92,-4.7 11.72,-8.4 0.58,-0.4 1.16,-0.8 1.72,-1.1 z"
     id="path138-6"
     style="clip-rule:evenodd;fill-rule:evenodd;stroke:none;stroke-width:0.2;stroke-linejoin:round;stroke-miterlimit:2" /><path
     d="m 1345.1058,19453.679 c -0.37,-0.8 -0.75,-1.6 -1.13,-2.4 -3.64,-8.4 -7.02,-18 -7.02,-18 -1.01,-1.7 -0.5,-3.9 1.14,-4.9 1.65,-1 3.81,-0.5 4.83,1.2 0,0 7.11,7.3 12.97,14.3 1.81,2.1 3.4,4.3 4.68,6 1.77,2.5 2.83,4.2 2.83,4.2 1.35,2.2 1.57,4.9 0.59,7.3 -0.98,2.4 -3.03,4.1 -5.53,4.7 0,0 -5.85,1.1 -12.61,1.8 -9.05,1 -19.2799,1.2 -19.2799,1.2 -1.88,0.5 -3.77,-0.7 -4.22,-2.5 -0.45,-1.9 0.71,-3.8 2.59,-4.3 0,0 9.2399,-4.4 17.7299,-7.6 0.82,-0.4 1.64,-0.7 2.43,-1 z"
     id="path140-0"
     style="clip-rule:evenodd;fill-rule:evenodd;stroke:none;stroke-width:0.2;stroke-linejoin:round;stroke-miterlimit:2" /><path
     d="m 1479.1355,19653.079 c 0.37,-1.9 2.21,-3.1 4.11,-2.7 1.9,0.3 3.14,2.2 2.77,4.1 -2.15,17.001 -5.94,33.401 -11.11,48.301 -3.87,11.1 -8.41,21.4 -13.34,30.5 -3.86,7.1 -8,13.5 -12.0999,18.9 -10.25,13.6 -20.47,21.7 -27.15,23.8 -8.36,2.4 -17.3099,2.3 -25.5499,0.6 -9.34,-2 -17.63,-5.7 -22.73,-9 -1.69,-1 -2.2899,-3.1 -1.34,-4.8 0.94,-1.7 3.08,-2.3 4.77,-1.3 4.81,2.3 12.43,4.4 20.75,5.1 6.57,0.6 13.55,0 19.8299,-2.7 1.78,-0.7 3.69,-2.5 5.95,-4.7 4.15,-4 8.64,-9.9 13.51,-17.2 2.8,-4.1 5.67,-8.7 8.61,-13.7 2.66,-4.4 5.39,-9.2 8.0799,-14.2 3.96,-7.3 7.87,-15.2 11.53,-23.6 5.13,-11.7 9.9,-24.2 13.41,-37.401 z"
     id="path142-6"
     style="clip-rule:evenodd;fill-rule:evenodd;stroke:none;stroke-width:0.2;stroke-linejoin:round;stroke-miterlimit:2" /><path
     d="m 1486.0755,19602.779 c 0.05,2 -1.48,3.6 -3.41,3.6 -1.93,0.1 -3.54,-1.5 -3.59,-3.4 -1.06,-9.2 -3.78,-20 -7.23,-30.9 -2.11,-6.7 -4.63,-13.2 -7.31,-19.4 -2.34,-5.4 -4.87,-10.4 -7.59,-14.7 -2.89,-4.6 -5.7299,-8.6 -9.4099,-10.8 -4.53,-2.9 -11.5,-5.4 -18.53,-7.2 -7.79,-1.9 -15.48,-3.2 -20.1099,-2.4 -1.87,0.4 -3.78,-0.7 -4.26,-2.6 -0.47,-1.9 0.66,-3.8 2.54,-4.2 5.1699,-1.9 14.2699,-2.3 23.6099,-1.5 8.75,0.7 17.49,2.8 23.4199,5.4 5.84,2.8 11.36,7.8 15.99,14.6 3.43,5.1 6.36,11.1 8.7,17.7 2.47,7 4.31,14.5 5.52,22.1 1.92,12 2.3,23.9 1.66,33.7 z"
     id="path144-9"
     style="clip-rule:evenodd;fill-rule:evenodd;stroke:none;stroke-width:0.2;stroke-linejoin:round;stroke-miterlimit:2" /><path
     d="m 1381.8657,19767.38 c 4.81,1.9 10.75,3.6 17.06,4.4 -0.59,8.2 -1.63,18.5 -3.49,28.3 l -19.77,0.2 c 1,-11.2 3.62,-23.1 6.2,-32.9 z m 64.1599,32 -19.97,0.3 c -1.47,-10.1 -2.55,-21.4 -3.31,-31 5.06,-2.8 11.47,-9.2 18.26,-18.2 2.07,13.7 4.6,33.3 5.02,48.9 z m 41.2699,-0.5 -19.23,0.2 c -4.92,-21.8 -8.56,-52.9 -10.71,-74.6 4.98,-9.3 9.75,-19.7 13.95,-31 5.98,19.8 17.44,63.6 15.99,105.4 z"
     id="path146-2"
     style="clip-rule:evenodd;fill-rule:evenodd;stroke:none;stroke-width:0.2;stroke-linejoin:round;stroke-miterlimit:2" /><path
     d="m 1196.9062,19703.28 c -1.92,-0.2 -3.28,-2 -3.04,-3.9 0.24,-1.9 2,-3.3 3.92,-3 0,0 20.5899,0.6 46.9399,2.4 6.01,0.4 12.2899,0.9 18.6999,1.5 4.11,0.4 8.28,0.8 12.42,1.4 10.6,1.5 21.1199,3.3 30.8599,5.1 25.9599,4.7 46.0899,9.2 46.0899,9.2 1.91,0.2 3.28,1.9 3.03,3.9 -0.24,1.9 -1.99,3.2 -3.91,3 0,0 -20.5999,-0.7 -46.9199,-2.6 -9.87,-0.7 -20.5199,-1.5 -31.1499,-2.7 -4.16,-0.5 -8.29,-1.1 -12.38,-1.8 -6.36,-1 -12.5799,-2 -18.4999,-3.1 -25.95,-4.8 -46.0599,-9.4 -46.0599,-9.4 z"
     id="path148-9"
     style="clip-rule:evenodd;fill-rule:evenodd;stroke:none;stroke-width:0.2;stroke-linejoin:round;stroke-miterlimit:2" /><path
     d="m 1206.8262,19702.28 c -1.02,-0.9 -2.02,-1.8 -3.01,-2.8 -4.65,-4.5 -8.35,-8.6 -8.35,-8.6 -1.64,-1.1 -2.12,-3.2 -1.08,-4.9 1.03,-1.6 3.2,-2.1 4.84,-1 0,0 5.29,1.6 11.36,3.8 1.5999,0.7 3.1499,1.3 4.6999,2 1.85,0.8 3.58,1.6 5.05,2.4 2.87,1.6 4.72,3 4.72,3 2.47,1.5 3.87,4.3 3.64,7.3 -0.24,2.9 -2.07,5.4 -4.77,6.6 0,0 -4.19,1.4 -9.15,2.5 -6.6899,1.6 -14.1899,2.7 -14.1899,2.7 -1.78,0.8 -3.84,-0.1 -4.61,-1.8 -0.76,-1.8 0.07,-3.9 1.85,-4.6 0,0 4.24,-3.3 9,-6.6 z"
     id="path150-5"
     style="clip-rule:evenodd;fill-rule:evenodd;stroke:none;stroke-width:0.2;stroke-linejoin:round;stroke-miterlimit:2" /></g></svg>
