<?xml version="1.0" encoding="UTF-8" standalone="no"?>
<svg
   width="2693.9783"
   height="2525.5789"
   viewBox="0 0 2693.9783 2525.5789"
   version="1.1"
   xml:space="preserve"
   style="clip-rule:evenodd;fill-rule:evenodd;stroke-linejoin:round;stroke-miterlimit:2"
   id="svg5353"
   xmlns="http://www.w3.org/2000/svg"
   xmlns:svg="http://www.w3.org/2000/svg"><defs
   id="defs5353" />
    <g
   id="vectorly-UNI-warning"
   style="stroke:none;stroke-width:0.2"
   transform="matrix(4.9999999,0,0,4.9999999,-20749.585,-12533.622)"><path
     d="m 4438.6031,2524.7962 c -5.54,7.19 -14.28,20.53 -25.4,38.26 -31.4399,50.16 -80.8998,135.08 -128.1697,217.8499 -51.0698,89.43 -99.5997,176.34 -118.5197,214.9399 8.12,1.27 22.35,2 41.0199,2.43 111.2298,2.58 375.2091,-7.6799 465.6589,-12.1799 1.93,-0.11 3.59,1.37 3.69,3.3 0.12,1.93 -1.36,3.59 -3.29,3.7 -78.4698,5.0099 -287.4593,16.3399 -414.299,18.4199 -44.2599,0.73 -78.6098,0.27 -94.1998,-1.82 -4.07,-0.55 -7.0699,-1.27 -8.9399,-2.01 -2.27,-0.91 -3.66,-2.15 -4.47,-3.18 -2.03,-2.59 -2.26,-5.34 -0.95,-8.22 14.6599,-31.9499 57.8798,-112.4199 106.5997,-198.7699 38.3999,-68.0499 80.2298,-139.7499 113.4697,-194.5299 24.65,-40.62 44.7099,-71.94 55.2399,-85.74 4.14,-5.43 7.41,-8.51 9.11,-9.4299 2.3,-1.24 4.27,-1.23 5.72,-0.91 1.7999,0.39 3.3299,1.2899 4.4999,2.8299 19.57,25.61 49.1299,77.65 80.8398,138.34 74.7999,143.1799 162.1696,334.4099 162.1696,334.4099 0.82,1.75 0.06,3.84 -1.69,4.66 -1.76,0.82 -3.8499,0.06 -4.6599,-1.69 0,0 -72.1799,-151.16 -142.1497,-284.6499 -38.6099,-73.66 -76.4598,-141.95 -101.2797,-176.01 z m -275.1294,477.3698 c 0,0.01 0,0.01 -0.01,0.02 0.01,-0.01 0.01,-0.01 0.01,-0.02 z m 270.4594,-483.5698 c 0,0 0,-0.01 -0.01,-0.01 0.01,0 0.01,0.01 0.01,0.01 z"
     id="path1226"
     style="stroke:none;stroke-width:0.2" /><path
     d="m 4436.7531,2607.8862 c -0.13,-1.93 1.33,-3.6 3.26,-3.73 1.93,-0.13 3.5999,1.33 3.7299,3.26 0,0 4.02,30.89 7.41,71.46 0.77,9.15 1.42,18.78 1.97,28.67 0.35,6.3 0.68,12.7 0.83,19.14 0.36,16.14 0.19,32.4599 -0.28,47.9599 -0.89,29.23 -3.17,55.44 -6.34,72.06 -0.28,1.92 -2.05,3.25 -3.97,2.98 -1.9099,-0.27 -3.2499,-2.05 -2.9699,-3.97 0.59,-6.53 0.8,-14.49 0.85,-23.53 0.1,-18.22 -0.85,-40.64 -1.97,-64.11 -0.34,-7.0699 -0.69,-14.2299 -0.96,-21.3999 -0.27,-7.17 -0.48,-14.34 -0.65,-21.42 -0.17,-7.27 -0.27,-14.45 -0.36,-21.44 -0.13,-11.38 -0.22,-22.24 -0.28,-32.2 -0.17,-31.48 -0.27,-53.73 -0.27,-53.73 z"
     id="path1228"
     style="stroke:none;stroke-width:0.2" /><path
     d="m 4582.6527,2511.8462 c 1.17,-1.54 3.37,-1.84 4.91,-0.66 1.53,1.17 1.83,3.37 0.66,4.91 0,0 -4.94,9.64 -12.7,21.77 -1.73,2.72 -3.65,5.47 -5.71,8.26 -1.31,1.78 -2.65,3.58 -4.13,5.27 -3.7299,4.27 -7.8099,8.27 -11.8299,11.94 -7.78,7.12 -15.22,12.69 -20.49,15.75 -1.52,1.19 -3.73,0.92 -4.92,-0.61 -1.18,-1.53 -0.91,-3.73 0.62,-4.92 4,-4.07 8.8,-11.31 14.59,-19.31 3.11,-4.29 6.32,-8.82 9.78,-13.13 1.38,-1.71 2.88,-3.32 4.34,-4.91 2.31,-2.51 4.59,-4.9 6.8399,-7.13 10.11,-10.04 18.04,-17.23 18.04,-17.23 z"
     id="path1230"
     style="stroke:none;stroke-width:0.2" /><path
     d="m 4654.0225,2604.7062 c 1.62,-1.05 3.79,-0.58 4.84,1.05 1.05,1.62 0.58,3.79 -1.04,4.84 0,0 -7.78,7.29 -19.1299,16.35 -2.5,1.99 -5.18,3.99 -8.02,5.99 -1.78,1.27 -3.6,2.55 -5.53,3.7 -4.78,2.84 -9.82,5.39 -14.77,7.77 -8.5899,4.13 -16.7699,7.36 -23.2099,9.95 -1.68,0.95 -3.82,0.36 -4.78,-1.32 -0.95,-1.69 -0.36,-3.83 1.32,-4.78 5.47,-4.14 12.05,-9.79 19.53,-15.5 4.3399,-3.3 8.8199,-6.67 13.4399,-9.69 1.87,-1.22 3.8,-2.29 5.71,-3.34 3.02,-1.68 5.96,-3.23 8.82,-4.62 12.9999,-6.35 22.8199,-10.4 22.8199,-10.4 z"
     id="path1232"
     style="stroke:none;stroke-width:0.2" /><path
     d="m 4679.3625,2711.4262 c 1.91,0.3 3.21,2.1 2.91,4.01 -0.31,1.91 -2.11,3.21 -4.02,2.91 0,0 -9.13,0.45 -21.92,-0.19 -2.77,-0.14 -5.66,-0.41 -8.68,-0.77 -1.88,-0.23 -3.81,-0.47 -5.7199,-0.89 -4.69,-1.01 -9.38,-2.43 -13.99,-3.96 -7.58,-2.52 -14.47,-5.5 -20.5,-8.12 -1.88,-0.49 -3,-2.4 -2.51,-4.28 0.49,-1.87 2.41,-2.99 4.28,-2.5 6.39,0.66 13.73,0.84 21.51,1.52 4.75,0.42 9.55,0.86 14.1999,1.64 1.91,0.31 3.77,0.79 5.58,1.24 2.91,0.73 5.67,1.5 8.29,2.32 12.12,3.8 20.57,7.07 20.57,7.07 z"
     id="path1234"
     style="stroke:none;stroke-width:0.2" /><ellipse
     cx="4446.0029"
     cy="2904.2458"
     rx="14.654963"
     ry="15.564993"
     id="ellipse1236"
     style="stroke:none;stroke-width:0.2" /></g>
</svg>
