<?xml version="1.0" encoding="UTF-8" standalone="no"?>
<svg
   width="2736.0376"
   height="2896.0312"
   viewBox="0 0 2736.0376 2896.0313"
   version="1.1"
   xml:space="preserve"
   style="clip-rule:evenodd;fill-rule:evenodd;stroke-linejoin:round;stroke-miterlimit:2"
   id="svg5353"
   xmlns="http://www.w3.org/2000/svg"
   xmlns:svg="http://www.w3.org/2000/svg"><defs
   id="defs5353" />&#10;    <g
   id="vectorly-UNI-watch-clock-weaker"
   style="stroke:none;stroke-width:0.168941"
   transform="matrix(5.9192185,0,0,5.9192185,-20273.474,-14732.717)"><path
     d="m 3588.3347,2950.5419 c -46.4741,0.5282 -88.6217,-21.5508 -118.4655,-57.2431 -27.3881,-32.7529 -44.3433,-77.0058 -44.837,-125.7965 -0.3898,-49.0887 15.9677,-93.897 42.9661,-127.3136 29.8957,-37.0197 72.8099,-60.0063 120.3364,-60.2095 47.5395,0.1626 90.5057,23.1086 120.4404,60.1147 27.0373,33.4301 43.4078,78.2926 43.0311,127.4084 -0.5197,48.8178 -17.4879,93.1114 -44.9151,125.8643 -29.8827,35.6786 -72.0693,57.7442 -118.5564,57.1753 z m 0,-7.0166 c 43.9016,-0.5283 83.1909,-22.3093 110.618,-56.647 25.1275,-31.4254 40.2767,-73.4028 39.783,-119.376 -0.3508,-45.6481 -16.2016,-87.0294 -41.6669,-117.8182 -27.3362,-33.0509 -65.8979,-53.8567 -108.7341,-53.7077 -42.8492,-0.1896 -81.4629,20.5755 -108.838,53.6128 -25.5043,30.8024 -41.3551,72.2243 -41.7319,117.9131 -0.4677,46.0003 14.7075,88.0047 39.8609,119.4437 27.4661,34.3242 66.7944,56.0781 110.709,56.5793 z"
     id="path1150"
     style="stroke:none;stroke-width:0.224119" /><path
     d="m 3491.8854,2911.1461 c 0.47,-1.87 2.38,-3.01 4.25,-2.54 1.88,0.47 3.02,2.38 2.55,4.26 -0.16,3.02 0.21,5.78 0.59,8.61 0.55,4.19 2,7.86 3.55,11.52 0.83,1.98 1.86,3.81 2.85,5.66 1,1.87 1.96,3.73 3.12,5.48 2.03,3.06 4.09,5.99 6.8699,8.42 2.93,2.57 5.9,4.93 9.62,6.53 1.89,0.44 3.06,2.32 2.62,4.21 -0.43,1.88 -2.32,3.06 -4.2,2.62 -6.31,-0.33 -11.9799,-2.17 -17.3499,-4.98 -2.4,-1.26 -4.54,-2.84 -6.61,-4.6 -2.95,-2.52 -5.48,-5.52 -7.47,-8.89 -1.05,-1.78 -1.89,-3.69 -2.54,-5.68 -0.95,-2.9 -1.66,-5.9 -1.89,-9.03 -0.16,-2.27 -0.23,-4.5 0.02,-6.82 0.56,-4.98 1.72,-9.82 4.02,-14.77 z"
     id="path1152"
     style="stroke:none;stroke-width:0.168941" /><path
     d="m 3564.1252,2943.2561 c 1.14,-1.56 3.33,-1.9 4.9,-0.75 1.55,1.14 1.9,3.33 0.75,4.89 0,0 -0.84,2.56 -3.19,6.83 -0.75,1.36 -1.65,2.61 -2.81,4.09 -0.98,1.24 -2.15,2.37 -3.49,3.53 -0.81,0.7 -1.7,1.37 -2.71,1.91 -1.77,0.96 -3.7299,1.69 -5.8699,2.17 -1.45,0.32 -2.82,0.61 -4.37,0.68 -3.38,0.15 -6.44,0.12 -10.11,-0.62 -1.92,0.22 -3.66,-1.17 -3.88,-3.09 -0.21,-1.92 1.17,-3.66 3.1,-3.88 2.8,-1.26 4.71,-2.91 6.99,-4.49 0.9,-0.62 1.6,-1.32 2.46,-1.91 1.3,-0.89 2.37,-1.94 3.63,-2.67 1.91,-1.11 3.83,-1.78 5.52,-2.59 5.5899,-2.67 9.0799,-4.1 9.0799,-4.1 z"
     id="path1154"
     style="stroke:none;stroke-width:0.168941" /><path
     d="m 3717.0148,2931.7261 c -7.9799,-0.33 -16.2699,2.17 -23.9099,5.4 -4.26,1.79 -8.3,3.86 -11.93,6.06 -4.11,2.48 -7.7299,5.01 -10.3599,7.57 -1.17,1.13 -2.21,2.16 -2.88,3.22 -0.13,0.21 -0.41,0.46 -0.59,0.66 -0.12,-0.25 -0.33,-0.59 -0.41,-0.78 0.11,0.28 0.22,0.57 0.35,0.85 -0.11,0.14 -0.15,0.24 -0.01,0.26 0.05,0.01 0.09,0 0.11,-0.02 2.17,4.61 7.26,8.53 13.3399,11.19 6.56,2.87 14.1,4.51 21.2,3.64 1.89,-0.38 3.74,0.85 4.13,2.74 0.38,1.9 -0.85,3.75 -2.74,4.13 -10.13,2.87 -21.79,1.62 -31.2999,-2.13 -8.31,-3.29 -14.63,-8.91 -17.82,-15.1 -1.52,-3.09 -1.43,-7.02 0.51,-11.4 2.49,-5.63 9.28,-12.89 18.76,-18.78 4.9799,-3.1 10.7399,-5.82 16.8199,-7.77 9.16,-2.95 19,-4.2 28.1299,-2.94 1.65,0.24 3.8,0.87 5.6,2.95 2.53,2.93 5.86,10.31 5.94,19.42 0.08,9.02 -2.33,19.68 -10.76,28.06 -1.27,1.46 -3.4799,1.62 -4.9399,0.35 -1.46,-1.27 -1.62,-3.49 -0.35,-4.94 3.5199,-4.71 4.9699,-9.87 5.4199,-14.77 0.57,-6.09 -0.55,-14.59 -2.31,-17.87 z m -49.6698,22.91 c 0.06,0.14 0.09,0.26 0.04,0.31 -0.03,-0.08 -0.07,-0.16 -0.1,-0.24 0.02,-0.02 0.04,-0.04 0.06,-0.07 z m 49.6698,-22.92 c -0.6699,-1.25 -1.4299,-1.74 -2.2199,-1.05 -0.85,0.73 1.36,1 2.2199,1.05 z m 0.07,0.01 c 0.05,0 0.09,0 0.13,0 -0.04,0 -0.09,0 -0.13,0 z"
     id="path1156"
     style="stroke:none;stroke-width:0.168941" /><path
     d="m 3573.1152,2949.6461 c -1.87,-0.45 -3.03,-2.35 -2.58,-4.23 0.46,-1.88 2.35,-3.04 4.23,-2.58 7.67,0.8 16.48,0.88 25.8599,1.27 3.41,0.15 6.84,0.35 10.29,0.6 2.28,0.16 4.57,0.31 6.83,0.61 5.86,0.76 11.56,1.81 16.95,2.74 10.3299,1.78 19.1599,3.59 25.4299,4.11 1.93,-0.09 3.57,1.41 3.66,3.34 0.08,1.94 -1.42,3.57 -3.35,3.66 -6.46,1.12 -15.82,2.27 -26.7499,2.51 -5.64,0.13 -11.62,0.08 -17.7,-0.47 -2.34,-0.21 -4.67,-0.6 -7,-1.02 -3.52,-0.62 -6.99,-1.34 -10.41,-2.21 -9.3999,-2.42 -18.0199,-5.44 -25.4599,-8.33 z"
     id="path1158"
     style="stroke:none;stroke-width:0.168941" /><path
     d="m 3775.6247,2669.4862 c 1.87,0.51 2.97,2.44 2.46,4.3 -0.5,1.87 -2.43,2.97 -4.3,2.46 -20.3899,-4.88 -42.2399,-20.23 -59.7698,-38.46 -12.73,-13.25 -23.09,-28.04 -29.1,-41.3 -3.78,-8.34 -5.75,-16.18 -5.88,-22.82 -0.09,-6.14 4.39,-14.91 13.28,-22.97 10.89,-9.89 28.3399,-19.43 48.0999,-22.01 22.4199,-2.92 47.7299,2.89 69.4098,25.97 16.68,18.14 22.12,42.97 19.64,66.07 -2.91,27.12 -16.47,51.43 -32.9499,58.86 -1.74,0.84 -3.84,0.11 -4.68,-1.63 -0.85,-1.74 -0.12,-3.84 1.62,-4.68 14.0299,-7.33 23.9299,-29.57 25.2099,-53.41 1.05,-19.73 -4.01,-40.76 -18.92,-55.47 -18.2399,-18.37 -38.8999,-22.41 -57.2098,-19.89 -16.33,2.25 -30.8899,9.63 -40.0799,17.62 -2.99,2.59 -5.42,5.18 -7.04,7.67 -0.93,1.45 -1.74,2.7 -1.77,3.88 -0.13,6.55 2.38,14.64 6.56,23.33 5.2,10.81 12.92,22.42 22.1599,33.2 15.33,17.88 34.5899,33.58 53.2599,39.28 z"
     id="path1160"
     style="stroke:none;stroke-width:0.168941" /><path
     d="m 3804.8546,2681.4862 c -1,-1.65 -0.47,-3.81 1.19,-4.81 1.65,-1.01 3.81,-0.48 4.81,1.18 17.02,25.83 25.44,57.69 25.74,90.7999 0.11,12.66 -1.05,25.47 -3.32,38.16 -1.5,8.37 -3.48,16.7 -6.06,24.84 -6.47,20.41 -16.07,39.87 -28.21,57.11 -18.7499,26.63 -43.6298,47.91 -72.9898,59.77 -1.77,0.78 -3.84,-0.01 -4.63,-1.78 -0.79,-1.76 0.01,-3.84 1.77,-4.63 26.74,-13.1 48.2399,-34.95 64.4699,-60.92 10.4399,-16.69 18.4899,-35.16 24.3199,-54.29 2.32,-7.62 4.38,-15.31 6.01,-23.08 2.47,-11.78 4.04,-23.66 4.63,-35.47 1.56,-31.0699 -3.61,-61.4699 -17.73,-86.8799 z"
     id="path1162"
     style="stroke:none;stroke-width:0.168941" /><path
     d="m 3719.9748,2957.8761 c -1.16,-1.55 -0.84,-3.75 0.7,-4.91 1.55,-1.16 3.75,-0.85 4.91,0.7 1.16,1.36 4.57,2.27 9.25,3.42 11,2.68 28.5899,4.05 46.7099,2.25 9.45,-0.94 18.9799,-2.88 27.8399,-5.99 8.66,-3.04 16.73,-7.16 22.97,-13.44 1.41,-1.36 2.45,-2.52 2.39,-3.93 -0.09,-1.82 -1.15,-3.58 -2.74,-5.3 -3.66,-3.96 -9.43,-7.58 -16.31,-10.5 -12.25,-5.19 -27.6199,-8.39 -41.3899,-6.95 -1.91,0.31 -3.71,-1 -4.01,-2.91 -0.31,-1.91 0.99,-3.71 2.9,-4.01 12.53,-2.74 26.6899,-2.14 39.2499,0.66 9.96,2.23 18.82,6 25.2099,10.43 7.46,5.18 11.43,11.75 11.9,18.14 0.36,4.96 -1.46,10.13 -6.17,15.22 -6.3399,6.56 -14.0499,11.71 -22.7099,15.24 -11.83,4.83 -25.2799,6.92 -38.3499,7.13 -16.54,0.26 -32.4499,-2.44 -43.9099,-5.85 -9.93,-2.95 -16.63,-6.66 -18.44,-9.4 z"
     id="path1164"
     style="stroke:none;stroke-width:0.168941" /><path
     d="m 3724.5848,2945.3261 c 18.58,-8.29 35.0799,-20.56 49.1699,-35.56 35.3199,-5.67 83.0098,16.36 64.1098,35.56 -32.8299,33.37 -108.3197,19.46 -115.0797,10.44 1.18,-3.51 1.71,-7.06 1.8,-10.44 z"
     id="path1166"
     style="stroke:none;stroke-width:0.168941" /><path
     d="m 3506.3954,2613.5962 c 1.38,1.36 1.4,3.58 0.04,4.96 -1.35,1.38 -3.57,1.4 -4.95,0.05 -15.09,-13.41 -15.34,-31.54 -7.76,-48.97 5.74,-13.2 16.3,-25.94 28.3399,-35.61 8.66,-6.96 18.19,-12.16 27.1,-15.15 9.9599,-3.05 19.6699,-4.37 28.7799,-3.98 16.26,0.69 30.6199,6.22 41.0799,14.49 20.8899,16.51 27.4399,43.4 4.73,64.94 -1.34,1.39 -3.56,1.43 -4.95,0.09 -1.39,-1.34 -1.44,-3.56 -0.09,-4.96 15.9,-18.08 9.62,-38.1 -7.37,-49.56 -8.9,-6 -20.6399,-9.5 -33.7499,-9.53 -7.51,-0.02 -15.47,1.06 -23.6299,3.72 -9.27,2.72 -19.23,8.52 -28.17,15.84 -8.73,7.16 -16.5599,15.7 -21.5299,24.85 -7.11,13.09 -8.6,27.19 2.13,38.82 z"
     id="path1168"
     style="stroke:none;stroke-width:0.168941" /><path
     d="m 3500.0754,2606.5462 c -0.35,1.9 -2.19,3.15 -4.09,2.79 -1.9,-0.36 -3.15,-2.19 -2.79,-4.09 1.81,-15.51 13.38,-31.18 29.8799,-43.26 5.6,-4.1 11.81,-7.65 18.35,-10.65 4.29,-1.98 8.73,-3.69 13.27,-5.01 8.7299,-2.54 17.7399,-3.9 26.4599,-3.89 22.3999,0.02 42.9199,8.26 54.0299,27.7 1.0699,1.62 0.6199,3.79 -0.99,4.86 -1.62,1.07 -3.79,0.62 -4.86,-0.99 -9.71,-12.77 -24.25,-17.39 -39.9199,-17.47 -9.86,-0.04 -20.09,2.03 -30.14,5.11 -6.1999,1.9 -12.3399,4.08 -18.1699,6.77 -6.04,2.78 -11.79,5.88 -16.99,9.42 -11.8999,8.09 -21.1399,17.78 -24.0399,28.71 z"
     id="path1170"
     style="stroke:none;stroke-width:0.168941" /><path
     d="m 3632.2651,2572.0762 c -1.34,6.68 -4.88,13.43 -11.03,19.82 -10.62,-2.6 -21.63,-3.96 -32.9099,-3.96 -31.05,0 -60.0099,10.33 -84.3898,28.16 -3.25,-3.2 -5.65,-6.62 -7.3,-10.2 8.25,-43.74 103.6497,-82.25 135.6297,-33.82 z"
     id="path1172"
     style="stroke:none;stroke-width:0.168941" /><path
     d="m 3663.755,2596.8062 c 3.64,0.74 7.66,1.83 11.71,3.23 14.6399,5.06 29.6199,12.76 29.6199,12.76 1.82,0.66 2.77,2.66 2.12,4.49 -0.65,1.82 -2.66,2.77 -4.48,2.11 0,0 -15.89,-3.31 -30.6799,-5.66 -4.18,-0.66 -8.23,-1.25 -11.78,-1.63 -2.54,-0.27 -4.76,-0.49 -6.43,-0.29 -2.76,0.28 -5.47,-0.9 -7.15,-3.1 -1.68,-2.21 -2.1,-5.13 -1.1,-7.71 0,0 3.67,-8.68 8.36,-18.31 6.18,-12.73 13.89,-26.95 13.89,-26.95 0.7,-1.8 2.73,-2.7 4.54,-2.01 1.8,0.7 2.7,2.73 2,4.54 0,0 -3.83,15.71 -7.8,29.29 -0.96,3.31 -1.94,6.47 -2.82,9.24 z"
     id="path1174"
     style="stroke:none;stroke-width:0.168941" /><path
     d="m 3660.955,2538.5662 c 0,0 0,0 0,0 -0.9,-0.98 -1.6,2.8 -1.53,4.62 0.03,0.89 -0.08,1.92 0.69,2.6 1.64,1.5 6.26,3.29 11.33,5.17 10.0099,3.71 21.3599,7.3 21.3599,7.3 1.9,0.37 3.15,2.2 2.79,4.1 -0.36,1.9 -2.2,3.15 -4.1,2.79 0,0 -15.44,-1.21 -26.9899,-3.42 -6.05,-1.15 -10.98,-3.03 -13.21,-4.48 -5.79,-3.96 -7.75,-10.31 -7.45,-16.4 0.17,-3.56 1.35,-7.02 2.93,-9.74 1.67,-2.87 3.9,-4.98 6.07,-6.14 4.19,-2.1 9.42,-2.66 14.92,-1.17 4.03,1.09 8.25,2.97 12.0099,5.13 4.15,2.39 7.65,4.94 9.7,6.14 3.3,1.96 6.11,4.32 7.8,7.25 1.96,3.42 2.98,7.12 1.92,10.93 -0.29,1.92 -2.08,3.24 -3.99,2.95 -1.91,-0.29 -3.23,-2.08 -2.94,-3.99 0.05,-1.8 -1.01,-3.23 -2.23,-4.53 -1.25,-1.33 -3.07,-2.11 -5.04,-2.75 -3.34,-1.16 -10.6899,-4.49 -17.6799,-6.09 -2.37,-0.55 -4.66,-1.07 -6.36,-0.27 z m 0,0 c 0.09,0.11 -0.26,0.14 -0.38,0.21 0.13,-0.08 0.25,-0.15 0.38,-0.21 z"
     id="path1176"
     style="stroke:none;stroke-width:0.168941" /><path
     d="m 3799.9846,2577.7462 c -0.89,1.71 -3.0099,2.38 -4.7299,1.49 -1.72,-0.89 -2.39,-3.01 -1.49,-4.72 1.54,-3.35 1.7,-7.63 1.05,-12.37 -1.23,-9.04 -5.95,-19.53 -12.72,-29.03 -8.68,-12.16 -20.94,-22.65 -34.7299,-24.82 -7.56,-1.2999 -17.01,-2.0699 -27.58,-2.6299 -8.7499,-0.47 -18.2699,-0.71 -28.1499,-0.82 -18.4399,-0.22 -38.1199,0.15 -56.4698,1.68 -19.86,1.6599 -38.09,4.3699 -51.3499,8.8699 -8.21,2.78 -14.47,5.97 -17.56,10.2 -1.07,1.61 -3.25,2.05 -4.86,0.98 -1.61,-1.07 -2.05,-3.25 -0.98,-4.86 3.34,-5.51 10.4,-10.47 20.18,-14.6999 13.5,-5.83 32.3699,-10.37 53.0799,-13.43 15.7099,-2.32 32.4699,-3.8 48.6598,-4.38 7.15,-0.25 14.18,-0.32 20.96,-0.15 18.3699,0.48 34.8599,2.38 46.8399,4.88 16.8699,3.85 31.8299,17.1199 41.3899,32.9899 11.0699,18.37 14.9199,39.58 8.4599,50.82 z"
     id="path1178"
     style="stroke:none;stroke-width:0.168941" /><path
     d="m 3544.9353,2493.4463 c 1.92,0.26 3.27,2.02 3.02,3.94 -0.26,1.91 -2.02,3.26 -3.94,3.01 0,0 -9.58,0.32 -22.65,8.6899 -4.04,2.59 -8.2799,6.03 -12.8999,10.36 -2.82,2.64 -5.69,5.66 -8.77,9 -2.69,2.93 -5.57,6.05 -8.48,9.58 -3.82,4.65 -7.81,9.76 -11.83,15.7 -3.5,5.18 -7.0999,10.71 -10.6499,17.02 -0.77,1.78 -2.84,2.59 -4.61,1.83 -1.78,-0.77 -2.6,-2.84 -1.83,-4.61 2.26,-7.21 4.61,-13.69 7.19,-19.67 3.08,-7.12 6.3699,-13.33 9.8299,-18.84 2.74,-4.37 5.57,-8.26 8.52,-11.64 3.47,-3.98 7.07,-7.29 10.61,-10.0599 5.95,-4.65 11.67,-7.89 16.9699,-10.08 17.62,-7.3 29.52,-4.23 29.52,-4.23 z"
     id="path1180"
     style="stroke:none;stroke-width:0.168941" /><path
     d="m 3459.7055,2506.1163 c 1.4,-1.33 3.62,-1.28 4.95,0.12 1.34,1.4 1.28,3.6199 -0.12,4.9599 0,0 -2.1,4.22 -4.6,11.31 -0.8,2.25 -1.42,4.76 -2.26,7.53 -0.48,1.56 -0.94,3.19 -1.52,4.87 -0.8,2.34 -1.84,4.67 -2.65,7.3 -1.35,4.43 -2.84,8.89 -3.26,14.35 0.25,1.91 -1.1,3.68 -3.02,3.93 -1.918,0.25 -3.679,-1.1 -3.931,-3.02 -1.507,-4.12 -2.364,-7.87 -2.939,-11.74 -0.429,-2.88 -0.484,-5.57 -0.374,-8.25 0.127,-3.13 0.615,-6.07 1.412,-8.8 0.459,-1.57 1.091,-3.03 1.778,-4.4 1.133,-2.27 2.325,-4.29 3.664,-6.09 1.58,-2.1 3.06,-3.85 4.6,-5.35 4.8,-4.65 8.27,-6.7199 8.27,-6.7199 z"
     id="path1182"
     style="stroke:none;stroke-width:0.168941" /><path
     d="m 3811.2446,2515.5362 c -1.49,-1.23 -1.7,-3.44 -0.47,-4.93 1.23,-1.5 3.44,-1.71 4.94,-0.48 0,0 11.5,7.1 23.7199,22.59 2.55,3.23 5.01,6.88 7.37,10.9 1.45,2.45 2.86,5.03 4.07,7.81 2.75,6.3 4.95,13.34 6.42,20.99 1.92,9.92 2.51,20.68 1.71,32.43 0.08,1.93 -1.43,3.56 -3.36,3.64 -1.94,0.07 -3.57,-1.44 -3.64,-3.37 -1.08,-7.04 -2.8,-13.46 -4.65,-19.63 -2.01,-6.7 -4.47,-12.78 -6.95,-18.53 -1.61,-3.74 -3.2999,-7.28 -4.8899,-10.68 -1.76,-3.74 -3.39,-7.31 -5.08,-10.62 -2.37,-4.66 -4.61,-8.85 -6.82,-12.53 -6.81,-11.29 -12.37,-17.59 -12.37,-17.59 z"
     id="path1184"
     style="stroke:none;stroke-width:0.168941" /><path
     d="m 3866.7445,2538.1862 c -0.91,-1.71 -0.27,-3.84 1.43,-4.75 1.71,-0.91 3.83,-0.27 4.75,1.43 0,0 2.83,3.33 6.5399,9.59 1.19,2.01 2.35,4.24 3.51,6.84 0.99,2.21 1.86,4.61 2.64,7.23 0.47,1.6 0.91,3.26 1.16,5.01 0.56,4.07 0.64,8.4 0.19,12.91 -0.61,6.19 -2.1,12.31 -4.49,18.73 -0.33,1.91 -2.15,3.18 -4.05,2.85 -1.9099,-0.33 -3.1899,-2.15 -2.8499,-4.06 -0.09,-4.02 -0.68,-7.67 -1.24,-11.42 -0.46,-3.08 -1.17,-5.92 -1.72,-8.8 -0.59,-3.01 -1.33,-5.86 -1.79,-8.64 -0.64,-3.83 -0.95,-7.4 -1.4,-10.62 -1.42,-9.94 -2.68,-16.3 -2.68,-16.3 z"
     id="path1186"
     style="stroke:none;stroke-width:0.168941" /><ellipse
     cx="3575.6943"
     cy="2765.4365"
     rx="14.847569"
     ry="15.990282"
     id="ellipse1188"
     style="stroke:none;stroke-width:0.244362" /><path
     d="m 3578.7552,2767.1061 c -0.93,1.7 -3.06,2.32 -4.76,1.39 -1.69,-0.93 -2.32,-3.06 -1.39,-4.75 0,0 3.02,-9.56 7.89,-21.6999 1.09,-2.74 2.33,-5.54 3.68,-8.39 0.86,-1.82 1.73,-3.67 2.75,-5.43 2.62,-4.53 5.55,-8.83 8.33,-12.79 7.4899,-10.69 13.8699,-18.42 13.8699,-18.42 0.93,-1.7 3.06,-2.32 4.76,-1.39 1.69,0.93 2.32,3.06 1.39,4.76 0,0 -3.07,9.54 -8.04,21.61 -1.84,4.48 -3.87,9.26 -6.28,13.9 -0.94,1.81 -2.02,3.54 -3.09,5.25 -1.68,2.67 -3.3699,5.22 -5.0799,7.62 -7.61,10.6499 -14.03,18.3399 -14.03,18.3399 z"
     id="path1190"
     style="stroke:none;stroke-width:0.168941" /><path
     d="m 3607.5751,2707.6362 c -0.48,0.05 -0.98,0.08 -1.48,0.1 -6.23,0.26 -12.8799,-0.32 -12.8799,-0.32 -1.87,0.5 -3.79,-0.61 -4.3,-2.48 -0.5,-1.87 0.61,-3.79 2.48,-4.29 0,0 5.4699,-3.83 10.9999,-6.72 1.65,-0.86 3.23,-1.53 4.58,-2.01 1.85,-0.67 3.17,-0.89 3.17,-0.89 2.06,-0.56 4.27,-0.26 6.11,0.83 1.84,1.09 3.16,2.88 3.67,4.96 0,0 0.45,3.4 0.5,7.4 0.07,5.52 -0.48,11.42 -0.48,11.42 0.46,1.88 -0.69,3.78 -2.57,4.23 -1.88,0.47 -3.78,-0.69 -4.24,-2.57 0,0 -3.09,-4.81 -5.56,-9.66 z"
     id="path1192"
     style="stroke:none;stroke-width:0.168941" /><path
     d="m 3576.6952,2768.7761 c -1.86,0.56 -3.81,-0.49 -4.37,-2.34 -0.56,-1.85 0.49,-3.81 2.35,-4.37 0,0 14.89,-6.52 34.3999,-14.0099 4.44,-1.71 9.13,-3.38 13.94,-5.03 3.08,-1.05 6.21,-2.12 9.38,-3.02 8.1299,-2.33 16.3299,-4.26 23.9499,-6 20.3599,-4.63 36.3699,-7.47 36.3699,-7.47 1.86,-0.56 3.81,0.49 4.37,2.34 0.56,1.86 -0.49,3.81 -2.34,4.37 0,0 -14.92,6.47 -34.4599,13.85 -7.31,2.75 -15.22,5.6699 -23.28,8.2199 -3.1399,0.99 -6.3399,1.83 -9.4899,2.65 -4.92,1.29 -9.75,2.48 -14.4,3.51 -20.4099,4.52 -36.4199,7.3 -36.4199,7.3 z"
     id="path1194"
     style="stroke:none;stroke-width:0.168941" /><path
     d="m 3683.7749,2732.6562 c -0.12,-0.1 -0.25,-0.2 -0.37,-0.31 -4.68,-3.82 -9.0699,-8.63 -9.0699,-8.63 -1.71,-0.89 -2.37,-3.01 -1.48,-4.73 0.9,-1.71 3.02,-2.38 4.7299,-1.48 0,0 6.45,0.85 12.26,2.5 4.17,1.19 7.59,2.8 7.59,2.8 1.96,1.02 3.41,2.82 4,4.95 0.59,2.13 0.27,4.41 -0.88,6.3 0,0 -0.69,1.16 -1.93,2.73 -0.91,1.14 -2.05,2.44 -3.37,3.8 -4.32,4.47 -9.39,8.9 -9.39,8.9 -1.01,1.65 -3.17,2.17 -4.82,1.16 -1.65,-1.01 -2.17,-3.17 -1.16,-4.82 0,0 1.63,-6.53 3.63,-12.42 0.09,-0.25 0.18,-0.5 0.26,-0.75 z"
     id="path1196"
     style="stroke:none;stroke-width:0.168941" /><path
     d="m 3572.1852,2765.6061 c -0.11,-1.93 1.38,-3.58 3.32,-3.68 1.93,-0.1 3.58,1.38 3.68,3.32 0,0 2.69,14.39 5.21,33.1 0.57,4.25 1.06,8.71 1.48,13.27 0.27,2.93 0.55,5.89 0.65,8.87 0.28,7.61 0.16,15.2 -0.02,22.24 -0.45,18.85 -1.6,33.46 -1.6,33.46 0.1,1.93 -1.39,3.58 -3.32,3.68 -1.93,0.1 -3.58,-1.39 -3.68,-3.32 0,0 -2.64,-14.41 -5.04,-33.11 -0.89,-6.99 -1.8,-14.53 -2.31,-22.13 -0.2,-2.97 -0.23,-5.94 -0.26,-8.88 -0.05,-4.59 -0.03,-9.07 0.1,-13.36 0.58,-18.86 1.79,-33.46 1.79,-33.46 z"
     id="path1198"
     style="stroke:none;stroke-width:0.168941" /><path
     d="m 3560.3852,2863.6361 c -1.49,-1.23 -1.71,-3.44 -0.48,-4.93 1.23,-1.5 3.44,-1.71 4.93,-0.49 0,0 7.27,3.02 13.49,6.57 0.96,0.55 1.87,1.1 2.72,1.64 0.8,-0.6 1.66,-1.23 2.56,-1.86 5.91,-4.14 12.8699,-8.03 12.8699,-8.03 1.37,-1.35 3.59,-1.34 4.95,0.03 1.36,1.38 1.35,3.6 -0.03,4.96 0,0 -3.96,6.91 -8.1599,12.78 -3.1,4.31 -6.2,7.75 -6.2,7.75 -2.92,2.88 -7.54,3.09 -10.71,0.49 0,0 -3.45,-3 -6.87,-6.95 -4.69,-5.41 -9.07,-11.96 -9.07,-11.96 z"
     id="path1200"
     style="stroke:none;stroke-width:0.168941" /><path
     d="m 3600.9451,2605.7062 c 0.24,-1.92 1.99,-3.28 3.91,-3.05 1.92,0.24 3.28,1.99 3.05,3.91 0,0 1.56,3.12 2.49,8.39 0.3,1.72 0.59,3.56 0.33,5.43 -0.27,1.89 -1.08,3.55 -1.81,5.16 -2.18,4.79 -4.29,7.55 -4.29,7.55 -0.23,1.92 -1.99,3.29 -3.9,3.05 -1.92,-0.23 -3.29,-1.99 -3.05,-3.9 0,0 -1.37,-3.19 -2.3199,-8.37 -0.32,-1.75 -0.71,-3.55 -0.5,-5.45 0.2,-1.88 0.9199,-3.59 1.6299,-5.19 2.18,-4.88 4.46,-7.53 4.46,-7.53 z"
     id="path1202"
     style="stroke:none;stroke-width:0.168941" /><path
     d="m 3671.615,2633.0962 c 1.16,-1.55 3.36,-1.87 4.9099,-0.71 1.55,1.16 1.87,3.36 0.71,4.91 0,0 -0.59,3.82 -2.5499,9.25 -0.41,1.14 -0.9,2.21 -1.51,3.34 -0.37,0.7 -0.75,1.41 -1.27,2.03 -1.36,1.61 -2.95,2.88 -4.5,4.07 -4.53,3.46 -8.02,5.16 -8.02,5.16 -1.16,1.55 -3.35,1.86 -4.9,0.7 -1.55,-1.15 -1.87,-3.35 -0.71,-4.9 0,0 0.64,-3.83 2.69,-9.15 0.7,-1.82 1.47,-3.7 2.64,-5.47 0.44,-0.66 1.01,-1.23 1.58,-1.79 0.91,-0.9 1.81,-1.67 2.78,-2.38 4.66,-3.41 8.15,-5.06 8.15,-5.06 z"
     id="path1204"
     style="stroke:none;stroke-width:0.168941" /><path
     d="m 3715.1149,2699.4562 c 1.7599,-0.82 3.8499,-0.05 4.6599,1.7 0.81,1.76 0.05,3.84 -1.71,4.65 0,0 -1.41,2.74 -4.9699,6.17 -1.13,1.08 -2.34,2.2 -3.88,2.88 -1.57,0.7 -3.2,0.79 -4.79,0.94 -4.82,0.45 -7.84,-0.03 -7.84,-0.03 -1.75,0.81 -3.84,0.04 -4.65,-1.71 -0.81,-1.76 -0.05,-3.84 1.71,-4.66 0,0 1.57,-2.61 5.04,-6 1.14,-1.11 2.26,-2.3 3.81,-3.04 1.52,-0.74 3.15,-0.94 4.71,-1.1 4.92,-0.5 7.91,0.2 7.91,0.2 z"
     id="path1206"
     style="stroke:none;stroke-width:0.168941" /><path
     d="m 3724.5448,2779.5061 c 1.94,0.04 3.48,1.63 3.45,3.57 -0.03,1.93 -1.63,3.47 -3.56,3.44 0,0 -3.38,1.76 -8.8699,3.36 -1.14,0.34 -2.28,0.57 -3.54,0.74 -0.77,0.11 -1.56,0.21 -2.35,0.16 -2.08,-0.16 -4.01,-0.7 -5.86,-1.26 -5.39,-1.64 -8.76,-3.47 -8.76,-3.47 -1.93,-0.03 -3.48,-1.63 -3.45,-3.56 0.04,-1.94 1.63,-3.48 3.57,-3.45 0,0 3.41,-1.72 8.86,-3.18 1.87,-0.5 3.81,-0.99 5.9,-1.07 0.79,-0.03 1.57,0.1 2.34,0.23 1.26,0.21 2.39,0.48 3.52,0.85 5.4299,1.78 8.7499,3.64 8.7499,3.64 z"
     id="path1208"
     style="stroke:none;stroke-width:0.168941" /><path
     d="m 3699.2749,2862.9161 c 1.67,0.99 2.21,3.14 1.22,4.8 -0.99,1.67 -3.14,2.21 -4.8,1.22 0,0 -3.51,0.17 -8.71,-1.11 -1.71,-0.42 -3.51,-0.9 -5.12,-1.9 -1.64,-1.01 -2.83,-2.43 -4.02,-3.75 -3.5199,-3.93 -5.2099,-6.98 -5.2099,-6.98 -1.66,-0.99 -2.21,-3.14 -1.22,-4.8 0.99,-1.67 3.14,-2.21 4.8099,-1.22 0,0 3.48,0.04 8.61,1.26 1.73,0.42 3.55,0.79 5.21,1.75 1.65,0.95 2.93,2.3 4.11,3.6 3.6,3.97 5.12,7.13 5.12,7.13 z"
     id="path1210"
     style="stroke:none;stroke-width:0.168941" /><path
     d="m 3638.445,2917.4561 c 0.59,1.84 -0.44,3.81 -2.28,4.4 -1.8399,0.59 -3.8199,-0.44 -4.3999,-2.28 0,0 -2.62,-1.94 -5.61,-6.09 -0.96,-1.34 -1.95,-2.77 -2.46,-4.47 -0.52,-1.73 -0.43,-3.46 -0.41,-5.12 0.08,-5.03 0.9,-8.17 0.9,-8.17 -0.59,-1.84 0.43,-3.81 2.28,-4.4 1.84,-0.58 3.81,0.44 4.4,2.28 0,0 2.47,2.08 5.4399,6.15 0.99,1.35 2.05,2.7 2.63,4.41 0.56,1.69 0.59,3.43 0.57,5.07 -0.04,5.12 -1.06,8.22 -1.06,8.22 z"
     id="path1212"
     style="stroke:none;stroke-width:0.168941" /><path
     d="m 3567.1452,2930.1461 c -0.4,1.89 -2.26,3.1 -4.15,2.69 -1.9,-0.4 -3.11,-2.26 -2.7,-4.15 0,0 -1.28,-3.33 -1.72,-8.74 -0.15,-1.78 -0.26,-3.67 0.17,-5.55 0.44,-1.9 1.4,-3.51 2.28,-5.09 2.59,-4.67 4.95,-7.31 4.95,-7.31 0.41,-1.9 2.27,-3.11 4.16,-2.7 1.89,0.4 3.1,2.26 2.7,4.16 0,0 1.08,3.38 1.55,8.7 0.16,1.79 0.38,3.66 0,5.58 -0.37,1.89 -1.25,3.57 -2.11,5.13 -2.6,4.75 -5.13,7.28 -5.13,7.28 z"
     id="path1214"
     style="stroke:none;stroke-width:0.168941" /><path
     d="m 3494.4254,2893.8861 c -1.48,1.24 -3.69,1.04 -4.93,-0.44 -1.24,-1.49 -1.05,-3.7 0.44,-4.94 0,0 0.67,-3.03 3.25,-7.28 0.81,-1.35 1.7,-2.76 3.03,-3.83 1.34,-1.08 2.91,-1.6 4.41,-2.17 4.56,-1.71 7.63,-2.04 7.63,-2.04 1.48,-1.24 3.69,-1.04 4.93,0.44 1.25,1.49 1.05,3.7 -0.44,4.94 0,0 -0.86,2.96 -3.36,7.14 -0.82,1.38 -1.61,2.83 -2.92,3.96 -1.28,1.12 -2.82,1.74 -4.29,2.31 -4.64,1.78 -7.75,1.91 -7.75,1.91 z"
     id="path1216"
     style="stroke:none;stroke-width:0.168941" /><path
     d="m 3457.3955,2836.6561 c -1.89,0.42 -3.76,-0.79 -4.17,-2.68 -0.41,-1.89 0.79,-3.76 2.68,-4.17 0,0 2.32,-2.47 6.88,-5.08 1.48,-0.84 3.07,-1.7 4.88,-2.07 1.83,-0.36 3.61,-0.13 5.33,0.04 5.1399,0.5 8.3299,1.59 8.3299,1.59 1.89,-0.41 3.76,0.79 4.17,2.68 0.41,1.89 -0.79,3.76 -2.68,4.17 0,0 -2.45,2.31 -6.92,4.9 -1.4899,0.87 -3.0199,1.82 -4.8399,2.25 -1.79,0.42 -3.59,0.29 -5.29,0.14 -5.23,-0.48 -8.37,-1.77 -8.37,-1.77 z"
     id="path1218"
     style="stroke:none;stroke-width:0.168941" /><path
     d="m 3448.1955,2756.5061 c -1.93,-0.13 -3.389,-1.81 -3.256,-3.74 0.133,-1.9299 1.806,-3.3899 3.736,-3.2499 0,0 3.2,-1.58 8.49,-2.93 1.08,-0.28 2.15,-0.45 3.35,-0.56 0.73,-0.07 1.47,-0.14 2.21,-0.05 1.95,0.26 3.71,0.9 5.42,1.55 5.02,1.91 8.0099,3.88 8.0099,3.88 1.93,0.13 3.39,1.8099 3.26,3.7399 -0.14,1.93 -1.81,3.39 -3.74,3.25 0,0 -3.2299,1.55 -8.4699,2.75 -1.78,0.41 -3.61,0.8 -5.58,0.79 -0.74,-0.01 -1.47,-0.18 -2.19,-0.35 -1.16,-0.27 -2.2,-0.59 -3.24,-1.02 -5.05,-2.06 -8,-4.06 -8,-4.06 z"
     id="path1220"
     style="stroke:none;stroke-width:0.168941" /><path
     d="m 3465.5555,2688.4862 c -1.79,-0.75 -2.62,-2.81 -1.87,-4.59 0.75,-1.78 2.81,-2.62 4.59,-1.87 0,0 3.2,-0.72 8.3199,-0.28 1.65,0.14 3.4,0.32 5.03,1.04 1.66,0.74 2.93,1.93 4.19,3.03 3.8,3.33 5.68,6 5.68,6 1.78,0.76 2.61,2.81 1.86,4.6 -0.75,1.78 -2.81,2.62 -4.59,1.86 0,0 -3.22,0.53 -8.26,0.13 -1.67,-0.13 -3.41,-0.21 -5.09,-0.88 -1.6599,-0.67 -3.0099,-1.79 -4.2599,-2.87 -3.89,-3.37 -5.6,-6.17 -5.6,-6.17 z"
     id="path1222"
     style="stroke:none;stroke-width:0.168941" /><path
     d="m 3512.2854,2630.2962 c -1.04,-1.63 -0.57,-3.8 1.06,-4.84 1.6299,-1.04 3.7999,-0.57 4.8399,1.06 0,0 3.24,1.46 7.36,4.98 1.35,1.15 2.75,2.41 3.77,4.04 1.02,1.66 1.47,3.48 1.95,5.21 1.43,5.14 1.61,8.67 1.61,8.67 1.05,1.62 0.57,3.79 -1.06,4.84 -1.63,1.04 -3.8,0.57 -4.84,-1.06 0,0 -3.13,-1.63 -7.21,-5.07 -1.37,-1.17 -2.84,-2.33 -3.91,-3.95 -1.07,-1.6 -1.6199,-3.41 -2.1099,-5.12 -1.48,-5.2 -1.46,-8.76 -1.46,-8.76 z"
     id="path1224"
     style="stroke:none;stroke-width:0.168941" /></g>&#10;</svg>
